<?xml version="1.0" encoding="us-ascii" standalone="no"?><svg xmlns="http://www.w3.org/2000/svg" xmlns:xlink="http://www.w3.org/1999/xlink" contentStyleType="text/css" height="965px" preserveAspectRatio="none" style="width:5055px;height:965px;background:#FFFFFF;" version="1.1" viewBox="0 0 5055 965" width="5055px" zoomAndPan="magnify"><defs/><g><!--cluster object_detection--><g id="cluster_object_detection"><path d="M8.5,330 L145.5,330 A3.75,3.75 0 0 1 148,332.5 L155,352.2969 L3453.5,352.2969 A2.5,2.5 0 0 1 3456,354.7969 L3456,955.5 A2.5,2.5 0 0 1 3453.5,958 L8.5,958 A2.5,2.5 0 0 1 6,955.5 L6,332.5 A2.5,2.5 0 0 1 8.5,330 " fill="none" style="stroke:#000000;stroke-width:1.5;"/><line style="stroke:#000000;stroke-width:1.5;" x1="6" x2="155" y1="352.2969" y2="352.2969"/><text fill="#000000" font-family="sans-serif" font-size="14" font-weight="bold" lengthAdjust="spacing" textLength="136" x="10" y="344.9951">object_detection</text></g><!--cluster box_widget.dart--><g id="cluster_box_widget.dart"><path d="M2010.5,438.5 L2142.5,438.5 A3.75,3.75 0 0 1 2145,441 L2152,460.7969 L2275.5,460.7969 A2.5,2.5 0 0 1 2278,463.2969 L2278,600 A2.5,2.5 0 0 1 2275.5,602.5 L2010.5,602.5 A2.5,2.5 0 0 1 2008,600 L2008,441 A2.5,2.5 0 0 1 2010.5,438.5 " fill="none" style="stroke:#000000;stroke-width:1.5;"/><line style="stroke:#000000;stroke-width:1.5;" x1="2008" x2="2152" y1="460.7969" y2="460.7969"/><text fill="#000000" font-family="sans-serif" font-size="14" font-weight="bold" lengthAdjust="spacing" textLength="131" x="2012" y="453.4951">box_widget.dart</text></g><!--cluster camera_view.dart--><g id="cluster_camera_view.dart"><path d="M2570.5,373 L2714.5,373 A3.75,3.75 0 0 1 2717,375.5 L2724,395.2969 L3429.5,395.2969 A2.5,2.5 0 0 1 3432,397.7969 L3432,665.5 A2.5,2.5 0 0 1 3429.5,668 L2570.5,668 A2.5,2.5 0 0 1 2568,665.5 L2568,375.5 A2.5,2.5 0 0 1 2570.5,373 " fill="none" style="stroke:#000000;stroke-width:1.5;"/><line style="stroke:#000000;stroke-width:1.5;" x1="2568" x2="2724" y1="395.2969" y2="395.2969"/><text fill="#000000" font-family="sans-serif" font-size="14" font-weight="bold" lengthAdjust="spacing" textLength="143" x="2572" y="387.9951">camera_view.dart</text></g><!--cluster model_manager.dart--><g id="cluster_model_manager.dart"><path d="M1131.5,721 L1299.5,721 A3.75,3.75 0 0 1 1302,723.5 L1309,743.2969 L1722.5,743.2969 A2.5,2.5 0 0 1 1725,745.7969 L1725,931.5 A2.5,2.5 0 0 1 1722.5,934 L1131.5,934 A2.5,2.5 0 0 1 1129,931.5 L1129,723.5 A2.5,2.5 0 0 1 1131.5,721 " fill="none" style="stroke:#000000;stroke-width:1.5;"/><line style="stroke:#000000;stroke-width:1.5;" x1="1129" x2="1309" y1="743.2969" y2="743.2969"/><text fill="#000000" font-family="sans-serif" font-size="14" font-weight="bold" lengthAdjust="spacing" textLength="167" x="1133" y="735.9951">model_manager.dart</text></g><!--cluster camera_view_singleton.dart--><g id="cluster_camera_view_singleton.dart"><path d="M2304.5,430.5 L2531.5,430.5 A3.75,3.75 0 0 1 2534,433 L2541,452.7969 L2541.5,452.7969 A2.5,2.5 0 0 1 2544,455.2969 L2544,608 A2.5,2.5 0 0 1 2541.5,610.5 L2304.5,610.5 A2.5,2.5 0 0 1 2302,608 L2302,433 A2.5,2.5 0 0 1 2304.5,430.5 " fill="none" style="stroke:#000000;stroke-width:1.5;"/><line style="stroke:#000000;stroke-width:1.5;" x1="2302" x2="2541" y1="452.7969" y2="452.7969"/><text fill="#000000" font-family="sans-serif" font-size="14" font-weight="bold" lengthAdjust="spacing" textLength="226" x="2306" y="445.4951">camera_view_singleton.dart</text></g><!--cluster main.dart--><g id="cluster_main.dart"><path d="M1151.5,406 L1232.5,406 A3.75,3.75 0 0 1 1235,408.5 L1242,428.2969 L1981.5,428.2969 A2.5,2.5 0 0 1 1984,430.7969 L1984,632.5 A2.5,2.5 0 0 1 1981.5,635 L1151.5,635 A2.5,2.5 0 0 1 1149,632.5 L1149,408.5 A2.5,2.5 0 0 1 1151.5,406 " fill="none" style="stroke:#000000;stroke-width:1.5;"/><line style="stroke:#000000;stroke-width:1.5;" x1="1149" x2="1242" y1="428.2969" y2="428.2969"/><text fill="#000000" font-family="sans-serif" font-size="14" font-weight="bold" lengthAdjust="spacing" textLength="80" x="1153" y="420.9951">main.dart</text></g><!--cluster RunModelByCamera.dart--><g id="cluster_RunModelByCamera.dart"><path d="M32.5,414 L233.5,414 A3.75,3.75 0 0 1 236,416.5 L243,436.2969 L1122.5,436.2969 A2.5,2.5 0 0 1 1125,438.7969 L1125,624.5 A2.5,2.5 0 0 1 1122.5,627 L32.5,627 A2.5,2.5 0 0 1 30,624.5 L30,416.5 A2.5,2.5 0 0 1 32.5,414 " fill="none" style="stroke:#000000;stroke-width:1.5;"/><line style="stroke:#000000;stroke-width:1.5;" x1="30" x2="243" y1="436.2969" y2="436.2969"/><text fill="#000000" font-family="sans-serif" font-size="14" font-weight="bold" lengthAdjust="spacing" textLength="200" x="34" y="428.9951">RunModelByCamera.dart</text></g><!--cluster flutter_pytorch--><g id="cluster_flutter_pytorch"><path d="M3482.5,735 L3607.5,735 A3.75,3.75 0 0 1 3610,737.5 L3617,757.2969 L4011.5,757.2969 A2.5,2.5 0 0 1 4014,759.7969 L4014,898.5 A2.5,2.5 0 0 1 4011.5,901 L3482.5,901 A2.5,2.5 0 0 1 3480,898.5 L3480,737.5 A2.5,2.5 0 0 1 3482.5,735 " fill="none" style="stroke:#000000;stroke-width:1.5;"/><line style="stroke:#000000;stroke-width:1.5;" x1="3480" x2="3617" y1="757.2969" y2="757.2969"/><text fill="#000000" font-family="sans-serif" font-size="14" font-weight="bold" lengthAdjust="spacing" textLength="124" x="3484" y="749.9951">flutter_pytorch</text></g><!--cluster pigeon.dart--><g id="cluster_pigeon.dart"><path d="M3506.5,778 L3601.5,778 A3.75,3.75 0 0 1 3604,780.5 L3611,800.2969 L3733.5,800.2969 A2.5,2.5 0 0 1 3736,802.7969 L3736,874.5 A2.5,2.5 0 0 1 3733.5,877 L3506.5,877 A2.5,2.5 0 0 1 3504,874.5 L3504,780.5 A2.5,2.5 0 0 1 3506.5,778 " fill="none" style="stroke:#000000;stroke-width:1.5;"/><line style="stroke:#000000;stroke-width:1.5;" x1="3504" x2="3611" y1="800.2969" y2="800.2969"/><text fill="#000000" font-family="sans-serif" font-size="14" font-weight="bold" lengthAdjust="spacing" textLength="94" x="3508" y="792.9951">pigeon.dart</text></g><!--cluster flutter_pytorch.dart--><g id="cluster_flutter_pytorch.dart"><path d="M3762.5,778 L3927.5,778 A3.75,3.75 0 0 1 3930,780.5 L3937,800.2969 L3987.5,800.2969 A2.5,2.5 0 0 1 3990,802.7969 L3990,874.5 A2.5,2.5 0 0 1 3987.5,877 L3762.5,877 A2.5,2.5 0 0 1 3760,874.5 L3760,780.5 A2.5,2.5 0 0 1 3762.5,778 " fill="none" style="stroke:#000000;stroke-width:1.5;"/><line style="stroke:#000000;stroke-width:1.5;" x1="3760" x2="3937" y1="800.2969" y2="800.2969"/><text fill="#000000" font-family="sans-serif" font-size="14" font-weight="bold" lengthAdjust="spacing" textLength="164" x="3764" y="792.9951">flutter_pytorch.dart</text></g><!--cluster dart--><g id="cluster_dart"><path d="M4040.5,735 L4076.5,735 A3.75,3.75 0 0 1 4079,737.5 L4086,757.2969 L4282.5,757.2969 A2.5,2.5 0 0 1 4285,759.7969 L4285,898.5 A2.5,2.5 0 0 1 4282.5,901 L4040.5,901 A2.5,2.5 0 0 1 4038,898.5 L4038,737.5 A2.5,2.5 0 0 1 4040.5,735 " fill="none" style="stroke:#000000;stroke-width:1.5;"/><line style="stroke:#000000;stroke-width:1.5;" x1="4038" x2="4086" y1="757.2969" y2="757.2969"/><text fill="#000000" font-family="sans-serif" font-size="14" font-weight="bold" lengthAdjust="spacing" textLength="35" x="4042" y="749.9951">dart</text></g><!--cluster ui--><g id="cluster_ui"><path d="M4064.5,778 L4080.5,778 A3.75,3.75 0 0 1 4083,780.5 L4090,800.2969 L4258.5,800.2969 A2.5,2.5 0 0 1 4261,802.7969 L4261,874.5 A2.5,2.5 0 0 1 4258.5,877 L4064.5,877 A2.5,2.5 0 0 1 4062,874.5 L4062,780.5 A2.5,2.5 0 0 1 4064.5,778 " fill="none" style="stroke:#000000;stroke-width:1.5;"/><line style="stroke:#000000;stroke-width:1.5;" x1="4062" x2="4090" y1="800.2969" y2="800.2969"/><text fill="#000000" font-family="sans-serif" font-size="14" font-weight="bold" lengthAdjust="spacing" textLength="15" x="4066" y="792.9951">ui</text></g><!--cluster flutter--><g id="cluster_flutter"><path d="M1084.5,6 L1139.5,6 A3.75,3.75 0 0 1 1142,8.5 L1149,28.2969 L2198.5,28.2969 A2.5,2.5 0 0 1 2201,30.7969 L2201,303.5 A2.5,2.5 0 0 1 2198.5,306 L1084.5,306 A2.5,2.5 0 0 1 1082,303.5 L1082,8.5 A2.5,2.5 0 0 1 1084.5,6 " fill="none" style="stroke:#000000;stroke-width:1.5;"/><line style="stroke:#000000;stroke-width:1.5;" x1="1082" x2="1149" y1="28.2969" y2="28.2969"/><text fill="#000000" font-family="sans-serif" font-size="14" font-weight="bold" lengthAdjust="spacing" textLength="54" x="1086" y="20.9951">flutter</text></g><!--cluster src--><g id="cluster_src"><path d="M1108.5,49 L1134.5,49 A3.75,3.75 0 0 1 1137,51.5 L1144,71.2969 L2174.5,71.2969 A2.5,2.5 0 0 1 2177,73.7969 L2177,279.5 A2.5,2.5 0 0 1 2174.5,282 L1108.5,282 A2.5,2.5 0 0 1 1106,279.5 L1106,51.5 A2.5,2.5 0 0 1 1108.5,49 " fill="none" style="stroke:#000000;stroke-width:1.5;"/><line style="stroke:#000000;stroke-width:1.5;" x1="1106" x2="1144" y1="71.2969" y2="71.2969"/><text fill="#000000" font-family="sans-serif" font-size="14" font-weight="bold" lengthAdjust="spacing" textLength="25" x="1110" y="63.9951">src</text></g><!--cluster widgets--><g id="cluster_widgets"><path d="M1371.5,92 L1436.5,92 A3.75,3.75 0 0 1 1439,94.5 L1446,114.2969 L2150.5,114.2969 A2.5,2.5 0 0 1 2153,116.7969 L2153,255.5 A2.5,2.5 0 0 1 2150.5,258 L1371.5,258 A2.5,2.5 0 0 1 1369,255.5 L1369,94.5 A2.5,2.5 0 0 1 1371.5,92 " fill="none" style="stroke:#000000;stroke-width:1.5;"/><line style="stroke:#000000;stroke-width:1.5;" x1="1369" x2="1446" y1="114.2969" y2="114.2969"/><text fill="#000000" font-family="sans-serif" font-size="14" font-weight="bold" lengthAdjust="spacing" textLength="64" x="1373" y="106.9951">widgets</text></g><!--cluster framework.dart--><g id="cluster_framework.dart"><path d="M1395.5,135 L1523.5,135 A3.75,3.75 0 0 1 1526,137.5 L1533,157.2969 L1858.5,157.2969 A2.5,2.5 0 0 1 1861,159.7969 L1861,231.5 A2.5,2.5 0 0 1 1858.5,234 L1395.5,234 A2.5,2.5 0 0 1 1393,231.5 L1393,137.5 A2.5,2.5 0 0 1 1395.5,135 " fill="none" style="stroke:#000000;stroke-width:1.5;"/><line style="stroke:#000000;stroke-width:1.5;" x1="1393" x2="1533" y1="157.2969" y2="157.2969"/><text fill="#000000" font-family="sans-serif" font-size="14" font-weight="bold" lengthAdjust="spacing" textLength="127" x="1397" y="149.9951">framework.dart</text></g><!--cluster binding.dart--><g id="cluster_binding.dart"><path d="M1887.5,135 L1988.5,135 A3.75,3.75 0 0 1 1991,137.5 L1998,157.2969 L2126.5,157.2969 A2.5,2.5 0 0 1 2129,159.7969 L2129,231.5 A2.5,2.5 0 0 1 2126.5,234 L1887.5,234 A2.5,2.5 0 0 1 1885,231.5 L1885,137.5 A2.5,2.5 0 0 1 1887.5,135 " fill="none" style="stroke:#000000;stroke-width:1.5;"/><line style="stroke:#000000;stroke-width:1.5;" x1="1885" x2="1998" y1="157.2969" y2="157.2969"/><text fill="#000000" font-family="sans-serif" font-size="14" font-weight="bold" lengthAdjust="spacing" textLength="100" x="1889" y="149.9951">binding.dart</text></g><!--cluster painting--><g id="cluster_painting"><path d="M1132.5,92 L1201.5,92 A3.75,3.75 0 0 1 1204,94.5 L1211,114.2969 L1342.5,114.2969 A2.5,2.5 0 0 1 1345,116.7969 L1345,255.5 A2.5,2.5 0 0 1 1342.5,258 L1132.5,258 A2.5,2.5 0 0 1 1130,255.5 L1130,94.5 A2.5,2.5 0 0 1 1132.5,92 " fill="none" style="stroke:#000000;stroke-width:1.5;"/><line style="stroke:#000000;stroke-width:1.5;" x1="1130" x2="1211" y1="114.2969" y2="114.2969"/><text fill="#000000" font-family="sans-serif" font-size="14" font-weight="bold" lengthAdjust="spacing" textLength="68" x="1134" y="106.9951">painting</text></g><!--cluster border_radius.dart--><g id="cluster_border_radius.dart"><path d="M1156.5,135 L1308.5,135 A3.75,3.75 0 0 1 1311,137.5 L1318,157.2969 L1318.5,157.2969 A2.5,2.5 0 0 1 1321,159.7969 L1321,231.5 A2.5,2.5 0 0 1 1318.5,234 L1156.5,234 A2.5,2.5 0 0 1 1154,231.5 L1154,137.5 A2.5,2.5 0 0 1 1156.5,135 " fill="none" style="stroke:#000000;stroke-width:1.5;"/><line style="stroke:#000000;stroke-width:1.5;" x1="1154" x2="1318" y1="157.2969" y2="157.2969"/><text fill="#000000" font-family="sans-serif" font-size="14" font-weight="bold" lengthAdjust="spacing" textLength="151" x="1158" y="149.9951">border_radius.dart</text></g><!--cluster null--><g id="cluster_null"><path d="M4311.5,778 L4342.5,778 A3.75,3.75 0 0 1 4345,780.5 L4352,800.2969 L4722.5,800.2969 A2.5,2.5 0 0 1 4725,802.7969 L4725,874.5 A2.5,2.5 0 0 1 4722.5,877 L4311.5,877 A2.5,2.5 0 0 1 4309,874.5 L4309,780.5 A2.5,2.5 0 0 1 4311.5,778 " fill="none" style="stroke:#000000;stroke-width:1.5;"/><line style="stroke:#000000;stroke-width:1.5;" x1="4309" x2="4352" y1="800.2969" y2="800.2969"/><text fill="#000000" font-family="sans-serif" font-size="14" font-weight="bold" lengthAdjust="spacing" textLength="30" x="4313" y="792.9951">null</text></g><!--cluster camera--><g id="cluster_camera"><path d="M4751.5,692 L4812.5,692 A3.75,3.75 0 0 1 4815,694.5 L4822,714.2969 L5045.5,714.2969 A2.5,2.5 0 0 1 5048,716.7969 L5048,922.5 A2.5,2.5 0 0 1 5045.5,925 L4751.5,925 A2.5,2.5 0 0 1 4749,922.5 L4749,694.5 A2.5,2.5 0 0 1 4751.5,692 " fill="none" style="stroke:#000000;stroke-width:1.5;"/><line style="stroke:#000000;stroke-width:1.5;" x1="4749" x2="4822" y1="714.2969" y2="714.2969"/><text fill="#000000" font-family="sans-serif" font-size="14" font-weight="bold" lengthAdjust="spacing" textLength="60" x="4753" y="706.9951">camera</text></g><!--cluster src--><g id="cluster_src"><path d="M4775.5,735 L4801.5,735 A3.75,3.75 0 0 1 4804,737.5 L4811,757.2969 L5021.5,757.2969 A2.5,2.5 0 0 1 5024,759.7969 L5024,898.5 A2.5,2.5 0 0 1 5021.5,901 L4775.5,901 A2.5,2.5 0 0 1 4773,898.5 L4773,737.5 A2.5,2.5 0 0 1 4775.5,735 " fill="none" style="stroke:#000000;stroke-width:1.5;"/><line style="stroke:#000000;stroke-width:1.5;" x1="4773" x2="4811" y1="757.2969" y2="757.2969"/><text fill="#000000" font-family="sans-serif" font-size="14" font-weight="bold" lengthAdjust="spacing" textLength="25" x="4777" y="749.9951">src</text></g><!--cluster camera_controller.dart--><g id="cluster_camera_controller.dart"><path d="M4799.5,778 L4987.5,778 A3.75,3.75 0 0 1 4990,780.5 L4997,800.2969 L4997.5,800.2969 A2.5,2.5 0 0 1 5000,802.7969 L5000,874.5 A2.5,2.5 0 0 1 4997.5,877 L4799.5,877 A2.5,2.5 0 0 1 4797,874.5 L4797,780.5 A2.5,2.5 0 0 1 4799.5,778 " fill="none" style="stroke:#000000;stroke-width:1.5;"/><line style="stroke:#000000;stroke-width:1.5;" x1="4797" x2="4997" y1="800.2969" y2="800.2969"/><text fill="#000000" font-family="sans-serif" font-size="14" font-weight="bold" lengthAdjust="spacing" textLength="187" x="4801" y="792.9951">camera_controller.dart</text></g><!--class BoxWidget--><g id="elem_BoxWidget"><rect codeLine="3" fill="#F1F1F1" height="113.1875" id="BoxWidget" rx="2.5" ry="2.5" style="stroke:#181818;stroke-width:0.5;" width="238" x="2024" y="473.5"/><ellipse cx="2099.25" cy="489.5" fill="#ADD1B2" rx="11" ry="11" style="stroke:#181818;stroke-width:1.0;"/><path d="M2101.5938,485.1719 C2100.6563,484.7344 2100.0625,484.5938 2099.1875,484.5938 C2096.5625,484.5938 2094.5625,486.6719 2094.5625,489.3906 L2094.5625,490.5156 C2094.5625,493.0938 2096.6719,494.9844 2099.5625,494.9844 C2100.7813,494.9844 2101.9375,494.6875 2102.6875,494.1406 C2103.2656,493.7344 2103.5938,493.2813 2103.5938,492.8906 C2103.5938,492.4375 2103.2031,492.0469 2102.7344,492.0469 C2102.5156,492.0469 2102.3125,492.125 2102.125,492.3125 C2101.6719,492.7969 2101.6719,492.7969 2101.4844,492.8906 C2101.0625,493.1563 2100.375,493.2813 2099.6094,493.2813 C2097.5625,493.2813 2096.2656,492.1875 2096.2656,490.4844 L2096.2656,489.3906 C2096.2656,487.6094 2097.5156,486.2969 2099.25,486.2969 C2099.8281,486.2969 2100.4375,486.4531 2100.9063,486.7031 C2101.3906,486.9844 2101.5625,487.2031 2101.6563,487.6094 C2101.7188,488.0156 2101.75,488.1406 2101.8906,488.2656 C2102.0313,488.4063 2102.2656,488.5156 2102.4844,488.5156 C2102.75,488.5156 2103.0156,488.375 2103.1875,488.1563 C2103.2969,488 2103.3281,487.8125 2103.3281,487.3906 L2103.3281,485.9688 C2103.3281,485.5313 2103.3125,485.4063 2103.2188,485.25 C2103.0625,484.9844 2102.7813,484.8438 2102.4844,484.8438 C2102.1875,484.8438 2101.9844,484.9375 2101.7656,485.25 L2101.5938,485.1719 Z " fill="#000000"/><text fill="#000000" font-family="sans-serif" font-size="14" lengthAdjust="spacing" textLength="79" x="2119.75" y="494.3467">BoxWidget</text><line style="stroke:#181818;stroke-width:0.5;" x1="2025" x2="2261" y1="505.5" y2="505.5"/><ellipse cx="2035" cy="519.1484" fill="none" rx="3" ry="3" style="stroke:#038048;stroke-width:1.0;"/><text fill="#000000" font-family="sans-serif" font-size="14" lengthAdjust="spacing" textLength="212" x="2044" y="522.4951">ResultObjectDetection result</text><ellipse cx="2035" cy="535.4453" fill="none" rx="3" ry="3" style="stroke:#038048;stroke-width:1.0;"/><text fill="#000000" font-family="sans-serif" font-size="14" lengthAdjust="spacing" textLength="130" x="2044" y="538.792">Color? boxesColor</text><ellipse cx="2035" cy="551.7422" fill="none" rx="3" ry="3" style="stroke:#038048;stroke-width:1.0;"/><text fill="#000000" font-family="sans-serif" font-size="14" lengthAdjust="spacing" textLength="155" x="2044" y="555.0889">bool showPercentage</text><line style="stroke:#181818;stroke-width:0.5;" x1="2025" x2="2261" y1="562.3906" y2="562.3906"/><ellipse cx="2035" cy="576.0391" fill="#84BE84" rx="3" ry="3" style="stroke:#038048;stroke-width:1.0;"/><text fill="#000000" font-family="sans-serif" font-size="14" lengthAdjust="spacing" textLength="101" x="2044" y="579.3857">Widget build()</text></g><!--class CameraView--><g id="elem_CameraView"><rect codeLine="14" fill="#F1F1F1" height="96.8906" id="CameraView" rx="2.5" ry="2.5" style="stroke:#181818;stroke-width:0.5;" width="497" x="2584.5" y="481.5"/><ellipse cx="2784.25" cy="497.5" fill="#ADD1B2" rx="11" ry="11" style="stroke:#181818;stroke-width:1.0;"/><path d="M2786.5938,493.1719 C2785.6563,492.7344 2785.0625,492.5938 2784.1875,492.5938 C2781.5625,492.5938 2779.5625,494.6719 2779.5625,497.3906 L2779.5625,498.5156 C2779.5625,501.0938 2781.6719,502.9844 2784.5625,502.9844 C2785.7813,502.9844 2786.9375,502.6875 2787.6875,502.1406 C2788.2656,501.7344 2788.5938,501.2813 2788.5938,500.8906 C2788.5938,500.4375 2788.2031,500.0469 2787.7344,500.0469 C2787.5156,500.0469 2787.3125,500.125 2787.125,500.3125 C2786.6719,500.7969 2786.6719,500.7969 2786.4844,500.8906 C2786.0625,501.1563 2785.375,501.2813 2784.6094,501.2813 C2782.5625,501.2813 2781.2656,500.1875 2781.2656,498.4844 L2781.2656,497.3906 C2781.2656,495.6094 2782.5156,494.2969 2784.25,494.2969 C2784.8281,494.2969 2785.4375,494.4531 2785.9063,494.7031 C2786.3906,494.9844 2786.5625,495.2031 2786.6563,495.6094 C2786.7188,496.0156 2786.75,496.1406 2786.8906,496.2656 C2787.0313,496.4063 2787.2656,496.5156 2787.4844,496.5156 C2787.75,496.5156 2788.0156,496.375 2788.1875,496.1563 C2788.2969,496 2788.3281,495.8125 2788.3281,495.3906 L2788.3281,493.9688 C2788.3281,493.5313 2788.3125,493.4063 2788.2188,493.25 C2788.0625,492.9844 2787.7813,492.8438 2787.4844,492.8438 C2787.1875,492.8438 2786.9844,492.9375 2786.7656,493.25 L2786.5938,493.1719 Z " fill="#000000"/><text fill="#000000" font-family="sans-serif" font-size="14" lengthAdjust="spacing" textLength="89" x="2804.75" y="502.3467">CameraView</text><line style="stroke:#181818;stroke-width:0.5;" x1="2585.5" x2="3080.5" y1="513.5" y2="513.5"/><ellipse cx="2595.5" cy="527.1484" fill="none" rx="3" ry="3" style="stroke:#038048;stroke-width:1.0;"/><text fill="#000000" font-family="sans-serif" font-size="14" lengthAdjust="spacing" textLength="92" x="2604.5" y="530.4951">Model model</text><line style="stroke:#181818;stroke-width:0.5;" x1="2585.5" x2="3080.5" y1="537.7969" y2="537.7969"/><ellipse cx="2595.5" cy="551.4453" fill="#84BE84" rx="3" ry="3" style="stroke:#038048;stroke-width:1.0;"/><text fill="#000000" font-family="sans-serif" font-size="14" lengthAdjust="spacing" textLength="471" x="2604.5" y="554.792">dynamic Function(List&lt;ResultObjectDetection?&gt;) resultsCallback</text><ellipse cx="2595.5" cy="567.7422" fill="#84BE84" rx="3" ry="3" style="stroke:#038048;stroke-width:1.0;"/><text fill="#000000" font-family="sans-serif" font-size="14" lengthAdjust="spacing" textLength="237" x="2604.5" y="571.0889">_CameraViewState createState()</text></g><!--class _CameraViewState--><g id="elem__CameraViewState"><rect codeLine="24" fill="#F1F1F1" height="243.5625" id="_CameraViewState" rx="2.5" ry="2.5" style="stroke:#181818;stroke-width:0.5;" width="299" x="3116.5" y="408"/><ellipse cx="3193.75" cy="424" fill="#ADD1B2" rx="11" ry="11" style="stroke:#181818;stroke-width:1.0;"/><path d="M3196.0938,419.6719 C3195.1563,419.2344 3194.5625,419.0938 3193.6875,419.0938 C3191.0625,419.0938 3189.0625,421.1719 3189.0625,423.8906 L3189.0625,425.0156 C3189.0625,427.5938 3191.1719,429.4844 3194.0625,429.4844 C3195.2813,429.4844 3196.4375,429.1875 3197.1875,428.6406 C3197.7656,428.2344 3198.0938,427.7813 3198.0938,427.3906 C3198.0938,426.9375 3197.7031,426.5469 3197.2344,426.5469 C3197.0156,426.5469 3196.8125,426.625 3196.625,426.8125 C3196.1719,427.2969 3196.1719,427.2969 3195.9844,427.3906 C3195.5625,427.6563 3194.875,427.7813 3194.1094,427.7813 C3192.0625,427.7813 3190.7656,426.6875 3190.7656,424.9844 L3190.7656,423.8906 C3190.7656,422.1094 3192.0156,420.7969 3193.75,420.7969 C3194.3281,420.7969 3194.9375,420.9531 3195.4063,421.2031 C3195.8906,421.4844 3196.0625,421.7031 3196.1563,422.1094 C3196.2188,422.5156 3196.25,422.6406 3196.3906,422.7656 C3196.5313,422.9063 3196.7656,423.0156 3196.9844,423.0156 C3197.25,423.0156 3197.5156,422.875 3197.6875,422.6563 C3197.7969,422.5 3197.8281,422.3125 3197.8281,421.8906 L3197.8281,420.4688 C3197.8281,420.0313 3197.8125,419.9063 3197.7188,419.75 C3197.5625,419.4844 3197.2813,419.3438 3196.9844,419.3438 C3196.6875,419.3438 3196.4844,419.4375 3196.2656,419.75 L3196.0938,419.6719 Z " fill="#000000"/><text fill="#000000" font-family="sans-serif" font-size="14" lengthAdjust="spacing" textLength="136" x="3214.25" y="428.8467">_CameraViewState</text><line style="stroke:#181818;stroke-width:0.5;" x1="3117.5" x2="3414.5" y1="440" y2="440"/><ellipse cx="3127.5" cy="453.6484" fill="none" rx="3" ry="3" style="stroke:#038048;stroke-width:1.0;"/><text fill="#000000" font-family="sans-serif" font-size="14" lengthAdjust="spacing" textLength="251" x="3136.5" y="456.9951">List&lt;CameraDescription&gt; cameras</text><ellipse cx="3127.5" cy="469.9453" fill="none" rx="3" ry="3" style="stroke:#038048;stroke-width:1.0;"/><text fill="#000000" font-family="sans-serif" font-size="14" lengthAdjust="spacing" textLength="265" x="3136.5" y="473.292">CameraController? cameraController</text><ellipse cx="3127.5" cy="486.2422" fill="none" rx="3" ry="3" style="stroke:#038048;stroke-width:1.0;"/><text fill="#000000" font-family="sans-serif" font-size="14" lengthAdjust="spacing" textLength="111" x="3136.5" y="489.5889">bool predicting</text><rect fill="none" height="6" style="stroke:#C82930;stroke-width:1.0;" width="6" x="3124.5" y="499.5391"/><text fill="#000000" font-family="sans-serif" font-size="14" lengthAdjust="spacing" textLength="273" x="3136.5" y="505.8857">ModelObjectDetection? _objectModel</text><line style="stroke:#181818;stroke-width:0.5;" x1="3117.5" x2="3414.5" y1="513.1875" y2="513.1875"/><ellipse cx="3127.5" cy="526.8359" fill="#84BE84" rx="3" ry="3" style="stroke:#038048;stroke-width:1.0;"/><text fill="#000000" font-family="sans-serif" font-size="14" lengthAdjust="spacing" textLength="108" x="3136.5" y="530.1826">void initState()</text><ellipse cx="3127.5" cy="543.1328" fill="#84BE84" rx="3" ry="3" style="stroke:#038048;stroke-width:1.0;"/><text fill="#000000" font-family="sans-serif" font-size="14" lengthAdjust="spacing" textLength="215" x="3136.5" y="546.4795">Future&lt;dynamic&gt; loadModel()</text><ellipse cx="3127.5" cy="559.4297" fill="#84BE84" rx="3" ry="3" style="stroke:#038048;stroke-width:1.0;"/><text fill="#000000" font-family="sans-serif" font-size="14" lengthAdjust="spacing" textLength="150" x="3136.5" y="562.7764">void initStateAsync()</text><ellipse cx="3127.5" cy="575.7266" fill="#84BE84" rx="3" ry="3" style="stroke:#038048;stroke-width:1.0;"/><text fill="#000000" font-family="sans-serif" font-size="14" lengthAdjust="spacing" textLength="160" x="3136.5" y="579.0732">void initializeCamera()</text><ellipse cx="3127.5" cy="592.0234" fill="#84BE84" rx="3" ry="3" style="stroke:#038048;stroke-width:1.0;"/><text fill="#000000" font-family="sans-serif" font-size="14" lengthAdjust="spacing" textLength="101" x="3136.5" y="595.3701">Widget build()</text><ellipse cx="3127.5" cy="608.3203" fill="#84BE84" rx="3" ry="3" style="stroke:#038048;stroke-width:1.0;"/><text fill="#000000" font-family="sans-serif" font-size="14" lengthAdjust="spacing" textLength="247" x="3136.5" y="611.667">dynamic onLatestImageAvailable()</text><ellipse cx="3127.5" cy="624.6172" fill="#84BE84" rx="3" ry="3" style="stroke:#038048;stroke-width:1.0;"/><text fill="#000000" font-family="sans-serif" font-size="14" lengthAdjust="spacing" textLength="254" x="3136.5" y="627.9639">void didChangeAppLifecycleState()</text><ellipse cx="3127.5" cy="640.9141" fill="#84BE84" rx="3" ry="3" style="stroke:#038048;stroke-width:1.0;"/><text fill="#000000" font-family="sans-serif" font-size="14" lengthAdjust="spacing" textLength="99" x="3136.5" y="644.2607">void dispose()</text></g><!--class Model--><g id="elem_Model"><rect codeLine="80" fill="#F1F1F1" height="162.0781" id="Model" rx="2.5" ry="2.5" style="stroke:#181818;stroke-width:0.5;" width="249" x="1459.5" y="756"/><ellipse cx="1558.25" cy="772" fill="#ADD1B2" rx="11" ry="11" style="stroke:#181818;stroke-width:1.0;"/><path d="M1560.5938,767.6719 C1559.6563,767.2344 1559.0625,767.0938 1558.1875,767.0938 C1555.5625,767.0938 1553.5625,769.1719 1553.5625,771.8906 L1553.5625,773.0156 C1553.5625,775.5938 1555.6719,777.4844 1558.5625,777.4844 C1559.7813,777.4844 1560.9375,777.1875 1561.6875,776.6406 C1562.2656,776.2344 1562.5938,775.7813 1562.5938,775.3906 C1562.5938,774.9375 1562.2031,774.5469 1561.7344,774.5469 C1561.5156,774.5469 1561.3125,774.625 1561.125,774.8125 C1560.6719,775.2969 1560.6719,775.2969 1560.4844,775.3906 C1560.0625,775.6563 1559.375,775.7813 1558.6094,775.7813 C1556.5625,775.7813 1555.2656,774.6875 1555.2656,772.9844 L1555.2656,771.8906 C1555.2656,770.1094 1556.5156,768.7969 1558.25,768.7969 C1558.8281,768.7969 1559.4375,768.9531 1559.9063,769.2031 C1560.3906,769.4844 1560.5625,769.7031 1560.6563,770.1094 C1560.7188,770.5156 1560.75,770.6406 1560.8906,770.7656 C1561.0313,770.9063 1561.2656,771.0156 1561.4844,771.0156 C1561.75,771.0156 1562.0156,770.875 1562.1875,770.6563 C1562.2969,770.5 1562.3281,770.3125 1562.3281,769.8906 L1562.3281,768.4688 C1562.3281,768.0313 1562.3125,767.9063 1562.2188,767.75 C1562.0625,767.4844 1561.7813,767.3438 1561.4844,767.3438 C1561.1875,767.3438 1560.9844,767.4375 1560.7656,767.75 L1560.5938,767.6719 Z " fill="#000000"/><text fill="#000000" font-family="sans-serif" font-size="14" lengthAdjust="spacing" textLength="43" x="1578.75" y="776.8467">Model</text><line style="stroke:#181818;stroke-width:0.5;" x1="1460.5" x2="1707.5" y1="788" y2="788"/><ellipse cx="1470.5" cy="801.6484" fill="none" rx="3" ry="3" style="stroke:#038048;stroke-width:1.0;"/><text fill="#000000" font-family="sans-serif" font-size="14" lengthAdjust="spacing" textLength="88" x="1479.5" y="804.9951">String name</text><ellipse cx="1470.5" cy="817.9453" fill="none" rx="3" ry="3" style="stroke:#038048;stroke-width:1.0;"/><text fill="#000000" font-family="sans-serif" font-size="14" lengthAdjust="spacing" textLength="146" x="1479.5" y="821.292">List&lt;String&gt; classes</text><ellipse cx="1470.5" cy="834.2422" fill="none" rx="3" ry="3" style="stroke:#038048;stroke-width:1.0;"/><text fill="#000000" font-family="sans-serif" font-size="14" lengthAdjust="spacing" textLength="140" x="1479.5" y="837.5889">List&lt;int&gt; inputSize</text><ellipse cx="1470.5" cy="850.5391" fill="none" rx="3" ry="3" style="stroke:#038048;stroke-width:1.0;"/><text fill="#000000" font-family="sans-serif" font-size="14" lengthAdjust="spacing" textLength="41" x="1479.5" y="853.8857">int nc</text><ellipse cx="1470.5" cy="866.8359" fill="none" rx="3" ry="3" style="stroke:#038048;stroke-width:1.0;"/><text fill="#000000" font-family="sans-serif" font-size="14" lengthAdjust="spacing" textLength="130" x="1479.5" y="870.1826">String description</text><ellipse cx="1470.5" cy="883.1328" fill="none" rx="3" ry="3" style="stroke:#038048;stroke-width:1.0;"/><text fill="#000000" font-family="sans-serif" font-size="14" lengthAdjust="spacing" textLength="104" x="1479.5" y="886.4795">String filePath</text><line style="stroke:#181818;stroke-width:0.5;" x1="1460.5" x2="1707.5" y1="893.7813" y2="893.7813"/><ellipse cx="1470.5" cy="907.4297" fill="#84BE84" rx="3" ry="3" style="stroke:#038048;stroke-width:1.0;"/><text fill="#000000" font-family="sans-serif" font-size="14" lengthAdjust="spacing" textLength="223" x="1479.5" y="910.7764">Map&lt;String, dynamic&gt; toJson()</text></g><!--class ModelManager--><g id="elem_ModelManager"><rect codeLine="90" fill="#F1F1F1" height="145.7813" id="ModelManager" rx="2.5" ry="2.5" style="stroke:#181818;stroke-width:0.5;" width="279" x="1145.5" y="764"/><ellipse cx="1228.75" cy="780" fill="#ADD1B2" rx="11" ry="11" style="stroke:#181818;stroke-width:1.0;"/><path d="M1231.0938,775.6719 C1230.1563,775.2344 1229.5625,775.0938 1228.6875,775.0938 C1226.0625,775.0938 1224.0625,777.1719 1224.0625,779.8906 L1224.0625,781.0156 C1224.0625,783.5938 1226.1719,785.4844 1229.0625,785.4844 C1230.2813,785.4844 1231.4375,785.1875 1232.1875,784.6406 C1232.7656,784.2344 1233.0938,783.7813 1233.0938,783.3906 C1233.0938,782.9375 1232.7031,782.5469 1232.2344,782.5469 C1232.0156,782.5469 1231.8125,782.625 1231.625,782.8125 C1231.1719,783.2969 1231.1719,783.2969 1230.9844,783.3906 C1230.5625,783.6563 1229.875,783.7813 1229.1094,783.7813 C1227.0625,783.7813 1225.7656,782.6875 1225.7656,780.9844 L1225.7656,779.8906 C1225.7656,778.1094 1227.0156,776.7969 1228.75,776.7969 C1229.3281,776.7969 1229.9375,776.9531 1230.4063,777.2031 C1230.8906,777.4844 1231.0625,777.7031 1231.1563,778.1094 C1231.2188,778.5156 1231.25,778.6406 1231.3906,778.7656 C1231.5313,778.9063 1231.7656,779.0156 1231.9844,779.0156 C1232.25,779.0156 1232.5156,778.875 1232.6875,778.6563 C1232.7969,778.5 1232.8281,778.3125 1232.8281,777.8906 L1232.8281,776.4688 C1232.8281,776.0313 1232.8125,775.9063 1232.7188,775.75 C1232.5625,775.4844 1232.2813,775.3438 1231.9844,775.3438 C1231.6875,775.3438 1231.4844,775.4375 1231.2656,775.75 L1231.0938,775.6719 Z " fill="#000000"/><text fill="#000000" font-family="sans-serif" font-size="14" lengthAdjust="spacing" textLength="104" x="1249.25" y="784.8467">ModelManager</text><line style="stroke:#181818;stroke-width:0.5;" x1="1146.5" x2="1423.5" y1="796" y2="796"/><rect fill="none" height="6" style="stroke:#C82930;stroke-width:1.0;" width="6" x="1153.5" y="806.6484"/><text fill="#000000" font-family="sans-serif" font-size="14" lengthAdjust="spacing" textLength="189" x="1165.5" y="812.9951">Future&lt;String&gt; _localPath</text><rect fill="none" height="6" style="stroke:#C82930;stroke-width:1.0;" width="6" x="1153.5" y="822.9453"/><text fill="#000000" font-family="sans-serif" font-size="14" lengthAdjust="spacing" textLength="229" x="1165.5" y="829.292">Future&lt;File&gt; _modelListJsonFile</text><line style="stroke:#181818;stroke-width:0.5;" x1="1146.5" x2="1423.5" y1="836.5938" y2="836.5938"/><ellipse cx="1156.5" cy="850.2422" fill="#84BE84" rx="3" ry="3" style="stroke:#038048;stroke-width:1.0;"/><text fill="#000000" font-family="sans-serif" font-size="14" lengthAdjust="spacing" textLength="194" x="1165.5" y="853.5889">Future&lt;void&gt; saveModels()</text><ellipse cx="1156.5" cy="866.5391" fill="#84BE84" rx="3" ry="3" style="stroke:#038048;stroke-width:1.0;"/><text fill="#000000" font-family="sans-serif" font-size="14" lengthAdjust="spacing" textLength="253" x="1165.5" y="869.8857">Future&lt;List&lt;Model&gt;&gt; loadModels()</text><ellipse cx="1156.5" cy="882.8359" fill="#84BE84" rx="3" ry="3" style="stroke:#038048;stroke-width:1.0;"/><text fill="#000000" font-family="sans-serif" font-size="14" lengthAdjust="spacing" textLength="159" x="1165.5" y="886.1826">void deleteModelFile()</text><ellipse cx="1156.5" cy="899.1328" fill="#84BE84" rx="3" ry="3" style="stroke:#038048;stroke-width:1.0;"/><text fill="#000000" font-family="sans-serif" font-size="14" lengthAdjust="spacing" textLength="241" x="1165.5" y="902.4795">Future&lt;void&gt; printAllModelFiles()</text></g><!--class CameraViewSingleton--><g id="elem_CameraViewSingleton"><rect codeLine="44" fill="#F1F1F1" height="129.4844" id="CameraViewSingleton" rx="2.5" ry="2.5" style="stroke:#181818;stroke-width:0.5;" width="199" x="2328.5" y="465.5"/><ellipse cx="2347.55" cy="481.5" fill="#ADD1B2" rx="11" ry="11" style="stroke:#181818;stroke-width:1.0;"/><path d="M2349.8938,477.1719 C2348.9563,476.7344 2348.3625,476.5938 2347.4875,476.5938 C2344.8625,476.5938 2342.8625,478.6719 2342.8625,481.3906 L2342.8625,482.5156 C2342.8625,485.0938 2344.9719,486.9844 2347.8625,486.9844 C2349.0813,486.9844 2350.2375,486.6875 2350.9875,486.1406 C2351.5656,485.7344 2351.8938,485.2813 2351.8938,484.8906 C2351.8938,484.4375 2351.5031,484.0469 2351.0344,484.0469 C2350.8156,484.0469 2350.6125,484.125 2350.425,484.3125 C2349.9719,484.7969 2349.9719,484.7969 2349.7844,484.8906 C2349.3625,485.1563 2348.675,485.2813 2347.9094,485.2813 C2345.8625,485.2813 2344.5656,484.1875 2344.5656,482.4844 L2344.5656,481.3906 C2344.5656,479.6094 2345.8156,478.2969 2347.55,478.2969 C2348.1281,478.2969 2348.7375,478.4531 2349.2063,478.7031 C2349.6906,478.9844 2349.8625,479.2031 2349.9563,479.6094 C2350.0188,480.0156 2350.05,480.1406 2350.1906,480.2656 C2350.3313,480.4063 2350.5656,480.5156 2350.7844,480.5156 C2351.05,480.5156 2351.3156,480.375 2351.4875,480.1563 C2351.5969,480 2351.6281,479.8125 2351.6281,479.3906 L2351.6281,477.9688 C2351.6281,477.5313 2351.6125,477.4063 2351.5188,477.25 C2351.3625,476.9844 2351.0813,476.8438 2350.7844,476.8438 C2350.4875,476.8438 2350.2844,476.9375 2350.0656,477.25 L2349.8938,477.1719 Z " fill="#000000"/><text fill="#000000" font-family="sans-serif" font-size="14" lengthAdjust="spacing" textLength="158" x="2362.45" y="486.3467">CameraViewSingleton</text><line style="stroke:#181818;stroke-width:0.5;" x1="2329.5" x2="2526.5" y1="497.5" y2="497.5"/><ellipse cx="2339.5" cy="511.1484" fill="none" rx="3" ry="3" style="stroke:#038048;stroke-width:1.0;"/><text fill="#000000" font-family="sans-serif" font-size="14" lengthAdjust="spacing" text-decoration="underline" textLength="87" x="2348.5" y="514.4951">double ratio</text><ellipse cx="2339.5" cy="527.4453" fill="none" rx="3" ry="3" style="stroke:#038048;stroke-width:1.0;"/><text fill="#000000" font-family="sans-serif" font-size="14" lengthAdjust="spacing" text-decoration="underline" textLength="112" x="2348.5" y="530.792">Size screenSize</text><ellipse cx="2339.5" cy="543.7422" fill="none" rx="3" ry="3" style="stroke:#038048;stroke-width:1.0;"/><text fill="#000000" font-family="sans-serif" font-size="14" lengthAdjust="spacing" text-decoration="underline" textLength="146" x="2348.5" y="547.0889">Size inputImageSize</text><ellipse cx="2339.5" cy="560.0391" fill="none" rx="3" ry="3" style="stroke:#038048;stroke-width:1.0;"/><text fill="#000000" font-family="sans-serif" font-size="14" lengthAdjust="spacing" text-decoration="underline" textLength="163" x="2348.5" y="563.3857">Size actualPreviewSize</text><ellipse cx="2339.5" cy="576.3359" fill="none" rx="3" ry="3" style="stroke:#038048;stroke-width:1.0;"/><text fill="#000000" font-family="sans-serif" font-size="14" lengthAdjust="spacing" text-decoration="underline" textLength="173" x="2348.5" y="579.6826">Size actualPreviewSizeH</text><line style="stroke:#181818;stroke-width:0.5;" x1="2329.5" x2="2526.5" y1="586.9844" y2="586.9844"/></g><!--class ModelManagementApp--><g id="elem_ModelManagementApp"><rect codeLine="54" fill="#F1F1F1" height="64.2969" id="ModelManagementApp" rx="2.5" ry="2.5" style="stroke:#181818;stroke-width:0.5;" width="199" x="1768.5" y="498"/><ellipse cx="1783.5" cy="514" fill="#ADD1B2" rx="11" ry="11" style="stroke:#181818;stroke-width:1.0;"/><path d="M1785.8438,509.6719 C1784.9063,509.2344 1784.3125,509.0938 1783.4375,509.0938 C1780.8125,509.0938 1778.8125,511.1719 1778.8125,513.8906 L1778.8125,515.0156 C1778.8125,517.5938 1780.9219,519.4844 1783.8125,519.4844 C1785.0313,519.4844 1786.1875,519.1875 1786.9375,518.6406 C1787.5156,518.2344 1787.8438,517.7813 1787.8438,517.3906 C1787.8438,516.9375 1787.4531,516.5469 1786.9844,516.5469 C1786.7656,516.5469 1786.5625,516.625 1786.375,516.8125 C1785.9219,517.2969 1785.9219,517.2969 1785.7344,517.3906 C1785.3125,517.6563 1784.625,517.7813 1783.8594,517.7813 C1781.8125,517.7813 1780.5156,516.6875 1780.5156,514.9844 L1780.5156,513.8906 C1780.5156,512.1094 1781.7656,510.7969 1783.5,510.7969 C1784.0781,510.7969 1784.6875,510.9531 1785.1563,511.2031 C1785.6406,511.4844 1785.8125,511.7031 1785.9063,512.1094 C1785.9688,512.5156 1786,512.6406 1786.1406,512.7656 C1786.2813,512.9063 1786.5156,513.0156 1786.7344,513.0156 C1787,513.0156 1787.2656,512.875 1787.4375,512.6563 C1787.5469,512.5 1787.5781,512.3125 1787.5781,511.8906 L1787.5781,510.4688 C1787.5781,510.0313 1787.5625,509.9063 1787.4688,509.75 C1787.3125,509.4844 1787.0313,509.3438 1786.7344,509.3438 C1786.4375,509.3438 1786.2344,509.4375 1786.0156,509.75 L1785.8438,509.6719 Z " fill="#000000"/><text fill="#000000" font-family="sans-serif" font-size="14" lengthAdjust="spacing" textLength="167" x="1797.5" y="518.8467">ModelManagementApp</text><line style="stroke:#181818;stroke-width:0.5;" x1="1769.5" x2="1966.5" y1="530" y2="530"/><line style="stroke:#181818;stroke-width:0.5;" x1="1769.5" x2="1966.5" y1="538" y2="538"/><ellipse cx="1779.5" cy="551.6484" fill="#84BE84" rx="3" ry="3" style="stroke:#038048;stroke-width:1.0;"/><text fill="#000000" font-family="sans-serif" font-size="14" lengthAdjust="spacing" textLength="101" x="1788.5" y="554.9951">Widget build()</text></g><!--class ModelListScreen--><g id="elem_ModelListScreen"><rect codeLine="60" fill="#F1F1F1" height="64.2969" id="ModelListScreen" rx="2.5" ry="2.5" style="stroke:#181818;stroke-width:0.5;" width="293" x="1440.5" y="498"/><ellipse cx="1523.25" cy="514" fill="#ADD1B2" rx="11" ry="11" style="stroke:#181818;stroke-width:1.0;"/><path d="M1525.5938,509.6719 C1524.6563,509.2344 1524.0625,509.0938 1523.1875,509.0938 C1520.5625,509.0938 1518.5625,511.1719 1518.5625,513.8906 L1518.5625,515.0156 C1518.5625,517.5938 1520.6719,519.4844 1523.5625,519.4844 C1524.7813,519.4844 1525.9375,519.1875 1526.6875,518.6406 C1527.2656,518.2344 1527.5938,517.7813 1527.5938,517.3906 C1527.5938,516.9375 1527.2031,516.5469 1526.7344,516.5469 C1526.5156,516.5469 1526.3125,516.625 1526.125,516.8125 C1525.6719,517.2969 1525.6719,517.2969 1525.4844,517.3906 C1525.0625,517.6563 1524.375,517.7813 1523.6094,517.7813 C1521.5625,517.7813 1520.2656,516.6875 1520.2656,514.9844 L1520.2656,513.8906 C1520.2656,512.1094 1521.5156,510.7969 1523.25,510.7969 C1523.8281,510.7969 1524.4375,510.9531 1524.9063,511.2031 C1525.3906,511.4844 1525.5625,511.7031 1525.6563,512.1094 C1525.7188,512.5156 1525.75,512.6406 1525.8906,512.7656 C1526.0313,512.9063 1526.2656,513.0156 1526.4844,513.0156 C1526.75,513.0156 1527.0156,512.875 1527.1875,512.6563 C1527.2969,512.5 1527.3281,512.3125 1527.3281,511.8906 L1527.3281,510.4688 C1527.3281,510.0313 1527.3125,509.9063 1527.2188,509.75 C1527.0625,509.4844 1526.7813,509.3438 1526.4844,509.3438 C1526.1875,509.3438 1525.9844,509.4375 1525.7656,509.75 L1525.5938,509.6719 Z " fill="#000000"/><text fill="#000000" font-family="sans-serif" font-size="14" lengthAdjust="spacing" textLength="119" x="1543.75" y="518.8467">ModelListScreen</text><line style="stroke:#181818;stroke-width:0.5;" x1="1441.5" x2="1732.5" y1="530" y2="530"/><line style="stroke:#181818;stroke-width:0.5;" x1="1441.5" x2="1732.5" y1="538" y2="538"/><ellipse cx="1451.5" cy="551.6484" fill="#84BE84" rx="3" ry="3" style="stroke:#038048;stroke-width:1.0;"/><text fill="#000000" font-family="sans-serif" font-size="14" lengthAdjust="spacing" textLength="267" x="1460.5" y="554.9951">_ModelListScreenState createState()</text></g><!--class _ModelListScreenState--><g id="elem__ModelListScreenState"><rect codeLine="66" fill="#F1F1F1" height="178.375" id="_ModelListScreenState" rx="2.5" ry="2.5" style="stroke:#181818;stroke-width:0.5;" width="240" x="1165" y="441"/><ellipse cx="1198.9" cy="457" fill="#ADD1B2" rx="11" ry="11" style="stroke:#181818;stroke-width:1.0;"/><path d="M1201.2438,452.6719 C1200.3063,452.2344 1199.7125,452.0938 1198.8375,452.0938 C1196.2125,452.0938 1194.2125,454.1719 1194.2125,456.8906 L1194.2125,458.0156 C1194.2125,460.5938 1196.3219,462.4844 1199.2125,462.4844 C1200.4313,462.4844 1201.5875,462.1875 1202.3375,461.6406 C1202.9156,461.2344 1203.2438,460.7813 1203.2438,460.3906 C1203.2438,459.9375 1202.8531,459.5469 1202.3844,459.5469 C1202.1656,459.5469 1201.9625,459.625 1201.775,459.8125 C1201.3219,460.2969 1201.3219,460.2969 1201.1344,460.3906 C1200.7125,460.6563 1200.025,460.7813 1199.2594,460.7813 C1197.2125,460.7813 1195.9156,459.6875 1195.9156,457.9844 L1195.9156,456.8906 C1195.9156,455.1094 1197.1656,453.7969 1198.9,453.7969 C1199.4781,453.7969 1200.0875,453.9531 1200.5563,454.2031 C1201.0406,454.4844 1201.2125,454.7031 1201.3063,455.1094 C1201.3688,455.5156 1201.4,455.6406 1201.5406,455.7656 C1201.6813,455.9063 1201.9156,456.0156 1202.1344,456.0156 C1202.4,456.0156 1202.6656,455.875 1202.8375,455.6563 C1202.9469,455.5 1202.9781,455.3125 1202.9781,454.8906 L1202.9781,453.4688 C1202.9781,453.0313 1202.9625,452.9063 1202.8688,452.75 C1202.7125,452.4844 1202.4313,452.3438 1202.1344,452.3438 C1201.8375,452.3438 1201.6344,452.4375 1201.4156,452.75 L1201.2438,452.6719 Z " fill="#000000"/><text fill="#000000" font-family="sans-serif" font-size="14" lengthAdjust="spacing" textLength="166" x="1217.1" y="461.8467">_ModelListScreenState</text><line style="stroke:#181818;stroke-width:0.5;" x1="1166" x2="1404" y1="473" y2="473"/><ellipse cx="1176" cy="486.6484" fill="none" rx="3" ry="3" style="stroke:#038048;stroke-width:1.0;"/><text fill="#000000" font-family="sans-serif" font-size="14" lengthAdjust="spacing" textLength="147" x="1185" y="489.9951">List&lt;Model&gt; models</text><ellipse cx="1176" cy="502.9453" fill="none" rx="3" ry="3" style="stroke:#038048;stroke-width:1.0;"/><text fill="#000000" font-family="sans-serif" font-size="14" lengthAdjust="spacing" textLength="214" x="1185" y="506.292">ModelManager modelManager</text><line style="stroke:#181818;stroke-width:0.5;" x1="1166" x2="1404" y1="513.5938" y2="513.5938"/><ellipse cx="1176" cy="527.2422" fill="#84BE84" rx="3" ry="3" style="stroke:#038048;stroke-width:1.0;"/><text fill="#000000" font-family="sans-serif" font-size="14" lengthAdjust="spacing" textLength="108" x="1185" y="530.5889">void initState()</text><rect fill="#F24D5C" height="6" style="stroke:#C82930;stroke-width:1.0;" width="6" x="1173" y="540.5391"/><text fill="#000000" font-family="sans-serif" font-size="14" lengthAdjust="spacing" textLength="131" x="1185" y="546.8857">void _loadModels()</text><rect fill="#F24D5C" height="6" style="stroke:#C82930;stroke-width:1.0;" width="6" x="1173" y="556.8359"/><text fill="#000000" font-family="sans-serif" font-size="14" lengthAdjust="spacing" textLength="133" x="1185" y="563.1826">void _saveModels()</text><rect fill="#F24D5C" height="6" style="stroke:#C82930;stroke-width:1.0;" width="6" x="1173" y="573.1328"/><text fill="#000000" font-family="sans-serif" font-size="14" lengthAdjust="spacing" textLength="141" x="1185" y="579.4795">void _deleteModel()</text><rect fill="#F24D5C" height="6" style="stroke:#C82930;stroke-width:1.0;" width="6" x="1173" y="589.4297"/><text fill="#000000" font-family="sans-serif" font-size="14" lengthAdjust="spacing" textLength="195" x="1185" y="595.7764">void _addNewModelDialog()</text><ellipse cx="1176" cy="608.7266" fill="#84BE84" rx="3" ry="3" style="stroke:#038048;stroke-width:1.0;"/><text fill="#000000" font-family="sans-serif" font-size="14" lengthAdjust="spacing" textLength="101" x="1185" y="612.0732">Widget build()</text></g><!--class RunModelByCamera--><g id="elem_RunModelByCamera"><rect codeLine="99" fill="#F1F1F1" height="80.5938" id="RunModelByCamera" rx="2.5" ry="2.5" style="stroke:#181818;stroke-width:0.5;" width="317" x="449.5" y="489.5"/><ellipse cx="532.25" cy="505.5" fill="#ADD1B2" rx="11" ry="11" style="stroke:#181818;stroke-width:1.0;"/><path d="M534.5938,501.1719 C533.6563,500.7344 533.0625,500.5938 532.1875,500.5938 C529.5625,500.5938 527.5625,502.6719 527.5625,505.3906 L527.5625,506.5156 C527.5625,509.0938 529.6719,510.9844 532.5625,510.9844 C533.7813,510.9844 534.9375,510.6875 535.6875,510.1406 C536.2656,509.7344 536.5938,509.2813 536.5938,508.8906 C536.5938,508.4375 536.2031,508.0469 535.7344,508.0469 C535.5156,508.0469 535.3125,508.125 535.125,508.3125 C534.6719,508.7969 534.6719,508.7969 534.4844,508.8906 C534.0625,509.1563 533.375,509.2813 532.6094,509.2813 C530.5625,509.2813 529.2656,508.1875 529.2656,506.4844 L529.2656,505.3906 C529.2656,503.6094 530.5156,502.2969 532.25,502.2969 C532.8281,502.2969 533.4375,502.4531 533.9063,502.7031 C534.3906,502.9844 534.5625,503.2031 534.6563,503.6094 C534.7188,504.0156 534.75,504.1406 534.8906,504.2656 C535.0313,504.4063 535.2656,504.5156 535.4844,504.5156 C535.75,504.5156 536.0156,504.375 536.1875,504.1563 C536.2969,504 536.3281,503.8125 536.3281,503.3906 L536.3281,501.9688 C536.3281,501.5313 536.3125,501.4063 536.2188,501.25 C536.0625,500.9844 535.7813,500.8438 535.4844,500.8438 C535.1875,500.8438 534.9844,500.9375 534.7656,501.25 L534.5938,501.1719 Z " fill="#000000"/><text fill="#000000" font-family="sans-serif" font-size="14" lengthAdjust="spacing" textLength="143" x="552.75" y="510.3467">RunModelByCamera</text><line style="stroke:#181818;stroke-width:0.5;" x1="450.5" x2="765.5" y1="521.5" y2="521.5"/><ellipse cx="460.5" cy="535.1484" fill="none" rx="3" ry="3" style="stroke:#038048;stroke-width:1.0;"/><text fill="#000000" font-family="sans-serif" font-size="14" lengthAdjust="spacing" textLength="92" x="469.5" y="538.4951">Model model</text><line style="stroke:#181818;stroke-width:0.5;" x1="450.5" x2="765.5" y1="545.7969" y2="545.7969"/><ellipse cx="460.5" cy="559.4453" fill="#84BE84" rx="3" ry="3" style="stroke:#038048;stroke-width:1.0;"/><text fill="#000000" font-family="sans-serif" font-size="14" lengthAdjust="spacing" textLength="291" x="469.5" y="562.792">_RunModelByCameraState createState()</text></g><!--class _RunModelByCameraState--><g id="elem__RunModelByCameraState"><rect codeLine="107" fill="#F1F1F1" height="162.0781" id="_RunModelByCameraState" rx="2.5" ry="2.5" style="stroke:#181818;stroke-width:0.5;" width="368" x="46" y="449"/><ellipse cx="130.75" cy="465" fill="#ADD1B2" rx="11" ry="11" style="stroke:#181818;stroke-width:1.0;"/><path d="M133.0938,460.6719 C132.1563,460.2344 131.5625,460.0938 130.6875,460.0938 C128.0625,460.0938 126.0625,462.1719 126.0625,464.8906 L126.0625,466.0156 C126.0625,468.5938 128.1719,470.4844 131.0625,470.4844 C132.2813,470.4844 133.4375,470.1875 134.1875,469.6406 C134.7656,469.2344 135.0938,468.7813 135.0938,468.3906 C135.0938,467.9375 134.7031,467.5469 134.2344,467.5469 C134.0156,467.5469 133.8125,467.625 133.625,467.8125 C133.1719,468.2969 133.1719,468.2969 132.9844,468.3906 C132.5625,468.6563 131.875,468.7813 131.1094,468.7813 C129.0625,468.7813 127.7656,467.6875 127.7656,465.9844 L127.7656,464.8906 C127.7656,463.1094 129.0156,461.7969 130.75,461.7969 C131.3281,461.7969 131.9375,461.9531 132.4063,462.2031 C132.8906,462.4844 133.0625,462.7031 133.1563,463.1094 C133.2188,463.5156 133.25,463.6406 133.3906,463.7656 C133.5313,463.9063 133.7656,464.0156 133.9844,464.0156 C134.25,464.0156 134.5156,463.875 134.6875,463.6563 C134.7969,463.5 134.8281,463.3125 134.8281,462.8906 L134.8281,461.4688 C134.8281,461.0313 134.8125,460.9063 134.7188,460.75 C134.5625,460.4844 134.2813,460.3438 133.9844,460.3438 C133.6875,460.3438 133.4844,460.4375 133.2656,460.75 L133.0938,460.6719 Z " fill="#000000"/><text fill="#000000" font-family="sans-serif" font-size="14" lengthAdjust="spacing" textLength="190" x="151.25" y="469.8467">_RunModelByCameraState</text><line style="stroke:#181818;stroke-width:0.5;" x1="47" x2="413" y1="481" y2="481"/><ellipse cx="57" cy="494.6484" fill="none" rx="3" ry="3" style="stroke:#038048;stroke-width:1.0;"/><text fill="#000000" font-family="sans-serif" font-size="14" lengthAdjust="spacing" textLength="281" x="66" y="497.9951">List&lt;ResultObjectDetection?&gt;? results</text><ellipse cx="57" cy="510.9453" fill="none" rx="3" ry="3" style="stroke:#038048;stroke-width:1.0;"/><text fill="#000000" font-family="sans-serif" font-size="14" lengthAdjust="spacing" text-decoration="underline" textLength="342" x="66" y="514.292">BorderRadius BORDER_RADIUS_BOTTOM_SHEET</text><line style="stroke:#181818;stroke-width:0.5;" x1="47" x2="413" y1="521.5938" y2="521.5938"/><ellipse cx="57" cy="535.2422" fill="#84BE84" rx="3" ry="3" style="stroke:#038048;stroke-width:1.0;"/><text fill="#000000" font-family="sans-serif" font-size="14" lengthAdjust="spacing" textLength="108" x="66" y="538.5889">void initState()</text><rect fill="#F24D5C" height="6" style="stroke:#C82930;stroke-width:1.0;" width="6" x="54" y="548.5391"/><text fill="#000000" font-family="sans-serif" font-size="14" lengthAdjust="spacing" textLength="166" x="66" y="554.8857">void _updateLabelFile()</text><ellipse cx="57" cy="567.8359" fill="#84BE84" rx="3" ry="3" style="stroke:#038048;stroke-width:1.0;"/><text fill="#000000" font-family="sans-serif" font-size="14" lengthAdjust="spacing" textLength="101" x="66" y="571.1826">Widget build()</text><ellipse cx="57" cy="584.1328" fill="#84BE84" rx="3" ry="3" style="stroke:#038048;stroke-width:1.0;"/><text fill="#000000" font-family="sans-serif" font-size="14" lengthAdjust="spacing" textLength="184" x="66" y="587.4795">Widget boundingBoxes2()</text><ellipse cx="57" cy="600.4297" fill="#84BE84" rx="3" ry="3" style="stroke:#038048;stroke-width:1.0;"/><text fill="#000000" font-family="sans-serif" font-size="14" lengthAdjust="spacing" textLength="153" x="66" y="603.7764">void resultsCallback()</text></g><!--class ResultsRow--><g id="elem_ResultsRow"><rect codeLine="120" fill="#F1F1F1" height="80.5938" id="ResultsRow" rx="2.5" ry="2.5" style="stroke:#181818;stroke-width:0.5;" width="307" x="801.5" y="489.5"/><ellipse cx="909.75" cy="505.5" fill="#ADD1B2" rx="11" ry="11" style="stroke:#181818;stroke-width:1.0;"/><path d="M912.0938,501.1719 C911.1563,500.7344 910.5625,500.5938 909.6875,500.5938 C907.0625,500.5938 905.0625,502.6719 905.0625,505.3906 L905.0625,506.5156 C905.0625,509.0938 907.1719,510.9844 910.0625,510.9844 C911.2813,510.9844 912.4375,510.6875 913.1875,510.1406 C913.7656,509.7344 914.0938,509.2813 914.0938,508.8906 C914.0938,508.4375 913.7031,508.0469 913.2344,508.0469 C913.0156,508.0469 912.8125,508.125 912.625,508.3125 C912.1719,508.7969 912.1719,508.7969 911.9844,508.8906 C911.5625,509.1563 910.875,509.2813 910.1094,509.2813 C908.0625,509.2813 906.7656,508.1875 906.7656,506.4844 L906.7656,505.3906 C906.7656,503.6094 908.0156,502.2969 909.75,502.2969 C910.3281,502.2969 910.9375,502.4531 911.4063,502.7031 C911.8906,502.9844 912.0625,503.2031 912.1563,503.6094 C912.2188,504.0156 912.25,504.1406 912.3906,504.2656 C912.5313,504.4063 912.7656,504.5156 912.9844,504.5156 C913.25,504.5156 913.5156,504.375 913.6875,504.1563 C913.7969,504 913.8281,503.8125 913.8281,503.3906 L913.8281,501.9688 C913.8281,501.5313 913.8125,501.4063 913.7188,501.25 C913.5625,500.9844 913.2813,500.8438 912.9844,500.8438 C912.6875,500.8438 912.4844,500.9375 912.2656,501.25 L912.0938,501.1719 Z " fill="#000000"/><text fill="#000000" font-family="sans-serif" font-size="14" lengthAdjust="spacing" textLength="82" x="930.25" y="510.3467">ResultsRow</text><line style="stroke:#181818;stroke-width:0.5;" x1="802.5" x2="1107.5" y1="521.5" y2="521.5"/><ellipse cx="812.5" cy="535.1484" fill="none" rx="3" ry="3" style="stroke:#038048;stroke-width:1.0;"/><text fill="#000000" font-family="sans-serif" font-size="14" lengthAdjust="spacing" textLength="281" x="821.5" y="538.4951">List&lt;ResultObjectDetection?&gt;? results</text><line style="stroke:#181818;stroke-width:0.5;" x1="802.5" x2="1107.5" y1="545.7969" y2="545.7969"/><ellipse cx="812.5" cy="559.4453" fill="#84BE84" rx="3" ry="3" style="stroke:#038048;stroke-width:1.0;"/><text fill="#000000" font-family="sans-serif" font-size="14" lengthAdjust="spacing" textLength="101" x="821.5" y="562.792">Widget build()</text></g><!--class ResultObjectDetection--><g id="elem_ResultObjectDetection"><rect fill="#F1F1F1" height="48" id="ResultObjectDetection" rx="2.5" ry="2.5" style="stroke:#181818;stroke-width:0.5;" width="199" x="3520.5" y="813"/><ellipse cx="3535.5" cy="829" fill="#ADD1B2" rx="11" ry="11" style="stroke:#181818;stroke-width:1.0;"/><path d="M3537.8438,824.6719 C3536.9063,824.2344 3536.3125,824.0938 3535.4375,824.0938 C3532.8125,824.0938 3530.8125,826.1719 3530.8125,828.8906 L3530.8125,830.0156 C3530.8125,832.5938 3532.9219,834.4844 3535.8125,834.4844 C3537.0313,834.4844 3538.1875,834.1875 3538.9375,833.6406 C3539.5156,833.2344 3539.8438,832.7813 3539.8438,832.3906 C3539.8438,831.9375 3539.4531,831.5469 3538.9844,831.5469 C3538.7656,831.5469 3538.5625,831.625 3538.375,831.8125 C3537.9219,832.2969 3537.9219,832.2969 3537.7344,832.3906 C3537.3125,832.6563 3536.625,832.7813 3535.8594,832.7813 C3533.8125,832.7813 3532.5156,831.6875 3532.5156,829.9844 L3532.5156,828.8906 C3532.5156,827.1094 3533.7656,825.7969 3535.5,825.7969 C3536.0781,825.7969 3536.6875,825.9531 3537.1563,826.2031 C3537.6406,826.4844 3537.8125,826.7031 3537.9063,827.1094 C3537.9688,827.5156 3538,827.6406 3538.1406,827.7656 C3538.2813,827.9063 3538.5156,828.0156 3538.7344,828.0156 C3539,828.0156 3539.2656,827.875 3539.4375,827.6563 C3539.5469,827.5 3539.5781,827.3125 3539.5781,826.8906 L3539.5781,825.4688 C3539.5781,825.0313 3539.5625,824.9063 3539.4688,824.75 C3539.3125,824.4844 3539.0313,824.3438 3538.7344,824.3438 C3538.4375,824.3438 3538.2344,824.4375 3538.0156,824.75 L3537.8438,824.6719 Z " fill="#000000"/><text fill="#000000" font-family="sans-serif" font-size="14" lengthAdjust="spacing" textLength="167" x="3549.5" y="833.8467">ResultObjectDetection</text><line style="stroke:#181818;stroke-width:0.5;" x1="3521.5" x2="3718.5" y1="845" y2="845"/><line style="stroke:#181818;stroke-width:0.5;" x1="3521.5" x2="3718.5" y1="853" y2="853"/></g><!--class ModelObjectDetection--><g id="elem_ModelObjectDetection"><rect fill="#F1F1F1" height="48" id="ModelObjectDetection" rx="2.5" ry="2.5" style="stroke:#181818;stroke-width:0.5;" width="197" x="3776.5" y="813"/><ellipse cx="3791.5" cy="829" fill="#ADD1B2" rx="11" ry="11" style="stroke:#181818;stroke-width:1.0;"/><path d="M3793.8438,824.6719 C3792.9063,824.2344 3792.3125,824.0938 3791.4375,824.0938 C3788.8125,824.0938 3786.8125,826.1719 3786.8125,828.8906 L3786.8125,830.0156 C3786.8125,832.5938 3788.9219,834.4844 3791.8125,834.4844 C3793.0313,834.4844 3794.1875,834.1875 3794.9375,833.6406 C3795.5156,833.2344 3795.8438,832.7813 3795.8438,832.3906 C3795.8438,831.9375 3795.4531,831.5469 3794.9844,831.5469 C3794.7656,831.5469 3794.5625,831.625 3794.375,831.8125 C3793.9219,832.2969 3793.9219,832.2969 3793.7344,832.3906 C3793.3125,832.6563 3792.625,832.7813 3791.8594,832.7813 C3789.8125,832.7813 3788.5156,831.6875 3788.5156,829.9844 L3788.5156,828.8906 C3788.5156,827.1094 3789.7656,825.7969 3791.5,825.7969 C3792.0781,825.7969 3792.6875,825.9531 3793.1563,826.2031 C3793.6406,826.4844 3793.8125,826.7031 3793.9063,827.1094 C3793.9688,827.5156 3794,827.6406 3794.1406,827.7656 C3794.2813,827.9063 3794.5156,828.0156 3794.7344,828.0156 C3795,828.0156 3795.2656,827.875 3795.4375,827.6563 C3795.5469,827.5 3795.5781,827.3125 3795.5781,826.8906 L3795.5781,825.4688 C3795.5781,825.0313 3795.5625,824.9063 3795.4688,824.75 C3795.3125,824.4844 3795.0313,824.3438 3794.7344,824.3438 C3794.4375,824.3438 3794.2344,824.4375 3794.0156,824.75 L3793.8438,824.6719 Z " fill="#000000"/><text fill="#000000" font-family="sans-serif" font-size="14" lengthAdjust="spacing" textLength="165" x="3805.5" y="833.8467">ModelObjectDetection</text><line style="stroke:#181818;stroke-width:0.5;" x1="3777.5" x2="3972.5" y1="845" y2="845"/><line style="stroke:#181818;stroke-width:0.5;" x1="3777.5" x2="3972.5" y1="853" y2="853"/></g><!--class Color--><g id="elem_Color"><rect fill="#F1F1F1" height="48" id="Color" rx="2.5" ry="2.5" style="stroke:#181818;stroke-width:0.5;" width="70" x="4078" y="813"/><ellipse cx="4093" cy="829" fill="#ADD1B2" rx="11" ry="11" style="stroke:#181818;stroke-width:1.0;"/><path d="M4095.3438,824.6719 C4094.4063,824.2344 4093.8125,824.0938 4092.9375,824.0938 C4090.3125,824.0938 4088.3125,826.1719 4088.3125,828.8906 L4088.3125,830.0156 C4088.3125,832.5938 4090.4219,834.4844 4093.3125,834.4844 C4094.5313,834.4844 4095.6875,834.1875 4096.4375,833.6406 C4097.0156,833.2344 4097.3438,832.7813 4097.3438,832.3906 C4097.3438,831.9375 4096.9531,831.5469 4096.4844,831.5469 C4096.2656,831.5469 4096.0625,831.625 4095.875,831.8125 C4095.4219,832.2969 4095.4219,832.2969 4095.2344,832.3906 C4094.8125,832.6563 4094.125,832.7813 4093.3594,832.7813 C4091.3125,832.7813 4090.0156,831.6875 4090.0156,829.9844 L4090.0156,828.8906 C4090.0156,827.1094 4091.2656,825.7969 4093,825.7969 C4093.5781,825.7969 4094.1875,825.9531 4094.6563,826.2031 C4095.1406,826.4844 4095.3125,826.7031 4095.4063,827.1094 C4095.4688,827.5156 4095.5,827.6406 4095.6406,827.7656 C4095.7813,827.9063 4096.0156,828.0156 4096.2344,828.0156 C4096.5,828.0156 4096.7656,827.875 4096.9375,827.6563 C4097.0469,827.5 4097.0781,827.3125 4097.0781,826.8906 L4097.0781,825.4688 C4097.0781,825.0313 4097.0625,824.9063 4096.9688,824.75 C4096.8125,824.4844 4096.5313,824.3438 4096.2344,824.3438 C4095.9375,824.3438 4095.7344,824.4375 4095.5156,824.75 L4095.3438,824.6719 Z " fill="#000000"/><text fill="#000000" font-family="sans-serif" font-size="14" lengthAdjust="spacing" textLength="38" x="4107" y="833.8467">Color</text><line style="stroke:#181818;stroke-width:0.5;" x1="4079" x2="4147" y1="845" y2="845"/><line style="stroke:#181818;stroke-width:0.5;" x1="4079" x2="4147" y1="853" y2="853"/></g><!--class Size--><g id="elem_Size"><rect fill="#F1F1F1" height="48" id="Size" rx="2.5" ry="2.5" style="stroke:#181818;stroke-width:0.5;" width="62" x="4183" y="813"/><ellipse cx="4198" cy="829" fill="#ADD1B2" rx="11" ry="11" style="stroke:#181818;stroke-width:1.0;"/><path d="M4200.3438,824.6719 C4199.4063,824.2344 4198.8125,824.0938 4197.9375,824.0938 C4195.3125,824.0938 4193.3125,826.1719 4193.3125,828.8906 L4193.3125,830.0156 C4193.3125,832.5938 4195.4219,834.4844 4198.3125,834.4844 C4199.5313,834.4844 4200.6875,834.1875 4201.4375,833.6406 C4202.0156,833.2344 4202.3438,832.7813 4202.3438,832.3906 C4202.3438,831.9375 4201.9531,831.5469 4201.4844,831.5469 C4201.2656,831.5469 4201.0625,831.625 4200.875,831.8125 C4200.4219,832.2969 4200.4219,832.2969 4200.2344,832.3906 C4199.8125,832.6563 4199.125,832.7813 4198.3594,832.7813 C4196.3125,832.7813 4195.0156,831.6875 4195.0156,829.9844 L4195.0156,828.8906 C4195.0156,827.1094 4196.2656,825.7969 4198,825.7969 C4198.5781,825.7969 4199.1875,825.9531 4199.6563,826.2031 C4200.1406,826.4844 4200.3125,826.7031 4200.4063,827.1094 C4200.4688,827.5156 4200.5,827.6406 4200.6406,827.7656 C4200.7813,827.9063 4201.0156,828.0156 4201.2344,828.0156 C4201.5,828.0156 4201.7656,827.875 4201.9375,827.6563 C4202.0469,827.5 4202.0781,827.3125 4202.0781,826.8906 L4202.0781,825.4688 C4202.0781,825.0313 4202.0625,824.9063 4201.9688,824.75 C4201.8125,824.4844 4201.5313,824.3438 4201.2344,824.3438 C4200.9375,824.3438 4200.7344,824.4375 4200.5156,824.75 L4200.3438,824.6719 Z " fill="#000000"/><text fill="#000000" font-family="sans-serif" font-size="14" lengthAdjust="spacing" textLength="30" x="4212" y="833.8467">Size</text><line style="stroke:#181818;stroke-width:0.5;" x1="4184" x2="4244" y1="845" y2="845"/><line style="stroke:#181818;stroke-width:0.5;" x1="4184" x2="4244" y1="853" y2="853"/></g><!--class StatelessWidget--><g id="elem_StatelessWidget"><rect fill="#F1F1F1" height="48" id="StatelessWidget" rx="2.5" ry="2.5" style="stroke:#181818;stroke-width:0.5;" width="151" x="1693.5" y="170"/><ellipse cx="1708.5" cy="186" fill="#ADD1B2" rx="11" ry="11" style="stroke:#181818;stroke-width:1.0;"/><path d="M1710.8438,181.6719 C1709.9063,181.2344 1709.3125,181.0938 1708.4375,181.0938 C1705.8125,181.0938 1703.8125,183.1719 1703.8125,185.8906 L1703.8125,187.0156 C1703.8125,189.5938 1705.9219,191.4844 1708.8125,191.4844 C1710.0313,191.4844 1711.1875,191.1875 1711.9375,190.6406 C1712.5156,190.2344 1712.8438,189.7813 1712.8438,189.3906 C1712.8438,188.9375 1712.4531,188.5469 1711.9844,188.5469 C1711.7656,188.5469 1711.5625,188.625 1711.375,188.8125 C1710.9219,189.2969 1710.9219,189.2969 1710.7344,189.3906 C1710.3125,189.6563 1709.625,189.7813 1708.8594,189.7813 C1706.8125,189.7813 1705.5156,188.6875 1705.5156,186.9844 L1705.5156,185.8906 C1705.5156,184.1094 1706.7656,182.7969 1708.5,182.7969 C1709.0781,182.7969 1709.6875,182.9531 1710.1563,183.2031 C1710.6406,183.4844 1710.8125,183.7031 1710.9063,184.1094 C1710.9688,184.5156 1711,184.6406 1711.1406,184.7656 C1711.2813,184.9063 1711.5156,185.0156 1711.7344,185.0156 C1712,185.0156 1712.2656,184.875 1712.4375,184.6563 C1712.5469,184.5 1712.5781,184.3125 1712.5781,183.8906 L1712.5781,182.4688 C1712.5781,182.0313 1712.5625,181.9063 1712.4688,181.75 C1712.3125,181.4844 1712.0313,181.3438 1711.7344,181.3438 C1711.4375,181.3438 1711.2344,181.4375 1711.0156,181.75 L1710.8438,181.6719 Z " fill="#000000"/><text fill="#000000" font-family="sans-serif" font-size="14" lengthAdjust="spacing" textLength="119" x="1722.5" y="190.8467">StatelessWidget</text><line style="stroke:#181818;stroke-width:0.5;" x1="1694.5" x2="1843.5" y1="202" y2="202"/><line style="stroke:#181818;stroke-width:0.5;" x1="1694.5" x2="1843.5" y1="210" y2="210"/></g><!--class StatefulWidget--><g id="elem_StatefulWidget"><rect fill="#F1F1F1" height="48" id="StatefulWidget" rx="2.5" ry="2.5" style="stroke:#181818;stroke-width:0.5;" width="142" x="1516" y="170"/><ellipse cx="1531" cy="186" fill="#ADD1B2" rx="11" ry="11" style="stroke:#181818;stroke-width:1.0;"/><path d="M1533.3438,181.6719 C1532.4063,181.2344 1531.8125,181.0938 1530.9375,181.0938 C1528.3125,181.0938 1526.3125,183.1719 1526.3125,185.8906 L1526.3125,187.0156 C1526.3125,189.5938 1528.4219,191.4844 1531.3125,191.4844 C1532.5313,191.4844 1533.6875,191.1875 1534.4375,190.6406 C1535.0156,190.2344 1535.3438,189.7813 1535.3438,189.3906 C1535.3438,188.9375 1534.9531,188.5469 1534.4844,188.5469 C1534.2656,188.5469 1534.0625,188.625 1533.875,188.8125 C1533.4219,189.2969 1533.4219,189.2969 1533.2344,189.3906 C1532.8125,189.6563 1532.125,189.7813 1531.3594,189.7813 C1529.3125,189.7813 1528.0156,188.6875 1528.0156,186.9844 L1528.0156,185.8906 C1528.0156,184.1094 1529.2656,182.7969 1531,182.7969 C1531.5781,182.7969 1532.1875,182.9531 1532.6563,183.2031 C1533.1406,183.4844 1533.3125,183.7031 1533.4063,184.1094 C1533.4688,184.5156 1533.5,184.6406 1533.6406,184.7656 C1533.7813,184.9063 1534.0156,185.0156 1534.2344,185.0156 C1534.5,185.0156 1534.7656,184.875 1534.9375,184.6563 C1535.0469,184.5 1535.0781,184.3125 1535.0781,183.8906 L1535.0781,182.4688 C1535.0781,182.0313 1535.0625,181.9063 1534.9688,181.75 C1534.8125,181.4844 1534.5313,181.3438 1534.2344,181.3438 C1533.9375,181.3438 1533.7344,181.4375 1533.5156,181.75 L1533.3438,181.6719 Z " fill="#000000"/><text fill="#000000" font-family="sans-serif" font-size="14" lengthAdjust="spacing" textLength="110" x="1545" y="190.8467">StatefulWidget</text><line style="stroke:#181818;stroke-width:0.5;" x1="1517" x2="1657" y1="202" y2="202"/><line style="stroke:#181818;stroke-width:0.5;" x1="1517" x2="1657" y1="210" y2="210"/></g><!--class State--><g id="elem_State"><rect fill="#F1F1F1" height="48" id="State" rx="2.5" ry="2.5" style="stroke:#181818;stroke-width:0.5;" width="72" x="1409" y="170"/><ellipse cx="1424" cy="186" fill="#ADD1B2" rx="11" ry="11" style="stroke:#181818;stroke-width:1.0;"/><path d="M1426.3438,181.6719 C1425.4063,181.2344 1424.8125,181.0938 1423.9375,181.0938 C1421.3125,181.0938 1419.3125,183.1719 1419.3125,185.8906 L1419.3125,187.0156 C1419.3125,189.5938 1421.4219,191.4844 1424.3125,191.4844 C1425.5313,191.4844 1426.6875,191.1875 1427.4375,190.6406 C1428.0156,190.2344 1428.3438,189.7813 1428.3438,189.3906 C1428.3438,188.9375 1427.9531,188.5469 1427.4844,188.5469 C1427.2656,188.5469 1427.0625,188.625 1426.875,188.8125 C1426.4219,189.2969 1426.4219,189.2969 1426.2344,189.3906 C1425.8125,189.6563 1425.125,189.7813 1424.3594,189.7813 C1422.3125,189.7813 1421.0156,188.6875 1421.0156,186.9844 L1421.0156,185.8906 C1421.0156,184.1094 1422.2656,182.7969 1424,182.7969 C1424.5781,182.7969 1425.1875,182.9531 1425.6563,183.2031 C1426.1406,183.4844 1426.3125,183.7031 1426.4063,184.1094 C1426.4688,184.5156 1426.5,184.6406 1426.6406,184.7656 C1426.7813,184.9063 1427.0156,185.0156 1427.2344,185.0156 C1427.5,185.0156 1427.7656,184.875 1427.9375,184.6563 C1428.0469,184.5 1428.0781,184.3125 1428.0781,183.8906 L1428.0781,182.4688 C1428.0781,182.0313 1428.0625,181.9063 1427.9688,181.75 C1427.8125,181.4844 1427.5313,181.3438 1427.2344,181.3438 C1426.9375,181.3438 1426.7344,181.4375 1426.5156,181.75 L1426.3438,181.6719 Z " fill="#000000"/><text fill="#000000" font-family="sans-serif" font-size="14" lengthAdjust="spacing" textLength="40" x="1438" y="190.8467">State</text><line style="stroke:#181818;stroke-width:0.5;" x1="1410" x2="1480" y1="202" y2="202"/><line style="stroke:#181818;stroke-width:0.5;" x1="1410" x2="1480" y1="210" y2="210"/></g><!--class WidgetsBindingObserver--><g id="elem_WidgetsBindingObserver"><rect fill="#F1F1F1" height="48" id="WidgetsBindingObserver" rx="2.5" ry="2.5" style="stroke:#181818;stroke-width:0.5;" width="211" x="1901.5" y="170"/><ellipse cx="1916.5" cy="186" fill="#ADD1B2" rx="11" ry="11" style="stroke:#181818;stroke-width:1.0;"/><path d="M1918.8438,181.6719 C1917.9063,181.2344 1917.3125,181.0938 1916.4375,181.0938 C1913.8125,181.0938 1911.8125,183.1719 1911.8125,185.8906 L1911.8125,187.0156 C1911.8125,189.5938 1913.9219,191.4844 1916.8125,191.4844 C1918.0313,191.4844 1919.1875,191.1875 1919.9375,190.6406 C1920.5156,190.2344 1920.8438,189.7813 1920.8438,189.3906 C1920.8438,188.9375 1920.4531,188.5469 1919.9844,188.5469 C1919.7656,188.5469 1919.5625,188.625 1919.375,188.8125 C1918.9219,189.2969 1918.9219,189.2969 1918.7344,189.3906 C1918.3125,189.6563 1917.625,189.7813 1916.8594,189.7813 C1914.8125,189.7813 1913.5156,188.6875 1913.5156,186.9844 L1913.5156,185.8906 C1913.5156,184.1094 1914.7656,182.7969 1916.5,182.7969 C1917.0781,182.7969 1917.6875,182.9531 1918.1563,183.2031 C1918.6406,183.4844 1918.8125,183.7031 1918.9063,184.1094 C1918.9688,184.5156 1919,184.6406 1919.1406,184.7656 C1919.2813,184.9063 1919.5156,185.0156 1919.7344,185.0156 C1920,185.0156 1920.2656,184.875 1920.4375,184.6563 C1920.5469,184.5 1920.5781,184.3125 1920.5781,183.8906 L1920.5781,182.4688 C1920.5781,182.0313 1920.5625,181.9063 1920.4688,181.75 C1920.3125,181.4844 1920.0313,181.3438 1919.7344,181.3438 C1919.4375,181.3438 1919.2344,181.4375 1919.0156,181.75 L1918.8438,181.6719 Z " fill="#000000"/><text fill="#000000" font-family="sans-serif" font-size="14" lengthAdjust="spacing" textLength="179" x="1930.5" y="190.8467">WidgetsBindingObserver</text><line style="stroke:#181818;stroke-width:0.5;" x1="1902.5" x2="2111.5" y1="202" y2="202"/><line style="stroke:#181818;stroke-width:0.5;" x1="1902.5" x2="2111.5" y1="210" y2="210"/></g><!--class BorderRadius--><g id="elem_BorderRadius"><rect fill="#F1F1F1" height="48" id="BorderRadius" rx="2.5" ry="2.5" style="stroke:#181818;stroke-width:0.5;" width="127" x="1170.5" y="170"/><ellipse cx="1185.5" cy="186" fill="#ADD1B2" rx="11" ry="11" style="stroke:#181818;stroke-width:1.0;"/><path d="M1187.8438,181.6719 C1186.9063,181.2344 1186.3125,181.0938 1185.4375,181.0938 C1182.8125,181.0938 1180.8125,183.1719 1180.8125,185.8906 L1180.8125,187.0156 C1180.8125,189.5938 1182.9219,191.4844 1185.8125,191.4844 C1187.0313,191.4844 1188.1875,191.1875 1188.9375,190.6406 C1189.5156,190.2344 1189.8438,189.7813 1189.8438,189.3906 C1189.8438,188.9375 1189.4531,188.5469 1188.9844,188.5469 C1188.7656,188.5469 1188.5625,188.625 1188.375,188.8125 C1187.9219,189.2969 1187.9219,189.2969 1187.7344,189.3906 C1187.3125,189.6563 1186.625,189.7813 1185.8594,189.7813 C1183.8125,189.7813 1182.5156,188.6875 1182.5156,186.9844 L1182.5156,185.8906 C1182.5156,184.1094 1183.7656,182.7969 1185.5,182.7969 C1186.0781,182.7969 1186.6875,182.9531 1187.1563,183.2031 C1187.6406,183.4844 1187.8125,183.7031 1187.9063,184.1094 C1187.9688,184.5156 1188,184.6406 1188.1406,184.7656 C1188.2813,184.9063 1188.5156,185.0156 1188.7344,185.0156 C1189,185.0156 1189.2656,184.875 1189.4375,184.6563 C1189.5469,184.5 1189.5781,184.3125 1189.5781,183.8906 L1189.5781,182.4688 C1189.5781,182.0313 1189.5625,181.9063 1189.4688,181.75 C1189.3125,181.4844 1189.0313,181.3438 1188.7344,181.3438 C1188.4375,181.3438 1188.2344,181.4375 1188.0156,181.75 L1187.8438,181.6719 Z " fill="#000000"/><text fill="#000000" font-family="sans-serif" font-size="14" lengthAdjust="spacing" textLength="95" x="1199.5" y="190.8467">BorderRadius</text><line style="stroke:#181818;stroke-width:0.5;" x1="1171.5" x2="1296.5" y1="202" y2="202"/><line style="stroke:#181818;stroke-width:0.5;" x1="1171.5" x2="1296.5" y1="210" y2="210"/></g><!--class dynamic Function(List<ResultObjectDetection>)--><g id="elem_dynamic Function(List&lt;ResultObjectDetection&gt;)"><rect fill="#F1F1F1" height="48" id="dynamic Function(List&lt;ResultObjectDetection&gt;)" rx="2.5" ry="2.5" style="stroke:#181818;stroke-width:0.5;" width="383" x="4325.5" y="813"/><ellipse cx="4340.5" cy="829" fill="#ADD1B2" rx="11" ry="11" style="stroke:#181818;stroke-width:1.0;"/><path d="M4342.8438,824.6719 C4341.9063,824.2344 4341.3125,824.0938 4340.4375,824.0938 C4337.8125,824.0938 4335.8125,826.1719 4335.8125,828.8906 L4335.8125,830.0156 C4335.8125,832.5938 4337.9219,834.4844 4340.8125,834.4844 C4342.0313,834.4844 4343.1875,834.1875 4343.9375,833.6406 C4344.5156,833.2344 4344.8438,832.7813 4344.8438,832.3906 C4344.8438,831.9375 4344.4531,831.5469 4343.9844,831.5469 C4343.7656,831.5469 4343.5625,831.625 4343.375,831.8125 C4342.9219,832.2969 4342.9219,832.2969 4342.7344,832.3906 C4342.3125,832.6563 4341.625,832.7813 4340.8594,832.7813 C4338.8125,832.7813 4337.5156,831.6875 4337.5156,829.9844 L4337.5156,828.8906 C4337.5156,827.1094 4338.7656,825.7969 4340.5,825.7969 C4341.0781,825.7969 4341.6875,825.9531 4342.1563,826.2031 C4342.6406,826.4844 4342.8125,826.7031 4342.9063,827.1094 C4342.9688,827.5156 4343,827.6406 4343.1406,827.7656 C4343.2813,827.9063 4343.5156,828.0156 4343.7344,828.0156 C4344,828.0156 4344.2656,827.875 4344.4375,827.6563 C4344.5469,827.5 4344.5781,827.3125 4344.5781,826.8906 L4344.5781,825.4688 C4344.5781,825.0313 4344.5625,824.9063 4344.4688,824.75 C4344.3125,824.4844 4344.0313,824.3438 4343.7344,824.3438 C4343.4375,824.3438 4343.2344,824.4375 4343.0156,824.75 L4342.8438,824.6719 Z " fill="#000000"/><text fill="#000000" font-family="sans-serif" font-size="14" lengthAdjust="spacing" textLength="351" x="4354.5" y="833.8467">dynamic Function(List&lt;ResultObjectDetection&gt;)</text><line style="stroke:#181818;stroke-width:0.5;" x1="4326.5" x2="4707.5" y1="845" y2="845"/><line style="stroke:#181818;stroke-width:0.5;" x1="4326.5" x2="4707.5" y1="853" y2="853"/></g><!--class CameraController--><g id="elem_CameraController"><rect fill="#F1F1F1" height="48" id="CameraController" rx="2.5" ry="2.5" style="stroke:#181818;stroke-width:0.5;" width="160" x="4813" y="813"/><ellipse cx="4828" cy="829" fill="#ADD1B2" rx="11" ry="11" style="stroke:#181818;stroke-width:1.0;"/><path d="M4830.3438,824.6719 C4829.4063,824.2344 4828.8125,824.0938 4827.9375,824.0938 C4825.3125,824.0938 4823.3125,826.1719 4823.3125,828.8906 L4823.3125,830.0156 C4823.3125,832.5938 4825.4219,834.4844 4828.3125,834.4844 C4829.5313,834.4844 4830.6875,834.1875 4831.4375,833.6406 C4832.0156,833.2344 4832.3438,832.7813 4832.3438,832.3906 C4832.3438,831.9375 4831.9531,831.5469 4831.4844,831.5469 C4831.2656,831.5469 4831.0625,831.625 4830.875,831.8125 C4830.4219,832.2969 4830.4219,832.2969 4830.2344,832.3906 C4829.8125,832.6563 4829.125,832.7813 4828.3594,832.7813 C4826.3125,832.7813 4825.0156,831.6875 4825.0156,829.9844 L4825.0156,828.8906 C4825.0156,827.1094 4826.2656,825.7969 4828,825.7969 C4828.5781,825.7969 4829.1875,825.9531 4829.6563,826.2031 C4830.1406,826.4844 4830.3125,826.7031 4830.4063,827.1094 C4830.4688,827.5156 4830.5,827.6406 4830.6406,827.7656 C4830.7813,827.9063 4831.0156,828.0156 4831.2344,828.0156 C4831.5,828.0156 4831.7656,827.875 4831.9375,827.6563 C4832.0469,827.5 4832.0781,827.3125 4832.0781,826.8906 L4832.0781,825.4688 C4832.0781,825.0313 4832.0625,824.9063 4831.9688,824.75 C4831.8125,824.4844 4831.5313,824.3438 4831.2344,824.3438 C4830.9375,824.3438 4830.7344,824.4375 4830.5156,824.75 L4830.3438,824.6719 Z " fill="#000000"/><text fill="#000000" font-family="sans-serif" font-size="14" lengthAdjust="spacing" textLength="128" x="4842" y="833.8467">CameraController</text><line style="stroke:#181818;stroke-width:0.5;" x1="4814" x2="4972" y1="845" y2="845"/><line style="stroke:#181818;stroke-width:0.5;" x1="4814" x2="4972" y1="853" y2="853"/></g><!--reverse link BoxWidget to ResultObjectDetection--><g id="link_BoxWidget_ResultObjectDetection"><path codeLine="10" d="M2201.18,596.112 C2231.26,625.478 2270.35,657.628 2312,676 C2529.17,771.79 3253.62,817.413 3520.33,831.262 " fill="none" id="BoxWidget-backto-ResultObjectDetection" style="stroke:#181818;stroke-width:1.0;"/><polygon fill="none" points="2191.74,586.697,2193.1614,593.7666,2200.2338,595.1737,2198.8125,588.1041,2191.74,586.697" style="stroke:#181818;stroke-width:1.0;"/></g><!--reverse link BoxWidget to Color--><g id="link_BoxWidget_Color"><path codeLine="11" d="M2198.6,596.555 C2228.67,626.911 2268.53,659.789 2312,676 C2355.67,692.287 3947.98,663.826 3990,684 C4046.16,710.961 4085,777.368 4102.5,812.819 " fill="none" id="BoxWidget-backto-Color" style="stroke:#181818;stroke-width:1.0;"/><polygon fill="none" points="2189.19,586.812,2190.4847,593.9059,2197.5309,595.4392,2196.2362,588.3453,2189.19,586.812" style="stroke:#181818;stroke-width:1.0;"/></g><!--reverse link StatelessWidget to BoxWidget--><g id="link_StatelessWidget_BoxWidget"><path codeLine="12" d="M1795.57,234.545 C1816.39,261.979 1847.98,296.601 1885,314 C1924.95,332.778 1945.22,300.906 1984,322 C2045.7,355.564 2090.97,424.369 2117.09,473.436 " fill="none" id="StatelessWidget-backto-BoxWidget" style="stroke:#181818;stroke-width:1.0;"/><polygon fill="none" points="1789.8,238.521,1783.77,218.21,1801.15,230.322,1789.8,238.521" style="stroke:#181818;stroke-width:1.0;"/></g><!--reverse link CameraView to dynamic Function(List<ResultObjectDetection>)--><g id="link_CameraView_dynamic Function(List&lt;ResultObjectDetection&gt;)"><path codeLine="20" d="M2909.19,585.755 C2960.19,618.961 3030.33,658.247 3099,676 C3161.5,692.158 4198.81,666.697 4261,684 C4352.63,709.491 4444.79,776.862 4489.38,812.742 " fill="none" id="CameraView-backto-dynamic Function(List&lt;ResultObjectDetection&gt;)" style="stroke:#181818;stroke-width:1.0;"/><polygon fill="none" points="2898.28,578.554,2901.0859,585.1968,2908.2969,585.1616,2905.491,578.5188,2898.28,578.554" style="stroke:#181818;stroke-width:1.0;"/></g><!--reverse link CameraView to Model--><g id="link_CameraView_Model"><path codeLine="21" d="M2742.91,585.03 C2687.35,616.079 2613.63,653.303 2544,676 C2253.63,770.646 1894.72,811.403 1708.81,827.187 " fill="none" id="CameraView-backto-Model" style="stroke:#181818;stroke-width:1.0;"/><polygon fill="none" points="2754.48,578.506,2747.2889,577.9689,2744.0273,584.4002,2751.2184,584.9373,2754.48,578.506" style="stroke:#181818;stroke-width:1.0;"/></g><!--reverse link StatefulWidget to CameraView--><g id="link_StatefulWidget_CameraView"><path codeLine="22" d="M1605.45,236.17 C1620.22,263.673 1643.81,297.69 1676,314 C1697.51,324.897 2521.08,314.521 2544,322 C2640.81,353.587 2732.88,430.448 2786.11,481.101 " fill="none" id="StatefulWidget-backto-CameraView" style="stroke:#181818;stroke-width:1.0;"/><polygon fill="none" points="1599.08,239.08,1596.44,218.055,1611.62,232.848,1599.08,239.08" style="stroke:#181818;stroke-width:1.0;"/></g><!--reverse link _CameraViewState to CameraController--><g id="link__CameraViewState_CameraController"><path codeLine="39" d="M3428.78,535.419 C3759.18,546.43 4496.51,581.975 4725,684 C4790.54,713.268 4848.02,778.054 4875.62,812.844 " fill="none" id="_CameraViewState-backto-CameraController" style="stroke:#181818;stroke-width:1.0;"/><polygon fill="none" points="3415.76,534.991,3421.6249,539.1866,3427.7535,535.3866,3421.8886,531.191,3415.76,534.991" style="stroke:#181818;stroke-width:1.0;"/></g><!--reverse link _CameraViewState to ModelObjectDetection--><g id="link__CameraViewState_ModelObjectDetection"><path codeLine="40" d="M3428.31,562.034 C3523.3,585.33 3642.54,623.783 3736,684 C3790.11,718.863 3836.85,779.846 3859.83,812.983 " fill="none" id="_CameraViewState-backto-ModelObjectDetection" style="stroke:#181818;stroke-width:1.0;"/><polygon fill="none" points="3415.67,558.987,3420.567,564.2803,3427.3366,561.7959,3422.4396,556.5025,3415.67,558.987" style="stroke:#181818;stroke-width:1.0;"/></g><!--reverse link State to _CameraViewState--><g id="link_State__CameraViewState"><path codeLine="41" d="M1452.08,238.012 C1458.95,264.786 1472.3,297.22 1498,314 C1516.62,326.156 3078.96,312.359 3099,322 C3138.11,340.82 3171.02,373.728 3197,407.841 " fill="none" id="State-backto-_CameraViewState" style="stroke:#181818;stroke-width:1.0;"/><polygon fill="none" points="1445.18,239.18,1447.85,218.16,1458.87,236.261,1445.18,239.18" style="stroke:#181818;stroke-width:1.0;"/></g><!--reverse link WidgetsBindingObserver to _CameraViewState--><g id="link_WidgetsBindingObserver__CameraViewState"><path codeLine="42" d="M2132.9,197.808 C2383.67,205.298 2935.43,231.82 3099,322 C3136.1,342.454 3168.06,374.836 3193.79,407.969 " fill="none" id="WidgetsBindingObserver-backto-_CameraViewState" style="stroke:#181818;stroke-width:1.0;"/><polygon fill="none" points="2132.64,204.804,2112.85,197.231,2133.04,190.809,2132.64,204.804" style="stroke:#181818;stroke-width:1.0;"/></g><!--reverse link CameraViewSingleton to Size--><g id="link_CameraViewSingleton_Size"><path codeLine="52" d="M2479,604.957 C2502.53,632.675 2533.04,661.055 2568,676 C2588.41,684.724 4148.13,670.835 4166,684 C4206.55,713.874 4213.7,778.097 4214.45,812.729 " fill="none" id="CameraViewSingleton-backto-Size" style="stroke:#181818;stroke-width:1.0;"/><polygon fill="none" points="2470.65,594.801,2471.3702,601.976,2478.2703,604.0709,2477.5501,596.8958,2470.65,594.801" style="stroke:#181818;stroke-width:1.0;"/></g><!--reverse link StatelessWidget to ModelManagementApp--><g id="link_StatelessWidget_ModelManagementApp"><path codeLine="58" d="M1781.61,237.554 C1801.82,305.718 1840.97,437.813 1858.78,497.896 " fill="none" id="StatelessWidget-backto-ModelManagementApp" style="stroke:#181818;stroke-width:1.0;"/><polygon fill="none" points="1774.86,239.386,1775.88,218.221,1788.28,235.407,1774.86,239.386" style="stroke:#181818;stroke-width:1.0;"/></g><!--reverse link StatefulWidget to ModelListScreen--><g id="link_StatefulWidget_ModelListScreen"><path codeLine="64" d="M1587,238.441 C1587,306.858 1587,438.072 1587,497.896 " fill="none" id="StatefulWidget-backto-ModelListScreen" style="stroke:#181818;stroke-width:1.0;"/><polygon fill="none" points="1580,238.221,1587,218.221,1594,238.221,1580,238.221" style="stroke:#181818;stroke-width:1.0;"/></g><!--reverse link _ModelListScreenState to ModelManager--><g id="link__ModelListScreenState_ModelManager"><path codeLine="77" d="M1285,632.366 C1285,675.425 1285,724.635 1285,763.891 " fill="none" id="_ModelListScreenState-backto-ModelManager" style="stroke:#181818;stroke-width:1.0;"/><polygon fill="none" points="1285,619.219,1281,625.219,1285,631.219,1289,625.219,1285,619.219" style="stroke:#181818;stroke-width:1.0;"/></g><!--reverse link State to _ModelListScreenState--><g id="link_State__ModelListScreenState"><path codeLine="78" d="M1425.18,236.377 C1400.84,287.192 1358.88,374.77 1327.2,440.907 " fill="none" id="State-backto-_ModelListScreenState" style="stroke:#181818;stroke-width:1.0;"/><polygon fill="none" points="1418.92,233.234,1433.88,218.221,1431.55,239.282,1418.92,233.234" style="stroke:#181818;stroke-width:1.0;"/></g><!--reverse link RunModelByCamera to Model--><g id="link_RunModelByCamera_Model"><path codeLine="104" d="M650.536,580.503 C683.147,614.47 731.378,656.753 784,676 C818.334,688.558 1408.56,669.234 1442,684 C1476.69,699.315 1506.81,727.638 1530.27,755.721 " fill="none" id="RunModelByCamera-backto-Model" style="stroke:#181818;stroke-width:1.0;"/><polygon fill="none" points="641.345,570.718,642.5371,577.8299,649.5604,579.4648,648.3683,572.3529,641.345,570.718" style="stroke:#181818;stroke-width:1.0;"/></g><!--reverse link StatefulWidget to RunModelByCamera--><g id="link_StatefulWidget_RunModelByCamera"><path codeLine="105" d="M1568.54,236.15 C1553.76,263.644 1530.18,297.658 1498,314 C1462.63,331.963 819.913,305.151 784,322 C709.907,356.762 655.404,439.485 627.97,489.193 " fill="none" id="StatefulWidget-backto-RunModelByCamera" style="stroke:#181818;stroke-width:1.0;"/><polygon fill="none" points="1562.37,232.83,1577.55,218.042,1574.91,239.067,1562.37,232.83" style="stroke:#181818;stroke-width:1.0;"/></g><!--reverse link _RunModelByCameraState to BorderRadius--><g id="link__RunModelByCameraState_BorderRadius"><path codeLine="117" d="M295.447,438.885 C331.022,396.626 378.632,349.603 432,322 C561.361,255.09 1004.37,213.455 1170.44,199.884 " fill="none" id="_RunModelByCameraState-backto-BorderRadius" style="stroke:#181818;stroke-width:1.0;"/><polygon fill="none" points="287.126,448.944,294.0326,446.8707,294.7752,439.698,287.8686,441.7712,287.126,448.944" style="stroke:#181818;stroke-width:1.0;"/></g><!--reverse link State to _RunModelByCameraState--><g id="link_State__RunModelByCameraState"><path codeLine="118" d="M1415.35,234.172 C1391.47,262.26 1355.18,297.873 1314,314 C1268.37,331.868 477.07,302.767 432,322 C370.922,348.065 319.041,402.443 283.155,448.925 " fill="none" id="State-backto-_RunModelByCameraState" style="stroke:#181818;stroke-width:1.0;"/><polygon fill="none" points="1410.19,229.419,1428.23,218.303,1421.06,238.243,1410.19,229.419" style="stroke:#181818;stroke-width:1.0;"/></g><!--reverse link StatelessWidget to ResultsRow--><g id="link_StatelessWidget_ResultsRow"><path codeLine="125" d="M1749.14,235.773 C1733.26,263.345 1708.18,297.613 1675,314 C1648.8,326.941 1175.73,310.176 1149,322 C1070.85,356.572 1009.52,439.363 978.109,489.134 " fill="none" id="StatelessWidget-backto-ResultsRow" style="stroke:#181818;stroke-width:1.0;"/><polygon fill="none" points="1743.02,232.37,1758.64,218.056,1755.36,238.989,1743.02,232.37" style="stroke:#181818;stroke-width:1.0;"/></g><!--SRC=[nLTBRziu4BxxLn0-DMYzXpqAWOFOJj0MoJgmixj7WQR63bkQ54ZAhhVjVz_XGx8iFvK6knTR-aQSvyVXq80baYx1v9J157AggLMQ94cdmmGrXdJLx0imcsPWyOyhcIGpzIrTysm1zhUCQfia0_NjR__U9TyxXBoVW2c47Vk5et8TqHvryg4IIjyGr0F6FpjmffGWvaMjdq0pa9OkmC51CPaLN6JlhZe_EvsM7gbUZtJdeh0MT9flC3hsaYGvNu2IyUk3_dPVPIYW1KyI7nWgYQQJn6YM966nIPAvngolbVuQ5KqjjI30c5BTzG-dhvKB9sh6q9gcwOh3EYuRUkGl16BLiWqIWJDoNqY_wDq3D_RwO6vk-bUnd6P8XPXHzjLfU5GP2B9ql-urtPhmqH6c0V_yyz5IddRKvrWMGYH92tVxLzrNcjfVvADBbrGYFtLSvkDkMUfv8SvL-gH_hMhTh4IikCzO48t0CCrpdoqI51Y_LVtZK4chbH20kvOra6hlvXeoZYx81K8zdvCcRKWQl7qiAR9IF2DSSbkI0h7xmXOQhcDz-qGecla5GRoxvDPi96i8E1Ny7mYU1r6ZYTJ8hkG3QZ7sqnBhURkYND2PW9h2Z6V35ofHcESFV0vimmJKl8qVcLoPDgJUhuZdM_Wm4YYkObMgTrYmhK3tbqpkjSO6KEVuVejiG_asJDzpzgYf6PSPSYwk2vKsWm2EPmRq2ZFqIvOlsccfGNi2R7MerDIKah3jlXjKozbF9A4ga6m4ZrokTWHJv2_13GaWtUE-ZCky29mzBAVC5bGyQLXv-nTzyl4yUIyBid4GEjsdahYaNDP9zkXxwn970DnoiLCTc0BU-bmzxKOB_rrNdVhQHUVJ1dpiC7pZu-E4NvT5Sz3l-j7XvVrmu9jg00Y9qm6EBqTwVSzZQTNXJHqrT0NxABwZizlp8C8qo_w0jOT7sF_Luc3ZFqpmyo6tdGLYr6_M7yzwUAgWHmUMKCcfrRXr_IMWAcp0S11mIi5KE9Us7tfFx2dl4I6IrVHasq6YXiwvW2TgNpn9Q1uDV23L8M_LPuCpd2zH-r3AVFk8Ud60A8D0UZ5iTC5wARn7Xr2qB9Ffh3kiDe0uOlL9WuMbiCR_seHYwZF1bgXEySxge3f7_-oj4DKtvapyaqBwRmURq7VBwqi3ZeLjJkFDpowVoI-s-__Fp9UwsZxBX_DNRuT7haetvLLfvmmUA9s1dj2C5uOCnfFHtIITt8u-_JbD1-Fdv_5ZElruT_Tykd4MUOR80vtLERO_x9Q8AlnKD73txjzhL6rSvThou5XcwkDbh6-EZSpT4DmrriMVQf-0wYQxpScRzSvsJhzYzuNaJTIw9HV-Yw7clC__0W00]--></g></svg>