<?xml version="1.0" encoding="us-ascii" standalone="no"?><svg xmlns="http://www.w3.org/2000/svg" xmlns:xlink="http://www.w3.org/1999/xlink" contentStyleType="text/css" height="1032px" preserveAspectRatio="none" style="width:5216px;height:1032px;background:#FFFFFF;" version="1.1" viewBox="0 0 5216 1032" width="5216px" zoomAndPan="magnify"><defs/><g><!--cluster object_detection--><g id="cluster_object_detection"><path d="M8.5,330 L145.5,330 A3.75,3.75 0 0 1 148,332.5 L155,352.2969 L3501.5,352.2969 A2.5,2.5 0 0 1 3504,354.7969 L3504,1022.5 A2.5,2.5 0 0 1 3501.5,1025 L8.5,1025 A2.5,2.5 0 0 1 6,1022.5 L6,332.5 A2.5,2.5 0 0 1 8.5,330 " fill="none" style="stroke:#000000;stroke-width:1.5;"/><line style="stroke:#000000;stroke-width:1.5;" x1="6" x2="155" y1="352.2969" y2="352.2969"/><text fill="#000000" font-family="sans-serif" font-size="14" font-weight="bold" lengthAdjust="spacing" textLength="136" x="10" y="344.9951">object_detection</text></g><!--cluster flutterObjectDetection--><g id="cluster_flutterObjectDetection"><path d="M891.5,373 L1078.5,373 A3.75,3.75 0 0 1 1081,375.5 L1088,395.2969 L3477.5,395.2969 A2.5,2.5 0 0 1 3480,397.7969 L3480,732.5 A2.5,2.5 0 0 1 3477.5,735 L891.5,735 A2.5,2.5 0 0 1 889,732.5 L889,375.5 A2.5,2.5 0 0 1 891.5,373 " fill="none" style="stroke:#000000;stroke-width:1.5;"/><line style="stroke:#000000;stroke-width:1.5;" x1="889" x2="1088" y1="395.2969" y2="395.2969"/><text fill="#000000" font-family="sans-serif" font-size="14" font-weight="bold" lengthAdjust="spacing" textLength="186" x="893" y="387.9951">flutterObjectDetection</text></g><!--cluster box_widget.dart--><g id="cluster_box_widget.dart"><path d="M2034.5,481.5 L2166.5,481.5 A3.75,3.75 0 0 1 2169,484 L2176,503.7969 L2299.5,503.7969 A2.5,2.5 0 0 1 2302,506.2969 L2302,643 A2.5,2.5 0 0 1 2299.5,645.5 L2034.5,645.5 A2.5,2.5 0 0 1 2032,643 L2032,484 A2.5,2.5 0 0 1 2034.5,481.5 " fill="none" style="stroke:#000000;stroke-width:1.5;"/><line style="stroke:#000000;stroke-width:1.5;" x1="2032" x2="2176" y1="503.7969" y2="503.7969"/><text fill="#000000" font-family="sans-serif" font-size="14" font-weight="bold" lengthAdjust="spacing" textLength="131" x="2036" y="496.4951">box_widget.dart</text></g><!--cluster camera_view.dart--><g id="cluster_camera_view.dart"><path d="M2594.5,416 L2738.5,416 A3.75,3.75 0 0 1 2741,418.5 L2748,438.2969 L3453.5,438.2969 A2.5,2.5 0 0 1 3456,440.7969 L3456,708.5 A2.5,2.5 0 0 1 3453.5,711 L2594.5,711 A2.5,2.5 0 0 1 2592,708.5 L2592,418.5 A2.5,2.5 0 0 1 2594.5,416 " fill="none" style="stroke:#000000;stroke-width:1.5;"/><line style="stroke:#000000;stroke-width:1.5;" x1="2592" x2="2748" y1="438.2969" y2="438.2969"/><text fill="#000000" font-family="sans-serif" font-size="14" font-weight="bold" lengthAdjust="spacing" textLength="143" x="2596" y="430.9951">camera_view.dart</text></g><!--cluster camera_view_singleton.dart--><g id="cluster_camera_view_singleton.dart"><path d="M2328.5,473.5 L2555.5,473.5 A3.75,3.75 0 0 1 2558,476 L2565,495.7969 L2565.5,495.7969 A2.5,2.5 0 0 1 2568,498.2969 L2568,651 A2.5,2.5 0 0 1 2565.5,653.5 L2328.5,653.5 A2.5,2.5 0 0 1 2326,651 L2326,476 A2.5,2.5 0 0 1 2328.5,473.5 " fill="none" style="stroke:#000000;stroke-width:1.5;"/><line style="stroke:#000000;stroke-width:1.5;" x1="2326" x2="2565" y1="495.7969" y2="495.7969"/><text fill="#000000" font-family="sans-serif" font-size="14" font-weight="bold" lengthAdjust="spacing" textLength="226" x="2330" y="488.4951">camera_view_singleton.dart</text></g><!--cluster RunModelByCamera.dart--><g id="cluster_RunModelByCamera.dart"><path d="M915.5,424.5 L1116.5,424.5 A3.75,3.75 0 0 1 1119,427 L1126,446.7969 L2005.5,446.7969 A2.5,2.5 0 0 1 2008,449.2969 L2008,700 A2.5,2.5 0 0 1 2005.5,702.5 L915.5,702.5 A2.5,2.5 0 0 1 913,700 L913,427 A2.5,2.5 0 0 1 915.5,424.5 " fill="none" style="stroke:#000000;stroke-width:1.5;"/><line style="stroke:#000000;stroke-width:1.5;" x1="913" x2="1126" y1="446.7969" y2="446.7969"/><text fill="#000000" font-family="sans-serif" font-size="14" font-weight="bold" lengthAdjust="spacing" textLength="200" x="917" y="439.4951">RunModelByCamera.dart</text></g><!--cluster model_manager.dart--><g id="cluster_model_manager.dart"><path d="M977.5,788 L1145.5,788 A3.75,3.75 0 0 1 1148,790.5 L1155,810.2969 L1568.5,810.2969 A2.5,2.5 0 0 1 1571,812.7969 L1571,998.5 A2.5,2.5 0 0 1 1568.5,1001 L977.5,1001 A2.5,2.5 0 0 1 975,998.5 L975,790.5 A2.5,2.5 0 0 1 977.5,788 " fill="none" style="stroke:#000000;stroke-width:1.5;"/><line style="stroke:#000000;stroke-width:1.5;" x1="975" x2="1155" y1="810.2969" y2="810.2969"/><text fill="#000000" font-family="sans-serif" font-size="14" font-weight="bold" lengthAdjust="spacing" textLength="167" x="979" y="802.9951">model_manager.dart</text></g><!--cluster main.dart--><g id="cluster_main.dart"><path d="M32.5,449 L113.5,449 A3.75,3.75 0 0 1 116,451.5 L123,471.2969 L862.5,471.2969 A2.5,2.5 0 0 1 865,473.7969 L865,675.5 A2.5,2.5 0 0 1 862.5,678 L32.5,678 A2.5,2.5 0 0 1 30,675.5 L30,451.5 A2.5,2.5 0 0 1 32.5,449 " fill="none" style="stroke:#000000;stroke-width:1.5;"/><line style="stroke:#000000;stroke-width:1.5;" x1="30" x2="123" y1="471.2969" y2="471.2969"/><text fill="#000000" font-family="sans-serif" font-size="14" font-weight="bold" lengthAdjust="spacing" textLength="80" x="34" y="463.9951">main.dart</text></g><!--cluster flutter_pytorch--><g id="cluster_flutter_pytorch"><path d="M3530.5,802 L3655.5,802 A3.75,3.75 0 0 1 3658,804.5 L3665,824.2969 L4059.5,824.2969 A2.5,2.5 0 0 1 4062,826.7969 L4062,965.5 A2.5,2.5 0 0 1 4059.5,968 L3530.5,968 A2.5,2.5 0 0 1 3528,965.5 L3528,804.5 A2.5,2.5 0 0 1 3530.5,802 " fill="none" style="stroke:#000000;stroke-width:1.5;"/><line style="stroke:#000000;stroke-width:1.5;" x1="3528" x2="3665" y1="824.2969" y2="824.2969"/><text fill="#000000" font-family="sans-serif" font-size="14" font-weight="bold" lengthAdjust="spacing" textLength="124" x="3532" y="816.9951">flutter_pytorch</text></g><!--cluster pigeon.dart--><g id="cluster_pigeon.dart"><path d="M3554.5,845 L3649.5,845 A3.75,3.75 0 0 1 3652,847.5 L3659,867.2969 L3781.5,867.2969 A2.5,2.5 0 0 1 3784,869.7969 L3784,941.5 A2.5,2.5 0 0 1 3781.5,944 L3554.5,944 A2.5,2.5 0 0 1 3552,941.5 L3552,847.5 A2.5,2.5 0 0 1 3554.5,845 " fill="none" style="stroke:#000000;stroke-width:1.5;"/><line style="stroke:#000000;stroke-width:1.5;" x1="3552" x2="3659" y1="867.2969" y2="867.2969"/><text fill="#000000" font-family="sans-serif" font-size="14" font-weight="bold" lengthAdjust="spacing" textLength="94" x="3556" y="859.9951">pigeon.dart</text></g><!--cluster flutter_pytorch.dart--><g id="cluster_flutter_pytorch.dart"><path d="M3810.5,845 L3975.5,845 A3.75,3.75 0 0 1 3978,847.5 L3985,867.2969 L4035.5,867.2969 A2.5,2.5 0 0 1 4038,869.7969 L4038,941.5 A2.5,2.5 0 0 1 4035.5,944 L3810.5,944 A2.5,2.5 0 0 1 3808,941.5 L3808,847.5 A2.5,2.5 0 0 1 3810.5,845 " fill="none" style="stroke:#000000;stroke-width:1.5;"/><line style="stroke:#000000;stroke-width:1.5;" x1="3808" x2="3985" y1="867.2969" y2="867.2969"/><text fill="#000000" font-family="sans-serif" font-size="14" font-weight="bold" lengthAdjust="spacing" textLength="164" x="3812" y="859.9951">flutter_pytorch.dart</text></g><!--cluster dart--><g id="cluster_dart"><path d="M4088.5,802 L4124.5,802 A3.75,3.75 0 0 1 4127,804.5 L4134,824.2969 L4443.5,824.2969 A2.5,2.5 0 0 1 4446,826.7969 L4446,965.5 A2.5,2.5 0 0 1 4443.5,968 L4088.5,968 A2.5,2.5 0 0 1 4086,965.5 L4086,804.5 A2.5,2.5 0 0 1 4088.5,802 " fill="none" style="stroke:#000000;stroke-width:1.5;"/><line style="stroke:#000000;stroke-width:1.5;" x1="4086" x2="4134" y1="824.2969" y2="824.2969"/><text fill="#000000" font-family="sans-serif" font-size="14" font-weight="bold" lengthAdjust="spacing" textLength="35" x="4090" y="816.9951">dart</text></g><!--cluster ui--><g id="cluster_ui"><path d="M4112.5,845 L4128.5,845 A3.75,3.75 0 0 1 4131,847.5 L4138,867.2969 L4419.5,867.2969 A2.5,2.5 0 0 1 4422,869.7969 L4422,941.5 A2.5,2.5 0 0 1 4419.5,944 L4112.5,944 A2.5,2.5 0 0 1 4110,941.5 L4110,847.5 A2.5,2.5 0 0 1 4112.5,845 " fill="none" style="stroke:#000000;stroke-width:1.5;"/><line style="stroke:#000000;stroke-width:1.5;" x1="4110" x2="4138" y1="867.2969" y2="867.2969"/><text fill="#000000" font-family="sans-serif" font-size="14" font-weight="bold" lengthAdjust="spacing" textLength="15" x="4114" y="859.9951">ui</text></g><!--cluster flutter--><g id="cluster_flutter"><path d="M1073.5,6 L1128.5,6 A3.75,3.75 0 0 1 1131,8.5 L1138,28.2969 L2448.5,28.2969 A2.5,2.5 0 0 1 2451,30.7969 L2451,303.5 A2.5,2.5 0 0 1 2448.5,306 L1073.5,306 A2.5,2.5 0 0 1 1071,303.5 L1071,8.5 A2.5,2.5 0 0 1 1073.5,6 " fill="none" style="stroke:#000000;stroke-width:1.5;"/><line style="stroke:#000000;stroke-width:1.5;" x1="1071" x2="1138" y1="28.2969" y2="28.2969"/><text fill="#000000" font-family="sans-serif" font-size="14" font-weight="bold" lengthAdjust="spacing" textLength="54" x="1075" y="20.9951">flutter</text></g><!--cluster src--><g id="cluster_src"><path d="M1097.5,49 L1123.5,49 A3.75,3.75 0 0 1 1126,51.5 L1133,71.2969 L2424.5,71.2969 A2.5,2.5 0 0 1 2427,73.7969 L2427,279.5 A2.5,2.5 0 0 1 2424.5,282 L1097.5,282 A2.5,2.5 0 0 1 1095,279.5 L1095,51.5 A2.5,2.5 0 0 1 1097.5,49 " fill="none" style="stroke:#000000;stroke-width:1.5;"/><line style="stroke:#000000;stroke-width:1.5;" x1="1095" x2="1133" y1="71.2969" y2="71.2969"/><text fill="#000000" font-family="sans-serif" font-size="14" font-weight="bold" lengthAdjust="spacing" textLength="25" x="1099" y="63.9951">src</text></g><!--cluster widgets--><g id="cluster_widgets"><path d="M1121.5,92 L1186.5,92 A3.75,3.75 0 0 1 1189,94.5 L1196,114.2969 L2161.5,114.2969 A2.5,2.5 0 0 1 2164,116.7969 L2164,255.5 A2.5,2.5 0 0 1 2161.5,258 L1121.5,258 A2.5,2.5 0 0 1 1119,255.5 L1119,94.5 A2.5,2.5 0 0 1 1121.5,92 " fill="none" style="stroke:#000000;stroke-width:1.5;"/><line style="stroke:#000000;stroke-width:1.5;" x1="1119" x2="1196" y1="114.2969" y2="114.2969"/><text fill="#000000" font-family="sans-serif" font-size="14" font-weight="bold" lengthAdjust="spacing" textLength="64" x="1123" y="106.9951">widgets</text></g><!--cluster framework.dart--><g id="cluster_framework.dart"><path d="M1145.5,135 L1273.5,135 A3.75,3.75 0 0 1 1276,137.5 L1283,157.2969 L1869.5,157.2969 A2.5,2.5 0 0 1 1872,159.7969 L1872,231.5 A2.5,2.5 0 0 1 1869.5,234 L1145.5,234 A2.5,2.5 0 0 1 1143,231.5 L1143,137.5 A2.5,2.5 0 0 1 1145.5,135 " fill="none" style="stroke:#000000;stroke-width:1.5;"/><line style="stroke:#000000;stroke-width:1.5;" x1="1143" x2="1283" y1="157.2969" y2="157.2969"/><text fill="#000000" font-family="sans-serif" font-size="14" font-weight="bold" lengthAdjust="spacing" textLength="127" x="1147" y="149.9951">framework.dart</text></g><!--cluster binding.dart--><g id="cluster_binding.dart"><path d="M1898.5,135 L1999.5,135 A3.75,3.75 0 0 1 2002,137.5 L2009,157.2969 L2137.5,157.2969 A2.5,2.5 0 0 1 2140,159.7969 L2140,231.5 A2.5,2.5 0 0 1 2137.5,234 L1898.5,234 A2.5,2.5 0 0 1 1896,231.5 L1896,137.5 A2.5,2.5 0 0 1 1898.5,135 " fill="none" style="stroke:#000000;stroke-width:1.5;"/><line style="stroke:#000000;stroke-width:1.5;" x1="1896" x2="2009" y1="157.2969" y2="157.2969"/><text fill="#000000" font-family="sans-serif" font-size="14" font-weight="bold" lengthAdjust="spacing" textLength="100" x="1900" y="149.9951">binding.dart</text></g><!--cluster painting--><g id="cluster_painting"><path d="M2190.5,92 L2259.5,92 A3.75,3.75 0 0 1 2262,94.5 L2269,114.2969 L2400.5,114.2969 A2.5,2.5 0 0 1 2403,116.7969 L2403,255.5 A2.5,2.5 0 0 1 2400.5,258 L2190.5,258 A2.5,2.5 0 0 1 2188,255.5 L2188,94.5 A2.5,2.5 0 0 1 2190.5,92 " fill="none" style="stroke:#000000;stroke-width:1.5;"/><line style="stroke:#000000;stroke-width:1.5;" x1="2188" x2="2269" y1="114.2969" y2="114.2969"/><text fill="#000000" font-family="sans-serif" font-size="14" font-weight="bold" lengthAdjust="spacing" textLength="68" x="2192" y="106.9951">painting</text></g><!--cluster border_radius.dart--><g id="cluster_border_radius.dart"><path d="M2214.5,135 L2366.5,135 A3.75,3.75 0 0 1 2369,137.5 L2376,157.2969 L2376.5,157.2969 A2.5,2.5 0 0 1 2379,159.7969 L2379,231.5 A2.5,2.5 0 0 1 2376.5,234 L2214.5,234 A2.5,2.5 0 0 1 2212,231.5 L2212,137.5 A2.5,2.5 0 0 1 2214.5,135 " fill="none" style="stroke:#000000;stroke-width:1.5;"/><line style="stroke:#000000;stroke-width:1.5;" x1="2212" x2="2376" y1="157.2969" y2="157.2969"/><text fill="#000000" font-family="sans-serif" font-size="14" font-weight="bold" lengthAdjust="spacing" textLength="151" x="2216" y="149.9951">border_radius.dart</text></g><!--cluster null--><g id="cluster_null"><path d="M4472.5,845 L4503.5,845 A3.75,3.75 0 0 1 4506,847.5 L4513,867.2969 L4883.5,867.2969 A2.5,2.5 0 0 1 4886,869.7969 L4886,941.5 A2.5,2.5 0 0 1 4883.5,944 L4472.5,944 A2.5,2.5 0 0 1 4470,941.5 L4470,847.5 A2.5,2.5 0 0 1 4472.5,845 " fill="none" style="stroke:#000000;stroke-width:1.5;"/><line style="stroke:#000000;stroke-width:1.5;" x1="4470" x2="4513" y1="867.2969" y2="867.2969"/><text fill="#000000" font-family="sans-serif" font-size="14" font-weight="bold" lengthAdjust="spacing" textLength="30" x="4474" y="859.9951">null</text></g><!--cluster camera--><g id="cluster_camera"><path d="M4912.5,759 L4973.5,759 A3.75,3.75 0 0 1 4976,761.5 L4983,781.2969 L5206.5,781.2969 A2.5,2.5 0 0 1 5209,783.7969 L5209,989.5 A2.5,2.5 0 0 1 5206.5,992 L4912.5,992 A2.5,2.5 0 0 1 4910,989.5 L4910,761.5 A2.5,2.5 0 0 1 4912.5,759 " fill="none" style="stroke:#000000;stroke-width:1.5;"/><line style="stroke:#000000;stroke-width:1.5;" x1="4910" x2="4983" y1="781.2969" y2="781.2969"/><text fill="#000000" font-family="sans-serif" font-size="14" font-weight="bold" lengthAdjust="spacing" textLength="60" x="4914" y="773.9951">camera</text></g><!--cluster src--><g id="cluster_src"><path d="M4936.5,802 L4962.5,802 A3.75,3.75 0 0 1 4965,804.5 L4972,824.2969 L5182.5,824.2969 A2.5,2.5 0 0 1 5185,826.7969 L5185,965.5 A2.5,2.5 0 0 1 5182.5,968 L4936.5,968 A2.5,2.5 0 0 1 4934,965.5 L4934,804.5 A2.5,2.5 0 0 1 4936.5,802 " fill="none" style="stroke:#000000;stroke-width:1.5;"/><line style="stroke:#000000;stroke-width:1.5;" x1="4934" x2="4972" y1="824.2969" y2="824.2969"/><text fill="#000000" font-family="sans-serif" font-size="14" font-weight="bold" lengthAdjust="spacing" textLength="25" x="4938" y="816.9951">src</text></g><!--cluster camera_controller.dart--><g id="cluster_camera_controller.dart"><path d="M4960.5,845 L5148.5,845 A3.75,3.75 0 0 1 5151,847.5 L5158,867.2969 L5158.5,867.2969 A2.5,2.5 0 0 1 5161,869.7969 L5161,941.5 A2.5,2.5 0 0 1 5158.5,944 L4960.5,944 A2.5,2.5 0 0 1 4958,941.5 L4958,847.5 A2.5,2.5 0 0 1 4960.5,845 " fill="none" style="stroke:#000000;stroke-width:1.5;"/><line style="stroke:#000000;stroke-width:1.5;" x1="4958" x2="5158" y1="867.2969" y2="867.2969"/><text fill="#000000" font-family="sans-serif" font-size="14" font-weight="bold" lengthAdjust="spacing" textLength="187" x="4962" y="859.9951">camera_controller.dart</text></g><!--class BoxWidget--><g id="elem_BoxWidget"><rect codeLine="3" fill="#F1F1F1" height="113.1875" id="BoxWidget" rx="2.5" ry="2.5" style="stroke:#181818;stroke-width:0.5;" width="238" x="2048" y="516.5"/><ellipse cx="2123.25" cy="532.5" fill="#ADD1B2" rx="11" ry="11" style="stroke:#181818;stroke-width:1.0;"/><path d="M2125.5938,528.1719 C2124.6563,527.7344 2124.0625,527.5938 2123.1875,527.5938 C2120.5625,527.5938 2118.5625,529.6719 2118.5625,532.3906 L2118.5625,533.5156 C2118.5625,536.0938 2120.6719,537.9844 2123.5625,537.9844 C2124.7813,537.9844 2125.9375,537.6875 2126.6875,537.1406 C2127.2656,536.7344 2127.5938,536.2813 2127.5938,535.8906 C2127.5938,535.4375 2127.2031,535.0469 2126.7344,535.0469 C2126.5156,535.0469 2126.3125,535.125 2126.125,535.3125 C2125.6719,535.7969 2125.6719,535.7969 2125.4844,535.8906 C2125.0625,536.1563 2124.375,536.2813 2123.6094,536.2813 C2121.5625,536.2813 2120.2656,535.1875 2120.2656,533.4844 L2120.2656,532.3906 C2120.2656,530.6094 2121.5156,529.2969 2123.25,529.2969 C2123.8281,529.2969 2124.4375,529.4531 2124.9063,529.7031 C2125.3906,529.9844 2125.5625,530.2031 2125.6563,530.6094 C2125.7188,531.0156 2125.75,531.1406 2125.8906,531.2656 C2126.0313,531.4063 2126.2656,531.5156 2126.4844,531.5156 C2126.75,531.5156 2127.0156,531.375 2127.1875,531.1563 C2127.2969,531 2127.3281,530.8125 2127.3281,530.3906 L2127.3281,528.9688 C2127.3281,528.5313 2127.3125,528.4063 2127.2188,528.25 C2127.0625,527.9844 2126.7813,527.8438 2126.4844,527.8438 C2126.1875,527.8438 2125.9844,527.9375 2125.7656,528.25 L2125.5938,528.1719 Z " fill="#000000"/><text fill="#000000" font-family="sans-serif" font-size="14" lengthAdjust="spacing" textLength="79" x="2143.75" y="537.3467">BoxWidget</text><line style="stroke:#181818;stroke-width:0.5;" x1="2049" x2="2285" y1="548.5" y2="548.5"/><ellipse cx="2059" cy="562.1484" fill="none" rx="3" ry="3" style="stroke:#038048;stroke-width:1.0;"/><text fill="#000000" font-family="sans-serif" font-size="14" lengthAdjust="spacing" textLength="212" x="2068" y="565.4951">ResultObjectDetection result</text><ellipse cx="2059" cy="578.4453" fill="none" rx="3" ry="3" style="stroke:#038048;stroke-width:1.0;"/><text fill="#000000" font-family="sans-serif" font-size="14" lengthAdjust="spacing" textLength="130" x="2068" y="581.792">Color? boxesColor</text><ellipse cx="2059" cy="594.7422" fill="none" rx="3" ry="3" style="stroke:#038048;stroke-width:1.0;"/><text fill="#000000" font-family="sans-serif" font-size="14" lengthAdjust="spacing" textLength="155" x="2068" y="598.0889">bool showPercentage</text><line style="stroke:#181818;stroke-width:0.5;" x1="2049" x2="2285" y1="605.3906" y2="605.3906"/><ellipse cx="2059" cy="619.0391" fill="#84BE84" rx="3" ry="3" style="stroke:#038048;stroke-width:1.0;"/><text fill="#000000" font-family="sans-serif" font-size="14" lengthAdjust="spacing" textLength="101" x="2068" y="622.3857">Widget build()</text></g><!--class CameraView--><g id="elem_CameraView"><rect codeLine="14" fill="#F1F1F1" height="96.8906" id="CameraView" rx="2.5" ry="2.5" style="stroke:#181818;stroke-width:0.5;" width="497" x="2608.5" y="524.5"/><ellipse cx="2808.25" cy="540.5" fill="#ADD1B2" rx="11" ry="11" style="stroke:#181818;stroke-width:1.0;"/><path d="M2810.5938,536.1719 C2809.6563,535.7344 2809.0625,535.5938 2808.1875,535.5938 C2805.5625,535.5938 2803.5625,537.6719 2803.5625,540.3906 L2803.5625,541.5156 C2803.5625,544.0938 2805.6719,545.9844 2808.5625,545.9844 C2809.7813,545.9844 2810.9375,545.6875 2811.6875,545.1406 C2812.2656,544.7344 2812.5938,544.2813 2812.5938,543.8906 C2812.5938,543.4375 2812.2031,543.0469 2811.7344,543.0469 C2811.5156,543.0469 2811.3125,543.125 2811.125,543.3125 C2810.6719,543.7969 2810.6719,543.7969 2810.4844,543.8906 C2810.0625,544.1563 2809.375,544.2813 2808.6094,544.2813 C2806.5625,544.2813 2805.2656,543.1875 2805.2656,541.4844 L2805.2656,540.3906 C2805.2656,538.6094 2806.5156,537.2969 2808.25,537.2969 C2808.8281,537.2969 2809.4375,537.4531 2809.9063,537.7031 C2810.3906,537.9844 2810.5625,538.2031 2810.6563,538.6094 C2810.7188,539.0156 2810.75,539.1406 2810.8906,539.2656 C2811.0313,539.4063 2811.2656,539.5156 2811.4844,539.5156 C2811.75,539.5156 2812.0156,539.375 2812.1875,539.1563 C2812.2969,539 2812.3281,538.8125 2812.3281,538.3906 L2812.3281,536.9688 C2812.3281,536.5313 2812.3125,536.4063 2812.2188,536.25 C2812.0625,535.9844 2811.7813,535.8438 2811.4844,535.8438 C2811.1875,535.8438 2810.9844,535.9375 2810.7656,536.25 L2810.5938,536.1719 Z " fill="#000000"/><text fill="#000000" font-family="sans-serif" font-size="14" lengthAdjust="spacing" textLength="89" x="2828.75" y="545.3467">CameraView</text><line style="stroke:#181818;stroke-width:0.5;" x1="2609.5" x2="3104.5" y1="556.5" y2="556.5"/><ellipse cx="2619.5" cy="570.1484" fill="none" rx="3" ry="3" style="stroke:#038048;stroke-width:1.0;"/><text fill="#000000" font-family="sans-serif" font-size="14" lengthAdjust="spacing" textLength="92" x="2628.5" y="573.4951">Model model</text><line style="stroke:#181818;stroke-width:0.5;" x1="2609.5" x2="3104.5" y1="580.7969" y2="580.7969"/><ellipse cx="2619.5" cy="594.4453" fill="#84BE84" rx="3" ry="3" style="stroke:#038048;stroke-width:1.0;"/><text fill="#000000" font-family="sans-serif" font-size="14" lengthAdjust="spacing" textLength="471" x="2628.5" y="597.792">dynamic Function(List&lt;ResultObjectDetection?&gt;) resultsCallback</text><ellipse cx="2619.5" cy="610.7422" fill="#84BE84" rx="3" ry="3" style="stroke:#038048;stroke-width:1.0;"/><text fill="#000000" font-family="sans-serif" font-size="14" lengthAdjust="spacing" textLength="237" x="2628.5" y="614.0889">_CameraViewState createState()</text></g><!--class _CameraViewState--><g id="elem__CameraViewState"><rect codeLine="24" fill="#F1F1F1" height="243.5625" id="_CameraViewState" rx="2.5" ry="2.5" style="stroke:#181818;stroke-width:0.5;" width="299" x="3140.5" y="451"/><ellipse cx="3217.75" cy="467" fill="#ADD1B2" rx="11" ry="11" style="stroke:#181818;stroke-width:1.0;"/><path d="M3220.0938,462.6719 C3219.1563,462.2344 3218.5625,462.0938 3217.6875,462.0938 C3215.0625,462.0938 3213.0625,464.1719 3213.0625,466.8906 L3213.0625,468.0156 C3213.0625,470.5938 3215.1719,472.4844 3218.0625,472.4844 C3219.2813,472.4844 3220.4375,472.1875 3221.1875,471.6406 C3221.7656,471.2344 3222.0938,470.7813 3222.0938,470.3906 C3222.0938,469.9375 3221.7031,469.5469 3221.2344,469.5469 C3221.0156,469.5469 3220.8125,469.625 3220.625,469.8125 C3220.1719,470.2969 3220.1719,470.2969 3219.9844,470.3906 C3219.5625,470.6563 3218.875,470.7813 3218.1094,470.7813 C3216.0625,470.7813 3214.7656,469.6875 3214.7656,467.9844 L3214.7656,466.8906 C3214.7656,465.1094 3216.0156,463.7969 3217.75,463.7969 C3218.3281,463.7969 3218.9375,463.9531 3219.4063,464.2031 C3219.8906,464.4844 3220.0625,464.7031 3220.1563,465.1094 C3220.2188,465.5156 3220.25,465.6406 3220.3906,465.7656 C3220.5313,465.9063 3220.7656,466.0156 3220.9844,466.0156 C3221.25,466.0156 3221.5156,465.875 3221.6875,465.6563 C3221.7969,465.5 3221.8281,465.3125 3221.8281,464.8906 L3221.8281,463.4688 C3221.8281,463.0313 3221.8125,462.9063 3221.7188,462.75 C3221.5625,462.4844 3221.2813,462.3438 3220.9844,462.3438 C3220.6875,462.3438 3220.4844,462.4375 3220.2656,462.75 L3220.0938,462.6719 Z " fill="#000000"/><text fill="#000000" font-family="sans-serif" font-size="14" lengthAdjust="spacing" textLength="136" x="3238.25" y="471.8467">_CameraViewState</text><line style="stroke:#181818;stroke-width:0.5;" x1="3141.5" x2="3438.5" y1="483" y2="483"/><ellipse cx="3151.5" cy="496.6484" fill="none" rx="3" ry="3" style="stroke:#038048;stroke-width:1.0;"/><text fill="#000000" font-family="sans-serif" font-size="14" lengthAdjust="spacing" textLength="251" x="3160.5" y="499.9951">List&lt;CameraDescription&gt; cameras</text><ellipse cx="3151.5" cy="512.9453" fill="none" rx="3" ry="3" style="stroke:#038048;stroke-width:1.0;"/><text fill="#000000" font-family="sans-serif" font-size="14" lengthAdjust="spacing" textLength="265" x="3160.5" y="516.292">CameraController? cameraController</text><ellipse cx="3151.5" cy="529.2422" fill="none" rx="3" ry="3" style="stroke:#038048;stroke-width:1.0;"/><text fill="#000000" font-family="sans-serif" font-size="14" lengthAdjust="spacing" textLength="111" x="3160.5" y="532.5889">bool predicting</text><rect fill="none" height="6" style="stroke:#C82930;stroke-width:1.0;" width="6" x="3148.5" y="542.5391"/><text fill="#000000" font-family="sans-serif" font-size="14" lengthAdjust="spacing" textLength="273" x="3160.5" y="548.8857">ModelObjectDetection? _objectModel</text><line style="stroke:#181818;stroke-width:0.5;" x1="3141.5" x2="3438.5" y1="556.1875" y2="556.1875"/><ellipse cx="3151.5" cy="569.8359" fill="#84BE84" rx="3" ry="3" style="stroke:#038048;stroke-width:1.0;"/><text fill="#000000" font-family="sans-serif" font-size="14" lengthAdjust="spacing" textLength="108" x="3160.5" y="573.1826">void initState()</text><ellipse cx="3151.5" cy="586.1328" fill="#84BE84" rx="3" ry="3" style="stroke:#038048;stroke-width:1.0;"/><text fill="#000000" font-family="sans-serif" font-size="14" lengthAdjust="spacing" textLength="215" x="3160.5" y="589.4795">Future&lt;dynamic&gt; loadModel()</text><ellipse cx="3151.5" cy="602.4297" fill="#84BE84" rx="3" ry="3" style="stroke:#038048;stroke-width:1.0;"/><text fill="#000000" font-family="sans-serif" font-size="14" lengthAdjust="spacing" textLength="150" x="3160.5" y="605.7764">void initStateAsync()</text><ellipse cx="3151.5" cy="618.7266" fill="#84BE84" rx="3" ry="3" style="stroke:#038048;stroke-width:1.0;"/><text fill="#000000" font-family="sans-serif" font-size="14" lengthAdjust="spacing" textLength="160" x="3160.5" y="622.0732">void initializeCamera()</text><ellipse cx="3151.5" cy="635.0234" fill="#84BE84" rx="3" ry="3" style="stroke:#038048;stroke-width:1.0;"/><text fill="#000000" font-family="sans-serif" font-size="14" lengthAdjust="spacing" textLength="101" x="3160.5" y="638.3701">Widget build()</text><ellipse cx="3151.5" cy="651.3203" fill="#84BE84" rx="3" ry="3" style="stroke:#038048;stroke-width:1.0;"/><text fill="#000000" font-family="sans-serif" font-size="14" lengthAdjust="spacing" textLength="247" x="3160.5" y="654.667">dynamic onLatestImageAvailable()</text><ellipse cx="3151.5" cy="667.6172" fill="#84BE84" rx="3" ry="3" style="stroke:#038048;stroke-width:1.0;"/><text fill="#000000" font-family="sans-serif" font-size="14" lengthAdjust="spacing" textLength="254" x="3160.5" y="670.9639">void didChangeAppLifecycleState()</text><ellipse cx="3151.5" cy="683.9141" fill="#84BE84" rx="3" ry="3" style="stroke:#038048;stroke-width:1.0;"/><text fill="#000000" font-family="sans-serif" font-size="14" lengthAdjust="spacing" textLength="99" x="3160.5" y="687.2607">void dispose()</text></g><!--class CameraViewSingleton--><g id="elem_CameraViewSingleton"><rect codeLine="44" fill="#F1F1F1" height="129.4844" id="CameraViewSingleton" rx="2.5" ry="2.5" style="stroke:#181818;stroke-width:0.5;" width="199" x="2352.5" y="508.5"/><ellipse cx="2371.55" cy="524.5" fill="#ADD1B2" rx="11" ry="11" style="stroke:#181818;stroke-width:1.0;"/><path d="M2373.8938,520.1719 C2372.9563,519.7344 2372.3625,519.5938 2371.4875,519.5938 C2368.8625,519.5938 2366.8625,521.6719 2366.8625,524.3906 L2366.8625,525.5156 C2366.8625,528.0938 2368.9719,529.9844 2371.8625,529.9844 C2373.0813,529.9844 2374.2375,529.6875 2374.9875,529.1406 C2375.5656,528.7344 2375.8938,528.2813 2375.8938,527.8906 C2375.8938,527.4375 2375.5031,527.0469 2375.0344,527.0469 C2374.8156,527.0469 2374.6125,527.125 2374.425,527.3125 C2373.9719,527.7969 2373.9719,527.7969 2373.7844,527.8906 C2373.3625,528.1563 2372.675,528.2813 2371.9094,528.2813 C2369.8625,528.2813 2368.5656,527.1875 2368.5656,525.4844 L2368.5656,524.3906 C2368.5656,522.6094 2369.8156,521.2969 2371.55,521.2969 C2372.1281,521.2969 2372.7375,521.4531 2373.2063,521.7031 C2373.6906,521.9844 2373.8625,522.2031 2373.9563,522.6094 C2374.0188,523.0156 2374.05,523.1406 2374.1906,523.2656 C2374.3313,523.4063 2374.5656,523.5156 2374.7844,523.5156 C2375.05,523.5156 2375.3156,523.375 2375.4875,523.1563 C2375.5969,523 2375.6281,522.8125 2375.6281,522.3906 L2375.6281,520.9688 C2375.6281,520.5313 2375.6125,520.4063 2375.5188,520.25 C2375.3625,519.9844 2375.0813,519.8438 2374.7844,519.8438 C2374.4875,519.8438 2374.2844,519.9375 2374.0656,520.25 L2373.8938,520.1719 Z " fill="#000000"/><text fill="#000000" font-family="sans-serif" font-size="14" lengthAdjust="spacing" textLength="158" x="2386.45" y="529.3467">CameraViewSingleton</text><line style="stroke:#181818;stroke-width:0.5;" x1="2353.5" x2="2550.5" y1="540.5" y2="540.5"/><ellipse cx="2363.5" cy="554.1484" fill="none" rx="3" ry="3" style="stroke:#038048;stroke-width:1.0;"/><text fill="#000000" font-family="sans-serif" font-size="14" lengthAdjust="spacing" text-decoration="underline" textLength="87" x="2372.5" y="557.4951">double ratio</text><ellipse cx="2363.5" cy="570.4453" fill="none" rx="3" ry="3" style="stroke:#038048;stroke-width:1.0;"/><text fill="#000000" font-family="sans-serif" font-size="14" lengthAdjust="spacing" text-decoration="underline" textLength="112" x="2372.5" y="573.792">Size screenSize</text><ellipse cx="2363.5" cy="586.7422" fill="none" rx="3" ry="3" style="stroke:#038048;stroke-width:1.0;"/><text fill="#000000" font-family="sans-serif" font-size="14" lengthAdjust="spacing" text-decoration="underline" textLength="146" x="2372.5" y="590.0889">Size inputImageSize</text><ellipse cx="2363.5" cy="603.0391" fill="none" rx="3" ry="3" style="stroke:#038048;stroke-width:1.0;"/><text fill="#000000" font-family="sans-serif" font-size="14" lengthAdjust="spacing" text-decoration="underline" textLength="163" x="2372.5" y="606.3857">Size actualPreviewSize</text><ellipse cx="2363.5" cy="619.3359" fill="none" rx="3" ry="3" style="stroke:#038048;stroke-width:1.0;"/><text fill="#000000" font-family="sans-serif" font-size="14" lengthAdjust="spacing" text-decoration="underline" textLength="173" x="2372.5" y="622.6826">Size actualPreviewSizeH</text><line style="stroke:#181818;stroke-width:0.5;" x1="2353.5" x2="2550.5" y1="629.9844" y2="629.9844"/></g><!--class RunModelByCamera--><g id="elem_RunModelByCamera"><rect codeLine="54" fill="#F1F1F1" height="80.5938" id="RunModelByCamera" rx="2.5" ry="2.5" style="stroke:#181818;stroke-width:0.5;" width="317" x="1271.5" y="532.5"/><ellipse cx="1354.25" cy="548.5" fill="#ADD1B2" rx="11" ry="11" style="stroke:#181818;stroke-width:1.0;"/><path d="M1356.5938,544.1719 C1355.6563,543.7344 1355.0625,543.5938 1354.1875,543.5938 C1351.5625,543.5938 1349.5625,545.6719 1349.5625,548.3906 L1349.5625,549.5156 C1349.5625,552.0938 1351.6719,553.9844 1354.5625,553.9844 C1355.7813,553.9844 1356.9375,553.6875 1357.6875,553.1406 C1358.2656,552.7344 1358.5938,552.2813 1358.5938,551.8906 C1358.5938,551.4375 1358.2031,551.0469 1357.7344,551.0469 C1357.5156,551.0469 1357.3125,551.125 1357.125,551.3125 C1356.6719,551.7969 1356.6719,551.7969 1356.4844,551.8906 C1356.0625,552.1563 1355.375,552.2813 1354.6094,552.2813 C1352.5625,552.2813 1351.2656,551.1875 1351.2656,549.4844 L1351.2656,548.3906 C1351.2656,546.6094 1352.5156,545.2969 1354.25,545.2969 C1354.8281,545.2969 1355.4375,545.4531 1355.9063,545.7031 C1356.3906,545.9844 1356.5625,546.2031 1356.6563,546.6094 C1356.7188,547.0156 1356.75,547.1406 1356.8906,547.2656 C1357.0313,547.4063 1357.2656,547.5156 1357.4844,547.5156 C1357.75,547.5156 1358.0156,547.375 1358.1875,547.1563 C1358.2969,547 1358.3281,546.8125 1358.3281,546.3906 L1358.3281,544.9688 C1358.3281,544.5313 1358.3125,544.4063 1358.2188,544.25 C1358.0625,543.9844 1357.7813,543.8438 1357.4844,543.8438 C1357.1875,543.8438 1356.9844,543.9375 1356.7656,544.25 L1356.5938,544.1719 Z " fill="#000000"/><text fill="#000000" font-family="sans-serif" font-size="14" lengthAdjust="spacing" textLength="143" x="1374.75" y="553.3467">RunModelByCamera</text><line style="stroke:#181818;stroke-width:0.5;" x1="1272.5" x2="1587.5" y1="564.5" y2="564.5"/><ellipse cx="1282.5" cy="578.1484" fill="none" rx="3" ry="3" style="stroke:#038048;stroke-width:1.0;"/><text fill="#000000" font-family="sans-serif" font-size="14" lengthAdjust="spacing" textLength="92" x="1291.5" y="581.4951">Model model</text><line style="stroke:#181818;stroke-width:0.5;" x1="1272.5" x2="1587.5" y1="588.7969" y2="588.7969"/><ellipse cx="1282.5" cy="602.4453" fill="#84BE84" rx="3" ry="3" style="stroke:#038048;stroke-width:1.0;"/><text fill="#000000" font-family="sans-serif" font-size="14" lengthAdjust="spacing" textLength="291" x="1291.5" y="605.792">_RunModelByCameraState createState()</text></g><!--class _RunModelByCameraState--><g id="elem__RunModelByCameraState"><rect codeLine="62" fill="#F1F1F1" height="227.2656" id="_RunModelByCameraState" rx="2.5" ry="2.5" style="stroke:#181818;stroke-width:0.5;" width="368" x="1624" y="459.5"/><ellipse cx="1708.75" cy="475.5" fill="#ADD1B2" rx="11" ry="11" style="stroke:#181818;stroke-width:1.0;"/><path d="M1711.0938,471.1719 C1710.1563,470.7344 1709.5625,470.5938 1708.6875,470.5938 C1706.0625,470.5938 1704.0625,472.6719 1704.0625,475.3906 L1704.0625,476.5156 C1704.0625,479.0938 1706.1719,480.9844 1709.0625,480.9844 C1710.2813,480.9844 1711.4375,480.6875 1712.1875,480.1406 C1712.7656,479.7344 1713.0938,479.2813 1713.0938,478.8906 C1713.0938,478.4375 1712.7031,478.0469 1712.2344,478.0469 C1712.0156,478.0469 1711.8125,478.125 1711.625,478.3125 C1711.1719,478.7969 1711.1719,478.7969 1710.9844,478.8906 C1710.5625,479.1563 1709.875,479.2813 1709.1094,479.2813 C1707.0625,479.2813 1705.7656,478.1875 1705.7656,476.4844 L1705.7656,475.3906 C1705.7656,473.6094 1707.0156,472.2969 1708.75,472.2969 C1709.3281,472.2969 1709.9375,472.4531 1710.4063,472.7031 C1710.8906,472.9844 1711.0625,473.2031 1711.1563,473.6094 C1711.2188,474.0156 1711.25,474.1406 1711.3906,474.2656 C1711.5313,474.4063 1711.7656,474.5156 1711.9844,474.5156 C1712.25,474.5156 1712.5156,474.375 1712.6875,474.1563 C1712.7969,474 1712.8281,473.8125 1712.8281,473.3906 L1712.8281,471.9688 C1712.8281,471.5313 1712.8125,471.4063 1712.7188,471.25 C1712.5625,470.9844 1712.2813,470.8438 1711.9844,470.8438 C1711.6875,470.8438 1711.4844,470.9375 1711.2656,471.25 L1711.0938,471.1719 Z " fill="#000000"/><text fill="#000000" font-family="sans-serif" font-size="14" lengthAdjust="spacing" textLength="190" x="1729.25" y="480.3467">_RunModelByCameraState</text><line style="stroke:#181818;stroke-width:0.5;" x1="1625" x2="1991" y1="491.5" y2="491.5"/><ellipse cx="1635" cy="505.1484" fill="none" rx="3" ry="3" style="stroke:#038048;stroke-width:1.0;"/><text fill="#000000" font-family="sans-serif" font-size="14" lengthAdjust="spacing" textLength="281" x="1644" y="508.4951">List&lt;ResultObjectDetection?&gt;? results</text><ellipse cx="1635" cy="521.4453" fill="none" rx="3" ry="3" style="stroke:#038048;stroke-width:1.0;"/><text fill="#000000" font-family="sans-serif" font-size="14" lengthAdjust="spacing" textLength="148" x="1644" y="524.792">String? classification</text><ellipse cx="1635" cy="537.7422" fill="none" rx="3" ry="3" style="stroke:#038048;stroke-width:1.0;"/><text fill="#000000" font-family="sans-serif" font-size="14" lengthAdjust="spacing" textLength="282" x="1644" y="541.0889">GlobalKey&lt;ScaffoldState&gt; scaffoldKey</text><ellipse cx="1635" cy="554.0391" fill="none" rx="3" ry="3" style="stroke:#038048;stroke-width:1.0;"/><text fill="#000000" font-family="sans-serif" font-size="14" lengthAdjust="spacing" text-decoration="underline" textLength="225" x="1644" y="557.3857">Radius BOTTOM_SHEET_RADIUS</text><ellipse cx="1635" cy="570.3359" fill="none" rx="3" ry="3" style="stroke:#038048;stroke-width:1.0;"/><text fill="#000000" font-family="sans-serif" font-size="14" lengthAdjust="spacing" text-decoration="underline" textLength="342" x="1644" y="573.6826">BorderRadius BORDER_RADIUS_BOTTOM_SHEET</text><line style="stroke:#181818;stroke-width:0.5;" x1="1625" x2="1991" y1="580.9844" y2="580.9844"/><ellipse cx="1635" cy="594.6328" fill="#84BE84" rx="3" ry="3" style="stroke:#038048;stroke-width:1.0;"/><text fill="#000000" font-family="sans-serif" font-size="14" lengthAdjust="spacing" textLength="108" x="1644" y="597.9795">void initState()</text><rect fill="#F24D5C" height="6" style="stroke:#C82930;stroke-width:1.0;" width="6" x="1632" y="607.9297"/><text fill="#000000" font-family="sans-serif" font-size="14" lengthAdjust="spacing" textLength="166" x="1644" y="614.2764">void _updateLabelFile()</text><ellipse cx="1635" cy="627.2266" fill="#84BE84" rx="3" ry="3" style="stroke:#038048;stroke-width:1.0;"/><text fill="#000000" font-family="sans-serif" font-size="14" lengthAdjust="spacing" textLength="101" x="1644" y="630.5732">Widget build()</text><ellipse cx="1635" cy="643.5234" fill="#84BE84" rx="3" ry="3" style="stroke:#038048;stroke-width:1.0;"/><text fill="#000000" font-family="sans-serif" font-size="14" lengthAdjust="spacing" textLength="184" x="1644" y="646.8701">Widget boundingBoxes2()</text><ellipse cx="1635" cy="659.8203" fill="#84BE84" rx="3" ry="3" style="stroke:#038048;stroke-width:1.0;"/><text fill="#000000" font-family="sans-serif" font-size="14" lengthAdjust="spacing" textLength="153" x="1644" y="663.167">void resultsCallback()</text><ellipse cx="1635" cy="676.1172" fill="#84BE84" rx="3" ry="3" style="stroke:#038048;stroke-width:1.0;"/><text fill="#000000" font-family="sans-serif" font-size="14" lengthAdjust="spacing" textLength="248" x="1644" y="679.4639">void resultsCallbackClassification()</text></g><!--class ResultsRow--><g id="elem_ResultsRow"><rect codeLine="81" fill="#F1F1F1" height="80.5938" id="ResultsRow" rx="2.5" ry="2.5" style="stroke:#181818;stroke-width:0.5;" width="307" x="929.5" y="532.5"/><ellipse cx="1037.75" cy="548.5" fill="#ADD1B2" rx="11" ry="11" style="stroke:#181818;stroke-width:1.0;"/><path d="M1040.0938,544.1719 C1039.1563,543.7344 1038.5625,543.5938 1037.6875,543.5938 C1035.0625,543.5938 1033.0625,545.6719 1033.0625,548.3906 L1033.0625,549.5156 C1033.0625,552.0938 1035.1719,553.9844 1038.0625,553.9844 C1039.2813,553.9844 1040.4375,553.6875 1041.1875,553.1406 C1041.7656,552.7344 1042.0938,552.2813 1042.0938,551.8906 C1042.0938,551.4375 1041.7031,551.0469 1041.2344,551.0469 C1041.0156,551.0469 1040.8125,551.125 1040.625,551.3125 C1040.1719,551.7969 1040.1719,551.7969 1039.9844,551.8906 C1039.5625,552.1563 1038.875,552.2813 1038.1094,552.2813 C1036.0625,552.2813 1034.7656,551.1875 1034.7656,549.4844 L1034.7656,548.3906 C1034.7656,546.6094 1036.0156,545.2969 1037.75,545.2969 C1038.3281,545.2969 1038.9375,545.4531 1039.4063,545.7031 C1039.8906,545.9844 1040.0625,546.2031 1040.1563,546.6094 C1040.2188,547.0156 1040.25,547.1406 1040.3906,547.2656 C1040.5313,547.4063 1040.7656,547.5156 1040.9844,547.5156 C1041.25,547.5156 1041.5156,547.375 1041.6875,547.1563 C1041.7969,547 1041.8281,546.8125 1041.8281,546.3906 L1041.8281,544.9688 C1041.8281,544.5313 1041.8125,544.4063 1041.7188,544.25 C1041.5625,543.9844 1041.2813,543.8438 1040.9844,543.8438 C1040.6875,543.8438 1040.4844,543.9375 1040.2656,544.25 L1040.0938,544.1719 Z " fill="#000000"/><text fill="#000000" font-family="sans-serif" font-size="14" lengthAdjust="spacing" textLength="82" x="1058.25" y="553.3467">ResultsRow</text><line style="stroke:#181818;stroke-width:0.5;" x1="930.5" x2="1235.5" y1="564.5" y2="564.5"/><ellipse cx="940.5" cy="578.1484" fill="none" rx="3" ry="3" style="stroke:#038048;stroke-width:1.0;"/><text fill="#000000" font-family="sans-serif" font-size="14" lengthAdjust="spacing" textLength="281" x="949.5" y="581.4951">List&lt;ResultObjectDetection?&gt;? results</text><line style="stroke:#181818;stroke-width:0.5;" x1="930.5" x2="1235.5" y1="588.7969" y2="588.7969"/><ellipse cx="940.5" cy="602.4453" fill="#84BE84" rx="3" ry="3" style="stroke:#038048;stroke-width:1.0;"/><text fill="#000000" font-family="sans-serif" font-size="14" lengthAdjust="spacing" textLength="101" x="949.5" y="605.792">Widget build()</text></g><!--class Model--><g id="elem_Model"><rect codeLine="114" fill="#F1F1F1" height="162.0781" id="Model" rx="2.5" ry="2.5" style="stroke:#181818;stroke-width:0.5;" width="249" x="1305.5" y="823"/><ellipse cx="1404.25" cy="839" fill="#ADD1B2" rx="11" ry="11" style="stroke:#181818;stroke-width:1.0;"/><path d="M1406.5938,834.6719 C1405.6563,834.2344 1405.0625,834.0938 1404.1875,834.0938 C1401.5625,834.0938 1399.5625,836.1719 1399.5625,838.8906 L1399.5625,840.0156 C1399.5625,842.5938 1401.6719,844.4844 1404.5625,844.4844 C1405.7813,844.4844 1406.9375,844.1875 1407.6875,843.6406 C1408.2656,843.2344 1408.5938,842.7813 1408.5938,842.3906 C1408.5938,841.9375 1408.2031,841.5469 1407.7344,841.5469 C1407.5156,841.5469 1407.3125,841.625 1407.125,841.8125 C1406.6719,842.2969 1406.6719,842.2969 1406.4844,842.3906 C1406.0625,842.6563 1405.375,842.7813 1404.6094,842.7813 C1402.5625,842.7813 1401.2656,841.6875 1401.2656,839.9844 L1401.2656,838.8906 C1401.2656,837.1094 1402.5156,835.7969 1404.25,835.7969 C1404.8281,835.7969 1405.4375,835.9531 1405.9063,836.2031 C1406.3906,836.4844 1406.5625,836.7031 1406.6563,837.1094 C1406.7188,837.5156 1406.75,837.6406 1406.8906,837.7656 C1407.0313,837.9063 1407.2656,838.0156 1407.4844,838.0156 C1407.75,838.0156 1408.0156,837.875 1408.1875,837.6563 C1408.2969,837.5 1408.3281,837.3125 1408.3281,836.8906 L1408.3281,835.4688 C1408.3281,835.0313 1408.3125,834.9063 1408.2188,834.75 C1408.0625,834.4844 1407.7813,834.3438 1407.4844,834.3438 C1407.1875,834.3438 1406.9844,834.4375 1406.7656,834.75 L1406.5938,834.6719 Z " fill="#000000"/><text fill="#000000" font-family="sans-serif" font-size="14" lengthAdjust="spacing" textLength="43" x="1424.75" y="843.8467">Model</text><line style="stroke:#181818;stroke-width:0.5;" x1="1306.5" x2="1553.5" y1="855" y2="855"/><ellipse cx="1316.5" cy="868.6484" fill="none" rx="3" ry="3" style="stroke:#038048;stroke-width:1.0;"/><text fill="#000000" font-family="sans-serif" font-size="14" lengthAdjust="spacing" textLength="88" x="1325.5" y="871.9951">String name</text><ellipse cx="1316.5" cy="884.9453" fill="none" rx="3" ry="3" style="stroke:#038048;stroke-width:1.0;"/><text fill="#000000" font-family="sans-serif" font-size="14" lengthAdjust="spacing" textLength="146" x="1325.5" y="888.292">List&lt;String&gt; classes</text><ellipse cx="1316.5" cy="901.2422" fill="none" rx="3" ry="3" style="stroke:#038048;stroke-width:1.0;"/><text fill="#000000" font-family="sans-serif" font-size="14" lengthAdjust="spacing" textLength="140" x="1325.5" y="904.5889">List&lt;int&gt; inputSize</text><ellipse cx="1316.5" cy="917.5391" fill="none" rx="3" ry="3" style="stroke:#038048;stroke-width:1.0;"/><text fill="#000000" font-family="sans-serif" font-size="14" lengthAdjust="spacing" textLength="41" x="1325.5" y="920.8857">int nc</text><ellipse cx="1316.5" cy="933.8359" fill="none" rx="3" ry="3" style="stroke:#038048;stroke-width:1.0;"/><text fill="#000000" font-family="sans-serif" font-size="14" lengthAdjust="spacing" textLength="130" x="1325.5" y="937.1826">String description</text><ellipse cx="1316.5" cy="950.1328" fill="none" rx="3" ry="3" style="stroke:#038048;stroke-width:1.0;"/><text fill="#000000" font-family="sans-serif" font-size="14" lengthAdjust="spacing" textLength="104" x="1325.5" y="953.4795">String filePath</text><line style="stroke:#181818;stroke-width:0.5;" x1="1306.5" x2="1553.5" y1="960.7813" y2="960.7813"/><ellipse cx="1316.5" cy="974.4297" fill="#84BE84" rx="3" ry="3" style="stroke:#038048;stroke-width:1.0;"/><text fill="#000000" font-family="sans-serif" font-size="14" lengthAdjust="spacing" textLength="223" x="1325.5" y="977.7764">Map&lt;String, dynamic&gt; toJson()</text></g><!--class ModelManager--><g id="elem_ModelManager"><rect codeLine="124" fill="#F1F1F1" height="145.7813" id="ModelManager" rx="2.5" ry="2.5" style="stroke:#181818;stroke-width:0.5;" width="279" x="991.5" y="831"/><ellipse cx="1074.75" cy="847" fill="#ADD1B2" rx="11" ry="11" style="stroke:#181818;stroke-width:1.0;"/><path d="M1077.0938,842.6719 C1076.1563,842.2344 1075.5625,842.0938 1074.6875,842.0938 C1072.0625,842.0938 1070.0625,844.1719 1070.0625,846.8906 L1070.0625,848.0156 C1070.0625,850.5938 1072.1719,852.4844 1075.0625,852.4844 C1076.2813,852.4844 1077.4375,852.1875 1078.1875,851.6406 C1078.7656,851.2344 1079.0938,850.7813 1079.0938,850.3906 C1079.0938,849.9375 1078.7031,849.5469 1078.2344,849.5469 C1078.0156,849.5469 1077.8125,849.625 1077.625,849.8125 C1077.1719,850.2969 1077.1719,850.2969 1076.9844,850.3906 C1076.5625,850.6563 1075.875,850.7813 1075.1094,850.7813 C1073.0625,850.7813 1071.7656,849.6875 1071.7656,847.9844 L1071.7656,846.8906 C1071.7656,845.1094 1073.0156,843.7969 1074.75,843.7969 C1075.3281,843.7969 1075.9375,843.9531 1076.4063,844.2031 C1076.8906,844.4844 1077.0625,844.7031 1077.1563,845.1094 C1077.2188,845.5156 1077.25,845.6406 1077.3906,845.7656 C1077.5313,845.9063 1077.7656,846.0156 1077.9844,846.0156 C1078.25,846.0156 1078.5156,845.875 1078.6875,845.6563 C1078.7969,845.5 1078.8281,845.3125 1078.8281,844.8906 L1078.8281,843.4688 C1078.8281,843.0313 1078.8125,842.9063 1078.7188,842.75 C1078.5625,842.4844 1078.2813,842.3438 1077.9844,842.3438 C1077.6875,842.3438 1077.4844,842.4375 1077.2656,842.75 L1077.0938,842.6719 Z " fill="#000000"/><text fill="#000000" font-family="sans-serif" font-size="14" lengthAdjust="spacing" textLength="104" x="1095.25" y="851.8467">ModelManager</text><line style="stroke:#181818;stroke-width:0.5;" x1="992.5" x2="1269.5" y1="863" y2="863"/><rect fill="none" height="6" style="stroke:#C82930;stroke-width:1.0;" width="6" x="999.5" y="873.6484"/><text fill="#000000" font-family="sans-serif" font-size="14" lengthAdjust="spacing" textLength="189" x="1011.5" y="879.9951">Future&lt;String&gt; _localPath</text><rect fill="none" height="6" style="stroke:#C82930;stroke-width:1.0;" width="6" x="999.5" y="889.9453"/><text fill="#000000" font-family="sans-serif" font-size="14" lengthAdjust="spacing" textLength="229" x="1011.5" y="896.292">Future&lt;File&gt; _modelListJsonFile</text><line style="stroke:#181818;stroke-width:0.5;" x1="992.5" x2="1269.5" y1="903.5938" y2="903.5938"/><ellipse cx="1002.5" cy="917.2422" fill="#84BE84" rx="3" ry="3" style="stroke:#038048;stroke-width:1.0;"/><text fill="#000000" font-family="sans-serif" font-size="14" lengthAdjust="spacing" textLength="194" x="1011.5" y="920.5889">Future&lt;void&gt; saveModels()</text><ellipse cx="1002.5" cy="933.5391" fill="#84BE84" rx="3" ry="3" style="stroke:#038048;stroke-width:1.0;"/><text fill="#000000" font-family="sans-serif" font-size="14" lengthAdjust="spacing" textLength="253" x="1011.5" y="936.8857">Future&lt;List&lt;Model&gt;&gt; loadModels()</text><ellipse cx="1002.5" cy="949.8359" fill="#84BE84" rx="3" ry="3" style="stroke:#038048;stroke-width:1.0;"/><text fill="#000000" font-family="sans-serif" font-size="14" lengthAdjust="spacing" textLength="159" x="1011.5" y="953.1826">void deleteModelFile()</text><ellipse cx="1002.5" cy="966.1328" fill="#84BE84" rx="3" ry="3" style="stroke:#038048;stroke-width:1.0;"/><text fill="#000000" font-family="sans-serif" font-size="14" lengthAdjust="spacing" textLength="241" x="1011.5" y="969.4795">Future&lt;void&gt; printAllModelFiles()</text></g><!--class ModelManagementApp--><g id="elem_ModelManagementApp"><rect codeLine="88" fill="#F1F1F1" height="64.2969" id="ModelManagementApp" rx="2.5" ry="2.5" style="stroke:#181818;stroke-width:0.5;" width="199" x="46.5" y="541"/><ellipse cx="61.5" cy="557" fill="#ADD1B2" rx="11" ry="11" style="stroke:#181818;stroke-width:1.0;"/><path d="M63.8438,552.6719 C62.9063,552.2344 62.3125,552.0938 61.4375,552.0938 C58.8125,552.0938 56.8125,554.1719 56.8125,556.8906 L56.8125,558.0156 C56.8125,560.5938 58.9219,562.4844 61.8125,562.4844 C63.0313,562.4844 64.1875,562.1875 64.9375,561.6406 C65.5156,561.2344 65.8438,560.7813 65.8438,560.3906 C65.8438,559.9375 65.4531,559.5469 64.9844,559.5469 C64.7656,559.5469 64.5625,559.625 64.375,559.8125 C63.9219,560.2969 63.9219,560.2969 63.7344,560.3906 C63.3125,560.6563 62.625,560.7813 61.8594,560.7813 C59.8125,560.7813 58.5156,559.6875 58.5156,557.9844 L58.5156,556.8906 C58.5156,555.1094 59.7656,553.7969 61.5,553.7969 C62.0781,553.7969 62.6875,553.9531 63.1563,554.2031 C63.6406,554.4844 63.8125,554.7031 63.9063,555.1094 C63.9688,555.5156 64,555.6406 64.1406,555.7656 C64.2813,555.9063 64.5156,556.0156 64.7344,556.0156 C65,556.0156 65.2656,555.875 65.4375,555.6563 C65.5469,555.5 65.5781,555.3125 65.5781,554.8906 L65.5781,553.4688 C65.5781,553.0313 65.5625,552.9063 65.4688,552.75 C65.3125,552.4844 65.0313,552.3438 64.7344,552.3438 C64.4375,552.3438 64.2344,552.4375 64.0156,552.75 L63.8438,552.6719 Z " fill="#000000"/><text fill="#000000" font-family="sans-serif" font-size="14" lengthAdjust="spacing" textLength="167" x="75.5" y="561.8467">ModelManagementApp</text><line style="stroke:#181818;stroke-width:0.5;" x1="47.5" x2="244.5" y1="573" y2="573"/><line style="stroke:#181818;stroke-width:0.5;" x1="47.5" x2="244.5" y1="581" y2="581"/><ellipse cx="57.5" cy="594.6484" fill="#84BE84" rx="3" ry="3" style="stroke:#038048;stroke-width:1.0;"/><text fill="#000000" font-family="sans-serif" font-size="14" lengthAdjust="spacing" textLength="101" x="66.5" y="597.9951">Widget build()</text></g><!--class ModelListScreen--><g id="elem_ModelListScreen"><rect codeLine="94" fill="#F1F1F1" height="64.2969" id="ModelListScreen" rx="2.5" ry="2.5" style="stroke:#181818;stroke-width:0.5;" width="293" x="280.5" y="541"/><ellipse cx="363.25" cy="557" fill="#ADD1B2" rx="11" ry="11" style="stroke:#181818;stroke-width:1.0;"/><path d="M365.5938,552.6719 C364.6563,552.2344 364.0625,552.0938 363.1875,552.0938 C360.5625,552.0938 358.5625,554.1719 358.5625,556.8906 L358.5625,558.0156 C358.5625,560.5938 360.6719,562.4844 363.5625,562.4844 C364.7813,562.4844 365.9375,562.1875 366.6875,561.6406 C367.2656,561.2344 367.5938,560.7813 367.5938,560.3906 C367.5938,559.9375 367.2031,559.5469 366.7344,559.5469 C366.5156,559.5469 366.3125,559.625 366.125,559.8125 C365.6719,560.2969 365.6719,560.2969 365.4844,560.3906 C365.0625,560.6563 364.375,560.7813 363.6094,560.7813 C361.5625,560.7813 360.2656,559.6875 360.2656,557.9844 L360.2656,556.8906 C360.2656,555.1094 361.5156,553.7969 363.25,553.7969 C363.8281,553.7969 364.4375,553.9531 364.9063,554.2031 C365.3906,554.4844 365.5625,554.7031 365.6563,555.1094 C365.7188,555.5156 365.75,555.6406 365.8906,555.7656 C366.0313,555.9063 366.2656,556.0156 366.4844,556.0156 C366.75,556.0156 367.0156,555.875 367.1875,555.6563 C367.2969,555.5 367.3281,555.3125 367.3281,554.8906 L367.3281,553.4688 C367.3281,553.0313 367.3125,552.9063 367.2188,552.75 C367.0625,552.4844 366.7813,552.3438 366.4844,552.3438 C366.1875,552.3438 365.9844,552.4375 365.7656,552.75 L365.5938,552.6719 Z " fill="#000000"/><text fill="#000000" font-family="sans-serif" font-size="14" lengthAdjust="spacing" textLength="119" x="383.75" y="561.8467">ModelListScreen</text><line style="stroke:#181818;stroke-width:0.5;" x1="281.5" x2="572.5" y1="573" y2="573"/><line style="stroke:#181818;stroke-width:0.5;" x1="281.5" x2="572.5" y1="581" y2="581"/><ellipse cx="291.5" cy="594.6484" fill="#84BE84" rx="3" ry="3" style="stroke:#038048;stroke-width:1.0;"/><text fill="#000000" font-family="sans-serif" font-size="14" lengthAdjust="spacing" textLength="267" x="300.5" y="597.9951">_ModelListScreenState createState()</text></g><!--class _ModelListScreenState--><g id="elem__ModelListScreenState"><rect codeLine="100" fill="#F1F1F1" height="178.375" id="_ModelListScreenState" rx="2.5" ry="2.5" style="stroke:#181818;stroke-width:0.5;" width="240" x="609" y="484"/><ellipse cx="642.9" cy="500" fill="#ADD1B2" rx="11" ry="11" style="stroke:#181818;stroke-width:1.0;"/><path d="M645.2438,495.6719 C644.3063,495.2344 643.7125,495.0938 642.8375,495.0938 C640.2125,495.0938 638.2125,497.1719 638.2125,499.8906 L638.2125,501.0156 C638.2125,503.5938 640.3219,505.4844 643.2125,505.4844 C644.4313,505.4844 645.5875,505.1875 646.3375,504.6406 C646.9156,504.2344 647.2438,503.7813 647.2438,503.3906 C647.2438,502.9375 646.8531,502.5469 646.3844,502.5469 C646.1656,502.5469 645.9625,502.625 645.775,502.8125 C645.3219,503.2969 645.3219,503.2969 645.1344,503.3906 C644.7125,503.6563 644.025,503.7813 643.2594,503.7813 C641.2125,503.7813 639.9156,502.6875 639.9156,500.9844 L639.9156,499.8906 C639.9156,498.1094 641.1656,496.7969 642.9,496.7969 C643.4781,496.7969 644.0875,496.9531 644.5563,497.2031 C645.0406,497.4844 645.2125,497.7031 645.3063,498.1094 C645.3688,498.5156 645.4,498.6406 645.5406,498.7656 C645.6813,498.9063 645.9156,499.0156 646.1344,499.0156 C646.4,499.0156 646.6656,498.875 646.8375,498.6563 C646.9469,498.5 646.9781,498.3125 646.9781,497.8906 L646.9781,496.4688 C646.9781,496.0313 646.9625,495.9063 646.8688,495.75 C646.7125,495.4844 646.4313,495.3438 646.1344,495.3438 C645.8375,495.3438 645.6344,495.4375 645.4156,495.75 L645.2438,495.6719 Z " fill="#000000"/><text fill="#000000" font-family="sans-serif" font-size="14" lengthAdjust="spacing" textLength="166" x="661.1" y="504.8467">_ModelListScreenState</text><line style="stroke:#181818;stroke-width:0.5;" x1="610" x2="848" y1="516" y2="516"/><ellipse cx="620" cy="529.6484" fill="none" rx="3" ry="3" style="stroke:#038048;stroke-width:1.0;"/><text fill="#000000" font-family="sans-serif" font-size="14" lengthAdjust="spacing" textLength="147" x="629" y="532.9951">List&lt;Model&gt; models</text><ellipse cx="620" cy="545.9453" fill="none" rx="3" ry="3" style="stroke:#038048;stroke-width:1.0;"/><text fill="#000000" font-family="sans-serif" font-size="14" lengthAdjust="spacing" textLength="214" x="629" y="549.292">ModelManager modelManager</text><line style="stroke:#181818;stroke-width:0.5;" x1="610" x2="848" y1="556.5938" y2="556.5938"/><ellipse cx="620" cy="570.2422" fill="#84BE84" rx="3" ry="3" style="stroke:#038048;stroke-width:1.0;"/><text fill="#000000" font-family="sans-serif" font-size="14" lengthAdjust="spacing" textLength="108" x="629" y="573.5889">void initState()</text><rect fill="#F24D5C" height="6" style="stroke:#C82930;stroke-width:1.0;" width="6" x="617" y="583.5391"/><text fill="#000000" font-family="sans-serif" font-size="14" lengthAdjust="spacing" textLength="131" x="629" y="589.8857">void _loadModels()</text><rect fill="#F24D5C" height="6" style="stroke:#C82930;stroke-width:1.0;" width="6" x="617" y="599.8359"/><text fill="#000000" font-family="sans-serif" font-size="14" lengthAdjust="spacing" textLength="133" x="629" y="606.1826">void _saveModels()</text><rect fill="#F24D5C" height="6" style="stroke:#C82930;stroke-width:1.0;" width="6" x="617" y="616.1328"/><text fill="#000000" font-family="sans-serif" font-size="14" lengthAdjust="spacing" textLength="141" x="629" y="622.4795">void _deleteModel()</text><rect fill="#F24D5C" height="6" style="stroke:#C82930;stroke-width:1.0;" width="6" x="617" y="632.4297"/><text fill="#000000" font-family="sans-serif" font-size="14" lengthAdjust="spacing" textLength="195" x="629" y="638.7764">void _addNewModelDialog()</text><ellipse cx="620" cy="651.7266" fill="#84BE84" rx="3" ry="3" style="stroke:#038048;stroke-width:1.0;"/><text fill="#000000" font-family="sans-serif" font-size="14" lengthAdjust="spacing" textLength="101" x="629" y="655.0732">Widget build()</text></g><!--class ResultObjectDetection--><g id="elem_ResultObjectDetection"><rect fill="#F1F1F1" height="48" id="ResultObjectDetection" rx="2.5" ry="2.5" style="stroke:#181818;stroke-width:0.5;" width="199" x="3568.5" y="880"/><ellipse cx="3583.5" cy="896" fill="#ADD1B2" rx="11" ry="11" style="stroke:#181818;stroke-width:1.0;"/><path d="M3585.8438,891.6719 C3584.9063,891.2344 3584.3125,891.0938 3583.4375,891.0938 C3580.8125,891.0938 3578.8125,893.1719 3578.8125,895.8906 L3578.8125,897.0156 C3578.8125,899.5938 3580.9219,901.4844 3583.8125,901.4844 C3585.0313,901.4844 3586.1875,901.1875 3586.9375,900.6406 C3587.5156,900.2344 3587.8438,899.7813 3587.8438,899.3906 C3587.8438,898.9375 3587.4531,898.5469 3586.9844,898.5469 C3586.7656,898.5469 3586.5625,898.625 3586.375,898.8125 C3585.9219,899.2969 3585.9219,899.2969 3585.7344,899.3906 C3585.3125,899.6563 3584.625,899.7813 3583.8594,899.7813 C3581.8125,899.7813 3580.5156,898.6875 3580.5156,896.9844 L3580.5156,895.8906 C3580.5156,894.1094 3581.7656,892.7969 3583.5,892.7969 C3584.0781,892.7969 3584.6875,892.9531 3585.1563,893.2031 C3585.6406,893.4844 3585.8125,893.7031 3585.9063,894.1094 C3585.9688,894.5156 3586,894.6406 3586.1406,894.7656 C3586.2813,894.9063 3586.5156,895.0156 3586.7344,895.0156 C3587,895.0156 3587.2656,894.875 3587.4375,894.6563 C3587.5469,894.5 3587.5781,894.3125 3587.5781,893.8906 L3587.5781,892.4688 C3587.5781,892.0313 3587.5625,891.9063 3587.4688,891.75 C3587.3125,891.4844 3587.0313,891.3438 3586.7344,891.3438 C3586.4375,891.3438 3586.2344,891.4375 3586.0156,891.75 L3585.8438,891.6719 Z " fill="#000000"/><text fill="#000000" font-family="sans-serif" font-size="14" lengthAdjust="spacing" textLength="167" x="3597.5" y="900.8467">ResultObjectDetection</text><line style="stroke:#181818;stroke-width:0.5;" x1="3569.5" x2="3766.5" y1="912" y2="912"/><line style="stroke:#181818;stroke-width:0.5;" x1="3569.5" x2="3766.5" y1="920" y2="920"/></g><!--class ModelObjectDetection--><g id="elem_ModelObjectDetection"><rect fill="#F1F1F1" height="48" id="ModelObjectDetection" rx="2.5" ry="2.5" style="stroke:#181818;stroke-width:0.5;" width="197" x="3824.5" y="880"/><ellipse cx="3839.5" cy="896" fill="#ADD1B2" rx="11" ry="11" style="stroke:#181818;stroke-width:1.0;"/><path d="M3841.8438,891.6719 C3840.9063,891.2344 3840.3125,891.0938 3839.4375,891.0938 C3836.8125,891.0938 3834.8125,893.1719 3834.8125,895.8906 L3834.8125,897.0156 C3834.8125,899.5938 3836.9219,901.4844 3839.8125,901.4844 C3841.0313,901.4844 3842.1875,901.1875 3842.9375,900.6406 C3843.5156,900.2344 3843.8438,899.7813 3843.8438,899.3906 C3843.8438,898.9375 3843.4531,898.5469 3842.9844,898.5469 C3842.7656,898.5469 3842.5625,898.625 3842.375,898.8125 C3841.9219,899.2969 3841.9219,899.2969 3841.7344,899.3906 C3841.3125,899.6563 3840.625,899.7813 3839.8594,899.7813 C3837.8125,899.7813 3836.5156,898.6875 3836.5156,896.9844 L3836.5156,895.8906 C3836.5156,894.1094 3837.7656,892.7969 3839.5,892.7969 C3840.0781,892.7969 3840.6875,892.9531 3841.1563,893.2031 C3841.6406,893.4844 3841.8125,893.7031 3841.9063,894.1094 C3841.9688,894.5156 3842,894.6406 3842.1406,894.7656 C3842.2813,894.9063 3842.5156,895.0156 3842.7344,895.0156 C3843,895.0156 3843.2656,894.875 3843.4375,894.6563 C3843.5469,894.5 3843.5781,894.3125 3843.5781,893.8906 L3843.5781,892.4688 C3843.5781,892.0313 3843.5625,891.9063 3843.4688,891.75 C3843.3125,891.4844 3843.0313,891.3438 3842.7344,891.3438 C3842.4375,891.3438 3842.2344,891.4375 3842.0156,891.75 L3841.8438,891.6719 Z " fill="#000000"/><text fill="#000000" font-family="sans-serif" font-size="14" lengthAdjust="spacing" textLength="165" x="3853.5" y="900.8467">ModelObjectDetection</text><line style="stroke:#181818;stroke-width:0.5;" x1="3825.5" x2="4020.5" y1="912" y2="912"/><line style="stroke:#181818;stroke-width:0.5;" x1="3825.5" x2="4020.5" y1="920" y2="920"/></g><!--class Color--><g id="elem_Color"><rect fill="#F1F1F1" height="48" id="Color" rx="2.5" ry="2.5" style="stroke:#181818;stroke-width:0.5;" width="70" x="4239" y="880"/><ellipse cx="4254" cy="896" fill="#ADD1B2" rx="11" ry="11" style="stroke:#181818;stroke-width:1.0;"/><path d="M4256.3438,891.6719 C4255.4063,891.2344 4254.8125,891.0938 4253.9375,891.0938 C4251.3125,891.0938 4249.3125,893.1719 4249.3125,895.8906 L4249.3125,897.0156 C4249.3125,899.5938 4251.4219,901.4844 4254.3125,901.4844 C4255.5313,901.4844 4256.6875,901.1875 4257.4375,900.6406 C4258.0156,900.2344 4258.3438,899.7813 4258.3438,899.3906 C4258.3438,898.9375 4257.9531,898.5469 4257.4844,898.5469 C4257.2656,898.5469 4257.0625,898.625 4256.875,898.8125 C4256.4219,899.2969 4256.4219,899.2969 4256.2344,899.3906 C4255.8125,899.6563 4255.125,899.7813 4254.3594,899.7813 C4252.3125,899.7813 4251.0156,898.6875 4251.0156,896.9844 L4251.0156,895.8906 C4251.0156,894.1094 4252.2656,892.7969 4254,892.7969 C4254.5781,892.7969 4255.1875,892.9531 4255.6563,893.2031 C4256.1406,893.4844 4256.3125,893.7031 4256.4063,894.1094 C4256.4688,894.5156 4256.5,894.6406 4256.6406,894.7656 C4256.7813,894.9063 4257.0156,895.0156 4257.2344,895.0156 C4257.5,895.0156 4257.7656,894.875 4257.9375,894.6563 C4258.0469,894.5 4258.0781,894.3125 4258.0781,893.8906 L4258.0781,892.4688 C4258.0781,892.0313 4258.0625,891.9063 4257.9688,891.75 C4257.8125,891.4844 4257.5313,891.3438 4257.2344,891.3438 C4256.9375,891.3438 4256.7344,891.4375 4256.5156,891.75 L4256.3438,891.6719 Z " fill="#000000"/><text fill="#000000" font-family="sans-serif" font-size="14" lengthAdjust="spacing" textLength="38" x="4268" y="900.8467">Color</text><line style="stroke:#181818;stroke-width:0.5;" x1="4240" x2="4308" y1="912" y2="912"/><line style="stroke:#181818;stroke-width:0.5;" x1="4240" x2="4308" y1="920" y2="920"/></g><!--class Size--><g id="elem_Size"><rect fill="#F1F1F1" height="48" id="Size" rx="2.5" ry="2.5" style="stroke:#181818;stroke-width:0.5;" width="62" x="4344" y="880"/><ellipse cx="4359" cy="896" fill="#ADD1B2" rx="11" ry="11" style="stroke:#181818;stroke-width:1.0;"/><path d="M4361.3438,891.6719 C4360.4063,891.2344 4359.8125,891.0938 4358.9375,891.0938 C4356.3125,891.0938 4354.3125,893.1719 4354.3125,895.8906 L4354.3125,897.0156 C4354.3125,899.5938 4356.4219,901.4844 4359.3125,901.4844 C4360.5313,901.4844 4361.6875,901.1875 4362.4375,900.6406 C4363.0156,900.2344 4363.3438,899.7813 4363.3438,899.3906 C4363.3438,898.9375 4362.9531,898.5469 4362.4844,898.5469 C4362.2656,898.5469 4362.0625,898.625 4361.875,898.8125 C4361.4219,899.2969 4361.4219,899.2969 4361.2344,899.3906 C4360.8125,899.6563 4360.125,899.7813 4359.3594,899.7813 C4357.3125,899.7813 4356.0156,898.6875 4356.0156,896.9844 L4356.0156,895.8906 C4356.0156,894.1094 4357.2656,892.7969 4359,892.7969 C4359.5781,892.7969 4360.1875,892.9531 4360.6563,893.2031 C4361.1406,893.4844 4361.3125,893.7031 4361.4063,894.1094 C4361.4688,894.5156 4361.5,894.6406 4361.6406,894.7656 C4361.7813,894.9063 4362.0156,895.0156 4362.2344,895.0156 C4362.5,895.0156 4362.7656,894.875 4362.9375,894.6563 C4363.0469,894.5 4363.0781,894.3125 4363.0781,893.8906 L4363.0781,892.4688 C4363.0781,892.0313 4363.0625,891.9063 4362.9688,891.75 C4362.8125,891.4844 4362.5313,891.3438 4362.2344,891.3438 C4361.9375,891.3438 4361.7344,891.4375 4361.5156,891.75 L4361.3438,891.6719 Z " fill="#000000"/><text fill="#000000" font-family="sans-serif" font-size="14" lengthAdjust="spacing" textLength="30" x="4373" y="900.8467">Size</text><line style="stroke:#181818;stroke-width:0.5;" x1="4345" x2="4405" y1="912" y2="912"/><line style="stroke:#181818;stroke-width:0.5;" x1="4345" x2="4405" y1="920" y2="920"/></g><!--class Radius--><g id="elem_Radius"><rect fill="#F1F1F1" height="48" id="Radius" rx="2.5" ry="2.5" style="stroke:#181818;stroke-width:0.5;" width="78" x="4126" y="880"/><ellipse cx="4141" cy="896" fill="#ADD1B2" rx="11" ry="11" style="stroke:#181818;stroke-width:1.0;"/><path d="M4143.3438,891.6719 C4142.4063,891.2344 4141.8125,891.0938 4140.9375,891.0938 C4138.3125,891.0938 4136.3125,893.1719 4136.3125,895.8906 L4136.3125,897.0156 C4136.3125,899.5938 4138.4219,901.4844 4141.3125,901.4844 C4142.5313,901.4844 4143.6875,901.1875 4144.4375,900.6406 C4145.0156,900.2344 4145.3438,899.7813 4145.3438,899.3906 C4145.3438,898.9375 4144.9531,898.5469 4144.4844,898.5469 C4144.2656,898.5469 4144.0625,898.625 4143.875,898.8125 C4143.4219,899.2969 4143.4219,899.2969 4143.2344,899.3906 C4142.8125,899.6563 4142.125,899.7813 4141.3594,899.7813 C4139.3125,899.7813 4138.0156,898.6875 4138.0156,896.9844 L4138.0156,895.8906 C4138.0156,894.1094 4139.2656,892.7969 4141,892.7969 C4141.5781,892.7969 4142.1875,892.9531 4142.6563,893.2031 C4143.1406,893.4844 4143.3125,893.7031 4143.4063,894.1094 C4143.4688,894.5156 4143.5,894.6406 4143.6406,894.7656 C4143.7813,894.9063 4144.0156,895.0156 4144.2344,895.0156 C4144.5,895.0156 4144.7656,894.875 4144.9375,894.6563 C4145.0469,894.5 4145.0781,894.3125 4145.0781,893.8906 L4145.0781,892.4688 C4145.0781,892.0313 4145.0625,891.9063 4144.9688,891.75 C4144.8125,891.4844 4144.5313,891.3438 4144.2344,891.3438 C4143.9375,891.3438 4143.7344,891.4375 4143.5156,891.75 L4143.3438,891.6719 Z " fill="#000000"/><text fill="#000000" font-family="sans-serif" font-size="14" lengthAdjust="spacing" textLength="46" x="4155" y="900.8467">Radius</text><line style="stroke:#181818;stroke-width:0.5;" x1="4127" x2="4203" y1="912" y2="912"/><line style="stroke:#181818;stroke-width:0.5;" x1="4127" x2="4203" y1="920" y2="920"/></g><!--class StatelessWidget--><g id="elem_StatelessWidget"><rect fill="#F1F1F1" height="48" id="StatelessWidget" rx="2.5" ry="2.5" style="stroke:#181818;stroke-width:0.5;" width="151" x="1159.5" y="170"/><ellipse cx="1174.5" cy="186" fill="#ADD1B2" rx="11" ry="11" style="stroke:#181818;stroke-width:1.0;"/><path d="M1176.8438,181.6719 C1175.9063,181.2344 1175.3125,181.0938 1174.4375,181.0938 C1171.8125,181.0938 1169.8125,183.1719 1169.8125,185.8906 L1169.8125,187.0156 C1169.8125,189.5938 1171.9219,191.4844 1174.8125,191.4844 C1176.0313,191.4844 1177.1875,191.1875 1177.9375,190.6406 C1178.5156,190.2344 1178.8438,189.7813 1178.8438,189.3906 C1178.8438,188.9375 1178.4531,188.5469 1177.9844,188.5469 C1177.7656,188.5469 1177.5625,188.625 1177.375,188.8125 C1176.9219,189.2969 1176.9219,189.2969 1176.7344,189.3906 C1176.3125,189.6563 1175.625,189.7813 1174.8594,189.7813 C1172.8125,189.7813 1171.5156,188.6875 1171.5156,186.9844 L1171.5156,185.8906 C1171.5156,184.1094 1172.7656,182.7969 1174.5,182.7969 C1175.0781,182.7969 1175.6875,182.9531 1176.1563,183.2031 C1176.6406,183.4844 1176.8125,183.7031 1176.9063,184.1094 C1176.9688,184.5156 1177,184.6406 1177.1406,184.7656 C1177.2813,184.9063 1177.5156,185.0156 1177.7344,185.0156 C1178,185.0156 1178.2656,184.875 1178.4375,184.6563 C1178.5469,184.5 1178.5781,184.3125 1178.5781,183.8906 L1178.5781,182.4688 C1178.5781,182.0313 1178.5625,181.9063 1178.4688,181.75 C1178.3125,181.4844 1178.0313,181.3438 1177.7344,181.3438 C1177.4375,181.3438 1177.2344,181.4375 1177.0156,181.75 L1176.8438,181.6719 Z " fill="#000000"/><text fill="#000000" font-family="sans-serif" font-size="14" lengthAdjust="spacing" textLength="119" x="1188.5" y="190.8467">StatelessWidget</text><line style="stroke:#181818;stroke-width:0.5;" x1="1160.5" x2="1309.5" y1="202" y2="202"/><line style="stroke:#181818;stroke-width:0.5;" x1="1160.5" x2="1309.5" y1="210" y2="210"/></g><!--class StatefulWidget--><g id="elem_StatefulWidget"><rect fill="#F1F1F1" height="48" id="StatefulWidget" rx="2.5" ry="2.5" style="stroke:#181818;stroke-width:0.5;" width="142" x="1346" y="170"/><ellipse cx="1361" cy="186" fill="#ADD1B2" rx="11" ry="11" style="stroke:#181818;stroke-width:1.0;"/><path d="M1363.3438,181.6719 C1362.4063,181.2344 1361.8125,181.0938 1360.9375,181.0938 C1358.3125,181.0938 1356.3125,183.1719 1356.3125,185.8906 L1356.3125,187.0156 C1356.3125,189.5938 1358.4219,191.4844 1361.3125,191.4844 C1362.5313,191.4844 1363.6875,191.1875 1364.4375,190.6406 C1365.0156,190.2344 1365.3438,189.7813 1365.3438,189.3906 C1365.3438,188.9375 1364.9531,188.5469 1364.4844,188.5469 C1364.2656,188.5469 1364.0625,188.625 1363.875,188.8125 C1363.4219,189.2969 1363.4219,189.2969 1363.2344,189.3906 C1362.8125,189.6563 1362.125,189.7813 1361.3594,189.7813 C1359.3125,189.7813 1358.0156,188.6875 1358.0156,186.9844 L1358.0156,185.8906 C1358.0156,184.1094 1359.2656,182.7969 1361,182.7969 C1361.5781,182.7969 1362.1875,182.9531 1362.6563,183.2031 C1363.1406,183.4844 1363.3125,183.7031 1363.4063,184.1094 C1363.4688,184.5156 1363.5,184.6406 1363.6406,184.7656 C1363.7813,184.9063 1364.0156,185.0156 1364.2344,185.0156 C1364.5,185.0156 1364.7656,184.875 1364.9375,184.6563 C1365.0469,184.5 1365.0781,184.3125 1365.0781,183.8906 L1365.0781,182.4688 C1365.0781,182.0313 1365.0625,181.9063 1364.9688,181.75 C1364.8125,181.4844 1364.5313,181.3438 1364.2344,181.3438 C1363.9375,181.3438 1363.7344,181.4375 1363.5156,181.75 L1363.3438,181.6719 Z " fill="#000000"/><text fill="#000000" font-family="sans-serif" font-size="14" lengthAdjust="spacing" textLength="110" x="1375" y="190.8467">StatefulWidget</text><line style="stroke:#181818;stroke-width:0.5;" x1="1347" x2="1487" y1="202" y2="202"/><line style="stroke:#181818;stroke-width:0.5;" x1="1347" x2="1487" y1="210" y2="210"/></g><!--class State--><g id="elem_State"><rect fill="#F1F1F1" height="48" id="State" rx="2.5" ry="2.5" style="stroke:#181818;stroke-width:0.5;" width="72" x="1784" y="170"/><ellipse cx="1799" cy="186" fill="#ADD1B2" rx="11" ry="11" style="stroke:#181818;stroke-width:1.0;"/><path d="M1801.3438,181.6719 C1800.4063,181.2344 1799.8125,181.0938 1798.9375,181.0938 C1796.3125,181.0938 1794.3125,183.1719 1794.3125,185.8906 L1794.3125,187.0156 C1794.3125,189.5938 1796.4219,191.4844 1799.3125,191.4844 C1800.5313,191.4844 1801.6875,191.1875 1802.4375,190.6406 C1803.0156,190.2344 1803.3438,189.7813 1803.3438,189.3906 C1803.3438,188.9375 1802.9531,188.5469 1802.4844,188.5469 C1802.2656,188.5469 1802.0625,188.625 1801.875,188.8125 C1801.4219,189.2969 1801.4219,189.2969 1801.2344,189.3906 C1800.8125,189.6563 1800.125,189.7813 1799.3594,189.7813 C1797.3125,189.7813 1796.0156,188.6875 1796.0156,186.9844 L1796.0156,185.8906 C1796.0156,184.1094 1797.2656,182.7969 1799,182.7969 C1799.5781,182.7969 1800.1875,182.9531 1800.6563,183.2031 C1801.1406,183.4844 1801.3125,183.7031 1801.4063,184.1094 C1801.4688,184.5156 1801.5,184.6406 1801.6406,184.7656 C1801.7813,184.9063 1802.0156,185.0156 1802.2344,185.0156 C1802.5,185.0156 1802.7656,184.875 1802.9375,184.6563 C1803.0469,184.5 1803.0781,184.3125 1803.0781,183.8906 L1803.0781,182.4688 C1803.0781,182.0313 1803.0625,181.9063 1802.9688,181.75 C1802.8125,181.4844 1802.5313,181.3438 1802.2344,181.3438 C1801.9375,181.3438 1801.7344,181.4375 1801.5156,181.75 L1801.3438,181.6719 Z " fill="#000000"/><text fill="#000000" font-family="sans-serif" font-size="14" lengthAdjust="spacing" textLength="40" x="1813" y="190.8467">State</text><line style="stroke:#181818;stroke-width:0.5;" x1="1785" x2="1855" y1="202" y2="202"/><line style="stroke:#181818;stroke-width:0.5;" x1="1785" x2="1855" y1="210" y2="210"/></g><!--class GlobalKey<ScaffoldState>--><g id="elem_GlobalKey&lt;ScaffoldState&gt;"><rect fill="#F1F1F1" height="48" id="GlobalKey&lt;ScaffoldState&gt;" rx="2.5" ry="2.5" style="stroke:#181818;stroke-width:0.5;" width="226" x="1523" y="170"/><ellipse cx="1538" cy="186" fill="#ADD1B2" rx="11" ry="11" style="stroke:#181818;stroke-width:1.0;"/><path d="M1540.3438,181.6719 C1539.4063,181.2344 1538.8125,181.0938 1537.9375,181.0938 C1535.3125,181.0938 1533.3125,183.1719 1533.3125,185.8906 L1533.3125,187.0156 C1533.3125,189.5938 1535.4219,191.4844 1538.3125,191.4844 C1539.5313,191.4844 1540.6875,191.1875 1541.4375,190.6406 C1542.0156,190.2344 1542.3438,189.7813 1542.3438,189.3906 C1542.3438,188.9375 1541.9531,188.5469 1541.4844,188.5469 C1541.2656,188.5469 1541.0625,188.625 1540.875,188.8125 C1540.4219,189.2969 1540.4219,189.2969 1540.2344,189.3906 C1539.8125,189.6563 1539.125,189.7813 1538.3594,189.7813 C1536.3125,189.7813 1535.0156,188.6875 1535.0156,186.9844 L1535.0156,185.8906 C1535.0156,184.1094 1536.2656,182.7969 1538,182.7969 C1538.5781,182.7969 1539.1875,182.9531 1539.6563,183.2031 C1540.1406,183.4844 1540.3125,183.7031 1540.4063,184.1094 C1540.4688,184.5156 1540.5,184.6406 1540.6406,184.7656 C1540.7813,184.9063 1541.0156,185.0156 1541.2344,185.0156 C1541.5,185.0156 1541.7656,184.875 1541.9375,184.6563 C1542.0469,184.5 1542.0781,184.3125 1542.0781,183.8906 L1542.0781,182.4688 C1542.0781,182.0313 1542.0625,181.9063 1541.9688,181.75 C1541.8125,181.4844 1541.5313,181.3438 1541.2344,181.3438 C1540.9375,181.3438 1540.7344,181.4375 1540.5156,181.75 L1540.3438,181.6719 Z " fill="#000000"/><text fill="#000000" font-family="sans-serif" font-size="14" lengthAdjust="spacing" textLength="194" x="1552" y="190.8467">GlobalKey&lt;ScaffoldState&gt;</text><line style="stroke:#181818;stroke-width:0.5;" x1="1524" x2="1748" y1="202" y2="202"/><line style="stroke:#181818;stroke-width:0.5;" x1="1524" x2="1748" y1="210" y2="210"/></g><!--class WidgetsBindingObserver--><g id="elem_WidgetsBindingObserver"><rect fill="#F1F1F1" height="48" id="WidgetsBindingObserver" rx="2.5" ry="2.5" style="stroke:#181818;stroke-width:0.5;" width="211" x="1912.5" y="170"/><ellipse cx="1927.5" cy="186" fill="#ADD1B2" rx="11" ry="11" style="stroke:#181818;stroke-width:1.0;"/><path d="M1929.8438,181.6719 C1928.9063,181.2344 1928.3125,181.0938 1927.4375,181.0938 C1924.8125,181.0938 1922.8125,183.1719 1922.8125,185.8906 L1922.8125,187.0156 C1922.8125,189.5938 1924.9219,191.4844 1927.8125,191.4844 C1929.0313,191.4844 1930.1875,191.1875 1930.9375,190.6406 C1931.5156,190.2344 1931.8438,189.7813 1931.8438,189.3906 C1931.8438,188.9375 1931.4531,188.5469 1930.9844,188.5469 C1930.7656,188.5469 1930.5625,188.625 1930.375,188.8125 C1929.9219,189.2969 1929.9219,189.2969 1929.7344,189.3906 C1929.3125,189.6563 1928.625,189.7813 1927.8594,189.7813 C1925.8125,189.7813 1924.5156,188.6875 1924.5156,186.9844 L1924.5156,185.8906 C1924.5156,184.1094 1925.7656,182.7969 1927.5,182.7969 C1928.0781,182.7969 1928.6875,182.9531 1929.1563,183.2031 C1929.6406,183.4844 1929.8125,183.7031 1929.9063,184.1094 C1929.9688,184.5156 1930,184.6406 1930.1406,184.7656 C1930.2813,184.9063 1930.5156,185.0156 1930.7344,185.0156 C1931,185.0156 1931.2656,184.875 1931.4375,184.6563 C1931.5469,184.5 1931.5781,184.3125 1931.5781,183.8906 L1931.5781,182.4688 C1931.5781,182.0313 1931.5625,181.9063 1931.4688,181.75 C1931.3125,181.4844 1931.0313,181.3438 1930.7344,181.3438 C1930.4375,181.3438 1930.2344,181.4375 1930.0156,181.75 L1929.8438,181.6719 Z " fill="#000000"/><text fill="#000000" font-family="sans-serif" font-size="14" lengthAdjust="spacing" textLength="179" x="1941.5" y="190.8467">WidgetsBindingObserver</text><line style="stroke:#181818;stroke-width:0.5;" x1="1913.5" x2="2122.5" y1="202" y2="202"/><line style="stroke:#181818;stroke-width:0.5;" x1="1913.5" x2="2122.5" y1="210" y2="210"/></g><!--class BorderRadius--><g id="elem_BorderRadius"><rect fill="#F1F1F1" height="48" id="BorderRadius" rx="2.5" ry="2.5" style="stroke:#181818;stroke-width:0.5;" width="127" x="2228.5" y="170"/><ellipse cx="2243.5" cy="186" fill="#ADD1B2" rx="11" ry="11" style="stroke:#181818;stroke-width:1.0;"/><path d="M2245.8438,181.6719 C2244.9063,181.2344 2244.3125,181.0938 2243.4375,181.0938 C2240.8125,181.0938 2238.8125,183.1719 2238.8125,185.8906 L2238.8125,187.0156 C2238.8125,189.5938 2240.9219,191.4844 2243.8125,191.4844 C2245.0313,191.4844 2246.1875,191.1875 2246.9375,190.6406 C2247.5156,190.2344 2247.8438,189.7813 2247.8438,189.3906 C2247.8438,188.9375 2247.4531,188.5469 2246.9844,188.5469 C2246.7656,188.5469 2246.5625,188.625 2246.375,188.8125 C2245.9219,189.2969 2245.9219,189.2969 2245.7344,189.3906 C2245.3125,189.6563 2244.625,189.7813 2243.8594,189.7813 C2241.8125,189.7813 2240.5156,188.6875 2240.5156,186.9844 L2240.5156,185.8906 C2240.5156,184.1094 2241.7656,182.7969 2243.5,182.7969 C2244.0781,182.7969 2244.6875,182.9531 2245.1563,183.2031 C2245.6406,183.4844 2245.8125,183.7031 2245.9063,184.1094 C2245.9688,184.5156 2246,184.6406 2246.1406,184.7656 C2246.2813,184.9063 2246.5156,185.0156 2246.7344,185.0156 C2247,185.0156 2247.2656,184.875 2247.4375,184.6563 C2247.5469,184.5 2247.5781,184.3125 2247.5781,183.8906 L2247.5781,182.4688 C2247.5781,182.0313 2247.5625,181.9063 2247.4688,181.75 C2247.3125,181.4844 2247.0313,181.3438 2246.7344,181.3438 C2246.4375,181.3438 2246.2344,181.4375 2246.0156,181.75 L2245.8438,181.6719 Z " fill="#000000"/><text fill="#000000" font-family="sans-serif" font-size="14" lengthAdjust="spacing" textLength="95" x="2257.5" y="190.8467">BorderRadius</text><line style="stroke:#181818;stroke-width:0.5;" x1="2229.5" x2="2354.5" y1="202" y2="202"/><line style="stroke:#181818;stroke-width:0.5;" x1="2229.5" x2="2354.5" y1="210" y2="210"/></g><!--class dynamic Function(List<ResultObjectDetection>)--><g id="elem_dynamic Function(List&lt;ResultObjectDetection&gt;)"><rect fill="#F1F1F1" height="48" id="dynamic Function(List&lt;ResultObjectDetection&gt;)" rx="2.5" ry="2.5" style="stroke:#181818;stroke-width:0.5;" width="383" x="4486.5" y="880"/><ellipse cx="4501.5" cy="896" fill="#ADD1B2" rx="11" ry="11" style="stroke:#181818;stroke-width:1.0;"/><path d="M4503.8438,891.6719 C4502.9063,891.2344 4502.3125,891.0938 4501.4375,891.0938 C4498.8125,891.0938 4496.8125,893.1719 4496.8125,895.8906 L4496.8125,897.0156 C4496.8125,899.5938 4498.9219,901.4844 4501.8125,901.4844 C4503.0313,901.4844 4504.1875,901.1875 4504.9375,900.6406 C4505.5156,900.2344 4505.8438,899.7813 4505.8438,899.3906 C4505.8438,898.9375 4505.4531,898.5469 4504.9844,898.5469 C4504.7656,898.5469 4504.5625,898.625 4504.375,898.8125 C4503.9219,899.2969 4503.9219,899.2969 4503.7344,899.3906 C4503.3125,899.6563 4502.625,899.7813 4501.8594,899.7813 C4499.8125,899.7813 4498.5156,898.6875 4498.5156,896.9844 L4498.5156,895.8906 C4498.5156,894.1094 4499.7656,892.7969 4501.5,892.7969 C4502.0781,892.7969 4502.6875,892.9531 4503.1563,893.2031 C4503.6406,893.4844 4503.8125,893.7031 4503.9063,894.1094 C4503.9688,894.5156 4504,894.6406 4504.1406,894.7656 C4504.2813,894.9063 4504.5156,895.0156 4504.7344,895.0156 C4505,895.0156 4505.2656,894.875 4505.4375,894.6563 C4505.5469,894.5 4505.5781,894.3125 4505.5781,893.8906 L4505.5781,892.4688 C4505.5781,892.0313 4505.5625,891.9063 4505.4688,891.75 C4505.3125,891.4844 4505.0313,891.3438 4504.7344,891.3438 C4504.4375,891.3438 4504.2344,891.4375 4504.0156,891.75 L4503.8438,891.6719 Z " fill="#000000"/><text fill="#000000" font-family="sans-serif" font-size="14" lengthAdjust="spacing" textLength="351" x="4515.5" y="900.8467">dynamic Function(List&lt;ResultObjectDetection&gt;)</text><line style="stroke:#181818;stroke-width:0.5;" x1="4487.5" x2="4868.5" y1="912" y2="912"/><line style="stroke:#181818;stroke-width:0.5;" x1="4487.5" x2="4868.5" y1="920" y2="920"/></g><!--class CameraController--><g id="elem_CameraController"><rect fill="#F1F1F1" height="48" id="CameraController" rx="2.5" ry="2.5" style="stroke:#181818;stroke-width:0.5;" width="160" x="4974" y="880"/><ellipse cx="4989" cy="896" fill="#ADD1B2" rx="11" ry="11" style="stroke:#181818;stroke-width:1.0;"/><path d="M4991.3438,891.6719 C4990.4063,891.2344 4989.8125,891.0938 4988.9375,891.0938 C4986.3125,891.0938 4984.3125,893.1719 4984.3125,895.8906 L4984.3125,897.0156 C4984.3125,899.5938 4986.4219,901.4844 4989.3125,901.4844 C4990.5313,901.4844 4991.6875,901.1875 4992.4375,900.6406 C4993.0156,900.2344 4993.3438,899.7813 4993.3438,899.3906 C4993.3438,898.9375 4992.9531,898.5469 4992.4844,898.5469 C4992.2656,898.5469 4992.0625,898.625 4991.875,898.8125 C4991.4219,899.2969 4991.4219,899.2969 4991.2344,899.3906 C4990.8125,899.6563 4990.125,899.7813 4989.3594,899.7813 C4987.3125,899.7813 4986.0156,898.6875 4986.0156,896.9844 L4986.0156,895.8906 C4986.0156,894.1094 4987.2656,892.7969 4989,892.7969 C4989.5781,892.7969 4990.1875,892.9531 4990.6563,893.2031 C4991.1406,893.4844 4991.3125,893.7031 4991.4063,894.1094 C4991.4688,894.5156 4991.5,894.6406 4991.6406,894.7656 C4991.7813,894.9063 4992.0156,895.0156 4992.2344,895.0156 C4992.5,895.0156 4992.7656,894.875 4992.9375,894.6563 C4993.0469,894.5 4993.0781,894.3125 4993.0781,893.8906 L4993.0781,892.4688 C4993.0781,892.0313 4993.0625,891.9063 4992.9688,891.75 C4992.8125,891.4844 4992.5313,891.3438 4992.2344,891.3438 C4991.9375,891.3438 4991.7344,891.4375 4991.5156,891.75 L4991.3438,891.6719 Z " fill="#000000"/><text fill="#000000" font-family="sans-serif" font-size="14" lengthAdjust="spacing" textLength="128" x="5003" y="900.8467">CameraController</text><line style="stroke:#181818;stroke-width:0.5;" x1="4975" x2="5133" y1="912" y2="912"/><line style="stroke:#181818;stroke-width:0.5;" x1="4975" x2="5133" y1="920" y2="920"/></g><!--reverse link BoxWidget to ResultObjectDetection--><g id="link_BoxWidget_ResultObjectDetection"><path codeLine="10" d="M2214.73,639.943 C2245.1,676.644 2287.73,719.537 2336,743 C2553.85,848.9 3297.02,888.338 3568.05,899.404 " fill="none" id="BoxWidget-backto-ResultObjectDetection" style="stroke:#181818;stroke-width:1.0;"/><polygon fill="none" points="2206.49,629.777,2207.1591,636.957,2214.0441,639.1009,2213.375,631.9209,2206.49,629.777" style="stroke:#181818;stroke-width:1.0;"/></g><!--reverse link BoxWidget to Color--><g id="link_BoxWidget_Color"><path codeLine="11" d="M2212.21,640.036 C2242.34,677.91 2285.59,721.993 2336,743 C2360.18,753.076 4200.72,735.722 4222,751 C4263.35,780.687 4272.17,845.295 4273.83,879.947 " fill="none" id="BoxWidget-backto-Color" style="stroke:#181818;stroke-width:1.0;"/><polygon fill="none" points="2204.07,629.542,2204.5886,636.7344,2211.4272,639.022,2210.9086,631.8296,2204.07,629.542" style="stroke:#181818;stroke-width:1.0;"/></g><!--reverse link StatelessWidget to BoxWidget--><g id="link_StatelessWidget_BoxWidget"><path codeLine="12" d="M1254.53,235.796 C1270.17,263.379 1294.97,297.651 1328,314 C1361.86,330.759 1974.99,303.621 2008,322 C2082.6,363.538 2127.31,456.324 2149.52,516.43 " fill="none" id="StatelessWidget-backto-BoxWidget" style="stroke:#181818;stroke-width:1.0;"/><polygon fill="none" points="1248.32,239.025,1245.17,218.07,1260.7,232.488,1248.32,239.025" style="stroke:#181818;stroke-width:1.0;"/></g><!--reverse link CameraView to dynamic Function(List<ResultObjectDetection>)--><g id="link_CameraView_dynamic Function(List&lt;ResultObjectDetection&gt;)"><path codeLine="20" d="M2921.71,629.91 C2972.62,670.021 3047.38,720.756 3123,743 C3192.23,763.365 4352.47,731.682 4422,751 C4513.64,776.458 4605.8,843.844 4650.39,879.734 " fill="none" id="CameraView-backto-dynamic Function(List&lt;ResultObjectDetection&gt;)" style="stroke:#181818;stroke-width:1.0;"/><polygon fill="none" points="2911.54,621.784,2913.7375,628.6521,2920.9225,629.2652,2918.725,622.3971,2911.54,621.784" style="stroke:#181818;stroke-width:1.0;"/></g><!--reverse link CameraView to Model--><g id="link_CameraView_Model"><path codeLine="21" d="M2781.69,629.121 C2725.59,667.34 2645.59,716.039 2568,743 C2214.4,865.863 1767.83,894.576 1554.51,901.149 " fill="none" id="CameraView-backto-Model" style="stroke:#181818;stroke-width:1.0;"/><polygon fill="none" points="2792.59,621.626,2785.3797,621.7328,2782.7051,628.4295,2789.9154,628.3227,2792.59,621.626" style="stroke:#181818;stroke-width:1.0;"/></g><!--reverse link StatefulWidget to CameraView--><g id="link_StatefulWidget_CameraView"><path codeLine="22" d="M1435.12,236.173 C1449.67,263.678 1472.97,297.696 1505,314 C1531.32,327.394 2540.37,311.588 2568,322 C2676.18,362.76 2770.98,463.858 2820.5,524.27 " fill="none" id="StatefulWidget-backto-CameraView" style="stroke:#181818;stroke-width:1.0;"/><polygon fill="none" points="1428.76,239.099,1426.26,218.057,1441.33,232.949,1428.76,239.099" style="stroke:#181818;stroke-width:1.0;"/></g><!--reverse link _CameraViewState to CameraController--><g id="link__CameraViewState_CameraController"><path codeLine="39" d="M3452.92,579.422 C3806.47,593.213 4632.67,636.975 4886,751 C4951.46,780.463 5008.97,845.167 5036.59,879.892 " fill="none" id="_CameraViewState-backto-CameraController" style="stroke:#181818;stroke-width:1.0;"/><polygon fill="none" points="3439.77,578.914,3445.6117,583.1418,3451.7611,579.3756,3445.9194,575.1477,3439.77,578.914" style="stroke:#181818;stroke-width:1.0;"/></g><!--reverse link _CameraViewState to ModelObjectDetection--><g id="link__CameraViewState_ModelObjectDetection"><path codeLine="40" d="M3452.53,610.8 C3553.61,638.692 3683.07,683.855 3784,751 C3837.44,786.554 3884.28,846.979 3907.5,879.917 " fill="none" id="_CameraViewState-backto-ModelObjectDetection" style="stroke:#181818;stroke-width:1.0;"/><polygon fill="none" points="3439.73,607.315,3444.4747,612.7453,3451.3121,610.4542,3446.5675,605.0239,3439.73,607.315" style="stroke:#181818;stroke-width:1.0;"/></g><!--reverse link State to _CameraViewState--><g id="link_State__CameraViewState"><path codeLine="41" d="M1834.75,237.277 C1846.69,264.474 1866.44,297.68 1896,314 C1925.84,330.475 3092.99,305.833 3123,322 C3174.81,349.914 3213.38,401.735 3240.32,450.988 " fill="none" id="State-backto-_CameraViewState" style="stroke:#181818;stroke-width:1.0;"/><polygon fill="none" points="1828.15,239.617,1827.26,218.446,1841.15,234.441,1828.15,239.617" style="stroke:#181818;stroke-width:1.0;"/></g><!--reverse link WidgetsBindingObserver to _CameraViewState--><g id="link_WidgetsBindingObserver__CameraViewState"><path codeLine="42" d="M2060.85,230.834 C2098.13,259.544 2154.99,297.637 2212,314 C2236.32,320.981 3100.73,309.971 3123,322 C3174.66,349.911 3213.17,401.57 3240.11,450.716 " fill="none" id="WidgetsBindingObserver-backto-_CameraViewState" style="stroke:#181818;stroke-width:1.0;"/><polygon fill="none" points="2056.26,236.125,2044.93,218.218,2064.95,225.152,2056.26,236.125" style="stroke:#181818;stroke-width:1.0;"/></g><!--reverse link CameraViewSingleton to Size--><g id="link_CameraViewSingleton_Size"><path codeLine="52" d="M2493.02,649.056 C2516.82,684.511 2550.35,723.303 2592,743 C2613.78,753.303 4307.6,736.71 4327,751 C4367.55,780.866 4374.71,845.092 4375.45,879.727 " fill="none" id="CameraViewSingleton-backto-Size" style="stroke:#181818;stroke-width:1.0;"/><polygon fill="none" points="2485.64,637.69,2485.5545,644.9006,2492.1775,647.7528,2492.263,640.5422,2485.64,637.69" style="stroke:#181818;stroke-width:1.0;"/></g><!--reverse link RunModelByCamera to Model--><g id="link_RunModelByCamera_Model"><path codeLine="59" d="M1430,626.816 C1430,679.773 1430,761.989 1430,822.961 " fill="none" id="RunModelByCamera-backto-Model" style="stroke:#181818;stroke-width:1.0;"/><polygon fill="none" points="1430,613.685,1426,619.685,1430,625.685,1434,619.685,1430,613.685" style="stroke:#181818;stroke-width:1.0;"/></g><!--reverse link StatefulWidget to RunModelByCamera--><g id="link_StatefulWidget_RunModelByCamera"><path codeLine="60" d="M1418.49,238.323 C1421.04,312.073 1426.17,460.932 1428.63,532.205 " fill="none" id="StatefulWidget-backto-RunModelByCamera" style="stroke:#181818;stroke-width:1.0;"/><polygon fill="none" points="1411.49,238.245,1417.79,218.016,1425.48,237.762,1411.49,238.245" style="stroke:#181818;stroke-width:1.0;"/></g><!--reverse link _RunModelByCameraState to GlobalKey<ScaffoldState>--><g id="link__RunModelByCameraState_GlobalKey&lt;ScaffoldState&gt;"><path codeLine="76" d="M1751.16,447.422 C1713.32,364.47 1666.92,262.783 1646.5,218.016 " fill="none" id="_RunModelByCameraState-backto-GlobalKey&lt;ScaffoldState&gt;" style="stroke:#181818;stroke-width:1.0;"/><polygon fill="none" points="1756.56,459.256,1757.7091,452.137,1751.5798,448.3383,1750.4306,455.4572,1756.56,459.256" style="stroke:#181818;stroke-width:1.0;"/></g><!--reverse link _RunModelByCameraState to Radius--><g id="link__RunModelByCameraState_Radius"><path codeLine="77" d="M1939.14,694.331 C1967.85,714.285 1999.46,732.029 2032,743 C2058.4,751.901 4012.79,739.148 4038,751 C4095.11,777.842 4135.6,844.301 4153.95,879.79 " fill="none" id="_RunModelByCameraState-backto-Radius" style="stroke:#181818;stroke-width:1.0;"/><polygon fill="none" points="1928.28,686.584,1930.8443,693.3237,1938.0519,693.5489,1935.4876,686.8091,1928.28,686.584" style="stroke:#181818;stroke-width:1.0;"/></g><!--reverse link _RunModelByCameraState to BorderRadius--><g id="link__RunModelByCameraState_BorderRadius"><path codeLine="78" d="M1886.93,448.934 C1924.67,400.791 1974.27,350.393 2032,322 C2075.19,300.759 2095.11,331.364 2140,314 C2193.76,293.204 2243.9,246.634 2271.01,218.312 " fill="none" id="_RunModelByCameraState-backto-BorderRadius" style="stroke:#181818;stroke-width:1.0;"/><polygon fill="none" points="1878.81,459.486,1885.6376,457.1656,1886.1217,449.9708,1879.2941,452.2912,1878.81,459.486" style="stroke:#181818;stroke-width:1.0;"/></g><!--reverse link State to _RunModelByCameraState--><g id="link_State__RunModelByCameraState"><path codeLine="79" d="M1818.63,238.014 C1816.93,291.499 1813.96,384.828 1811.59,459.256 " fill="none" id="State-backto-_RunModelByCameraState" style="stroke:#181818;stroke-width:1.0;"/><polygon fill="none" points="1811.63,237.783,1819.27,218.016,1825.63,238.228,1811.63,237.783" style="stroke:#181818;stroke-width:1.0;"/></g><!--reverse link StatelessWidget to ResultsRow--><g id="link_StatelessWidget_ResultsRow"><path codeLine="86" d="M1218.11,236.902 C1188.58,310.144 1127.97,460.471 1099.04,532.205 " fill="none" id="StatelessWidget-backto-ResultsRow" style="stroke:#181818;stroke-width:1.0;"/><polygon fill="none" points="1211.75,233.947,1225.72,218.016,1224.73,239.182,1211.75,233.947" style="stroke:#181818;stroke-width:1.0;"/></g><!--reverse link StatelessWidget to ModelManagementApp--><g id="link_StatelessWidget_ModelManagementApp"><path codeLine="92" d="M1139.24,196.077 C922.236,200.294 401.144,220.96 263,322 C189.897,375.469 160.963,486.252 150.825,540.578 " fill="none" id="StatelessWidget-backto-ModelManagementApp" style="stroke:#181818;stroke-width:1.0;"/><polygon fill="none" points="1139.15,189.077,1159.27,195.718,1139.4,203.075,1139.15,189.077" style="stroke:#181818;stroke-width:1.0;"/></g><!--reverse link StatefulWidget to ModelListScreen--><g id="link_StatefulWidget_ModelListScreen"><path codeLine="98" d="M1398.54,236.154 C1383.77,263.649 1360.18,297.664 1328,314 C1291.49,332.535 626.924,302.35 591,322 C504.245,369.454 455.792,484.72 436.677,540.596 " fill="none" id="StatefulWidget-backto-ModelListScreen" style="stroke:#181818;stroke-width:1.0;"/><polygon fill="none" points="1392.37,232.833,1407.55,218.045,1404.91,239.069,1392.37,232.833" style="stroke:#181818;stroke-width:1.0;"/></g><!--reverse link _ModelListScreenState to ModelManager--><g id="link__ModelListScreenState_ModelManager"><path codeLine="111" d="M830.441,670.843 C856.817,694.997 885.546,720.432 913,743 C949.538,773.036 991.08,804.212 1028.03,830.979 " fill="none" id="_ModelListScreenState-backto-ModelManager" style="stroke:#181818;stroke-width:1.0;"/><polygon fill="none" points="820.837,662.01,822.5456,669.0158,829.6696,670.1331,827.961,663.1274,820.837,662.01" style="stroke:#181818;stroke-width:1.0;"/></g><!--reverse link State to _ModelListScreenState--><g id="link_State__ModelListScreenState"><path codeLine="112" d="M1812.53,237.999 C1805.43,264.768 1791.8,297.201 1766,314 C1746.14,326.928 934.096,311.209 913,322 C846.551,355.992 798.145,426.378 767.709,483.83 " fill="none" id="State-backto-_ModelListScreenState" style="stroke:#181818;stroke-width:1.0;"/><polygon fill="none" points="1805.77,236.159,1816.94,218.152,1819.43,239.194,1805.77,236.159" style="stroke:#181818;stroke-width:1.0;"/></g><!--SRC=[pLXBSzis4BxhLs1qYYTL3proFF9OajsajMkFvBP73WIkP3GGm050AMhY_zx5WnH5FMmvjASNYTm55lluzW4Qi4JI1PYSCfX0JZMrIfCawNIOeCQGhfh-0yoc6LZyuqecoKmKreA-yupHXZvLNzCLp-PWVywejaaoK5__zkzTygr3oCSnc4BOnZwYFTNnXqeeVK5G3XZ_x8XJfGGnZsfr3vg1j7GEZXm4asd1HVRXhFFKwRIagUhrI3TkJFCrUeCz9adEvw1aNBtNZcwh2WHgmPF4EmA5Hr59OZHBah3Pu0aQexTI-aiKDB7KWW1ZId7dtvsyLbHx1IOOQgTfkkImYkA6dl8N4Y8giZK2a3DoNKY_wSCDD_Pyhuyl-cSHBcP8XPXIziL9k5KP2B9ml-urtHpXlK6O1lpppoT3vRW1FbQo4299JZ2ZVzPjMOLTOTuRwO9Ap1STjta_dGYbMI5UYwIZUhU2fMQa8wAyvmDh18Pfddklao30-5BZ7uTAMgs40Amwh46fQa-k8UEeWfmZgUTzs8GbIOCLjoK4bufdX4jkIz0XxRgmXORpY9C-4OfcVaDWRs-vD6l96WnE1VyNWkQ1rIY2jMHIyWQb6FjvWV6_N58kw5H0JM36i-4ZbSZCyni-0xPc0chQnaKcLwQDfDcDbCTjM1Y167UnAWHRgDb4flicgkoK_0QXdaExfV-Kb6eZatQCEAZ2bCiCiHlt1SIOGI3UJGte9NhqJJJweGnF3Uedm5PDjoQ-v8Hq_sRmECwU4FogG90J766usc9CC6y85W80wHvtULpcHSYL_NpAR475lOQbF_z5IpwzFcbUPdnZK71dliRfuq9wK0_MuPHoo6cGOsrjzjhciX_lk2_Mv__R-LvgGdlHsX-7UZyyC51Tb0ELMpYn6k65lT1fnMUSkKoIZlEhK5CgVeVr-OJHsKo9p1_GnwmAhyZQoeanpNXXoE3kuU7kDfrykhfwICUNeyz_JhQM3PJEG5UBnwEhSLoMrhSUwAazJqkBF4FA3Ps2kEPbbzljZIL55Rxu3TmruvTQjsjCbeSvmottj0NmGo6iTwVdW7ieJDstrczJXa8ik-_ha9nowIOqTtrnW4grrwAwmMn0zkQz-ZHZMgpN0QDZjJerw_TSfT_hilcyBKSSjC2Wr-lxhI_v2v0MPzheX7UmxRWQ9-Zl0ZRnGqfKFcsG3_NMbhlQ4RrUPirUlUkezFn-c29CDLK4n-b0ZY_72tzrXJ9rgg5BsANYEogxkN15CisoFs3boIEyOAdvtkwnly0_R_Af8qgqkhKYzQo6nm9wS8uAaGp3WlzwM0KsqFfXW01JqR4wzyEG7OVdZqWXajNaP9kRUeqwmtv-J-sZ1mdDum4_aUeMRTLlfkp1fvjI-jjRr8itzD88X1V3YJwSNZBTW86iHUbCTxgZrMxu3bWu66sZi6JMy5_x163gb-uDK3VJp9Re7FMpbq9KQzpsf_y0]--></g></svg>