<?xml version="1.0" encoding="us-ascii" standalone="no"?><svg xmlns="http://www.w3.org/2000/svg" xmlns:xlink="http://www.w3.org/1999/xlink" contentStyleType="text/css" height="965px" preserveAspectRatio="none" style="width:5168px;height:965px;background:#FFFFFF;" version="1.1" viewBox="0 0 5168 965" width="5168px" zoomAndPan="magnify"><defs/><g><!--cluster object_detection--><g id="cluster_object_detection"><path d="M8.5,330 L145.5,330 A3.75,3.75 0 0 1 148,332.5 L155,352.2969 L3453.5,352.2969 A2.5,2.5 0 0 1 3456,354.7969 L3456,955.5 A2.5,2.5 0 0 1 3453.5,958 L8.5,958 A2.5,2.5 0 0 1 6,955.5 L6,332.5 A2.5,2.5 0 0 1 8.5,330 " fill="none" style="stroke:#000000;stroke-width:1.5;"/><line style="stroke:#000000;stroke-width:1.5;" x1="6" x2="155" y1="352.2969" y2="352.2969"/><text fill="#000000" font-family="sans-serif" font-size="14" font-weight="bold" lengthAdjust="spacing" textLength="136" x="10" y="344.9951">object_detection</text></g><!--cluster box_widget.dart--><g id="cluster_box_widget.dart"><path d="M2010.5,438.5 L2142.5,438.5 A3.75,3.75 0 0 1 2145,441 L2152,460.7969 L2275.5,460.7969 A2.5,2.5 0 0 1 2278,463.2969 L2278,600 A2.5,2.5 0 0 1 2275.5,602.5 L2010.5,602.5 A2.5,2.5 0 0 1 2008,600 L2008,441 A2.5,2.5 0 0 1 2010.5,438.5 " fill="none" style="stroke:#000000;stroke-width:1.5;"/><line style="stroke:#000000;stroke-width:1.5;" x1="2008" x2="2152" y1="460.7969" y2="460.7969"/><text fill="#000000" font-family="sans-serif" font-size="14" font-weight="bold" lengthAdjust="spacing" textLength="131" x="2012" y="453.4951">box_widget.dart</text></g><!--cluster camera_view.dart--><g id="cluster_camera_view.dart"><path d="M2570.5,373 L2714.5,373 A3.75,3.75 0 0 1 2717,375.5 L2724,395.2969 L3429.5,395.2969 A2.5,2.5 0 0 1 3432,397.7969 L3432,665.5 A2.5,2.5 0 0 1 3429.5,668 L2570.5,668 A2.5,2.5 0 0 1 2568,665.5 L2568,375.5 A2.5,2.5 0 0 1 2570.5,373 " fill="none" style="stroke:#000000;stroke-width:1.5;"/><line style="stroke:#000000;stroke-width:1.5;" x1="2568" x2="2724" y1="395.2969" y2="395.2969"/><text fill="#000000" font-family="sans-serif" font-size="14" font-weight="bold" lengthAdjust="spacing" textLength="143" x="2572" y="387.9951">camera_view.dart</text></g><!--cluster model_manager.dart--><g id="cluster_model_manager.dart"><path d="M953.5,721 L1121.5,721 A3.75,3.75 0 0 1 1124,723.5 L1131,743.2969 L1544.5,743.2969 A2.5,2.5 0 0 1 1547,745.7969 L1547,931.5 A2.5,2.5 0 0 1 1544.5,934 L953.5,934 A2.5,2.5 0 0 1 951,931.5 L951,723.5 A2.5,2.5 0 0 1 953.5,721 " fill="none" style="stroke:#000000;stroke-width:1.5;"/><line style="stroke:#000000;stroke-width:1.5;" x1="951" x2="1131" y1="743.2969" y2="743.2969"/><text fill="#000000" font-family="sans-serif" font-size="14" font-weight="bold" lengthAdjust="spacing" textLength="167" x="955" y="735.9951">model_manager.dart</text></g><!--cluster camera_view_singleton.dart--><g id="cluster_camera_view_singleton.dart"><path d="M2304.5,430.5 L2531.5,430.5 A3.75,3.75 0 0 1 2534,433 L2541,452.7969 L2541.5,452.7969 A2.5,2.5 0 0 1 2544,455.2969 L2544,608 A2.5,2.5 0 0 1 2541.5,610.5 L2304.5,610.5 A2.5,2.5 0 0 1 2302,608 L2302,433 A2.5,2.5 0 0 1 2304.5,430.5 " fill="none" style="stroke:#000000;stroke-width:1.5;"/><line style="stroke:#000000;stroke-width:1.5;" x1="2302" x2="2541" y1="452.7969" y2="452.7969"/><text fill="#000000" font-family="sans-serif" font-size="14" font-weight="bold" lengthAdjust="spacing" textLength="226" x="2306" y="445.4951">camera_view_singleton.dart</text></g><!--cluster main.dart--><g id="cluster_main.dart"><path d="M32.5,406 L113.5,406 A3.75,3.75 0 0 1 116,408.5 L123,428.2969 L862.5,428.2969 A2.5,2.5 0 0 1 865,430.7969 L865,632.5 A2.5,2.5 0 0 1 862.5,635 L32.5,635 A2.5,2.5 0 0 1 30,632.5 L30,408.5 A2.5,2.5 0 0 1 32.5,406 " fill="none" style="stroke:#000000;stroke-width:1.5;"/><line style="stroke:#000000;stroke-width:1.5;" x1="30" x2="123" y1="428.2969" y2="428.2969"/><text fill="#000000" font-family="sans-serif" font-size="14" font-weight="bold" lengthAdjust="spacing" textLength="80" x="34" y="420.9951">main.dart</text></g><!--cluster RunModelByCamera.dart--><g id="cluster_RunModelByCamera.dart"><path d="M891.5,381.5 L1092.5,381.5 A3.75,3.75 0 0 1 1095,384 L1102,403.7969 L1981.5,403.7969 A2.5,2.5 0 0 1 1984,406.2969 L1984,657 A2.5,2.5 0 0 1 1981.5,659.5 L891.5,659.5 A2.5,2.5 0 0 1 889,657 L889,384 A2.5,2.5 0 0 1 891.5,381.5 " fill="none" style="stroke:#000000;stroke-width:1.5;"/><line style="stroke:#000000;stroke-width:1.5;" x1="889" x2="1102" y1="403.7969" y2="403.7969"/><text fill="#000000" font-family="sans-serif" font-size="14" font-weight="bold" lengthAdjust="spacing" textLength="200" x="893" y="396.4951">RunModelByCamera.dart</text></g><!--cluster flutter_pytorch--><g id="cluster_flutter_pytorch"><path d="M3482.5,735 L3607.5,735 A3.75,3.75 0 0 1 3610,737.5 L3617,757.2969 L4011.5,757.2969 A2.5,2.5 0 0 1 4014,759.7969 L4014,898.5 A2.5,2.5 0 0 1 4011.5,901 L3482.5,901 A2.5,2.5 0 0 1 3480,898.5 L3480,737.5 A2.5,2.5 0 0 1 3482.5,735 " fill="none" style="stroke:#000000;stroke-width:1.5;"/><line style="stroke:#000000;stroke-width:1.5;" x1="3480" x2="3617" y1="757.2969" y2="757.2969"/><text fill="#000000" font-family="sans-serif" font-size="14" font-weight="bold" lengthAdjust="spacing" textLength="124" x="3484" y="749.9951">flutter_pytorch</text></g><!--cluster pigeon.dart--><g id="cluster_pigeon.dart"><path d="M3506.5,778 L3601.5,778 A3.75,3.75 0 0 1 3604,780.5 L3611,800.2969 L3733.5,800.2969 A2.5,2.5 0 0 1 3736,802.7969 L3736,874.5 A2.5,2.5 0 0 1 3733.5,877 L3506.5,877 A2.5,2.5 0 0 1 3504,874.5 L3504,780.5 A2.5,2.5 0 0 1 3506.5,778 " fill="none" style="stroke:#000000;stroke-width:1.5;"/><line style="stroke:#000000;stroke-width:1.5;" x1="3504" x2="3611" y1="800.2969" y2="800.2969"/><text fill="#000000" font-family="sans-serif" font-size="14" font-weight="bold" lengthAdjust="spacing" textLength="94" x="3508" y="792.9951">pigeon.dart</text></g><!--cluster flutter_pytorch.dart--><g id="cluster_flutter_pytorch.dart"><path d="M3762.5,778 L3927.5,778 A3.75,3.75 0 0 1 3930,780.5 L3937,800.2969 L3987.5,800.2969 A2.5,2.5 0 0 1 3990,802.7969 L3990,874.5 A2.5,2.5 0 0 1 3987.5,877 L3762.5,877 A2.5,2.5 0 0 1 3760,874.5 L3760,780.5 A2.5,2.5 0 0 1 3762.5,778 " fill="none" style="stroke:#000000;stroke-width:1.5;"/><line style="stroke:#000000;stroke-width:1.5;" x1="3760" x2="3937" y1="800.2969" y2="800.2969"/><text fill="#000000" font-family="sans-serif" font-size="14" font-weight="bold" lengthAdjust="spacing" textLength="164" x="3764" y="792.9951">flutter_pytorch.dart</text></g><!--cluster dart--><g id="cluster_dart"><path d="M4040.5,735 L4076.5,735 A3.75,3.75 0 0 1 4079,737.5 L4086,757.2969 L4395.5,757.2969 A2.5,2.5 0 0 1 4398,759.7969 L4398,898.5 A2.5,2.5 0 0 1 4395.5,901 L4040.5,901 A2.5,2.5 0 0 1 4038,898.5 L4038,737.5 A2.5,2.5 0 0 1 4040.5,735 " fill="none" style="stroke:#000000;stroke-width:1.5;"/><line style="stroke:#000000;stroke-width:1.5;" x1="4038" x2="4086" y1="757.2969" y2="757.2969"/><text fill="#000000" font-family="sans-serif" font-size="14" font-weight="bold" lengthAdjust="spacing" textLength="35" x="4042" y="749.9951">dart</text></g><!--cluster ui--><g id="cluster_ui"><path d="M4064.5,778 L4080.5,778 A3.75,3.75 0 0 1 4083,780.5 L4090,800.2969 L4371.5,800.2969 A2.5,2.5 0 0 1 4374,802.7969 L4374,874.5 A2.5,2.5 0 0 1 4371.5,877 L4064.5,877 A2.5,2.5 0 0 1 4062,874.5 L4062,780.5 A2.5,2.5 0 0 1 4064.5,778 " fill="none" style="stroke:#000000;stroke-width:1.5;"/><line style="stroke:#000000;stroke-width:1.5;" x1="4062" x2="4090" y1="800.2969" y2="800.2969"/><text fill="#000000" font-family="sans-serif" font-size="14" font-weight="bold" lengthAdjust="spacing" textLength="15" x="4066" y="792.9951">ui</text></g><!--cluster flutter--><g id="cluster_flutter"><path d="M1049.5,6 L1104.5,6 A3.75,3.75 0 0 1 1107,8.5 L1114,28.2969 L2424.5,28.2969 A2.5,2.5 0 0 1 2427,30.7969 L2427,303.5 A2.5,2.5 0 0 1 2424.5,306 L1049.5,306 A2.5,2.5 0 0 1 1047,303.5 L1047,8.5 A2.5,2.5 0 0 1 1049.5,6 " fill="none" style="stroke:#000000;stroke-width:1.5;"/><line style="stroke:#000000;stroke-width:1.5;" x1="1047" x2="1114" y1="28.2969" y2="28.2969"/><text fill="#000000" font-family="sans-serif" font-size="14" font-weight="bold" lengthAdjust="spacing" textLength="54" x="1051" y="20.9951">flutter</text></g><!--cluster src--><g id="cluster_src"><path d="M1073.5,49 L1099.5,49 A3.75,3.75 0 0 1 1102,51.5 L1109,71.2969 L2400.5,71.2969 A2.5,2.5 0 0 1 2403,73.7969 L2403,279.5 A2.5,2.5 0 0 1 2400.5,282 L1073.5,282 A2.5,2.5 0 0 1 1071,279.5 L1071,51.5 A2.5,2.5 0 0 1 1073.5,49 " fill="none" style="stroke:#000000;stroke-width:1.5;"/><line style="stroke:#000000;stroke-width:1.5;" x1="1071" x2="1109" y1="71.2969" y2="71.2969"/><text fill="#000000" font-family="sans-serif" font-size="14" font-weight="bold" lengthAdjust="spacing" textLength="25" x="1075" y="63.9951">src</text></g><!--cluster widgets--><g id="cluster_widgets"><path d="M1097.5,92 L1162.5,92 A3.75,3.75 0 0 1 1165,94.5 L1172,114.2969 L2137.5,114.2969 A2.5,2.5 0 0 1 2140,116.7969 L2140,255.5 A2.5,2.5 0 0 1 2137.5,258 L1097.5,258 A2.5,2.5 0 0 1 1095,255.5 L1095,94.5 A2.5,2.5 0 0 1 1097.5,92 " fill="none" style="stroke:#000000;stroke-width:1.5;"/><line style="stroke:#000000;stroke-width:1.5;" x1="1095" x2="1172" y1="114.2969" y2="114.2969"/><text fill="#000000" font-family="sans-serif" font-size="14" font-weight="bold" lengthAdjust="spacing" textLength="64" x="1099" y="106.9951">widgets</text></g><!--cluster framework.dart--><g id="cluster_framework.dart"><path d="M1121.5,135 L1249.5,135 A3.75,3.75 0 0 1 1252,137.5 L1259,157.2969 L1845.5,157.2969 A2.5,2.5 0 0 1 1848,159.7969 L1848,231.5 A2.5,2.5 0 0 1 1845.5,234 L1121.5,234 A2.5,2.5 0 0 1 1119,231.5 L1119,137.5 A2.5,2.5 0 0 1 1121.5,135 " fill="none" style="stroke:#000000;stroke-width:1.5;"/><line style="stroke:#000000;stroke-width:1.5;" x1="1119" x2="1259" y1="157.2969" y2="157.2969"/><text fill="#000000" font-family="sans-serif" font-size="14" font-weight="bold" lengthAdjust="spacing" textLength="127" x="1123" y="149.9951">framework.dart</text></g><!--cluster binding.dart--><g id="cluster_binding.dart"><path d="M1874.5,135 L1975.5,135 A3.75,3.75 0 0 1 1978,137.5 L1985,157.2969 L2113.5,157.2969 A2.5,2.5 0 0 1 2116,159.7969 L2116,231.5 A2.5,2.5 0 0 1 2113.5,234 L1874.5,234 A2.5,2.5 0 0 1 1872,231.5 L1872,137.5 A2.5,2.5 0 0 1 1874.5,135 " fill="none" style="stroke:#000000;stroke-width:1.5;"/><line style="stroke:#000000;stroke-width:1.5;" x1="1872" x2="1985" y1="157.2969" y2="157.2969"/><text fill="#000000" font-family="sans-serif" font-size="14" font-weight="bold" lengthAdjust="spacing" textLength="100" x="1876" y="149.9951">binding.dart</text></g><!--cluster painting--><g id="cluster_painting"><path d="M2166.5,92 L2235.5,92 A3.75,3.75 0 0 1 2238,94.5 L2245,114.2969 L2376.5,114.2969 A2.5,2.5 0 0 1 2379,116.7969 L2379,255.5 A2.5,2.5 0 0 1 2376.5,258 L2166.5,258 A2.5,2.5 0 0 1 2164,255.5 L2164,94.5 A2.5,2.5 0 0 1 2166.5,92 " fill="none" style="stroke:#000000;stroke-width:1.5;"/><line style="stroke:#000000;stroke-width:1.5;" x1="2164" x2="2245" y1="114.2969" y2="114.2969"/><text fill="#000000" font-family="sans-serif" font-size="14" font-weight="bold" lengthAdjust="spacing" textLength="68" x="2168" y="106.9951">painting</text></g><!--cluster border_radius.dart--><g id="cluster_border_radius.dart"><path d="M2190.5,135 L2342.5,135 A3.75,3.75 0 0 1 2345,137.5 L2352,157.2969 L2352.5,157.2969 A2.5,2.5 0 0 1 2355,159.7969 L2355,231.5 A2.5,2.5 0 0 1 2352.5,234 L2190.5,234 A2.5,2.5 0 0 1 2188,231.5 L2188,137.5 A2.5,2.5 0 0 1 2190.5,135 " fill="none" style="stroke:#000000;stroke-width:1.5;"/><line style="stroke:#000000;stroke-width:1.5;" x1="2188" x2="2352" y1="157.2969" y2="157.2969"/><text fill="#000000" font-family="sans-serif" font-size="14" font-weight="bold" lengthAdjust="spacing" textLength="151" x="2192" y="149.9951">border_radius.dart</text></g><!--cluster null--><g id="cluster_null"><path d="M4424.5,778 L4455.5,778 A3.75,3.75 0 0 1 4458,780.5 L4465,800.2969 L4835.5,800.2969 A2.5,2.5 0 0 1 4838,802.7969 L4838,874.5 A2.5,2.5 0 0 1 4835.5,877 L4424.5,877 A2.5,2.5 0 0 1 4422,874.5 L4422,780.5 A2.5,2.5 0 0 1 4424.5,778 " fill="none" style="stroke:#000000;stroke-width:1.5;"/><line style="stroke:#000000;stroke-width:1.5;" x1="4422" x2="4465" y1="800.2969" y2="800.2969"/><text fill="#000000" font-family="sans-serif" font-size="14" font-weight="bold" lengthAdjust="spacing" textLength="30" x="4426" y="792.9951">null</text></g><!--cluster camera--><g id="cluster_camera"><path d="M4864.5,692 L4925.5,692 A3.75,3.75 0 0 1 4928,694.5 L4935,714.2969 L5158.5,714.2969 A2.5,2.5 0 0 1 5161,716.7969 L5161,922.5 A2.5,2.5 0 0 1 5158.5,925 L4864.5,925 A2.5,2.5 0 0 1 4862,922.5 L4862,694.5 A2.5,2.5 0 0 1 4864.5,692 " fill="none" style="stroke:#000000;stroke-width:1.5;"/><line style="stroke:#000000;stroke-width:1.5;" x1="4862" x2="4935" y1="714.2969" y2="714.2969"/><text fill="#000000" font-family="sans-serif" font-size="14" font-weight="bold" lengthAdjust="spacing" textLength="60" x="4866" y="706.9951">camera</text></g><!--cluster src--><g id="cluster_src"><path d="M4888.5,735 L4914.5,735 A3.75,3.75 0 0 1 4917,737.5 L4924,757.2969 L5134.5,757.2969 A2.5,2.5 0 0 1 5137,759.7969 L5137,898.5 A2.5,2.5 0 0 1 5134.5,901 L4888.5,901 A2.5,2.5 0 0 1 4886,898.5 L4886,737.5 A2.5,2.5 0 0 1 4888.5,735 " fill="none" style="stroke:#000000;stroke-width:1.5;"/><line style="stroke:#000000;stroke-width:1.5;" x1="4886" x2="4924" y1="757.2969" y2="757.2969"/><text fill="#000000" font-family="sans-serif" font-size="14" font-weight="bold" lengthAdjust="spacing" textLength="25" x="4890" y="749.9951">src</text></g><!--cluster camera_controller.dart--><g id="cluster_camera_controller.dart"><path d="M4912.5,778 L5100.5,778 A3.75,3.75 0 0 1 5103,780.5 L5110,800.2969 L5110.5,800.2969 A2.5,2.5 0 0 1 5113,802.7969 L5113,874.5 A2.5,2.5 0 0 1 5110.5,877 L4912.5,877 A2.5,2.5 0 0 1 4910,874.5 L4910,780.5 A2.5,2.5 0 0 1 4912.5,778 " fill="none" style="stroke:#000000;stroke-width:1.5;"/><line style="stroke:#000000;stroke-width:1.5;" x1="4910" x2="5110" y1="800.2969" y2="800.2969"/><text fill="#000000" font-family="sans-serif" font-size="14" font-weight="bold" lengthAdjust="spacing" textLength="187" x="4914" y="792.9951">camera_controller.dart</text></g><!--class BoxWidget--><g id="elem_BoxWidget"><rect codeLine="3" fill="#F1F1F1" height="113.1875" id="BoxWidget" rx="2.5" ry="2.5" style="stroke:#181818;stroke-width:0.5;" width="238" x="2024" y="473.5"/><ellipse cx="2099.25" cy="489.5" fill="#ADD1B2" rx="11" ry="11" style="stroke:#181818;stroke-width:1.0;"/><path d="M2101.5938,485.1719 C2100.6563,484.7344 2100.0625,484.5938 2099.1875,484.5938 C2096.5625,484.5938 2094.5625,486.6719 2094.5625,489.3906 L2094.5625,490.5156 C2094.5625,493.0938 2096.6719,494.9844 2099.5625,494.9844 C2100.7813,494.9844 2101.9375,494.6875 2102.6875,494.1406 C2103.2656,493.7344 2103.5938,493.2813 2103.5938,492.8906 C2103.5938,492.4375 2103.2031,492.0469 2102.7344,492.0469 C2102.5156,492.0469 2102.3125,492.125 2102.125,492.3125 C2101.6719,492.7969 2101.6719,492.7969 2101.4844,492.8906 C2101.0625,493.1563 2100.375,493.2813 2099.6094,493.2813 C2097.5625,493.2813 2096.2656,492.1875 2096.2656,490.4844 L2096.2656,489.3906 C2096.2656,487.6094 2097.5156,486.2969 2099.25,486.2969 C2099.8281,486.2969 2100.4375,486.4531 2100.9063,486.7031 C2101.3906,486.9844 2101.5625,487.2031 2101.6563,487.6094 C2101.7188,488.0156 2101.75,488.1406 2101.8906,488.2656 C2102.0313,488.4063 2102.2656,488.5156 2102.4844,488.5156 C2102.75,488.5156 2103.0156,488.375 2103.1875,488.1563 C2103.2969,488 2103.3281,487.8125 2103.3281,487.3906 L2103.3281,485.9688 C2103.3281,485.5313 2103.3125,485.4063 2103.2188,485.25 C2103.0625,484.9844 2102.7813,484.8438 2102.4844,484.8438 C2102.1875,484.8438 2101.9844,484.9375 2101.7656,485.25 L2101.5938,485.1719 Z " fill="#000000"/><text fill="#000000" font-family="sans-serif" font-size="14" lengthAdjust="spacing" textLength="79" x="2119.75" y="494.3467">BoxWidget</text><line style="stroke:#181818;stroke-width:0.5;" x1="2025" x2="2261" y1="505.5" y2="505.5"/><ellipse cx="2035" cy="519.1484" fill="none" rx="3" ry="3" style="stroke:#038048;stroke-width:1.0;"/><text fill="#000000" font-family="sans-serif" font-size="14" lengthAdjust="spacing" textLength="212" x="2044" y="522.4951">ResultObjectDetection result</text><ellipse cx="2035" cy="535.4453" fill="none" rx="3" ry="3" style="stroke:#038048;stroke-width:1.0;"/><text fill="#000000" font-family="sans-serif" font-size="14" lengthAdjust="spacing" textLength="130" x="2044" y="538.792">Color? boxesColor</text><ellipse cx="2035" cy="551.7422" fill="none" rx="3" ry="3" style="stroke:#038048;stroke-width:1.0;"/><text fill="#000000" font-family="sans-serif" font-size="14" lengthAdjust="spacing" textLength="155" x="2044" y="555.0889">bool showPercentage</text><line style="stroke:#181818;stroke-width:0.5;" x1="2025" x2="2261" y1="562.3906" y2="562.3906"/><ellipse cx="2035" cy="576.0391" fill="#84BE84" rx="3" ry="3" style="stroke:#038048;stroke-width:1.0;"/><text fill="#000000" font-family="sans-serif" font-size="14" lengthAdjust="spacing" textLength="101" x="2044" y="579.3857">Widget build()</text></g><!--class CameraView--><g id="elem_CameraView"><rect codeLine="14" fill="#F1F1F1" height="96.8906" id="CameraView" rx="2.5" ry="2.5" style="stroke:#181818;stroke-width:0.5;" width="497" x="2584.5" y="481.5"/><ellipse cx="2784.25" cy="497.5" fill="#ADD1B2" rx="11" ry="11" style="stroke:#181818;stroke-width:1.0;"/><path d="M2786.5938,493.1719 C2785.6563,492.7344 2785.0625,492.5938 2784.1875,492.5938 C2781.5625,492.5938 2779.5625,494.6719 2779.5625,497.3906 L2779.5625,498.5156 C2779.5625,501.0938 2781.6719,502.9844 2784.5625,502.9844 C2785.7813,502.9844 2786.9375,502.6875 2787.6875,502.1406 C2788.2656,501.7344 2788.5938,501.2813 2788.5938,500.8906 C2788.5938,500.4375 2788.2031,500.0469 2787.7344,500.0469 C2787.5156,500.0469 2787.3125,500.125 2787.125,500.3125 C2786.6719,500.7969 2786.6719,500.7969 2786.4844,500.8906 C2786.0625,501.1563 2785.375,501.2813 2784.6094,501.2813 C2782.5625,501.2813 2781.2656,500.1875 2781.2656,498.4844 L2781.2656,497.3906 C2781.2656,495.6094 2782.5156,494.2969 2784.25,494.2969 C2784.8281,494.2969 2785.4375,494.4531 2785.9063,494.7031 C2786.3906,494.9844 2786.5625,495.2031 2786.6563,495.6094 C2786.7188,496.0156 2786.75,496.1406 2786.8906,496.2656 C2787.0313,496.4063 2787.2656,496.5156 2787.4844,496.5156 C2787.75,496.5156 2788.0156,496.375 2788.1875,496.1563 C2788.2969,496 2788.3281,495.8125 2788.3281,495.3906 L2788.3281,493.9688 C2788.3281,493.5313 2788.3125,493.4063 2788.2188,493.25 C2788.0625,492.9844 2787.7813,492.8438 2787.4844,492.8438 C2787.1875,492.8438 2786.9844,492.9375 2786.7656,493.25 L2786.5938,493.1719 Z " fill="#000000"/><text fill="#000000" font-family="sans-serif" font-size="14" lengthAdjust="spacing" textLength="89" x="2804.75" y="502.3467">CameraView</text><line style="stroke:#181818;stroke-width:0.5;" x1="2585.5" x2="3080.5" y1="513.5" y2="513.5"/><ellipse cx="2595.5" cy="527.1484" fill="none" rx="3" ry="3" style="stroke:#038048;stroke-width:1.0;"/><text fill="#000000" font-family="sans-serif" font-size="14" lengthAdjust="spacing" textLength="92" x="2604.5" y="530.4951">Model model</text><line style="stroke:#181818;stroke-width:0.5;" x1="2585.5" x2="3080.5" y1="537.7969" y2="537.7969"/><ellipse cx="2595.5" cy="551.4453" fill="#84BE84" rx="3" ry="3" style="stroke:#038048;stroke-width:1.0;"/><text fill="#000000" font-family="sans-serif" font-size="14" lengthAdjust="spacing" textLength="471" x="2604.5" y="554.792">dynamic Function(List&lt;ResultObjectDetection?&gt;) resultsCallback</text><ellipse cx="2595.5" cy="567.7422" fill="#84BE84" rx="3" ry="3" style="stroke:#038048;stroke-width:1.0;"/><text fill="#000000" font-family="sans-serif" font-size="14" lengthAdjust="spacing" textLength="237" x="2604.5" y="571.0889">_CameraViewState createState()</text></g><!--class _CameraViewState--><g id="elem__CameraViewState"><rect codeLine="24" fill="#F1F1F1" height="243.5625" id="_CameraViewState" rx="2.5" ry="2.5" style="stroke:#181818;stroke-width:0.5;" width="299" x="3116.5" y="408"/><ellipse cx="3193.75" cy="424" fill="#ADD1B2" rx="11" ry="11" style="stroke:#181818;stroke-width:1.0;"/><path d="M3196.0938,419.6719 C3195.1563,419.2344 3194.5625,419.0938 3193.6875,419.0938 C3191.0625,419.0938 3189.0625,421.1719 3189.0625,423.8906 L3189.0625,425.0156 C3189.0625,427.5938 3191.1719,429.4844 3194.0625,429.4844 C3195.2813,429.4844 3196.4375,429.1875 3197.1875,428.6406 C3197.7656,428.2344 3198.0938,427.7813 3198.0938,427.3906 C3198.0938,426.9375 3197.7031,426.5469 3197.2344,426.5469 C3197.0156,426.5469 3196.8125,426.625 3196.625,426.8125 C3196.1719,427.2969 3196.1719,427.2969 3195.9844,427.3906 C3195.5625,427.6563 3194.875,427.7813 3194.1094,427.7813 C3192.0625,427.7813 3190.7656,426.6875 3190.7656,424.9844 L3190.7656,423.8906 C3190.7656,422.1094 3192.0156,420.7969 3193.75,420.7969 C3194.3281,420.7969 3194.9375,420.9531 3195.4063,421.2031 C3195.8906,421.4844 3196.0625,421.7031 3196.1563,422.1094 C3196.2188,422.5156 3196.25,422.6406 3196.3906,422.7656 C3196.5313,422.9063 3196.7656,423.0156 3196.9844,423.0156 C3197.25,423.0156 3197.5156,422.875 3197.6875,422.6563 C3197.7969,422.5 3197.8281,422.3125 3197.8281,421.8906 L3197.8281,420.4688 C3197.8281,420.0313 3197.8125,419.9063 3197.7188,419.75 C3197.5625,419.4844 3197.2813,419.3438 3196.9844,419.3438 C3196.6875,419.3438 3196.4844,419.4375 3196.2656,419.75 L3196.0938,419.6719 Z " fill="#000000"/><text fill="#000000" font-family="sans-serif" font-size="14" lengthAdjust="spacing" textLength="136" x="3214.25" y="428.8467">_CameraViewState</text><line style="stroke:#181818;stroke-width:0.5;" x1="3117.5" x2="3414.5" y1="440" y2="440"/><ellipse cx="3127.5" cy="453.6484" fill="none" rx="3" ry="3" style="stroke:#038048;stroke-width:1.0;"/><text fill="#000000" font-family="sans-serif" font-size="14" lengthAdjust="spacing" textLength="251" x="3136.5" y="456.9951">List&lt;CameraDescription&gt; cameras</text><ellipse cx="3127.5" cy="469.9453" fill="none" rx="3" ry="3" style="stroke:#038048;stroke-width:1.0;"/><text fill="#000000" font-family="sans-serif" font-size="14" lengthAdjust="spacing" textLength="265" x="3136.5" y="473.292">CameraController? cameraController</text><ellipse cx="3127.5" cy="486.2422" fill="none" rx="3" ry="3" style="stroke:#038048;stroke-width:1.0;"/><text fill="#000000" font-family="sans-serif" font-size="14" lengthAdjust="spacing" textLength="111" x="3136.5" y="489.5889">bool predicting</text><rect fill="none" height="6" style="stroke:#C82930;stroke-width:1.0;" width="6" x="3124.5" y="499.5391"/><text fill="#000000" font-family="sans-serif" font-size="14" lengthAdjust="spacing" textLength="273" x="3136.5" y="505.8857">ModelObjectDetection? _objectModel</text><line style="stroke:#181818;stroke-width:0.5;" x1="3117.5" x2="3414.5" y1="513.1875" y2="513.1875"/><ellipse cx="3127.5" cy="526.8359" fill="#84BE84" rx="3" ry="3" style="stroke:#038048;stroke-width:1.0;"/><text fill="#000000" font-family="sans-serif" font-size="14" lengthAdjust="spacing" textLength="108" x="3136.5" y="530.1826">void initState()</text><ellipse cx="3127.5" cy="543.1328" fill="#84BE84" rx="3" ry="3" style="stroke:#038048;stroke-width:1.0;"/><text fill="#000000" font-family="sans-serif" font-size="14" lengthAdjust="spacing" textLength="215" x="3136.5" y="546.4795">Future&lt;dynamic&gt; loadModel()</text><ellipse cx="3127.5" cy="559.4297" fill="#84BE84" rx="3" ry="3" style="stroke:#038048;stroke-width:1.0;"/><text fill="#000000" font-family="sans-serif" font-size="14" lengthAdjust="spacing" textLength="150" x="3136.5" y="562.7764">void initStateAsync()</text><ellipse cx="3127.5" cy="575.7266" fill="#84BE84" rx="3" ry="3" style="stroke:#038048;stroke-width:1.0;"/><text fill="#000000" font-family="sans-serif" font-size="14" lengthAdjust="spacing" textLength="160" x="3136.5" y="579.0732">void initializeCamera()</text><ellipse cx="3127.5" cy="592.0234" fill="#84BE84" rx="3" ry="3" style="stroke:#038048;stroke-width:1.0;"/><text fill="#000000" font-family="sans-serif" font-size="14" lengthAdjust="spacing" textLength="101" x="3136.5" y="595.3701">Widget build()</text><ellipse cx="3127.5" cy="608.3203" fill="#84BE84" rx="3" ry="3" style="stroke:#038048;stroke-width:1.0;"/><text fill="#000000" font-family="sans-serif" font-size="14" lengthAdjust="spacing" textLength="247" x="3136.5" y="611.667">dynamic onLatestImageAvailable()</text><ellipse cx="3127.5" cy="624.6172" fill="#84BE84" rx="3" ry="3" style="stroke:#038048;stroke-width:1.0;"/><text fill="#000000" font-family="sans-serif" font-size="14" lengthAdjust="spacing" textLength="254" x="3136.5" y="627.9639">void didChangeAppLifecycleState()</text><ellipse cx="3127.5" cy="640.9141" fill="#84BE84" rx="3" ry="3" style="stroke:#038048;stroke-width:1.0;"/><text fill="#000000" font-family="sans-serif" font-size="14" lengthAdjust="spacing" textLength="99" x="3136.5" y="644.2607">void dispose()</text></g><!--class Model--><g id="elem_Model"><rect codeLine="80" fill="#F1F1F1" height="162.0781" id="Model" rx="2.5" ry="2.5" style="stroke:#181818;stroke-width:0.5;" width="249" x="1281.5" y="756"/><ellipse cx="1380.25" cy="772" fill="#ADD1B2" rx="11" ry="11" style="stroke:#181818;stroke-width:1.0;"/><path d="M1382.5938,767.6719 C1381.6563,767.2344 1381.0625,767.0938 1380.1875,767.0938 C1377.5625,767.0938 1375.5625,769.1719 1375.5625,771.8906 L1375.5625,773.0156 C1375.5625,775.5938 1377.6719,777.4844 1380.5625,777.4844 C1381.7813,777.4844 1382.9375,777.1875 1383.6875,776.6406 C1384.2656,776.2344 1384.5938,775.7813 1384.5938,775.3906 C1384.5938,774.9375 1384.2031,774.5469 1383.7344,774.5469 C1383.5156,774.5469 1383.3125,774.625 1383.125,774.8125 C1382.6719,775.2969 1382.6719,775.2969 1382.4844,775.3906 C1382.0625,775.6563 1381.375,775.7813 1380.6094,775.7813 C1378.5625,775.7813 1377.2656,774.6875 1377.2656,772.9844 L1377.2656,771.8906 C1377.2656,770.1094 1378.5156,768.7969 1380.25,768.7969 C1380.8281,768.7969 1381.4375,768.9531 1381.9063,769.2031 C1382.3906,769.4844 1382.5625,769.7031 1382.6563,770.1094 C1382.7188,770.5156 1382.75,770.6406 1382.8906,770.7656 C1383.0313,770.9063 1383.2656,771.0156 1383.4844,771.0156 C1383.75,771.0156 1384.0156,770.875 1384.1875,770.6563 C1384.2969,770.5 1384.3281,770.3125 1384.3281,769.8906 L1384.3281,768.4688 C1384.3281,768.0313 1384.3125,767.9063 1384.2188,767.75 C1384.0625,767.4844 1383.7813,767.3438 1383.4844,767.3438 C1383.1875,767.3438 1382.9844,767.4375 1382.7656,767.75 L1382.5938,767.6719 Z " fill="#000000"/><text fill="#000000" font-family="sans-serif" font-size="14" lengthAdjust="spacing" textLength="43" x="1400.75" y="776.8467">Model</text><line style="stroke:#181818;stroke-width:0.5;" x1="1282.5" x2="1529.5" y1="788" y2="788"/><ellipse cx="1292.5" cy="801.6484" fill="none" rx="3" ry="3" style="stroke:#038048;stroke-width:1.0;"/><text fill="#000000" font-family="sans-serif" font-size="14" lengthAdjust="spacing" textLength="88" x="1301.5" y="804.9951">String name</text><ellipse cx="1292.5" cy="817.9453" fill="none" rx="3" ry="3" style="stroke:#038048;stroke-width:1.0;"/><text fill="#000000" font-family="sans-serif" font-size="14" lengthAdjust="spacing" textLength="146" x="1301.5" y="821.292">List&lt;String&gt; classes</text><ellipse cx="1292.5" cy="834.2422" fill="none" rx="3" ry="3" style="stroke:#038048;stroke-width:1.0;"/><text fill="#000000" font-family="sans-serif" font-size="14" lengthAdjust="spacing" textLength="140" x="1301.5" y="837.5889">List&lt;int&gt; inputSize</text><ellipse cx="1292.5" cy="850.5391" fill="none" rx="3" ry="3" style="stroke:#038048;stroke-width:1.0;"/><text fill="#000000" font-family="sans-serif" font-size="14" lengthAdjust="spacing" textLength="41" x="1301.5" y="853.8857">int nc</text><ellipse cx="1292.5" cy="866.8359" fill="none" rx="3" ry="3" style="stroke:#038048;stroke-width:1.0;"/><text fill="#000000" font-family="sans-serif" font-size="14" lengthAdjust="spacing" textLength="130" x="1301.5" y="870.1826">String description</text><ellipse cx="1292.5" cy="883.1328" fill="none" rx="3" ry="3" style="stroke:#038048;stroke-width:1.0;"/><text fill="#000000" font-family="sans-serif" font-size="14" lengthAdjust="spacing" textLength="104" x="1301.5" y="886.4795">String filePath</text><line style="stroke:#181818;stroke-width:0.5;" x1="1282.5" x2="1529.5" y1="893.7813" y2="893.7813"/><ellipse cx="1292.5" cy="907.4297" fill="#84BE84" rx="3" ry="3" style="stroke:#038048;stroke-width:1.0;"/><text fill="#000000" font-family="sans-serif" font-size="14" lengthAdjust="spacing" textLength="223" x="1301.5" y="910.7764">Map&lt;String, dynamic&gt; toJson()</text></g><!--class ModelManager--><g id="elem_ModelManager"><rect codeLine="90" fill="#F1F1F1" height="145.7813" id="ModelManager" rx="2.5" ry="2.5" style="stroke:#181818;stroke-width:0.5;" width="279" x="967.5" y="764"/><ellipse cx="1050.75" cy="780" fill="#ADD1B2" rx="11" ry="11" style="stroke:#181818;stroke-width:1.0;"/><path d="M1053.0938,775.6719 C1052.1563,775.2344 1051.5625,775.0938 1050.6875,775.0938 C1048.0625,775.0938 1046.0625,777.1719 1046.0625,779.8906 L1046.0625,781.0156 C1046.0625,783.5938 1048.1719,785.4844 1051.0625,785.4844 C1052.2813,785.4844 1053.4375,785.1875 1054.1875,784.6406 C1054.7656,784.2344 1055.0938,783.7813 1055.0938,783.3906 C1055.0938,782.9375 1054.7031,782.5469 1054.2344,782.5469 C1054.0156,782.5469 1053.8125,782.625 1053.625,782.8125 C1053.1719,783.2969 1053.1719,783.2969 1052.9844,783.3906 C1052.5625,783.6563 1051.875,783.7813 1051.1094,783.7813 C1049.0625,783.7813 1047.7656,782.6875 1047.7656,780.9844 L1047.7656,779.8906 C1047.7656,778.1094 1049.0156,776.7969 1050.75,776.7969 C1051.3281,776.7969 1051.9375,776.9531 1052.4063,777.2031 C1052.8906,777.4844 1053.0625,777.7031 1053.1563,778.1094 C1053.2188,778.5156 1053.25,778.6406 1053.3906,778.7656 C1053.5313,778.9063 1053.7656,779.0156 1053.9844,779.0156 C1054.25,779.0156 1054.5156,778.875 1054.6875,778.6563 C1054.7969,778.5 1054.8281,778.3125 1054.8281,777.8906 L1054.8281,776.4688 C1054.8281,776.0313 1054.8125,775.9063 1054.7188,775.75 C1054.5625,775.4844 1054.2813,775.3438 1053.9844,775.3438 C1053.6875,775.3438 1053.4844,775.4375 1053.2656,775.75 L1053.0938,775.6719 Z " fill="#000000"/><text fill="#000000" font-family="sans-serif" font-size="14" lengthAdjust="spacing" textLength="104" x="1071.25" y="784.8467">ModelManager</text><line style="stroke:#181818;stroke-width:0.5;" x1="968.5" x2="1245.5" y1="796" y2="796"/><rect fill="none" height="6" style="stroke:#C82930;stroke-width:1.0;" width="6" x="975.5" y="806.6484"/><text fill="#000000" font-family="sans-serif" font-size="14" lengthAdjust="spacing" textLength="189" x="987.5" y="812.9951">Future&lt;String&gt; _localPath</text><rect fill="none" height="6" style="stroke:#C82930;stroke-width:1.0;" width="6" x="975.5" y="822.9453"/><text fill="#000000" font-family="sans-serif" font-size="14" lengthAdjust="spacing" textLength="229" x="987.5" y="829.292">Future&lt;File&gt; _modelListJsonFile</text><line style="stroke:#181818;stroke-width:0.5;" x1="968.5" x2="1245.5" y1="836.5938" y2="836.5938"/><ellipse cx="978.5" cy="850.2422" fill="#84BE84" rx="3" ry="3" style="stroke:#038048;stroke-width:1.0;"/><text fill="#000000" font-family="sans-serif" font-size="14" lengthAdjust="spacing" textLength="194" x="987.5" y="853.5889">Future&lt;void&gt; saveModels()</text><ellipse cx="978.5" cy="866.5391" fill="#84BE84" rx="3" ry="3" style="stroke:#038048;stroke-width:1.0;"/><text fill="#000000" font-family="sans-serif" font-size="14" lengthAdjust="spacing" textLength="253" x="987.5" y="869.8857">Future&lt;List&lt;Model&gt;&gt; loadModels()</text><ellipse cx="978.5" cy="882.8359" fill="#84BE84" rx="3" ry="3" style="stroke:#038048;stroke-width:1.0;"/><text fill="#000000" font-family="sans-serif" font-size="14" lengthAdjust="spacing" textLength="159" x="987.5" y="886.1826">void deleteModelFile()</text><ellipse cx="978.5" cy="899.1328" fill="#84BE84" rx="3" ry="3" style="stroke:#038048;stroke-width:1.0;"/><text fill="#000000" font-family="sans-serif" font-size="14" lengthAdjust="spacing" textLength="241" x="987.5" y="902.4795">Future&lt;void&gt; printAllModelFiles()</text></g><!--class CameraViewSingleton--><g id="elem_CameraViewSingleton"><rect codeLine="44" fill="#F1F1F1" height="129.4844" id="CameraViewSingleton" rx="2.5" ry="2.5" style="stroke:#181818;stroke-width:0.5;" width="199" x="2328.5" y="465.5"/><ellipse cx="2347.55" cy="481.5" fill="#ADD1B2" rx="11" ry="11" style="stroke:#181818;stroke-width:1.0;"/><path d="M2349.8938,477.1719 C2348.9563,476.7344 2348.3625,476.5938 2347.4875,476.5938 C2344.8625,476.5938 2342.8625,478.6719 2342.8625,481.3906 L2342.8625,482.5156 C2342.8625,485.0938 2344.9719,486.9844 2347.8625,486.9844 C2349.0813,486.9844 2350.2375,486.6875 2350.9875,486.1406 C2351.5656,485.7344 2351.8938,485.2813 2351.8938,484.8906 C2351.8938,484.4375 2351.5031,484.0469 2351.0344,484.0469 C2350.8156,484.0469 2350.6125,484.125 2350.425,484.3125 C2349.9719,484.7969 2349.9719,484.7969 2349.7844,484.8906 C2349.3625,485.1563 2348.675,485.2813 2347.9094,485.2813 C2345.8625,485.2813 2344.5656,484.1875 2344.5656,482.4844 L2344.5656,481.3906 C2344.5656,479.6094 2345.8156,478.2969 2347.55,478.2969 C2348.1281,478.2969 2348.7375,478.4531 2349.2063,478.7031 C2349.6906,478.9844 2349.8625,479.2031 2349.9563,479.6094 C2350.0188,480.0156 2350.05,480.1406 2350.1906,480.2656 C2350.3313,480.4063 2350.5656,480.5156 2350.7844,480.5156 C2351.05,480.5156 2351.3156,480.375 2351.4875,480.1563 C2351.5969,480 2351.6281,479.8125 2351.6281,479.3906 L2351.6281,477.9688 C2351.6281,477.5313 2351.6125,477.4063 2351.5188,477.25 C2351.3625,476.9844 2351.0813,476.8438 2350.7844,476.8438 C2350.4875,476.8438 2350.2844,476.9375 2350.0656,477.25 L2349.8938,477.1719 Z " fill="#000000"/><text fill="#000000" font-family="sans-serif" font-size="14" lengthAdjust="spacing" textLength="158" x="2362.45" y="486.3467">CameraViewSingleton</text><line style="stroke:#181818;stroke-width:0.5;" x1="2329.5" x2="2526.5" y1="497.5" y2="497.5"/><ellipse cx="2339.5" cy="511.1484" fill="none" rx="3" ry="3" style="stroke:#038048;stroke-width:1.0;"/><text fill="#000000" font-family="sans-serif" font-size="14" lengthAdjust="spacing" text-decoration="underline" textLength="87" x="2348.5" y="514.4951">double ratio</text><ellipse cx="2339.5" cy="527.4453" fill="none" rx="3" ry="3" style="stroke:#038048;stroke-width:1.0;"/><text fill="#000000" font-family="sans-serif" font-size="14" lengthAdjust="spacing" text-decoration="underline" textLength="112" x="2348.5" y="530.792">Size screenSize</text><ellipse cx="2339.5" cy="543.7422" fill="none" rx="3" ry="3" style="stroke:#038048;stroke-width:1.0;"/><text fill="#000000" font-family="sans-serif" font-size="14" lengthAdjust="spacing" text-decoration="underline" textLength="146" x="2348.5" y="547.0889">Size inputImageSize</text><ellipse cx="2339.5" cy="560.0391" fill="none" rx="3" ry="3" style="stroke:#038048;stroke-width:1.0;"/><text fill="#000000" font-family="sans-serif" font-size="14" lengthAdjust="spacing" text-decoration="underline" textLength="163" x="2348.5" y="563.3857">Size actualPreviewSize</text><ellipse cx="2339.5" cy="576.3359" fill="none" rx="3" ry="3" style="stroke:#038048;stroke-width:1.0;"/><text fill="#000000" font-family="sans-serif" font-size="14" lengthAdjust="spacing" text-decoration="underline" textLength="173" x="2348.5" y="579.6826">Size actualPreviewSizeH</text><line style="stroke:#181818;stroke-width:0.5;" x1="2329.5" x2="2526.5" y1="586.9844" y2="586.9844"/></g><!--class ModelManagementApp--><g id="elem_ModelManagementApp"><rect codeLine="54" fill="#F1F1F1" height="64.2969" id="ModelManagementApp" rx="2.5" ry="2.5" style="stroke:#181818;stroke-width:0.5;" width="199" x="46.5" y="498"/><ellipse cx="61.5" cy="514" fill="#ADD1B2" rx="11" ry="11" style="stroke:#181818;stroke-width:1.0;"/><path d="M63.8438,509.6719 C62.9063,509.2344 62.3125,509.0938 61.4375,509.0938 C58.8125,509.0938 56.8125,511.1719 56.8125,513.8906 L56.8125,515.0156 C56.8125,517.5938 58.9219,519.4844 61.8125,519.4844 C63.0313,519.4844 64.1875,519.1875 64.9375,518.6406 C65.5156,518.2344 65.8438,517.7813 65.8438,517.3906 C65.8438,516.9375 65.4531,516.5469 64.9844,516.5469 C64.7656,516.5469 64.5625,516.625 64.375,516.8125 C63.9219,517.2969 63.9219,517.2969 63.7344,517.3906 C63.3125,517.6563 62.625,517.7813 61.8594,517.7813 C59.8125,517.7813 58.5156,516.6875 58.5156,514.9844 L58.5156,513.8906 C58.5156,512.1094 59.7656,510.7969 61.5,510.7969 C62.0781,510.7969 62.6875,510.9531 63.1563,511.2031 C63.6406,511.4844 63.8125,511.7031 63.9063,512.1094 C63.9688,512.5156 64,512.6406 64.1406,512.7656 C64.2813,512.9063 64.5156,513.0156 64.7344,513.0156 C65,513.0156 65.2656,512.875 65.4375,512.6563 C65.5469,512.5 65.5781,512.3125 65.5781,511.8906 L65.5781,510.4688 C65.5781,510.0313 65.5625,509.9063 65.4688,509.75 C65.3125,509.4844 65.0313,509.3438 64.7344,509.3438 C64.4375,509.3438 64.2344,509.4375 64.0156,509.75 L63.8438,509.6719 Z " fill="#000000"/><text fill="#000000" font-family="sans-serif" font-size="14" lengthAdjust="spacing" textLength="167" x="75.5" y="518.8467">ModelManagementApp</text><line style="stroke:#181818;stroke-width:0.5;" x1="47.5" x2="244.5" y1="530" y2="530"/><line style="stroke:#181818;stroke-width:0.5;" x1="47.5" x2="244.5" y1="538" y2="538"/><ellipse cx="57.5" cy="551.6484" fill="#84BE84" rx="3" ry="3" style="stroke:#038048;stroke-width:1.0;"/><text fill="#000000" font-family="sans-serif" font-size="14" lengthAdjust="spacing" textLength="101" x="66.5" y="554.9951">Widget build()</text></g><!--class ModelListScreen--><g id="elem_ModelListScreen"><rect codeLine="60" fill="#F1F1F1" height="64.2969" id="ModelListScreen" rx="2.5" ry="2.5" style="stroke:#181818;stroke-width:0.5;" width="293" x="280.5" y="498"/><ellipse cx="363.25" cy="514" fill="#ADD1B2" rx="11" ry="11" style="stroke:#181818;stroke-width:1.0;"/><path d="M365.5938,509.6719 C364.6563,509.2344 364.0625,509.0938 363.1875,509.0938 C360.5625,509.0938 358.5625,511.1719 358.5625,513.8906 L358.5625,515.0156 C358.5625,517.5938 360.6719,519.4844 363.5625,519.4844 C364.7813,519.4844 365.9375,519.1875 366.6875,518.6406 C367.2656,518.2344 367.5938,517.7813 367.5938,517.3906 C367.5938,516.9375 367.2031,516.5469 366.7344,516.5469 C366.5156,516.5469 366.3125,516.625 366.125,516.8125 C365.6719,517.2969 365.6719,517.2969 365.4844,517.3906 C365.0625,517.6563 364.375,517.7813 363.6094,517.7813 C361.5625,517.7813 360.2656,516.6875 360.2656,514.9844 L360.2656,513.8906 C360.2656,512.1094 361.5156,510.7969 363.25,510.7969 C363.8281,510.7969 364.4375,510.9531 364.9063,511.2031 C365.3906,511.4844 365.5625,511.7031 365.6563,512.1094 C365.7188,512.5156 365.75,512.6406 365.8906,512.7656 C366.0313,512.9063 366.2656,513.0156 366.4844,513.0156 C366.75,513.0156 367.0156,512.875 367.1875,512.6563 C367.2969,512.5 367.3281,512.3125 367.3281,511.8906 L367.3281,510.4688 C367.3281,510.0313 367.3125,509.9063 367.2188,509.75 C367.0625,509.4844 366.7813,509.3438 366.4844,509.3438 C366.1875,509.3438 365.9844,509.4375 365.7656,509.75 L365.5938,509.6719 Z " fill="#000000"/><text fill="#000000" font-family="sans-serif" font-size="14" lengthAdjust="spacing" textLength="119" x="383.75" y="518.8467">ModelListScreen</text><line style="stroke:#181818;stroke-width:0.5;" x1="281.5" x2="572.5" y1="530" y2="530"/><line style="stroke:#181818;stroke-width:0.5;" x1="281.5" x2="572.5" y1="538" y2="538"/><ellipse cx="291.5" cy="551.6484" fill="#84BE84" rx="3" ry="3" style="stroke:#038048;stroke-width:1.0;"/><text fill="#000000" font-family="sans-serif" font-size="14" lengthAdjust="spacing" textLength="267" x="300.5" y="554.9951">_ModelListScreenState createState()</text></g><!--class _ModelListScreenState--><g id="elem__ModelListScreenState"><rect codeLine="66" fill="#F1F1F1" height="178.375" id="_ModelListScreenState" rx="2.5" ry="2.5" style="stroke:#181818;stroke-width:0.5;" width="240" x="609" y="441"/><ellipse cx="642.9" cy="457" fill="#ADD1B2" rx="11" ry="11" style="stroke:#181818;stroke-width:1.0;"/><path d="M645.2438,452.6719 C644.3063,452.2344 643.7125,452.0938 642.8375,452.0938 C640.2125,452.0938 638.2125,454.1719 638.2125,456.8906 L638.2125,458.0156 C638.2125,460.5938 640.3219,462.4844 643.2125,462.4844 C644.4313,462.4844 645.5875,462.1875 646.3375,461.6406 C646.9156,461.2344 647.2438,460.7813 647.2438,460.3906 C647.2438,459.9375 646.8531,459.5469 646.3844,459.5469 C646.1656,459.5469 645.9625,459.625 645.775,459.8125 C645.3219,460.2969 645.3219,460.2969 645.1344,460.3906 C644.7125,460.6563 644.025,460.7813 643.2594,460.7813 C641.2125,460.7813 639.9156,459.6875 639.9156,457.9844 L639.9156,456.8906 C639.9156,455.1094 641.1656,453.7969 642.9,453.7969 C643.4781,453.7969 644.0875,453.9531 644.5563,454.2031 C645.0406,454.4844 645.2125,454.7031 645.3063,455.1094 C645.3688,455.5156 645.4,455.6406 645.5406,455.7656 C645.6813,455.9063 645.9156,456.0156 646.1344,456.0156 C646.4,456.0156 646.6656,455.875 646.8375,455.6563 C646.9469,455.5 646.9781,455.3125 646.9781,454.8906 L646.9781,453.4688 C646.9781,453.0313 646.9625,452.9063 646.8688,452.75 C646.7125,452.4844 646.4313,452.3438 646.1344,452.3438 C645.8375,452.3438 645.6344,452.4375 645.4156,452.75 L645.2438,452.6719 Z " fill="#000000"/><text fill="#000000" font-family="sans-serif" font-size="14" lengthAdjust="spacing" textLength="166" x="661.1" y="461.8467">_ModelListScreenState</text><line style="stroke:#181818;stroke-width:0.5;" x1="610" x2="848" y1="473" y2="473"/><ellipse cx="620" cy="486.6484" fill="none" rx="3" ry="3" style="stroke:#038048;stroke-width:1.0;"/><text fill="#000000" font-family="sans-serif" font-size="14" lengthAdjust="spacing" textLength="147" x="629" y="489.9951">List&lt;Model&gt; models</text><ellipse cx="620" cy="502.9453" fill="none" rx="3" ry="3" style="stroke:#038048;stroke-width:1.0;"/><text fill="#000000" font-family="sans-serif" font-size="14" lengthAdjust="spacing" textLength="214" x="629" y="506.292">ModelManager modelManager</text><line style="stroke:#181818;stroke-width:0.5;" x1="610" x2="848" y1="513.5938" y2="513.5938"/><ellipse cx="620" cy="527.2422" fill="#84BE84" rx="3" ry="3" style="stroke:#038048;stroke-width:1.0;"/><text fill="#000000" font-family="sans-serif" font-size="14" lengthAdjust="spacing" textLength="108" x="629" y="530.5889">void initState()</text><rect fill="#F24D5C" height="6" style="stroke:#C82930;stroke-width:1.0;" width="6" x="617" y="540.5391"/><text fill="#000000" font-family="sans-serif" font-size="14" lengthAdjust="spacing" textLength="131" x="629" y="546.8857">void _loadModels()</text><rect fill="#F24D5C" height="6" style="stroke:#C82930;stroke-width:1.0;" width="6" x="617" y="556.8359"/><text fill="#000000" font-family="sans-serif" font-size="14" lengthAdjust="spacing" textLength="133" x="629" y="563.1826">void _saveModels()</text><rect fill="#F24D5C" height="6" style="stroke:#C82930;stroke-width:1.0;" width="6" x="617" y="573.1328"/><text fill="#000000" font-family="sans-serif" font-size="14" lengthAdjust="spacing" textLength="141" x="629" y="579.4795">void _deleteModel()</text><rect fill="#F24D5C" height="6" style="stroke:#C82930;stroke-width:1.0;" width="6" x="617" y="589.4297"/><text fill="#000000" font-family="sans-serif" font-size="14" lengthAdjust="spacing" textLength="195" x="629" y="595.7764">void _addNewModelDialog()</text><ellipse cx="620" cy="608.7266" fill="#84BE84" rx="3" ry="3" style="stroke:#038048;stroke-width:1.0;"/><text fill="#000000" font-family="sans-serif" font-size="14" lengthAdjust="spacing" textLength="101" x="629" y="612.0732">Widget build()</text></g><!--class RunModelByCamera--><g id="elem_RunModelByCamera"><rect codeLine="99" fill="#F1F1F1" height="80.5938" id="RunModelByCamera" rx="2.5" ry="2.5" style="stroke:#181818;stroke-width:0.5;" width="317" x="1247.5" y="489.5"/><ellipse cx="1330.25" cy="505.5" fill="#ADD1B2" rx="11" ry="11" style="stroke:#181818;stroke-width:1.0;"/><path d="M1332.5938,501.1719 C1331.6563,500.7344 1331.0625,500.5938 1330.1875,500.5938 C1327.5625,500.5938 1325.5625,502.6719 1325.5625,505.3906 L1325.5625,506.5156 C1325.5625,509.0938 1327.6719,510.9844 1330.5625,510.9844 C1331.7813,510.9844 1332.9375,510.6875 1333.6875,510.1406 C1334.2656,509.7344 1334.5938,509.2813 1334.5938,508.8906 C1334.5938,508.4375 1334.2031,508.0469 1333.7344,508.0469 C1333.5156,508.0469 1333.3125,508.125 1333.125,508.3125 C1332.6719,508.7969 1332.6719,508.7969 1332.4844,508.8906 C1332.0625,509.1563 1331.375,509.2813 1330.6094,509.2813 C1328.5625,509.2813 1327.2656,508.1875 1327.2656,506.4844 L1327.2656,505.3906 C1327.2656,503.6094 1328.5156,502.2969 1330.25,502.2969 C1330.8281,502.2969 1331.4375,502.4531 1331.9063,502.7031 C1332.3906,502.9844 1332.5625,503.2031 1332.6563,503.6094 C1332.7188,504.0156 1332.75,504.1406 1332.8906,504.2656 C1333.0313,504.4063 1333.2656,504.5156 1333.4844,504.5156 C1333.75,504.5156 1334.0156,504.375 1334.1875,504.1563 C1334.2969,504 1334.3281,503.8125 1334.3281,503.3906 L1334.3281,501.9688 C1334.3281,501.5313 1334.3125,501.4063 1334.2188,501.25 C1334.0625,500.9844 1333.7813,500.8438 1333.4844,500.8438 C1333.1875,500.8438 1332.9844,500.9375 1332.7656,501.25 L1332.5938,501.1719 Z " fill="#000000"/><text fill="#000000" font-family="sans-serif" font-size="14" lengthAdjust="spacing" textLength="143" x="1350.75" y="510.3467">RunModelByCamera</text><line style="stroke:#181818;stroke-width:0.5;" x1="1248.5" x2="1563.5" y1="521.5" y2="521.5"/><ellipse cx="1258.5" cy="535.1484" fill="none" rx="3" ry="3" style="stroke:#038048;stroke-width:1.0;"/><text fill="#000000" font-family="sans-serif" font-size="14" lengthAdjust="spacing" textLength="92" x="1267.5" y="538.4951">Model model</text><line style="stroke:#181818;stroke-width:0.5;" x1="1248.5" x2="1563.5" y1="545.7969" y2="545.7969"/><ellipse cx="1258.5" cy="559.4453" fill="#84BE84" rx="3" ry="3" style="stroke:#038048;stroke-width:1.0;"/><text fill="#000000" font-family="sans-serif" font-size="14" lengthAdjust="spacing" textLength="291" x="1267.5" y="562.792">_RunModelByCameraState createState()</text></g><!--class _RunModelByCameraState--><g id="elem__RunModelByCameraState"><rect codeLine="107" fill="#F1F1F1" height="227.2656" id="_RunModelByCameraState" rx="2.5" ry="2.5" style="stroke:#181818;stroke-width:0.5;" width="368" x="1600" y="416.5"/><ellipse cx="1684.75" cy="432.5" fill="#ADD1B2" rx="11" ry="11" style="stroke:#181818;stroke-width:1.0;"/><path d="M1687.0938,428.1719 C1686.1563,427.7344 1685.5625,427.5938 1684.6875,427.5938 C1682.0625,427.5938 1680.0625,429.6719 1680.0625,432.3906 L1680.0625,433.5156 C1680.0625,436.0938 1682.1719,437.9844 1685.0625,437.9844 C1686.2813,437.9844 1687.4375,437.6875 1688.1875,437.1406 C1688.7656,436.7344 1689.0938,436.2813 1689.0938,435.8906 C1689.0938,435.4375 1688.7031,435.0469 1688.2344,435.0469 C1688.0156,435.0469 1687.8125,435.125 1687.625,435.3125 C1687.1719,435.7969 1687.1719,435.7969 1686.9844,435.8906 C1686.5625,436.1563 1685.875,436.2813 1685.1094,436.2813 C1683.0625,436.2813 1681.7656,435.1875 1681.7656,433.4844 L1681.7656,432.3906 C1681.7656,430.6094 1683.0156,429.2969 1684.75,429.2969 C1685.3281,429.2969 1685.9375,429.4531 1686.4063,429.7031 C1686.8906,429.9844 1687.0625,430.2031 1687.1563,430.6094 C1687.2188,431.0156 1687.25,431.1406 1687.3906,431.2656 C1687.5313,431.4063 1687.7656,431.5156 1687.9844,431.5156 C1688.25,431.5156 1688.5156,431.375 1688.6875,431.1563 C1688.7969,431 1688.8281,430.8125 1688.8281,430.3906 L1688.8281,428.9688 C1688.8281,428.5313 1688.8125,428.4063 1688.7188,428.25 C1688.5625,427.9844 1688.2813,427.8438 1687.9844,427.8438 C1687.6875,427.8438 1687.4844,427.9375 1687.2656,428.25 L1687.0938,428.1719 Z " fill="#000000"/><text fill="#000000" font-family="sans-serif" font-size="14" lengthAdjust="spacing" textLength="190" x="1705.25" y="437.3467">_RunModelByCameraState</text><line style="stroke:#181818;stroke-width:0.5;" x1="1601" x2="1967" y1="448.5" y2="448.5"/><ellipse cx="1611" cy="462.1484" fill="none" rx="3" ry="3" style="stroke:#038048;stroke-width:1.0;"/><text fill="#000000" font-family="sans-serif" font-size="14" lengthAdjust="spacing" textLength="281" x="1620" y="465.4951">List&lt;ResultObjectDetection?&gt;? results</text><ellipse cx="1611" cy="478.4453" fill="none" rx="3" ry="3" style="stroke:#038048;stroke-width:1.0;"/><text fill="#000000" font-family="sans-serif" font-size="14" lengthAdjust="spacing" textLength="148" x="1620" y="481.792">String? classification</text><ellipse cx="1611" cy="494.7422" fill="none" rx="3" ry="3" style="stroke:#038048;stroke-width:1.0;"/><text fill="#000000" font-family="sans-serif" font-size="14" lengthAdjust="spacing" textLength="282" x="1620" y="498.0889">GlobalKey&lt;ScaffoldState&gt; scaffoldKey</text><ellipse cx="1611" cy="511.0391" fill="none" rx="3" ry="3" style="stroke:#038048;stroke-width:1.0;"/><text fill="#000000" font-family="sans-serif" font-size="14" lengthAdjust="spacing" text-decoration="underline" textLength="225" x="1620" y="514.3857">Radius BOTTOM_SHEET_RADIUS</text><ellipse cx="1611" cy="527.3359" fill="none" rx="3" ry="3" style="stroke:#038048;stroke-width:1.0;"/><text fill="#000000" font-family="sans-serif" font-size="14" lengthAdjust="spacing" text-decoration="underline" textLength="342" x="1620" y="530.6826">BorderRadius BORDER_RADIUS_BOTTOM_SHEET</text><line style="stroke:#181818;stroke-width:0.5;" x1="1601" x2="1967" y1="537.9844" y2="537.9844"/><ellipse cx="1611" cy="551.6328" fill="#84BE84" rx="3" ry="3" style="stroke:#038048;stroke-width:1.0;"/><text fill="#000000" font-family="sans-serif" font-size="14" lengthAdjust="spacing" textLength="108" x="1620" y="554.9795">void initState()</text><rect fill="#F24D5C" height="6" style="stroke:#C82930;stroke-width:1.0;" width="6" x="1608" y="564.9297"/><text fill="#000000" font-family="sans-serif" font-size="14" lengthAdjust="spacing" textLength="166" x="1620" y="571.2764">void _updateLabelFile()</text><ellipse cx="1611" cy="584.2266" fill="#84BE84" rx="3" ry="3" style="stroke:#038048;stroke-width:1.0;"/><text fill="#000000" font-family="sans-serif" font-size="14" lengthAdjust="spacing" textLength="101" x="1620" y="587.5732">Widget build()</text><ellipse cx="1611" cy="600.5234" fill="#84BE84" rx="3" ry="3" style="stroke:#038048;stroke-width:1.0;"/><text fill="#000000" font-family="sans-serif" font-size="14" lengthAdjust="spacing" textLength="184" x="1620" y="603.8701">Widget boundingBoxes2()</text><ellipse cx="1611" cy="616.8203" fill="#84BE84" rx="3" ry="3" style="stroke:#038048;stroke-width:1.0;"/><text fill="#000000" font-family="sans-serif" font-size="14" lengthAdjust="spacing" textLength="153" x="1620" y="620.167">void resultsCallback()</text><ellipse cx="1611" cy="633.1172" fill="#84BE84" rx="3" ry="3" style="stroke:#038048;stroke-width:1.0;"/><text fill="#000000" font-family="sans-serif" font-size="14" lengthAdjust="spacing" textLength="248" x="1620" y="636.4639">void resultsCallbackClassification()</text></g><!--class ResultsRow--><g id="elem_ResultsRow"><rect codeLine="126" fill="#F1F1F1" height="80.5938" id="ResultsRow" rx="2.5" ry="2.5" style="stroke:#181818;stroke-width:0.5;" width="307" x="905.5" y="489.5"/><ellipse cx="1013.75" cy="505.5" fill="#ADD1B2" rx="11" ry="11" style="stroke:#181818;stroke-width:1.0;"/><path d="M1016.0938,501.1719 C1015.1563,500.7344 1014.5625,500.5938 1013.6875,500.5938 C1011.0625,500.5938 1009.0625,502.6719 1009.0625,505.3906 L1009.0625,506.5156 C1009.0625,509.0938 1011.1719,510.9844 1014.0625,510.9844 C1015.2813,510.9844 1016.4375,510.6875 1017.1875,510.1406 C1017.7656,509.7344 1018.0938,509.2813 1018.0938,508.8906 C1018.0938,508.4375 1017.7031,508.0469 1017.2344,508.0469 C1017.0156,508.0469 1016.8125,508.125 1016.625,508.3125 C1016.1719,508.7969 1016.1719,508.7969 1015.9844,508.8906 C1015.5625,509.1563 1014.875,509.2813 1014.1094,509.2813 C1012.0625,509.2813 1010.7656,508.1875 1010.7656,506.4844 L1010.7656,505.3906 C1010.7656,503.6094 1012.0156,502.2969 1013.75,502.2969 C1014.3281,502.2969 1014.9375,502.4531 1015.4063,502.7031 C1015.8906,502.9844 1016.0625,503.2031 1016.1563,503.6094 C1016.2188,504.0156 1016.25,504.1406 1016.3906,504.2656 C1016.5313,504.4063 1016.7656,504.5156 1016.9844,504.5156 C1017.25,504.5156 1017.5156,504.375 1017.6875,504.1563 C1017.7969,504 1017.8281,503.8125 1017.8281,503.3906 L1017.8281,501.9688 C1017.8281,501.5313 1017.8125,501.4063 1017.7188,501.25 C1017.5625,500.9844 1017.2813,500.8438 1016.9844,500.8438 C1016.6875,500.8438 1016.4844,500.9375 1016.2656,501.25 L1016.0938,501.1719 Z " fill="#000000"/><text fill="#000000" font-family="sans-serif" font-size="14" lengthAdjust="spacing" textLength="82" x="1034.25" y="510.3467">ResultsRow</text><line style="stroke:#181818;stroke-width:0.5;" x1="906.5" x2="1211.5" y1="521.5" y2="521.5"/><ellipse cx="916.5" cy="535.1484" fill="none" rx="3" ry="3" style="stroke:#038048;stroke-width:1.0;"/><text fill="#000000" font-family="sans-serif" font-size="14" lengthAdjust="spacing" textLength="281" x="925.5" y="538.4951">List&lt;ResultObjectDetection?&gt;? results</text><line style="stroke:#181818;stroke-width:0.5;" x1="906.5" x2="1211.5" y1="545.7969" y2="545.7969"/><ellipse cx="916.5" cy="559.4453" fill="#84BE84" rx="3" ry="3" style="stroke:#038048;stroke-width:1.0;"/><text fill="#000000" font-family="sans-serif" font-size="14" lengthAdjust="spacing" textLength="101" x="925.5" y="562.792">Widget build()</text></g><!--class ResultObjectDetection--><g id="elem_ResultObjectDetection"><rect fill="#F1F1F1" height="48" id="ResultObjectDetection" rx="2.5" ry="2.5" style="stroke:#181818;stroke-width:0.5;" width="199" x="3520.5" y="813"/><ellipse cx="3535.5" cy="829" fill="#ADD1B2" rx="11" ry="11" style="stroke:#181818;stroke-width:1.0;"/><path d="M3537.8438,824.6719 C3536.9063,824.2344 3536.3125,824.0938 3535.4375,824.0938 C3532.8125,824.0938 3530.8125,826.1719 3530.8125,828.8906 L3530.8125,830.0156 C3530.8125,832.5938 3532.9219,834.4844 3535.8125,834.4844 C3537.0313,834.4844 3538.1875,834.1875 3538.9375,833.6406 C3539.5156,833.2344 3539.8438,832.7813 3539.8438,832.3906 C3539.8438,831.9375 3539.4531,831.5469 3538.9844,831.5469 C3538.7656,831.5469 3538.5625,831.625 3538.375,831.8125 C3537.9219,832.2969 3537.9219,832.2969 3537.7344,832.3906 C3537.3125,832.6563 3536.625,832.7813 3535.8594,832.7813 C3533.8125,832.7813 3532.5156,831.6875 3532.5156,829.9844 L3532.5156,828.8906 C3532.5156,827.1094 3533.7656,825.7969 3535.5,825.7969 C3536.0781,825.7969 3536.6875,825.9531 3537.1563,826.2031 C3537.6406,826.4844 3537.8125,826.7031 3537.9063,827.1094 C3537.9688,827.5156 3538,827.6406 3538.1406,827.7656 C3538.2813,827.9063 3538.5156,828.0156 3538.7344,828.0156 C3539,828.0156 3539.2656,827.875 3539.4375,827.6563 C3539.5469,827.5 3539.5781,827.3125 3539.5781,826.8906 L3539.5781,825.4688 C3539.5781,825.0313 3539.5625,824.9063 3539.4688,824.75 C3539.3125,824.4844 3539.0313,824.3438 3538.7344,824.3438 C3538.4375,824.3438 3538.2344,824.4375 3538.0156,824.75 L3537.8438,824.6719 Z " fill="#000000"/><text fill="#000000" font-family="sans-serif" font-size="14" lengthAdjust="spacing" textLength="167" x="3549.5" y="833.8467">ResultObjectDetection</text><line style="stroke:#181818;stroke-width:0.5;" x1="3521.5" x2="3718.5" y1="845" y2="845"/><line style="stroke:#181818;stroke-width:0.5;" x1="3521.5" x2="3718.5" y1="853" y2="853"/></g><!--class ModelObjectDetection--><g id="elem_ModelObjectDetection"><rect fill="#F1F1F1" height="48" id="ModelObjectDetection" rx="2.5" ry="2.5" style="stroke:#181818;stroke-width:0.5;" width="197" x="3776.5" y="813"/><ellipse cx="3791.5" cy="829" fill="#ADD1B2" rx="11" ry="11" style="stroke:#181818;stroke-width:1.0;"/><path d="M3793.8438,824.6719 C3792.9063,824.2344 3792.3125,824.0938 3791.4375,824.0938 C3788.8125,824.0938 3786.8125,826.1719 3786.8125,828.8906 L3786.8125,830.0156 C3786.8125,832.5938 3788.9219,834.4844 3791.8125,834.4844 C3793.0313,834.4844 3794.1875,834.1875 3794.9375,833.6406 C3795.5156,833.2344 3795.8438,832.7813 3795.8438,832.3906 C3795.8438,831.9375 3795.4531,831.5469 3794.9844,831.5469 C3794.7656,831.5469 3794.5625,831.625 3794.375,831.8125 C3793.9219,832.2969 3793.9219,832.2969 3793.7344,832.3906 C3793.3125,832.6563 3792.625,832.7813 3791.8594,832.7813 C3789.8125,832.7813 3788.5156,831.6875 3788.5156,829.9844 L3788.5156,828.8906 C3788.5156,827.1094 3789.7656,825.7969 3791.5,825.7969 C3792.0781,825.7969 3792.6875,825.9531 3793.1563,826.2031 C3793.6406,826.4844 3793.8125,826.7031 3793.9063,827.1094 C3793.9688,827.5156 3794,827.6406 3794.1406,827.7656 C3794.2813,827.9063 3794.5156,828.0156 3794.7344,828.0156 C3795,828.0156 3795.2656,827.875 3795.4375,827.6563 C3795.5469,827.5 3795.5781,827.3125 3795.5781,826.8906 L3795.5781,825.4688 C3795.5781,825.0313 3795.5625,824.9063 3795.4688,824.75 C3795.3125,824.4844 3795.0313,824.3438 3794.7344,824.3438 C3794.4375,824.3438 3794.2344,824.4375 3794.0156,824.75 L3793.8438,824.6719 Z " fill="#000000"/><text fill="#000000" font-family="sans-serif" font-size="14" lengthAdjust="spacing" textLength="165" x="3805.5" y="833.8467">ModelObjectDetection</text><line style="stroke:#181818;stroke-width:0.5;" x1="3777.5" x2="3972.5" y1="845" y2="845"/><line style="stroke:#181818;stroke-width:0.5;" x1="3777.5" x2="3972.5" y1="853" y2="853"/></g><!--class Color--><g id="elem_Color"><rect fill="#F1F1F1" height="48" id="Color" rx="2.5" ry="2.5" style="stroke:#181818;stroke-width:0.5;" width="70" x="4191" y="813"/><ellipse cx="4206" cy="829" fill="#ADD1B2" rx="11" ry="11" style="stroke:#181818;stroke-width:1.0;"/><path d="M4208.3438,824.6719 C4207.4063,824.2344 4206.8125,824.0938 4205.9375,824.0938 C4203.3125,824.0938 4201.3125,826.1719 4201.3125,828.8906 L4201.3125,830.0156 C4201.3125,832.5938 4203.4219,834.4844 4206.3125,834.4844 C4207.5313,834.4844 4208.6875,834.1875 4209.4375,833.6406 C4210.0156,833.2344 4210.3438,832.7813 4210.3438,832.3906 C4210.3438,831.9375 4209.9531,831.5469 4209.4844,831.5469 C4209.2656,831.5469 4209.0625,831.625 4208.875,831.8125 C4208.4219,832.2969 4208.4219,832.2969 4208.2344,832.3906 C4207.8125,832.6563 4207.125,832.7813 4206.3594,832.7813 C4204.3125,832.7813 4203.0156,831.6875 4203.0156,829.9844 L4203.0156,828.8906 C4203.0156,827.1094 4204.2656,825.7969 4206,825.7969 C4206.5781,825.7969 4207.1875,825.9531 4207.6563,826.2031 C4208.1406,826.4844 4208.3125,826.7031 4208.4063,827.1094 C4208.4688,827.5156 4208.5,827.6406 4208.6406,827.7656 C4208.7813,827.9063 4209.0156,828.0156 4209.2344,828.0156 C4209.5,828.0156 4209.7656,827.875 4209.9375,827.6563 C4210.0469,827.5 4210.0781,827.3125 4210.0781,826.8906 L4210.0781,825.4688 C4210.0781,825.0313 4210.0625,824.9063 4209.9688,824.75 C4209.8125,824.4844 4209.5313,824.3438 4209.2344,824.3438 C4208.9375,824.3438 4208.7344,824.4375 4208.5156,824.75 L4208.3438,824.6719 Z " fill="#000000"/><text fill="#000000" font-family="sans-serif" font-size="14" lengthAdjust="spacing" textLength="38" x="4220" y="833.8467">Color</text><line style="stroke:#181818;stroke-width:0.5;" x1="4192" x2="4260" y1="845" y2="845"/><line style="stroke:#181818;stroke-width:0.5;" x1="4192" x2="4260" y1="853" y2="853"/></g><!--class Size--><g id="elem_Size"><rect fill="#F1F1F1" height="48" id="Size" rx="2.5" ry="2.5" style="stroke:#181818;stroke-width:0.5;" width="62" x="4296" y="813"/><ellipse cx="4311" cy="829" fill="#ADD1B2" rx="11" ry="11" style="stroke:#181818;stroke-width:1.0;"/><path d="M4313.3438,824.6719 C4312.4063,824.2344 4311.8125,824.0938 4310.9375,824.0938 C4308.3125,824.0938 4306.3125,826.1719 4306.3125,828.8906 L4306.3125,830.0156 C4306.3125,832.5938 4308.4219,834.4844 4311.3125,834.4844 C4312.5313,834.4844 4313.6875,834.1875 4314.4375,833.6406 C4315.0156,833.2344 4315.3438,832.7813 4315.3438,832.3906 C4315.3438,831.9375 4314.9531,831.5469 4314.4844,831.5469 C4314.2656,831.5469 4314.0625,831.625 4313.875,831.8125 C4313.4219,832.2969 4313.4219,832.2969 4313.2344,832.3906 C4312.8125,832.6563 4312.125,832.7813 4311.3594,832.7813 C4309.3125,832.7813 4308.0156,831.6875 4308.0156,829.9844 L4308.0156,828.8906 C4308.0156,827.1094 4309.2656,825.7969 4311,825.7969 C4311.5781,825.7969 4312.1875,825.9531 4312.6563,826.2031 C4313.1406,826.4844 4313.3125,826.7031 4313.4063,827.1094 C4313.4688,827.5156 4313.5,827.6406 4313.6406,827.7656 C4313.7813,827.9063 4314.0156,828.0156 4314.2344,828.0156 C4314.5,828.0156 4314.7656,827.875 4314.9375,827.6563 C4315.0469,827.5 4315.0781,827.3125 4315.0781,826.8906 L4315.0781,825.4688 C4315.0781,825.0313 4315.0625,824.9063 4314.9688,824.75 C4314.8125,824.4844 4314.5313,824.3438 4314.2344,824.3438 C4313.9375,824.3438 4313.7344,824.4375 4313.5156,824.75 L4313.3438,824.6719 Z " fill="#000000"/><text fill="#000000" font-family="sans-serif" font-size="14" lengthAdjust="spacing" textLength="30" x="4325" y="833.8467">Size</text><line style="stroke:#181818;stroke-width:0.5;" x1="4297" x2="4357" y1="845" y2="845"/><line style="stroke:#181818;stroke-width:0.5;" x1="4297" x2="4357" y1="853" y2="853"/></g><!--class Radius--><g id="elem_Radius"><rect fill="#F1F1F1" height="48" id="Radius" rx="2.5" ry="2.5" style="stroke:#181818;stroke-width:0.5;" width="78" x="4078" y="813"/><ellipse cx="4093" cy="829" fill="#ADD1B2" rx="11" ry="11" style="stroke:#181818;stroke-width:1.0;"/><path d="M4095.3438,824.6719 C4094.4063,824.2344 4093.8125,824.0938 4092.9375,824.0938 C4090.3125,824.0938 4088.3125,826.1719 4088.3125,828.8906 L4088.3125,830.0156 C4088.3125,832.5938 4090.4219,834.4844 4093.3125,834.4844 C4094.5313,834.4844 4095.6875,834.1875 4096.4375,833.6406 C4097.0156,833.2344 4097.3438,832.7813 4097.3438,832.3906 C4097.3438,831.9375 4096.9531,831.5469 4096.4844,831.5469 C4096.2656,831.5469 4096.0625,831.625 4095.875,831.8125 C4095.4219,832.2969 4095.4219,832.2969 4095.2344,832.3906 C4094.8125,832.6563 4094.125,832.7813 4093.3594,832.7813 C4091.3125,832.7813 4090.0156,831.6875 4090.0156,829.9844 L4090.0156,828.8906 C4090.0156,827.1094 4091.2656,825.7969 4093,825.7969 C4093.5781,825.7969 4094.1875,825.9531 4094.6563,826.2031 C4095.1406,826.4844 4095.3125,826.7031 4095.4063,827.1094 C4095.4688,827.5156 4095.5,827.6406 4095.6406,827.7656 C4095.7813,827.9063 4096.0156,828.0156 4096.2344,828.0156 C4096.5,828.0156 4096.7656,827.875 4096.9375,827.6563 C4097.0469,827.5 4097.0781,827.3125 4097.0781,826.8906 L4097.0781,825.4688 C4097.0781,825.0313 4097.0625,824.9063 4096.9688,824.75 C4096.8125,824.4844 4096.5313,824.3438 4096.2344,824.3438 C4095.9375,824.3438 4095.7344,824.4375 4095.5156,824.75 L4095.3438,824.6719 Z " fill="#000000"/><text fill="#000000" font-family="sans-serif" font-size="14" lengthAdjust="spacing" textLength="46" x="4107" y="833.8467">Radius</text><line style="stroke:#181818;stroke-width:0.5;" x1="4079" x2="4155" y1="845" y2="845"/><line style="stroke:#181818;stroke-width:0.5;" x1="4079" x2="4155" y1="853" y2="853"/></g><!--class StatelessWidget--><g id="elem_StatelessWidget"><rect fill="#F1F1F1" height="48" id="StatelessWidget" rx="2.5" ry="2.5" style="stroke:#181818;stroke-width:0.5;" width="151" x="1135.5" y="170"/><ellipse cx="1150.5" cy="186" fill="#ADD1B2" rx="11" ry="11" style="stroke:#181818;stroke-width:1.0;"/><path d="M1152.8438,181.6719 C1151.9063,181.2344 1151.3125,181.0938 1150.4375,181.0938 C1147.8125,181.0938 1145.8125,183.1719 1145.8125,185.8906 L1145.8125,187.0156 C1145.8125,189.5938 1147.9219,191.4844 1150.8125,191.4844 C1152.0313,191.4844 1153.1875,191.1875 1153.9375,190.6406 C1154.5156,190.2344 1154.8438,189.7813 1154.8438,189.3906 C1154.8438,188.9375 1154.4531,188.5469 1153.9844,188.5469 C1153.7656,188.5469 1153.5625,188.625 1153.375,188.8125 C1152.9219,189.2969 1152.9219,189.2969 1152.7344,189.3906 C1152.3125,189.6563 1151.625,189.7813 1150.8594,189.7813 C1148.8125,189.7813 1147.5156,188.6875 1147.5156,186.9844 L1147.5156,185.8906 C1147.5156,184.1094 1148.7656,182.7969 1150.5,182.7969 C1151.0781,182.7969 1151.6875,182.9531 1152.1563,183.2031 C1152.6406,183.4844 1152.8125,183.7031 1152.9063,184.1094 C1152.9688,184.5156 1153,184.6406 1153.1406,184.7656 C1153.2813,184.9063 1153.5156,185.0156 1153.7344,185.0156 C1154,185.0156 1154.2656,184.875 1154.4375,184.6563 C1154.5469,184.5 1154.5781,184.3125 1154.5781,183.8906 L1154.5781,182.4688 C1154.5781,182.0313 1154.5625,181.9063 1154.4688,181.75 C1154.3125,181.4844 1154.0313,181.3438 1153.7344,181.3438 C1153.4375,181.3438 1153.2344,181.4375 1153.0156,181.75 L1152.8438,181.6719 Z " fill="#000000"/><text fill="#000000" font-family="sans-serif" font-size="14" lengthAdjust="spacing" textLength="119" x="1164.5" y="190.8467">StatelessWidget</text><line style="stroke:#181818;stroke-width:0.5;" x1="1136.5" x2="1285.5" y1="202" y2="202"/><line style="stroke:#181818;stroke-width:0.5;" x1="1136.5" x2="1285.5" y1="210" y2="210"/></g><!--class StatefulWidget--><g id="elem_StatefulWidget"><rect fill="#F1F1F1" height="48" id="StatefulWidget" rx="2.5" ry="2.5" style="stroke:#181818;stroke-width:0.5;" width="142" x="1322" y="170"/><ellipse cx="1337" cy="186" fill="#ADD1B2" rx="11" ry="11" style="stroke:#181818;stroke-width:1.0;"/><path d="M1339.3438,181.6719 C1338.4063,181.2344 1337.8125,181.0938 1336.9375,181.0938 C1334.3125,181.0938 1332.3125,183.1719 1332.3125,185.8906 L1332.3125,187.0156 C1332.3125,189.5938 1334.4219,191.4844 1337.3125,191.4844 C1338.5313,191.4844 1339.6875,191.1875 1340.4375,190.6406 C1341.0156,190.2344 1341.3438,189.7813 1341.3438,189.3906 C1341.3438,188.9375 1340.9531,188.5469 1340.4844,188.5469 C1340.2656,188.5469 1340.0625,188.625 1339.875,188.8125 C1339.4219,189.2969 1339.4219,189.2969 1339.2344,189.3906 C1338.8125,189.6563 1338.125,189.7813 1337.3594,189.7813 C1335.3125,189.7813 1334.0156,188.6875 1334.0156,186.9844 L1334.0156,185.8906 C1334.0156,184.1094 1335.2656,182.7969 1337,182.7969 C1337.5781,182.7969 1338.1875,182.9531 1338.6563,183.2031 C1339.1406,183.4844 1339.3125,183.7031 1339.4063,184.1094 C1339.4688,184.5156 1339.5,184.6406 1339.6406,184.7656 C1339.7813,184.9063 1340.0156,185.0156 1340.2344,185.0156 C1340.5,185.0156 1340.7656,184.875 1340.9375,184.6563 C1341.0469,184.5 1341.0781,184.3125 1341.0781,183.8906 L1341.0781,182.4688 C1341.0781,182.0313 1341.0625,181.9063 1340.9688,181.75 C1340.8125,181.4844 1340.5313,181.3438 1340.2344,181.3438 C1339.9375,181.3438 1339.7344,181.4375 1339.5156,181.75 L1339.3438,181.6719 Z " fill="#000000"/><text fill="#000000" font-family="sans-serif" font-size="14" lengthAdjust="spacing" textLength="110" x="1351" y="190.8467">StatefulWidget</text><line style="stroke:#181818;stroke-width:0.5;" x1="1323" x2="1463" y1="202" y2="202"/><line style="stroke:#181818;stroke-width:0.5;" x1="1323" x2="1463" y1="210" y2="210"/></g><!--class State--><g id="elem_State"><rect fill="#F1F1F1" height="48" id="State" rx="2.5" ry="2.5" style="stroke:#181818;stroke-width:0.5;" width="72" x="1760" y="170"/><ellipse cx="1775" cy="186" fill="#ADD1B2" rx="11" ry="11" style="stroke:#181818;stroke-width:1.0;"/><path d="M1777.3438,181.6719 C1776.4063,181.2344 1775.8125,181.0938 1774.9375,181.0938 C1772.3125,181.0938 1770.3125,183.1719 1770.3125,185.8906 L1770.3125,187.0156 C1770.3125,189.5938 1772.4219,191.4844 1775.3125,191.4844 C1776.5313,191.4844 1777.6875,191.1875 1778.4375,190.6406 C1779.0156,190.2344 1779.3438,189.7813 1779.3438,189.3906 C1779.3438,188.9375 1778.9531,188.5469 1778.4844,188.5469 C1778.2656,188.5469 1778.0625,188.625 1777.875,188.8125 C1777.4219,189.2969 1777.4219,189.2969 1777.2344,189.3906 C1776.8125,189.6563 1776.125,189.7813 1775.3594,189.7813 C1773.3125,189.7813 1772.0156,188.6875 1772.0156,186.9844 L1772.0156,185.8906 C1772.0156,184.1094 1773.2656,182.7969 1775,182.7969 C1775.5781,182.7969 1776.1875,182.9531 1776.6563,183.2031 C1777.1406,183.4844 1777.3125,183.7031 1777.4063,184.1094 C1777.4688,184.5156 1777.5,184.6406 1777.6406,184.7656 C1777.7813,184.9063 1778.0156,185.0156 1778.2344,185.0156 C1778.5,185.0156 1778.7656,184.875 1778.9375,184.6563 C1779.0469,184.5 1779.0781,184.3125 1779.0781,183.8906 L1779.0781,182.4688 C1779.0781,182.0313 1779.0625,181.9063 1778.9688,181.75 C1778.8125,181.4844 1778.5313,181.3438 1778.2344,181.3438 C1777.9375,181.3438 1777.7344,181.4375 1777.5156,181.75 L1777.3438,181.6719 Z " fill="#000000"/><text fill="#000000" font-family="sans-serif" font-size="14" lengthAdjust="spacing" textLength="40" x="1789" y="190.8467">State</text><line style="stroke:#181818;stroke-width:0.5;" x1="1761" x2="1831" y1="202" y2="202"/><line style="stroke:#181818;stroke-width:0.5;" x1="1761" x2="1831" y1="210" y2="210"/></g><!--class GlobalKey<ScaffoldState>--><g id="elem_GlobalKey&lt;ScaffoldState&gt;"><rect fill="#F1F1F1" height="48" id="GlobalKey&lt;ScaffoldState&gt;" rx="2.5" ry="2.5" style="stroke:#181818;stroke-width:0.5;" width="226" x="1499" y="170"/><ellipse cx="1514" cy="186" fill="#ADD1B2" rx="11" ry="11" style="stroke:#181818;stroke-width:1.0;"/><path d="M1516.3438,181.6719 C1515.4063,181.2344 1514.8125,181.0938 1513.9375,181.0938 C1511.3125,181.0938 1509.3125,183.1719 1509.3125,185.8906 L1509.3125,187.0156 C1509.3125,189.5938 1511.4219,191.4844 1514.3125,191.4844 C1515.5313,191.4844 1516.6875,191.1875 1517.4375,190.6406 C1518.0156,190.2344 1518.3438,189.7813 1518.3438,189.3906 C1518.3438,188.9375 1517.9531,188.5469 1517.4844,188.5469 C1517.2656,188.5469 1517.0625,188.625 1516.875,188.8125 C1516.4219,189.2969 1516.4219,189.2969 1516.2344,189.3906 C1515.8125,189.6563 1515.125,189.7813 1514.3594,189.7813 C1512.3125,189.7813 1511.0156,188.6875 1511.0156,186.9844 L1511.0156,185.8906 C1511.0156,184.1094 1512.2656,182.7969 1514,182.7969 C1514.5781,182.7969 1515.1875,182.9531 1515.6563,183.2031 C1516.1406,183.4844 1516.3125,183.7031 1516.4063,184.1094 C1516.4688,184.5156 1516.5,184.6406 1516.6406,184.7656 C1516.7813,184.9063 1517.0156,185.0156 1517.2344,185.0156 C1517.5,185.0156 1517.7656,184.875 1517.9375,184.6563 C1518.0469,184.5 1518.0781,184.3125 1518.0781,183.8906 L1518.0781,182.4688 C1518.0781,182.0313 1518.0625,181.9063 1517.9688,181.75 C1517.8125,181.4844 1517.5313,181.3438 1517.2344,181.3438 C1516.9375,181.3438 1516.7344,181.4375 1516.5156,181.75 L1516.3438,181.6719 Z " fill="#000000"/><text fill="#000000" font-family="sans-serif" font-size="14" lengthAdjust="spacing" textLength="194" x="1528" y="190.8467">GlobalKey&lt;ScaffoldState&gt;</text><line style="stroke:#181818;stroke-width:0.5;" x1="1500" x2="1724" y1="202" y2="202"/><line style="stroke:#181818;stroke-width:0.5;" x1="1500" x2="1724" y1="210" y2="210"/></g><!--class WidgetsBindingObserver--><g id="elem_WidgetsBindingObserver"><rect fill="#F1F1F1" height="48" id="WidgetsBindingObserver" rx="2.5" ry="2.5" style="stroke:#181818;stroke-width:0.5;" width="211" x="1888.5" y="170"/><ellipse cx="1903.5" cy="186" fill="#ADD1B2" rx="11" ry="11" style="stroke:#181818;stroke-width:1.0;"/><path d="M1905.8438,181.6719 C1904.9063,181.2344 1904.3125,181.0938 1903.4375,181.0938 C1900.8125,181.0938 1898.8125,183.1719 1898.8125,185.8906 L1898.8125,187.0156 C1898.8125,189.5938 1900.9219,191.4844 1903.8125,191.4844 C1905.0313,191.4844 1906.1875,191.1875 1906.9375,190.6406 C1907.5156,190.2344 1907.8438,189.7813 1907.8438,189.3906 C1907.8438,188.9375 1907.4531,188.5469 1906.9844,188.5469 C1906.7656,188.5469 1906.5625,188.625 1906.375,188.8125 C1905.9219,189.2969 1905.9219,189.2969 1905.7344,189.3906 C1905.3125,189.6563 1904.625,189.7813 1903.8594,189.7813 C1901.8125,189.7813 1900.5156,188.6875 1900.5156,186.9844 L1900.5156,185.8906 C1900.5156,184.1094 1901.7656,182.7969 1903.5,182.7969 C1904.0781,182.7969 1904.6875,182.9531 1905.1563,183.2031 C1905.6406,183.4844 1905.8125,183.7031 1905.9063,184.1094 C1905.9688,184.5156 1906,184.6406 1906.1406,184.7656 C1906.2813,184.9063 1906.5156,185.0156 1906.7344,185.0156 C1907,185.0156 1907.2656,184.875 1907.4375,184.6563 C1907.5469,184.5 1907.5781,184.3125 1907.5781,183.8906 L1907.5781,182.4688 C1907.5781,182.0313 1907.5625,181.9063 1907.4688,181.75 C1907.3125,181.4844 1907.0313,181.3438 1906.7344,181.3438 C1906.4375,181.3438 1906.2344,181.4375 1906.0156,181.75 L1905.8438,181.6719 Z " fill="#000000"/><text fill="#000000" font-family="sans-serif" font-size="14" lengthAdjust="spacing" textLength="179" x="1917.5" y="190.8467">WidgetsBindingObserver</text><line style="stroke:#181818;stroke-width:0.5;" x1="1889.5" x2="2098.5" y1="202" y2="202"/><line style="stroke:#181818;stroke-width:0.5;" x1="1889.5" x2="2098.5" y1="210" y2="210"/></g><!--class BorderRadius--><g id="elem_BorderRadius"><rect fill="#F1F1F1" height="48" id="BorderRadius" rx="2.5" ry="2.5" style="stroke:#181818;stroke-width:0.5;" width="127" x="2204.5" y="170"/><ellipse cx="2219.5" cy="186" fill="#ADD1B2" rx="11" ry="11" style="stroke:#181818;stroke-width:1.0;"/><path d="M2221.8438,181.6719 C2220.9063,181.2344 2220.3125,181.0938 2219.4375,181.0938 C2216.8125,181.0938 2214.8125,183.1719 2214.8125,185.8906 L2214.8125,187.0156 C2214.8125,189.5938 2216.9219,191.4844 2219.8125,191.4844 C2221.0313,191.4844 2222.1875,191.1875 2222.9375,190.6406 C2223.5156,190.2344 2223.8438,189.7813 2223.8438,189.3906 C2223.8438,188.9375 2223.4531,188.5469 2222.9844,188.5469 C2222.7656,188.5469 2222.5625,188.625 2222.375,188.8125 C2221.9219,189.2969 2221.9219,189.2969 2221.7344,189.3906 C2221.3125,189.6563 2220.625,189.7813 2219.8594,189.7813 C2217.8125,189.7813 2216.5156,188.6875 2216.5156,186.9844 L2216.5156,185.8906 C2216.5156,184.1094 2217.7656,182.7969 2219.5,182.7969 C2220.0781,182.7969 2220.6875,182.9531 2221.1563,183.2031 C2221.6406,183.4844 2221.8125,183.7031 2221.9063,184.1094 C2221.9688,184.5156 2222,184.6406 2222.1406,184.7656 C2222.2813,184.9063 2222.5156,185.0156 2222.7344,185.0156 C2223,185.0156 2223.2656,184.875 2223.4375,184.6563 C2223.5469,184.5 2223.5781,184.3125 2223.5781,183.8906 L2223.5781,182.4688 C2223.5781,182.0313 2223.5625,181.9063 2223.4688,181.75 C2223.3125,181.4844 2223.0313,181.3438 2222.7344,181.3438 C2222.4375,181.3438 2222.2344,181.4375 2222.0156,181.75 L2221.8438,181.6719 Z " fill="#000000"/><text fill="#000000" font-family="sans-serif" font-size="14" lengthAdjust="spacing" textLength="95" x="2233.5" y="190.8467">BorderRadius</text><line style="stroke:#181818;stroke-width:0.5;" x1="2205.5" x2="2330.5" y1="202" y2="202"/><line style="stroke:#181818;stroke-width:0.5;" x1="2205.5" x2="2330.5" y1="210" y2="210"/></g><!--class dynamic Function(List<ResultObjectDetection>)--><g id="elem_dynamic Function(List&lt;ResultObjectDetection&gt;)"><rect fill="#F1F1F1" height="48" id="dynamic Function(List&lt;ResultObjectDetection&gt;)" rx="2.5" ry="2.5" style="stroke:#181818;stroke-width:0.5;" width="383" x="4438.5" y="813"/><ellipse cx="4453.5" cy="829" fill="#ADD1B2" rx="11" ry="11" style="stroke:#181818;stroke-width:1.0;"/><path d="M4455.8438,824.6719 C4454.9063,824.2344 4454.3125,824.0938 4453.4375,824.0938 C4450.8125,824.0938 4448.8125,826.1719 4448.8125,828.8906 L4448.8125,830.0156 C4448.8125,832.5938 4450.9219,834.4844 4453.8125,834.4844 C4455.0313,834.4844 4456.1875,834.1875 4456.9375,833.6406 C4457.5156,833.2344 4457.8438,832.7813 4457.8438,832.3906 C4457.8438,831.9375 4457.4531,831.5469 4456.9844,831.5469 C4456.7656,831.5469 4456.5625,831.625 4456.375,831.8125 C4455.9219,832.2969 4455.9219,832.2969 4455.7344,832.3906 C4455.3125,832.6563 4454.625,832.7813 4453.8594,832.7813 C4451.8125,832.7813 4450.5156,831.6875 4450.5156,829.9844 L4450.5156,828.8906 C4450.5156,827.1094 4451.7656,825.7969 4453.5,825.7969 C4454.0781,825.7969 4454.6875,825.9531 4455.1563,826.2031 C4455.6406,826.4844 4455.8125,826.7031 4455.9063,827.1094 C4455.9688,827.5156 4456,827.6406 4456.1406,827.7656 C4456.2813,827.9063 4456.5156,828.0156 4456.7344,828.0156 C4457,828.0156 4457.2656,827.875 4457.4375,827.6563 C4457.5469,827.5 4457.5781,827.3125 4457.5781,826.8906 L4457.5781,825.4688 C4457.5781,825.0313 4457.5625,824.9063 4457.4688,824.75 C4457.3125,824.4844 4457.0313,824.3438 4456.7344,824.3438 C4456.4375,824.3438 4456.2344,824.4375 4456.0156,824.75 L4455.8438,824.6719 Z " fill="#000000"/><text fill="#000000" font-family="sans-serif" font-size="14" lengthAdjust="spacing" textLength="351" x="4467.5" y="833.8467">dynamic Function(List&lt;ResultObjectDetection&gt;)</text><line style="stroke:#181818;stroke-width:0.5;" x1="4439.5" x2="4820.5" y1="845" y2="845"/><line style="stroke:#181818;stroke-width:0.5;" x1="4439.5" x2="4820.5" y1="853" y2="853"/></g><!--class CameraController--><g id="elem_CameraController"><rect fill="#F1F1F1" height="48" id="CameraController" rx="2.5" ry="2.5" style="stroke:#181818;stroke-width:0.5;" width="160" x="4926" y="813"/><ellipse cx="4941" cy="829" fill="#ADD1B2" rx="11" ry="11" style="stroke:#181818;stroke-width:1.0;"/><path d="M4943.3438,824.6719 C4942.4063,824.2344 4941.8125,824.0938 4940.9375,824.0938 C4938.3125,824.0938 4936.3125,826.1719 4936.3125,828.8906 L4936.3125,830.0156 C4936.3125,832.5938 4938.4219,834.4844 4941.3125,834.4844 C4942.5313,834.4844 4943.6875,834.1875 4944.4375,833.6406 C4945.0156,833.2344 4945.3438,832.7813 4945.3438,832.3906 C4945.3438,831.9375 4944.9531,831.5469 4944.4844,831.5469 C4944.2656,831.5469 4944.0625,831.625 4943.875,831.8125 C4943.4219,832.2969 4943.4219,832.2969 4943.2344,832.3906 C4942.8125,832.6563 4942.125,832.7813 4941.3594,832.7813 C4939.3125,832.7813 4938.0156,831.6875 4938.0156,829.9844 L4938.0156,828.8906 C4938.0156,827.1094 4939.2656,825.7969 4941,825.7969 C4941.5781,825.7969 4942.1875,825.9531 4942.6563,826.2031 C4943.1406,826.4844 4943.3125,826.7031 4943.4063,827.1094 C4943.4688,827.5156 4943.5,827.6406 4943.6406,827.7656 C4943.7813,827.9063 4944.0156,828.0156 4944.2344,828.0156 C4944.5,828.0156 4944.7656,827.875 4944.9375,827.6563 C4945.0469,827.5 4945.0781,827.3125 4945.0781,826.8906 L4945.0781,825.4688 C4945.0781,825.0313 4945.0625,824.9063 4944.9688,824.75 C4944.8125,824.4844 4944.5313,824.3438 4944.2344,824.3438 C4943.9375,824.3438 4943.7344,824.4375 4943.5156,824.75 L4943.3438,824.6719 Z " fill="#000000"/><text fill="#000000" font-family="sans-serif" font-size="14" lengthAdjust="spacing" textLength="128" x="4955" y="833.8467">CameraController</text><line style="stroke:#181818;stroke-width:0.5;" x1="4927" x2="5085" y1="845" y2="845"/><line style="stroke:#181818;stroke-width:0.5;" x1="4927" x2="5085" y1="853" y2="853"/></g><!--reverse link BoxWidget to ResultObjectDetection--><g id="link_BoxWidget_ResultObjectDetection"><path codeLine="10" d="M2201.18,596.112 C2231.26,625.478 2270.35,657.628 2312,676 C2529.17,771.79 3253.62,817.413 3520.33,831.262 " fill="none" id="BoxWidget-backto-ResultObjectDetection" style="stroke:#181818;stroke-width:1.0;"/><polygon fill="none" points="2191.74,586.697,2193.1614,593.7666,2200.2338,595.1737,2198.8125,588.1041,2191.74,586.697" style="stroke:#181818;stroke-width:1.0;"/></g><!--reverse link BoxWidget to Color--><g id="link_BoxWidget_Color"><path codeLine="11" d="M2198.6,596.563 C2228.67,626.921 2268.52,659.799 2312,676 C2336.23,685.03 4152.99,668.916 4174,684 C4215.35,713.688 4224.17,778.296 4225.83,812.948 " fill="none" id="BoxWidget-backto-Color" style="stroke:#181818;stroke-width:1.0;"/><polygon fill="none" points="2189.18,586.82,2190.4693,593.9149,2197.5144,595.4536,2196.225,588.3587,2189.18,586.82" style="stroke:#181818;stroke-width:1.0;"/></g><!--reverse link StatelessWidget to BoxWidget--><g id="link_StatelessWidget_BoxWidget"><path codeLine="12" d="M1230.53,235.796 C1246.17,263.379 1270.97,297.651 1304,314 C1337.86,330.759 1950.21,305.1 1984,322 C2047.22,353.623 2092.44,423.572 2118.11,473.395 " fill="none" id="StatelessWidget-backto-BoxWidget" style="stroke:#181818;stroke-width:1.0;"/><polygon fill="none" points="1224.32,239.025,1221.17,218.07,1236.7,232.488,1224.32,239.025" style="stroke:#181818;stroke-width:1.0;"/></g><!--reverse link CameraView to dynamic Function(List<ResultObjectDetection>)--><g id="link_CameraView_dynamic Function(List&lt;ResultObjectDetection&gt;)"><path codeLine="20" d="M2909.19,585.769 C2960.19,618.981 3030.32,658.268 3099,676 C3167.59,693.709 4305.75,665.035 4374,684 C4465.63,709.463 4557.79,776.847 4602.39,812.735 " fill="none" id="CameraView-backto-dynamic Function(List&lt;ResultObjectDetection&gt;)" style="stroke:#181818;stroke-width:1.0;"/><polygon fill="none" points="2898.28,578.567,2901.0855,585.21,2908.2965,585.1752,2905.491,578.5323,2898.28,578.567" style="stroke:#181818;stroke-width:1.0;"/></g><!--reverse link CameraView to Model--><g id="link_CameraView_Model"><path codeLine="21" d="M2744.01,585.168 C2688.42,616.55 2614.29,654.075 2544,676 C2187.12,787.318 1743.01,821.397 1530.55,831.669 " fill="none" id="CameraView-backto-Model" style="stroke:#181818;stroke-width:1.0;"/><polygon fill="none" points="2755.58,578.572,2748.3864,578.0706,2745.1567,584.518,2752.3504,585.0194,2755.58,578.572" style="stroke:#181818;stroke-width:1.0;"/></g><!--reverse link StatefulWidget to CameraView--><g id="link_StatefulWidget_CameraView"><path codeLine="22" d="M1411.12,236.173 C1425.67,263.678 1448.97,297.696 1481,314 C1507.32,327.394 2515.92,312.864 2544,322 C2640.84,353.505 2732.9,430.39 2786.12,481.07 " fill="none" id="StatefulWidget-backto-CameraView" style="stroke:#181818;stroke-width:1.0;"/><polygon fill="none" points="1404.76,239.099,1402.26,218.057,1417.33,232.949,1404.76,239.099" style="stroke:#181818;stroke-width:1.0;"/></g><!--reverse link _CameraViewState to CameraController--><g id="link__CameraViewState_CameraController"><path codeLine="39" d="M3428.94,533.994 C3778.45,542.482 4588.69,573.789 4838,684 C4903.65,713.023 4961.08,777.914 4988.64,812.783 " fill="none" id="_CameraViewState-backto-CameraController" style="stroke:#181818;stroke-width:1.0;"/><polygon fill="none" points="3415.69,533.678,3421.5915,537.8219,3427.6865,533.9681,3421.785,529.8242,3415.69,533.678" style="stroke:#181818;stroke-width:1.0;"/></g><!--reverse link _CameraViewState to ModelObjectDetection--><g id="link__CameraViewState_ModelObjectDetection"><path codeLine="40" d="M3428.31,562.034 C3523.3,585.33 3642.54,623.783 3736,684 C3790.11,718.863 3836.85,779.846 3859.83,812.983 " fill="none" id="_CameraViewState-backto-ModelObjectDetection" style="stroke:#181818;stroke-width:1.0;"/><polygon fill="none" points="3415.67,558.987,3420.567,564.2803,3427.3366,561.7959,3422.4396,556.5025,3415.67,558.987" style="stroke:#181818;stroke-width:1.0;"/></g><!--reverse link State to _CameraViewState--><g id="link_State__CameraViewState"><path codeLine="41" d="M1810.75,237.277 C1822.69,264.474 1842.44,297.68 1872,314 C1901.84,330.475 3068.3,307.198 3099,322 C3138.1,340.849 3171,373.765 3196.98,407.876 " fill="none" id="State-backto-_CameraViewState" style="stroke:#181818;stroke-width:1.0;"/><polygon fill="none" points="1804.15,239.617,1803.26,218.446,1817.15,234.441,1804.15,239.617" style="stroke:#181818;stroke-width:1.0;"/></g><!--reverse link WidgetsBindingObserver to _CameraViewState--><g id="link_WidgetsBindingObserver__CameraViewState"><path codeLine="42" d="M2036.85,230.834 C2074.13,259.544 2130.99,297.637 2188,314 C2212.32,320.981 3076.22,310.984 3099,322 C3138.08,340.894 3170.97,373.821 3196.96,407.929 " fill="none" id="WidgetsBindingObserver-backto-_CameraViewState" style="stroke:#181818;stroke-width:1.0;"/><polygon fill="none" points="2032.26,236.125,2020.93,218.218,2040.95,225.152,2032.26,236.125" style="stroke:#181818;stroke-width:1.0;"/></g><!--reverse link CameraViewSingleton to Size--><g id="link_CameraViewSingleton_Size"><path codeLine="52" d="M2479,604.962 C2502.53,632.681 2533.04,661.06 2568,676 C2589.85,685.337 4259.87,669.908 4279,684 C4319.55,713.867 4326.71,778.093 4327.45,812.727 " fill="none" id="CameraViewSingleton-backto-Size" style="stroke:#181818;stroke-width:1.0;"/><polygon fill="none" points="2470.65,594.806,2471.3702,601.981,2478.2703,604.0759,2477.5501,596.9008,2470.65,594.806" style="stroke:#181818;stroke-width:1.0;"/></g><!--reverse link StatelessWidget to ModelManagementApp--><g id="link_StatelessWidget_ModelManagementApp"><path codeLine="58" d="M1115.16,197.196 C902.83,203.727 400.683,228.862 263,322 C200.77,364.097 167.888,450.962 154.077,497.663 " fill="none" id="StatelessWidget-backto-ModelManagementApp" style="stroke:#181818;stroke-width:1.0;"/><polygon fill="none" points="1115.19,190.192,1135.39,196.603,1115.6,204.186,1115.19,190.192" style="stroke:#181818;stroke-width:1.0;"/></g><!--reverse link StatefulWidget to ModelListScreen--><g id="link_StatefulWidget_ModelListScreen"><path codeLine="64" d="M1374.54,236.15 C1359.76,263.644 1336.18,297.658 1304,314 C1268.68,331.938 626.566,304.556 591,322 C515.257,359.15 463.672,449.834 440.647,497.904 " fill="none" id="StatefulWidget-backto-ModelListScreen" style="stroke:#181818;stroke-width:1.0;"/><polygon fill="none" points="1368.37,232.83,1383.55,218.042,1380.91,239.067,1368.37,232.83" style="stroke:#181818;stroke-width:1.0;"/></g><!--reverse link _ModelListScreenState to ModelManager--><g id="link__ModelListScreenState_ModelManager"><path codeLine="77" d="M833.008,628.066 C851.38,644.399 870.539,660.927 889,676 C925.638,705.914 967.203,737.064 1004.14,763.844 " fill="none" id="_ModelListScreenState-backto-ModelManager" style="stroke:#181818;stroke-width:1.0;"/><polygon fill="none" points="823.187,619.289,824.9952,626.2697,832.1343,627.2856,830.3262,620.3048,823.187,619.289" style="stroke:#181818;stroke-width:1.0;"/></g><!--reverse link State to _ModelListScreenState--><g id="link_State__ModelListScreenState"><path codeLine="78" d="M1788.53,237.999 C1781.43,264.768 1767.8,297.201 1742,314 C1722.14,326.928 910.221,311.458 889,322 C838.457,347.109 799.286,396.607 772.354,440.904 " fill="none" id="State-backto-_ModelListScreenState" style="stroke:#181818;stroke-width:1.0;"/><polygon fill="none" points="1781.77,236.159,1792.94,218.152,1795.43,239.194,1781.77,236.159" style="stroke:#181818;stroke-width:1.0;"/></g><!--reverse link RunModelByCamera to Model--><g id="link_RunModelByCamera_Model"><path codeLine="104" d="M1406,583.597 C1406,631.033 1406,701.498 1406,755.929 " fill="none" id="RunModelByCamera-backto-Model" style="stroke:#181818;stroke-width:1.0;"/><polygon fill="none" points="1406,570.561,1402,576.561,1406,582.561,1410,576.561,1406,570.561" style="stroke:#181818;stroke-width:1.0;"/></g><!--reverse link StatefulWidget to RunModelByCamera--><g id="link_StatefulWidget_RunModelByCamera"><path codeLine="105" d="M1394.69,238.38 C1397.23,303.72 1402.01,426.432 1404.46,489.446 " fill="none" id="StatefulWidget-backto-RunModelByCamera" style="stroke:#181818;stroke-width:1.0;"/><polygon fill="none" points="1387.69,238.478,1393.9,218.221,1401.68,237.934,1387.69,238.478" style="stroke:#181818;stroke-width:1.0;"/></g><!--reverse link _RunModelByCameraState to GlobalKey<ScaffoldState>--><g id="link__RunModelByCameraState_GlobalKey&lt;ScaffoldState&gt;"><path codeLine="121" d="M1719.85,404.422 C1684.42,335.624 1643.69,256.539 1623.96,218.221 " fill="none" id="_RunModelByCameraState-backto-GlobalKey&lt;ScaffoldState&gt;" style="stroke:#181818;stroke-width:1.0;"/><polygon fill="none" points="1725.94,416.248,1726.7493,409.0825,1720.4462,405.5795,1719.6369,412.745,1725.94,416.248" style="stroke:#181818;stroke-width:1.0;"/></g><!--reverse link _RunModelByCameraState to Radius--><g id="link__RunModelByCameraState_Radius"><path codeLine="122" d="M1944.75,649.865 C1965.24,660.485 1986.56,669.619 2008,676 C2034.38,683.852 3965.09,672.29 3990,684 C4047.11,710.843 4087.6,777.301 4105.95,812.791 " fill="none" id="_RunModelByCameraState-backto-Radius" style="stroke:#181818;stroke-width:1.0;"/><polygon fill="none" points="1933.13,643.636,1936.5281,649.9962,1943.7061,649.3058,1940.308,642.9455,1933.13,643.636" style="stroke:#181818;stroke-width:1.0;"/></g><!--reverse link _RunModelByCameraState to BorderRadius--><g id="link__RunModelByCameraState_BorderRadius"><path codeLine="123" d="M1886.89,406.992 C1921.74,373.676 1963.28,341.436 2008,322 C2052.14,302.816 2071.11,331.364 2116,314 C2169.76,293.204 2219.9,246.634 2247.01,218.312 " fill="none" id="_RunModelByCameraState-backto-BorderRadius" style="stroke:#181818;stroke-width:1.0;"/><polygon fill="none" points="1877.24,416.408,1884.3284,415.0835,1885.8321,408.0309,1878.7437,409.3554,1877.24,416.408" style="stroke:#181818;stroke-width:1.0;"/></g><!--reverse link State to _RunModelByCameraState--><g id="link_State__RunModelByCameraState"><path codeLine="124" d="M1794.44,238.473 C1792.83,283.35 1790.24,355.221 1788.05,416.248 " fill="none" id="State-backto-_RunModelByCameraState" style="stroke:#181818;stroke-width:1.0;"/><polygon fill="none" points="1787.45,237.957,1795.17,218.221,1801.44,238.46,1787.45,237.957" style="stroke:#181818;stroke-width:1.0;"/></g><!--reverse link StatelessWidget to ResultsRow--><g id="link_StatelessWidget_ResultsRow"><path codeLine="131" d="M1192.03,236.685 C1162.5,301.576 1105.93,425.883 1077,489.446 " fill="none" id="StatelessWidget-backto-ResultsRow" style="stroke:#181818;stroke-width:1.0;"/><polygon fill="none" points="1185.78,233.525,1200.43,218.221,1198.52,239.324,1185.78,233.525" style="stroke:#181818;stroke-width:1.0;"/></g><!--SRC=[nLZTS-8s47_dhz3mT9ahVUYZ9qCcGDAxDcaoaBQF7baIH3qXUIGPZjxT_zxLXuqn672EjY-9lQlz_krgZM4MIRna9iU4pLYEDRPAeoJfzOZ0ng2-olvYnAQKMVZ7bKoIJ7rErvmkcFsHOcsJPAG-_-dV- -XB3w7tKsOAOP-yuAIKGzfJ7N-iXD8t2FGmuvyTCLDA8FEgrizC4oOjNZ173efHLd11trtrllLw7JrIWm7gpqLXBTDfle7eo6kIv7p1b8od3_hRVvEXG2rualZ0G4aqdIH6aoG9mYP9vXgolbRwKrGqizWomOmfrLr_TVewkN2aPWIiQPokE5j7iR6d_064M3Mw0I1mWkuBwONUFN1Zhm_cvcPu5SjfnbY839DFJiEZeaoWfVlhNjEj2HyT8fh1F__SMihZZleSoqA89EdWxl2g_qPJ-q8-kdI99U1JHp4VTyTIpmjngj97_UjKwsObOiLznW9hmWpHFFVPGa61yQtg7yTAMgs4OD2rf46fUZVNZ79mGIw0DF0vQS86fS7Rnn8YAyKfufBR4XH0kozieTbrhEyG2OMf5mZiNP5Riv6amU1OyBzPy3om6aEa1dOb7q2BiH-NKC_R5UO2PuBL559EnwzO0ZFF7_YSaGqHhEPjF6HoPRg0UhyY7c_XO0HGb29LgdTGiAr0_xjCxet61g6EyVqHsGNoNP2-vsohgOnB2fYBSg7IPXI8JvbXUWKP-YxBPtLQQi2UOBQwL6fgIavekoy6r7Bo3K2e2W0RWYkNgnt63F2Be24Pa-vndyTbNWJC7kPZOWiidZLRUVjd7Vbm6hpd1Tcu29tkOqbSOYxh87lqitK9Am2qN9nK1xQ0Iz-hnzteuB-RgZDVk-XysY2tNOONlZwE-7LUD0VzhbyTdZyC5xwf5e2GE1t8yQLbrWyyBQqclAbJ3LwnVIgyWxFR-o2ICQM_iRKdJs3-gyN1mNyOuAT3xheBnAWlDXzFUdYieAqBIwZap6feNVyHK1Ksq60HS4gPgUXSsc6OFN6cl0SAagIcXsuNYHfrpWLxnlRLWmJdqS0FgBhahVh5m0xdIzGzb3BVFg91N23A801U10PTi5uoxy4XO2tBP3hhZbPRG1omXgY1mf9PmtzjGp7rdM0BLATuHpgepi4_Uoj4TSQSY7zQI7zsj0bpj_nyQP1ZOPlRUFFO-JlvsNR__vtvN5UxP_bm_khZiELJwQRyLDhsmqteB3xd19UTyhDG6HQ_iitrZE3vN0dg3G02uokmTcxnAQQyC6ZqzFBoz9ZEFjpTlQJJsyd7tsSxnqPAKwQhmzF9tJGUI-kYnoTqaLEWFE2i3kRzhRgagCAlNoFtWVzJhISQtupjdF5EUhe2iwrKzNtt5E3Qoj6_b1_R1IdKfl_l19Z3rU6-oTmF1mu8gVRMgjyEjk2us6tLpUatpBk0bQbQT-s-_s2DFEtpFm00]--></g></svg>