<?xml version="1.0" encoding="us-ascii" standalone="no"?><svg xmlns="http://www.w3.org/2000/svg" xmlns:xlink="http://www.w3.org/1999/xlink" contentStyleType="text/css" height="1032px" preserveAspectRatio="none" style="width:5259px;height:1032px;background:#FFFFFF;" version="1.1" viewBox="0 0 5259 1032" width="5259px" zoomAndPan="magnify"><defs/><g><!--cluster ui--><g id="cluster_ui"><path d="M8.5,330 L24.5,330 A3.75,3.75 0 0 1 27,332.5 L34,352.2969 L3544.5,352.2969 A2.5,2.5 0 0 1 3547,354.7969 L3547,1022.5 A2.5,2.5 0 0 1 3544.5,1025 L8.5,1025 A2.5,2.5 0 0 1 6,1022.5 L6,332.5 A2.5,2.5 0 0 1 8.5,330 " fill="none" style="stroke:#000000;stroke-width:1.5;"/><line style="stroke:#000000;stroke-width:1.5;" x1="6" x2="34" y1="352.2969" y2="352.2969"/><text fill="#000000" font-family="sans-serif" font-size="14" font-weight="bold" lengthAdjust="spacing" textLength="15" x="10" y="344.9951">ui</text></g><!--cluster flutterObjectDetection--><g id="cluster_flutterObjectDetection"><path d="M891.5,373 L1078.5,373 A3.75,3.75 0 0 1 1081,375.5 L1088,395.2969 L3520.5,395.2969 A2.5,2.5 0 0 1 3523,397.7969 L3523,732.5 A2.5,2.5 0 0 1 3520.5,735 L891.5,735 A2.5,2.5 0 0 1 889,732.5 L889,375.5 A2.5,2.5 0 0 1 891.5,373 " fill="none" style="stroke:#000000;stroke-width:1.5;"/><line style="stroke:#000000;stroke-width:1.5;" x1="889" x2="1088" y1="395.2969" y2="395.2969"/><text fill="#000000" font-family="sans-serif" font-size="14" font-weight="bold" lengthAdjust="spacing" textLength="186" x="893" y="387.9951">flutterObjectDetection</text></g><!--cluster box_widget.dart--><g id="cluster_box_widget.dart"><path d="M2077.5,481.5 L2209.5,481.5 A3.75,3.75 0 0 1 2212,484 L2219,503.7969 L2342.5,503.7969 A2.5,2.5 0 0 1 2345,506.2969 L2345,643 A2.5,2.5 0 0 1 2342.5,645.5 L2077.5,645.5 A2.5,2.5 0 0 1 2075,643 L2075,484 A2.5,2.5 0 0 1 2077.5,481.5 " fill="none" style="stroke:#000000;stroke-width:1.5;"/><line style="stroke:#000000;stroke-width:1.5;" x1="2075" x2="2219" y1="503.7969" y2="503.7969"/><text fill="#000000" font-family="sans-serif" font-size="14" font-weight="bold" lengthAdjust="spacing" textLength="131" x="2079" y="496.4951">box_widget.dart</text></g><!--cluster camera_view.dart--><g id="cluster_camera_view.dart"><path d="M2637.5,416 L2781.5,416 A3.75,3.75 0 0 1 2784,418.5 L2791,438.2969 L3496.5,438.2969 A2.5,2.5 0 0 1 3499,440.7969 L3499,708.5 A2.5,2.5 0 0 1 3496.5,711 L2637.5,711 A2.5,2.5 0 0 1 2635,708.5 L2635,418.5 A2.5,2.5 0 0 1 2637.5,416 " fill="none" style="stroke:#000000;stroke-width:1.5;"/><line style="stroke:#000000;stroke-width:1.5;" x1="2635" x2="2791" y1="438.2969" y2="438.2969"/><text fill="#000000" font-family="sans-serif" font-size="14" font-weight="bold" lengthAdjust="spacing" textLength="143" x="2639" y="430.9951">camera_view.dart</text></g><!--cluster camera_view_singleton.dart--><g id="cluster_camera_view_singleton.dart"><path d="M2371.5,473.5 L2598.5,473.5 A3.75,3.75 0 0 1 2601,476 L2608,495.7969 L2608.5,495.7969 A2.5,2.5 0 0 1 2611,498.2969 L2611,651 A2.5,2.5 0 0 1 2608.5,653.5 L2371.5,653.5 A2.5,2.5 0 0 1 2369,651 L2369,476 A2.5,2.5 0 0 1 2371.5,473.5 " fill="none" style="stroke:#000000;stroke-width:1.5;"/><line style="stroke:#000000;stroke-width:1.5;" x1="2369" x2="2608" y1="495.7969" y2="495.7969"/><text fill="#000000" font-family="sans-serif" font-size="14" font-weight="bold" lengthAdjust="spacing" textLength="226" x="2373" y="488.4951">camera_view_singleton.dart</text></g><!--cluster RunModelByCamera.dart--><g id="cluster_RunModelByCamera.dart"><path d="M915.5,424.5 L1116.5,424.5 A3.75,3.75 0 0 1 1119,427 L1126,446.7969 L2048.5,446.7969 A2.5,2.5 0 0 1 2051,449.2969 L2051,700 A2.5,2.5 0 0 1 2048.5,702.5 L915.5,702.5 A2.5,2.5 0 0 1 913,700 L913,427 A2.5,2.5 0 0 1 915.5,424.5 " fill="none" style="stroke:#000000;stroke-width:1.5;"/><line style="stroke:#000000;stroke-width:1.5;" x1="913" x2="1126" y1="446.7969" y2="446.7969"/><text fill="#000000" font-family="sans-serif" font-size="14" font-weight="bold" lengthAdjust="spacing" textLength="200" x="917" y="439.4951">RunModelByCamera.dart</text></g><!--cluster model_manager.dart--><g id="cluster_model_manager.dart"><path d="M999.5,788 L1167.5,788 A3.75,3.75 0 0 1 1170,790.5 L1177,810.2969 L1590.5,810.2969 A2.5,2.5 0 0 1 1593,812.7969 L1593,998.5 A2.5,2.5 0 0 1 1590.5,1001 L999.5,1001 A2.5,2.5 0 0 1 997,998.5 L997,790.5 A2.5,2.5 0 0 1 999.5,788 " fill="none" style="stroke:#000000;stroke-width:1.5;"/><line style="stroke:#000000;stroke-width:1.5;" x1="997" x2="1177" y1="810.2969" y2="810.2969"/><text fill="#000000" font-family="sans-serif" font-size="14" font-weight="bold" lengthAdjust="spacing" textLength="167" x="1001" y="802.9951">model_manager.dart</text></g><!--cluster main.dart--><g id="cluster_main.dart"><path d="M32.5,449 L113.5,449 A3.75,3.75 0 0 1 116,451.5 L123,471.2969 L862.5,471.2969 A2.5,2.5 0 0 1 865,473.7969 L865,675.5 A2.5,2.5 0 0 1 862.5,678 L32.5,678 A2.5,2.5 0 0 1 30,675.5 L30,451.5 A2.5,2.5 0 0 1 32.5,449 " fill="none" style="stroke:#000000;stroke-width:1.5;"/><line style="stroke:#000000;stroke-width:1.5;" x1="30" x2="123" y1="471.2969" y2="471.2969"/><text fill="#000000" font-family="sans-serif" font-size="14" font-weight="bold" lengthAdjust="spacing" textLength="80" x="34" y="463.9951">main.dart</text></g><!--cluster flutter_pytorch--><g id="cluster_flutter_pytorch"><path d="M3573.5,802 L3698.5,802 A3.75,3.75 0 0 1 3701,804.5 L3708,824.2969 L4102.5,824.2969 A2.5,2.5 0 0 1 4105,826.7969 L4105,965.5 A2.5,2.5 0 0 1 4102.5,968 L3573.5,968 A2.5,2.5 0 0 1 3571,965.5 L3571,804.5 A2.5,2.5 0 0 1 3573.5,802 " fill="none" style="stroke:#000000;stroke-width:1.5;"/><line style="stroke:#000000;stroke-width:1.5;" x1="3571" x2="3708" y1="824.2969" y2="824.2969"/><text fill="#000000" font-family="sans-serif" font-size="14" font-weight="bold" lengthAdjust="spacing" textLength="124" x="3575" y="816.9951">flutter_pytorch</text></g><!--cluster pigeon.dart--><g id="cluster_pigeon.dart"><path d="M3597.5,845 L3692.5,845 A3.75,3.75 0 0 1 3695,847.5 L3702,867.2969 L3824.5,867.2969 A2.5,2.5 0 0 1 3827,869.7969 L3827,941.5 A2.5,2.5 0 0 1 3824.5,944 L3597.5,944 A2.5,2.5 0 0 1 3595,941.5 L3595,847.5 A2.5,2.5 0 0 1 3597.5,845 " fill="none" style="stroke:#000000;stroke-width:1.5;"/><line style="stroke:#000000;stroke-width:1.5;" x1="3595" x2="3702" y1="867.2969" y2="867.2969"/><text fill="#000000" font-family="sans-serif" font-size="14" font-weight="bold" lengthAdjust="spacing" textLength="94" x="3599" y="859.9951">pigeon.dart</text></g><!--cluster flutter_pytorch.dart--><g id="cluster_flutter_pytorch.dart"><path d="M3853.5,845 L4018.5,845 A3.75,3.75 0 0 1 4021,847.5 L4028,867.2969 L4078.5,867.2969 A2.5,2.5 0 0 1 4081,869.7969 L4081,941.5 A2.5,2.5 0 0 1 4078.5,944 L3853.5,944 A2.5,2.5 0 0 1 3851,941.5 L3851,847.5 A2.5,2.5 0 0 1 3853.5,845 " fill="none" style="stroke:#000000;stroke-width:1.5;"/><line style="stroke:#000000;stroke-width:1.5;" x1="3851" x2="4028" y1="867.2969" y2="867.2969"/><text fill="#000000" font-family="sans-serif" font-size="14" font-weight="bold" lengthAdjust="spacing" textLength="164" x="3855" y="859.9951">flutter_pytorch.dart</text></g><!--cluster dart--><g id="cluster_dart"><path d="M4131.5,802 L4167.5,802 A3.75,3.75 0 0 1 4170,804.5 L4177,824.2969 L4486.5,824.2969 A2.5,2.5 0 0 1 4489,826.7969 L4489,965.5 A2.5,2.5 0 0 1 4486.5,968 L4131.5,968 A2.5,2.5 0 0 1 4129,965.5 L4129,804.5 A2.5,2.5 0 0 1 4131.5,802 " fill="none" style="stroke:#000000;stroke-width:1.5;"/><line style="stroke:#000000;stroke-width:1.5;" x1="4129" x2="4177" y1="824.2969" y2="824.2969"/><text fill="#000000" font-family="sans-serif" font-size="14" font-weight="bold" lengthAdjust="spacing" textLength="35" x="4133" y="816.9951">dart</text></g><!--cluster ui--><g id="cluster_ui"><path d="M4155.5,845 L4171.5,845 A3.75,3.75 0 0 1 4174,847.5 L4181,867.2969 L4462.5,867.2969 A2.5,2.5 0 0 1 4465,869.7969 L4465,941.5 A2.5,2.5 0 0 1 4462.5,944 L4155.5,944 A2.5,2.5 0 0 1 4153,941.5 L4153,847.5 A2.5,2.5 0 0 1 4155.5,845 " fill="none" style="stroke:#000000;stroke-width:1.5;"/><line style="stroke:#000000;stroke-width:1.5;" x1="4153" x2="4181" y1="867.2969" y2="867.2969"/><text fill="#000000" font-family="sans-serif" font-size="14" font-weight="bold" lengthAdjust="spacing" textLength="15" x="4157" y="859.9951">ui</text></g><!--cluster flutter--><g id="cluster_flutter"><path d="M1106.5,6 L1161.5,6 A3.75,3.75 0 0 1 1164,8.5 L1171,28.2969 L2481.5,28.2969 A2.5,2.5 0 0 1 2484,30.7969 L2484,303.5 A2.5,2.5 0 0 1 2481.5,306 L1106.5,306 A2.5,2.5 0 0 1 1104,303.5 L1104,8.5 A2.5,2.5 0 0 1 1106.5,6 " fill="none" style="stroke:#000000;stroke-width:1.5;"/><line style="stroke:#000000;stroke-width:1.5;" x1="1104" x2="1171" y1="28.2969" y2="28.2969"/><text fill="#000000" font-family="sans-serif" font-size="14" font-weight="bold" lengthAdjust="spacing" textLength="54" x="1108" y="20.9951">flutter</text></g><!--cluster src--><g id="cluster_src"><path d="M1130.5,49 L1156.5,49 A3.75,3.75 0 0 1 1159,51.5 L1166,71.2969 L2457.5,71.2969 A2.5,2.5 0 0 1 2460,73.7969 L2460,279.5 A2.5,2.5 0 0 1 2457.5,282 L1130.5,282 A2.5,2.5 0 0 1 1128,279.5 L1128,51.5 A2.5,2.5 0 0 1 1130.5,49 " fill="none" style="stroke:#000000;stroke-width:1.5;"/><line style="stroke:#000000;stroke-width:1.5;" x1="1128" x2="1166" y1="71.2969" y2="71.2969"/><text fill="#000000" font-family="sans-serif" font-size="14" font-weight="bold" lengthAdjust="spacing" textLength="25" x="1132" y="63.9951">src</text></g><!--cluster widgets--><g id="cluster_widgets"><path d="M1154.5,92 L1219.5,92 A3.75,3.75 0 0 1 1222,94.5 L1229,114.2969 L2194.5,114.2969 A2.5,2.5 0 0 1 2197,116.7969 L2197,255.5 A2.5,2.5 0 0 1 2194.5,258 L1154.5,258 A2.5,2.5 0 0 1 1152,255.5 L1152,94.5 A2.5,2.5 0 0 1 1154.5,92 " fill="none" style="stroke:#000000;stroke-width:1.5;"/><line style="stroke:#000000;stroke-width:1.5;" x1="1152" x2="1229" y1="114.2969" y2="114.2969"/><text fill="#000000" font-family="sans-serif" font-size="14" font-weight="bold" lengthAdjust="spacing" textLength="64" x="1156" y="106.9951">widgets</text></g><!--cluster framework.dart--><g id="cluster_framework.dart"><path d="M1178.5,135 L1306.5,135 A3.75,3.75 0 0 1 1309,137.5 L1316,157.2969 L1902.5,157.2969 A2.5,2.5 0 0 1 1905,159.7969 L1905,231.5 A2.5,2.5 0 0 1 1902.5,234 L1178.5,234 A2.5,2.5 0 0 1 1176,231.5 L1176,137.5 A2.5,2.5 0 0 1 1178.5,135 " fill="none" style="stroke:#000000;stroke-width:1.5;"/><line style="stroke:#000000;stroke-width:1.5;" x1="1176" x2="1316" y1="157.2969" y2="157.2969"/><text fill="#000000" font-family="sans-serif" font-size="14" font-weight="bold" lengthAdjust="spacing" textLength="127" x="1180" y="149.9951">framework.dart</text></g><!--cluster binding.dart--><g id="cluster_binding.dart"><path d="M1931.5,135 L2032.5,135 A3.75,3.75 0 0 1 2035,137.5 L2042,157.2969 L2170.5,157.2969 A2.5,2.5 0 0 1 2173,159.7969 L2173,231.5 A2.5,2.5 0 0 1 2170.5,234 L1931.5,234 A2.5,2.5 0 0 1 1929,231.5 L1929,137.5 A2.5,2.5 0 0 1 1931.5,135 " fill="none" style="stroke:#000000;stroke-width:1.5;"/><line style="stroke:#000000;stroke-width:1.5;" x1="1929" x2="2042" y1="157.2969" y2="157.2969"/><text fill="#000000" font-family="sans-serif" font-size="14" font-weight="bold" lengthAdjust="spacing" textLength="100" x="1933" y="149.9951">binding.dart</text></g><!--cluster painting--><g id="cluster_painting"><path d="M2223.5,92 L2292.5,92 A3.75,3.75 0 0 1 2295,94.5 L2302,114.2969 L2433.5,114.2969 A2.5,2.5 0 0 1 2436,116.7969 L2436,255.5 A2.5,2.5 0 0 1 2433.5,258 L2223.5,258 A2.5,2.5 0 0 1 2221,255.5 L2221,94.5 A2.5,2.5 0 0 1 2223.5,92 " fill="none" style="stroke:#000000;stroke-width:1.5;"/><line style="stroke:#000000;stroke-width:1.5;" x1="2221" x2="2302" y1="114.2969" y2="114.2969"/><text fill="#000000" font-family="sans-serif" font-size="14" font-weight="bold" lengthAdjust="spacing" textLength="68" x="2225" y="106.9951">painting</text></g><!--cluster border_radius.dart--><g id="cluster_border_radius.dart"><path d="M2247.5,135 L2399.5,135 A3.75,3.75 0 0 1 2402,137.5 L2409,157.2969 L2409.5,157.2969 A2.5,2.5 0 0 1 2412,159.7969 L2412,231.5 A2.5,2.5 0 0 1 2409.5,234 L2247.5,234 A2.5,2.5 0 0 1 2245,231.5 L2245,137.5 A2.5,2.5 0 0 1 2247.5,135 " fill="none" style="stroke:#000000;stroke-width:1.5;"/><line style="stroke:#000000;stroke-width:1.5;" x1="2245" x2="2409" y1="157.2969" y2="157.2969"/><text fill="#000000" font-family="sans-serif" font-size="14" font-weight="bold" lengthAdjust="spacing" textLength="151" x="2249" y="149.9951">border_radius.dart</text></g><!--cluster null--><g id="cluster_null"><path d="M4515.5,845 L4546.5,845 A3.75,3.75 0 0 1 4549,847.5 L4556,867.2969 L4926.5,867.2969 A2.5,2.5 0 0 1 4929,869.7969 L4929,941.5 A2.5,2.5 0 0 1 4926.5,944 L4515.5,944 A2.5,2.5 0 0 1 4513,941.5 L4513,847.5 A2.5,2.5 0 0 1 4515.5,845 " fill="none" style="stroke:#000000;stroke-width:1.5;"/><line style="stroke:#000000;stroke-width:1.5;" x1="4513" x2="4556" y1="867.2969" y2="867.2969"/><text fill="#000000" font-family="sans-serif" font-size="14" font-weight="bold" lengthAdjust="spacing" textLength="30" x="4517" y="859.9951">null</text></g><!--cluster camera--><g id="cluster_camera"><path d="M4955.5,759 L5016.5,759 A3.75,3.75 0 0 1 5019,761.5 L5026,781.2969 L5249.5,781.2969 A2.5,2.5 0 0 1 5252,783.7969 L5252,989.5 A2.5,2.5 0 0 1 5249.5,992 L4955.5,992 A2.5,2.5 0 0 1 4953,989.5 L4953,761.5 A2.5,2.5 0 0 1 4955.5,759 " fill="none" style="stroke:#000000;stroke-width:1.5;"/><line style="stroke:#000000;stroke-width:1.5;" x1="4953" x2="5026" y1="781.2969" y2="781.2969"/><text fill="#000000" font-family="sans-serif" font-size="14" font-weight="bold" lengthAdjust="spacing" textLength="60" x="4957" y="773.9951">camera</text></g><!--cluster src--><g id="cluster_src"><path d="M4979.5,802 L5005.5,802 A3.75,3.75 0 0 1 5008,804.5 L5015,824.2969 L5225.5,824.2969 A2.5,2.5 0 0 1 5228,826.7969 L5228,965.5 A2.5,2.5 0 0 1 5225.5,968 L4979.5,968 A2.5,2.5 0 0 1 4977,965.5 L4977,804.5 A2.5,2.5 0 0 1 4979.5,802 " fill="none" style="stroke:#000000;stroke-width:1.5;"/><line style="stroke:#000000;stroke-width:1.5;" x1="4977" x2="5015" y1="824.2969" y2="824.2969"/><text fill="#000000" font-family="sans-serif" font-size="14" font-weight="bold" lengthAdjust="spacing" textLength="25" x="4981" y="816.9951">src</text></g><!--cluster camera_controller.dart--><g id="cluster_camera_controller.dart"><path d="M5003.5,845 L5191.5,845 A3.75,3.75 0 0 1 5194,847.5 L5201,867.2969 L5201.5,867.2969 A2.5,2.5 0 0 1 5204,869.7969 L5204,941.5 A2.5,2.5 0 0 1 5201.5,944 L5003.5,944 A2.5,2.5 0 0 1 5001,941.5 L5001,847.5 A2.5,2.5 0 0 1 5003.5,845 " fill="none" style="stroke:#000000;stroke-width:1.5;"/><line style="stroke:#000000;stroke-width:1.5;" x1="5001" x2="5201" y1="867.2969" y2="867.2969"/><text fill="#000000" font-family="sans-serif" font-size="14" font-weight="bold" lengthAdjust="spacing" textLength="187" x="5005" y="859.9951">camera_controller.dart</text></g><!--class BoxWidget--><g id="elem_BoxWidget"><rect codeLine="3" fill="#F1F1F1" height="113.1875" id="BoxWidget" rx="2.5" ry="2.5" style="stroke:#181818;stroke-width:0.5;" width="238" x="2091" y="516.5"/><ellipse cx="2166.25" cy="532.5" fill="#ADD1B2" rx="11" ry="11" style="stroke:#181818;stroke-width:1.0;"/><path d="M2168.5938,528.1719 C2167.6563,527.7344 2167.0625,527.5938 2166.1875,527.5938 C2163.5625,527.5938 2161.5625,529.6719 2161.5625,532.3906 L2161.5625,533.5156 C2161.5625,536.0938 2163.6719,537.9844 2166.5625,537.9844 C2167.7813,537.9844 2168.9375,537.6875 2169.6875,537.1406 C2170.2656,536.7344 2170.5938,536.2813 2170.5938,535.8906 C2170.5938,535.4375 2170.2031,535.0469 2169.7344,535.0469 C2169.5156,535.0469 2169.3125,535.125 2169.125,535.3125 C2168.6719,535.7969 2168.6719,535.7969 2168.4844,535.8906 C2168.0625,536.1563 2167.375,536.2813 2166.6094,536.2813 C2164.5625,536.2813 2163.2656,535.1875 2163.2656,533.4844 L2163.2656,532.3906 C2163.2656,530.6094 2164.5156,529.2969 2166.25,529.2969 C2166.8281,529.2969 2167.4375,529.4531 2167.9063,529.7031 C2168.3906,529.9844 2168.5625,530.2031 2168.6563,530.6094 C2168.7188,531.0156 2168.75,531.1406 2168.8906,531.2656 C2169.0313,531.4063 2169.2656,531.5156 2169.4844,531.5156 C2169.75,531.5156 2170.0156,531.375 2170.1875,531.1563 C2170.2969,531 2170.3281,530.8125 2170.3281,530.3906 L2170.3281,528.9688 C2170.3281,528.5313 2170.3125,528.4063 2170.2188,528.25 C2170.0625,527.9844 2169.7813,527.8438 2169.4844,527.8438 C2169.1875,527.8438 2168.9844,527.9375 2168.7656,528.25 L2168.5938,528.1719 Z " fill="#000000"/><text fill="#000000" font-family="sans-serif" font-size="14" lengthAdjust="spacing" textLength="79" x="2186.75" y="537.3467">BoxWidget</text><line style="stroke:#181818;stroke-width:0.5;" x1="2092" x2="2328" y1="548.5" y2="548.5"/><ellipse cx="2102" cy="562.1484" fill="none" rx="3" ry="3" style="stroke:#038048;stroke-width:1.0;"/><text fill="#000000" font-family="sans-serif" font-size="14" lengthAdjust="spacing" textLength="212" x="2111" y="565.4951">ResultObjectDetection result</text><ellipse cx="2102" cy="578.4453" fill="none" rx="3" ry="3" style="stroke:#038048;stroke-width:1.0;"/><text fill="#000000" font-family="sans-serif" font-size="14" lengthAdjust="spacing" textLength="130" x="2111" y="581.792">Color? boxesColor</text><ellipse cx="2102" cy="594.7422" fill="none" rx="3" ry="3" style="stroke:#038048;stroke-width:1.0;"/><text fill="#000000" font-family="sans-serif" font-size="14" lengthAdjust="spacing" textLength="155" x="2111" y="598.0889">bool showPercentage</text><line style="stroke:#181818;stroke-width:0.5;" x1="2092" x2="2328" y1="605.3906" y2="605.3906"/><ellipse cx="2102" cy="619.0391" fill="#84BE84" rx="3" ry="3" style="stroke:#038048;stroke-width:1.0;"/><text fill="#000000" font-family="sans-serif" font-size="14" lengthAdjust="spacing" textLength="101" x="2111" y="622.3857">Widget build()</text></g><!--class CameraView--><g id="elem_CameraView"><rect codeLine="14" fill="#F1F1F1" height="96.8906" id="CameraView" rx="2.5" ry="2.5" style="stroke:#181818;stroke-width:0.5;" width="497" x="2651.5" y="524.5"/><ellipse cx="2851.25" cy="540.5" fill="#ADD1B2" rx="11" ry="11" style="stroke:#181818;stroke-width:1.0;"/><path d="M2853.5938,536.1719 C2852.6563,535.7344 2852.0625,535.5938 2851.1875,535.5938 C2848.5625,535.5938 2846.5625,537.6719 2846.5625,540.3906 L2846.5625,541.5156 C2846.5625,544.0938 2848.6719,545.9844 2851.5625,545.9844 C2852.7813,545.9844 2853.9375,545.6875 2854.6875,545.1406 C2855.2656,544.7344 2855.5938,544.2813 2855.5938,543.8906 C2855.5938,543.4375 2855.2031,543.0469 2854.7344,543.0469 C2854.5156,543.0469 2854.3125,543.125 2854.125,543.3125 C2853.6719,543.7969 2853.6719,543.7969 2853.4844,543.8906 C2853.0625,544.1563 2852.375,544.2813 2851.6094,544.2813 C2849.5625,544.2813 2848.2656,543.1875 2848.2656,541.4844 L2848.2656,540.3906 C2848.2656,538.6094 2849.5156,537.2969 2851.25,537.2969 C2851.8281,537.2969 2852.4375,537.4531 2852.9063,537.7031 C2853.3906,537.9844 2853.5625,538.2031 2853.6563,538.6094 C2853.7188,539.0156 2853.75,539.1406 2853.8906,539.2656 C2854.0313,539.4063 2854.2656,539.5156 2854.4844,539.5156 C2854.75,539.5156 2855.0156,539.375 2855.1875,539.1563 C2855.2969,539 2855.3281,538.8125 2855.3281,538.3906 L2855.3281,536.9688 C2855.3281,536.5313 2855.3125,536.4063 2855.2188,536.25 C2855.0625,535.9844 2854.7813,535.8438 2854.4844,535.8438 C2854.1875,535.8438 2853.9844,535.9375 2853.7656,536.25 L2853.5938,536.1719 Z " fill="#000000"/><text fill="#000000" font-family="sans-serif" font-size="14" lengthAdjust="spacing" textLength="89" x="2871.75" y="545.3467">CameraView</text><line style="stroke:#181818;stroke-width:0.5;" x1="2652.5" x2="3147.5" y1="556.5" y2="556.5"/><ellipse cx="2662.5" cy="570.1484" fill="none" rx="3" ry="3" style="stroke:#038048;stroke-width:1.0;"/><text fill="#000000" font-family="sans-serif" font-size="14" lengthAdjust="spacing" textLength="92" x="2671.5" y="573.4951">Model model</text><line style="stroke:#181818;stroke-width:0.5;" x1="2652.5" x2="3147.5" y1="580.7969" y2="580.7969"/><ellipse cx="2662.5" cy="594.4453" fill="#84BE84" rx="3" ry="3" style="stroke:#038048;stroke-width:1.0;"/><text fill="#000000" font-family="sans-serif" font-size="14" lengthAdjust="spacing" textLength="471" x="2671.5" y="597.792">dynamic Function(List&lt;ResultObjectDetection?&gt;) resultsCallback</text><ellipse cx="2662.5" cy="610.7422" fill="#84BE84" rx="3" ry="3" style="stroke:#038048;stroke-width:1.0;"/><text fill="#000000" font-family="sans-serif" font-size="14" lengthAdjust="spacing" textLength="237" x="2671.5" y="614.0889">_CameraViewState createState()</text></g><!--class _CameraViewState--><g id="elem__CameraViewState"><rect codeLine="24" fill="#F1F1F1" height="243.5625" id="_CameraViewState" rx="2.5" ry="2.5" style="stroke:#181818;stroke-width:0.5;" width="299" x="3183.5" y="451"/><ellipse cx="3260.75" cy="467" fill="#ADD1B2" rx="11" ry="11" style="stroke:#181818;stroke-width:1.0;"/><path d="M3263.0938,462.6719 C3262.1563,462.2344 3261.5625,462.0938 3260.6875,462.0938 C3258.0625,462.0938 3256.0625,464.1719 3256.0625,466.8906 L3256.0625,468.0156 C3256.0625,470.5938 3258.1719,472.4844 3261.0625,472.4844 C3262.2813,472.4844 3263.4375,472.1875 3264.1875,471.6406 C3264.7656,471.2344 3265.0938,470.7813 3265.0938,470.3906 C3265.0938,469.9375 3264.7031,469.5469 3264.2344,469.5469 C3264.0156,469.5469 3263.8125,469.625 3263.625,469.8125 C3263.1719,470.2969 3263.1719,470.2969 3262.9844,470.3906 C3262.5625,470.6563 3261.875,470.7813 3261.1094,470.7813 C3259.0625,470.7813 3257.7656,469.6875 3257.7656,467.9844 L3257.7656,466.8906 C3257.7656,465.1094 3259.0156,463.7969 3260.75,463.7969 C3261.3281,463.7969 3261.9375,463.9531 3262.4063,464.2031 C3262.8906,464.4844 3263.0625,464.7031 3263.1563,465.1094 C3263.2188,465.5156 3263.25,465.6406 3263.3906,465.7656 C3263.5313,465.9063 3263.7656,466.0156 3263.9844,466.0156 C3264.25,466.0156 3264.5156,465.875 3264.6875,465.6563 C3264.7969,465.5 3264.8281,465.3125 3264.8281,464.8906 L3264.8281,463.4688 C3264.8281,463.0313 3264.8125,462.9063 3264.7188,462.75 C3264.5625,462.4844 3264.2813,462.3438 3263.9844,462.3438 C3263.6875,462.3438 3263.4844,462.4375 3263.2656,462.75 L3263.0938,462.6719 Z " fill="#000000"/><text fill="#000000" font-family="sans-serif" font-size="14" lengthAdjust="spacing" textLength="136" x="3281.25" y="471.8467">_CameraViewState</text><line style="stroke:#181818;stroke-width:0.5;" x1="3184.5" x2="3481.5" y1="483" y2="483"/><ellipse cx="3194.5" cy="496.6484" fill="none" rx="3" ry="3" style="stroke:#038048;stroke-width:1.0;"/><text fill="#000000" font-family="sans-serif" font-size="14" lengthAdjust="spacing" textLength="251" x="3203.5" y="499.9951">List&lt;CameraDescription&gt; cameras</text><ellipse cx="3194.5" cy="512.9453" fill="none" rx="3" ry="3" style="stroke:#038048;stroke-width:1.0;"/><text fill="#000000" font-family="sans-serif" font-size="14" lengthAdjust="spacing" textLength="265" x="3203.5" y="516.292">CameraController? cameraController</text><ellipse cx="3194.5" cy="529.2422" fill="none" rx="3" ry="3" style="stroke:#038048;stroke-width:1.0;"/><text fill="#000000" font-family="sans-serif" font-size="14" lengthAdjust="spacing" textLength="111" x="3203.5" y="532.5889">bool predicting</text><rect fill="none" height="6" style="stroke:#C82930;stroke-width:1.0;" width="6" x="3191.5" y="542.5391"/><text fill="#000000" font-family="sans-serif" font-size="14" lengthAdjust="spacing" textLength="273" x="3203.5" y="548.8857">ModelObjectDetection? _objectModel</text><line style="stroke:#181818;stroke-width:0.5;" x1="3184.5" x2="3481.5" y1="556.1875" y2="556.1875"/><ellipse cx="3194.5" cy="569.8359" fill="#84BE84" rx="3" ry="3" style="stroke:#038048;stroke-width:1.0;"/><text fill="#000000" font-family="sans-serif" font-size="14" lengthAdjust="spacing" textLength="108" x="3203.5" y="573.1826">void initState()</text><ellipse cx="3194.5" cy="586.1328" fill="#84BE84" rx="3" ry="3" style="stroke:#038048;stroke-width:1.0;"/><text fill="#000000" font-family="sans-serif" font-size="14" lengthAdjust="spacing" textLength="215" x="3203.5" y="589.4795">Future&lt;dynamic&gt; loadModel()</text><ellipse cx="3194.5" cy="602.4297" fill="#84BE84" rx="3" ry="3" style="stroke:#038048;stroke-width:1.0;"/><text fill="#000000" font-family="sans-serif" font-size="14" lengthAdjust="spacing" textLength="150" x="3203.5" y="605.7764">void initStateAsync()</text><ellipse cx="3194.5" cy="618.7266" fill="#84BE84" rx="3" ry="3" style="stroke:#038048;stroke-width:1.0;"/><text fill="#000000" font-family="sans-serif" font-size="14" lengthAdjust="spacing" textLength="160" x="3203.5" y="622.0732">void initializeCamera()</text><ellipse cx="3194.5" cy="635.0234" fill="#84BE84" rx="3" ry="3" style="stroke:#038048;stroke-width:1.0;"/><text fill="#000000" font-family="sans-serif" font-size="14" lengthAdjust="spacing" textLength="101" x="3203.5" y="638.3701">Widget build()</text><ellipse cx="3194.5" cy="651.3203" fill="#84BE84" rx="3" ry="3" style="stroke:#038048;stroke-width:1.0;"/><text fill="#000000" font-family="sans-serif" font-size="14" lengthAdjust="spacing" textLength="247" x="3203.5" y="654.667">dynamic onLatestImageAvailable()</text><ellipse cx="3194.5" cy="667.6172" fill="#84BE84" rx="3" ry="3" style="stroke:#038048;stroke-width:1.0;"/><text fill="#000000" font-family="sans-serif" font-size="14" lengthAdjust="spacing" textLength="254" x="3203.5" y="670.9639">void didChangeAppLifecycleState()</text><ellipse cx="3194.5" cy="683.9141" fill="#84BE84" rx="3" ry="3" style="stroke:#038048;stroke-width:1.0;"/><text fill="#000000" font-family="sans-serif" font-size="14" lengthAdjust="spacing" textLength="99" x="3203.5" y="687.2607">void dispose()</text></g><!--class CameraViewSingleton--><g id="elem_CameraViewSingleton"><rect codeLine="44" fill="#F1F1F1" height="129.4844" id="CameraViewSingleton" rx="2.5" ry="2.5" style="stroke:#181818;stroke-width:0.5;" width="199" x="2395.5" y="508.5"/><ellipse cx="2414.55" cy="524.5" fill="#ADD1B2" rx="11" ry="11" style="stroke:#181818;stroke-width:1.0;"/><path d="M2416.8938,520.1719 C2415.9563,519.7344 2415.3625,519.5938 2414.4875,519.5938 C2411.8625,519.5938 2409.8625,521.6719 2409.8625,524.3906 L2409.8625,525.5156 C2409.8625,528.0938 2411.9719,529.9844 2414.8625,529.9844 C2416.0813,529.9844 2417.2375,529.6875 2417.9875,529.1406 C2418.5656,528.7344 2418.8938,528.2813 2418.8938,527.8906 C2418.8938,527.4375 2418.5031,527.0469 2418.0344,527.0469 C2417.8156,527.0469 2417.6125,527.125 2417.425,527.3125 C2416.9719,527.7969 2416.9719,527.7969 2416.7844,527.8906 C2416.3625,528.1563 2415.675,528.2813 2414.9094,528.2813 C2412.8625,528.2813 2411.5656,527.1875 2411.5656,525.4844 L2411.5656,524.3906 C2411.5656,522.6094 2412.8156,521.2969 2414.55,521.2969 C2415.1281,521.2969 2415.7375,521.4531 2416.2063,521.7031 C2416.6906,521.9844 2416.8625,522.2031 2416.9563,522.6094 C2417.0188,523.0156 2417.05,523.1406 2417.1906,523.2656 C2417.3313,523.4063 2417.5656,523.5156 2417.7844,523.5156 C2418.05,523.5156 2418.3156,523.375 2418.4875,523.1563 C2418.5969,523 2418.6281,522.8125 2418.6281,522.3906 L2418.6281,520.9688 C2418.6281,520.5313 2418.6125,520.4063 2418.5188,520.25 C2418.3625,519.9844 2418.0813,519.8438 2417.7844,519.8438 C2417.4875,519.8438 2417.2844,519.9375 2417.0656,520.25 L2416.8938,520.1719 Z " fill="#000000"/><text fill="#000000" font-family="sans-serif" font-size="14" lengthAdjust="spacing" textLength="158" x="2429.45" y="529.3467">CameraViewSingleton</text><line style="stroke:#181818;stroke-width:0.5;" x1="2396.5" x2="2593.5" y1="540.5" y2="540.5"/><ellipse cx="2406.5" cy="554.1484" fill="none" rx="3" ry="3" style="stroke:#038048;stroke-width:1.0;"/><text fill="#000000" font-family="sans-serif" font-size="14" lengthAdjust="spacing" text-decoration="underline" textLength="87" x="2415.5" y="557.4951">double ratio</text><ellipse cx="2406.5" cy="570.4453" fill="none" rx="3" ry="3" style="stroke:#038048;stroke-width:1.0;"/><text fill="#000000" font-family="sans-serif" font-size="14" lengthAdjust="spacing" text-decoration="underline" textLength="112" x="2415.5" y="573.792">Size screenSize</text><ellipse cx="2406.5" cy="586.7422" fill="none" rx="3" ry="3" style="stroke:#038048;stroke-width:1.0;"/><text fill="#000000" font-family="sans-serif" font-size="14" lengthAdjust="spacing" text-decoration="underline" textLength="146" x="2415.5" y="590.0889">Size inputImageSize</text><ellipse cx="2406.5" cy="603.0391" fill="none" rx="3" ry="3" style="stroke:#038048;stroke-width:1.0;"/><text fill="#000000" font-family="sans-serif" font-size="14" lengthAdjust="spacing" text-decoration="underline" textLength="163" x="2415.5" y="606.3857">Size actualPreviewSize</text><ellipse cx="2406.5" cy="619.3359" fill="none" rx="3" ry="3" style="stroke:#038048;stroke-width:1.0;"/><text fill="#000000" font-family="sans-serif" font-size="14" lengthAdjust="spacing" text-decoration="underline" textLength="173" x="2415.5" y="622.6826">Size actualPreviewSizeH</text><line style="stroke:#181818;stroke-width:0.5;" x1="2396.5" x2="2593.5" y1="629.9844" y2="629.9844"/></g><!--class RunModelByCameraDemo--><g id="elem_RunModelByCameraDemo"><rect codeLine="54" fill="#F1F1F1" height="80.5938" id="RunModelByCameraDemo" rx="2.5" ry="2.5" style="stroke:#181818;stroke-width:0.5;" width="360" x="1272" y="532.5"/><ellipse cx="1354.75" cy="548.5" fill="#ADD1B2" rx="11" ry="11" style="stroke:#181818;stroke-width:1.0;"/><path d="M1357.0938,544.1719 C1356.1563,543.7344 1355.5625,543.5938 1354.6875,543.5938 C1352.0625,543.5938 1350.0625,545.6719 1350.0625,548.3906 L1350.0625,549.5156 C1350.0625,552.0938 1352.1719,553.9844 1355.0625,553.9844 C1356.2813,553.9844 1357.4375,553.6875 1358.1875,553.1406 C1358.7656,552.7344 1359.0938,552.2813 1359.0938,551.8906 C1359.0938,551.4375 1358.7031,551.0469 1358.2344,551.0469 C1358.0156,551.0469 1357.8125,551.125 1357.625,551.3125 C1357.1719,551.7969 1357.1719,551.7969 1356.9844,551.8906 C1356.5625,552.1563 1355.875,552.2813 1355.1094,552.2813 C1353.0625,552.2813 1351.7656,551.1875 1351.7656,549.4844 L1351.7656,548.3906 C1351.7656,546.6094 1353.0156,545.2969 1354.75,545.2969 C1355.3281,545.2969 1355.9375,545.4531 1356.4063,545.7031 C1356.8906,545.9844 1357.0625,546.2031 1357.1563,546.6094 C1357.2188,547.0156 1357.25,547.1406 1357.3906,547.2656 C1357.5313,547.4063 1357.7656,547.5156 1357.9844,547.5156 C1358.25,547.5156 1358.5156,547.375 1358.6875,547.1563 C1358.7969,547 1358.8281,546.8125 1358.8281,546.3906 L1358.8281,544.9688 C1358.8281,544.5313 1358.8125,544.4063 1358.7188,544.25 C1358.5625,543.9844 1358.2813,543.8438 1357.9844,543.8438 C1357.6875,543.8438 1357.4844,543.9375 1357.2656,544.25 L1357.0938,544.1719 Z " fill="#000000"/><text fill="#000000" font-family="sans-serif" font-size="14" lengthAdjust="spacing" textLength="186" x="1375.25" y="553.3467">RunModelByCameraDemo</text><line style="stroke:#181818;stroke-width:0.5;" x1="1273" x2="1631" y1="564.5" y2="564.5"/><ellipse cx="1283" cy="578.1484" fill="none" rx="3" ry="3" style="stroke:#038048;stroke-width:1.0;"/><text fill="#000000" font-family="sans-serif" font-size="14" lengthAdjust="spacing" textLength="92" x="1292" y="581.4951">Model model</text><line style="stroke:#181818;stroke-width:0.5;" x1="1273" x2="1631" y1="588.7969" y2="588.7969"/><ellipse cx="1283" cy="602.4453" fill="#84BE84" rx="3" ry="3" style="stroke:#038048;stroke-width:1.0;"/><text fill="#000000" font-family="sans-serif" font-size="14" lengthAdjust="spacing" textLength="334" x="1292" y="605.792">_RunModelByCameraDemoState createState()</text></g><!--class _RunModelByCameraDemoState--><g id="elem__RunModelByCameraDemoState"><rect codeLine="62" fill="#F1F1F1" height="227.2656" id="_RunModelByCameraDemoState" rx="2.5" ry="2.5" style="stroke:#181818;stroke-width:0.5;" width="368" x="1667" y="459.5"/><ellipse cx="1730.25" cy="475.5" fill="#ADD1B2" rx="11" ry="11" style="stroke:#181818;stroke-width:1.0;"/><path d="M1732.5938,471.1719 C1731.6563,470.7344 1731.0625,470.5938 1730.1875,470.5938 C1727.5625,470.5938 1725.5625,472.6719 1725.5625,475.3906 L1725.5625,476.5156 C1725.5625,479.0938 1727.6719,480.9844 1730.5625,480.9844 C1731.7813,480.9844 1732.9375,480.6875 1733.6875,480.1406 C1734.2656,479.7344 1734.5938,479.2813 1734.5938,478.8906 C1734.5938,478.4375 1734.2031,478.0469 1733.7344,478.0469 C1733.5156,478.0469 1733.3125,478.125 1733.125,478.3125 C1732.6719,478.7969 1732.6719,478.7969 1732.4844,478.8906 C1732.0625,479.1563 1731.375,479.2813 1730.6094,479.2813 C1728.5625,479.2813 1727.2656,478.1875 1727.2656,476.4844 L1727.2656,475.3906 C1727.2656,473.6094 1728.5156,472.2969 1730.25,472.2969 C1730.8281,472.2969 1731.4375,472.4531 1731.9063,472.7031 C1732.3906,472.9844 1732.5625,473.2031 1732.6563,473.6094 C1732.7188,474.0156 1732.75,474.1406 1732.8906,474.2656 C1733.0313,474.4063 1733.2656,474.5156 1733.4844,474.5156 C1733.75,474.5156 1734.0156,474.375 1734.1875,474.1563 C1734.2969,474 1734.3281,473.8125 1734.3281,473.3906 L1734.3281,471.9688 C1734.3281,471.5313 1734.3125,471.4063 1734.2188,471.25 C1734.0625,470.9844 1733.7813,470.8438 1733.4844,470.8438 C1733.1875,470.8438 1732.9844,470.9375 1732.7656,471.25 L1732.5938,471.1719 Z " fill="#000000"/><text fill="#000000" font-family="sans-serif" font-size="14" lengthAdjust="spacing" textLength="233" x="1750.75" y="480.3467">_RunModelByCameraDemoState</text><line style="stroke:#181818;stroke-width:0.5;" x1="1668" x2="2034" y1="491.5" y2="491.5"/><ellipse cx="1678" cy="505.1484" fill="none" rx="3" ry="3" style="stroke:#038048;stroke-width:1.0;"/><text fill="#000000" font-family="sans-serif" font-size="14" lengthAdjust="spacing" textLength="281" x="1687" y="508.4951">List&lt;ResultObjectDetection?&gt;? results</text><ellipse cx="1678" cy="521.4453" fill="none" rx="3" ry="3" style="stroke:#038048;stroke-width:1.0;"/><text fill="#000000" font-family="sans-serif" font-size="14" lengthAdjust="spacing" textLength="148" x="1687" y="524.792">String? classification</text><ellipse cx="1678" cy="537.7422" fill="none" rx="3" ry="3" style="stroke:#038048;stroke-width:1.0;"/><text fill="#000000" font-family="sans-serif" font-size="14" lengthAdjust="spacing" textLength="282" x="1687" y="541.0889">GlobalKey&lt;ScaffoldState&gt; scaffoldKey</text><ellipse cx="1678" cy="554.0391" fill="none" rx="3" ry="3" style="stroke:#038048;stroke-width:1.0;"/><text fill="#000000" font-family="sans-serif" font-size="14" lengthAdjust="spacing" text-decoration="underline" textLength="225" x="1687" y="557.3857">Radius BOTTOM_SHEET_RADIUS</text><ellipse cx="1678" cy="570.3359" fill="none" rx="3" ry="3" style="stroke:#038048;stroke-width:1.0;"/><text fill="#000000" font-family="sans-serif" font-size="14" lengthAdjust="spacing" text-decoration="underline" textLength="342" x="1687" y="573.6826">BorderRadius BORDER_RADIUS_BOTTOM_SHEET</text><line style="stroke:#181818;stroke-width:0.5;" x1="1668" x2="2034" y1="580.9844" y2="580.9844"/><ellipse cx="1678" cy="594.6328" fill="#84BE84" rx="3" ry="3" style="stroke:#038048;stroke-width:1.0;"/><text fill="#000000" font-family="sans-serif" font-size="14" lengthAdjust="spacing" textLength="108" x="1687" y="597.9795">void initState()</text><rect fill="#F24D5C" height="6" style="stroke:#C82930;stroke-width:1.0;" width="6" x="1675" y="607.9297"/><text fill="#000000" font-family="sans-serif" font-size="14" lengthAdjust="spacing" textLength="166" x="1687" y="614.2764">void _updateLabelFile()</text><ellipse cx="1678" cy="627.2266" fill="#84BE84" rx="3" ry="3" style="stroke:#038048;stroke-width:1.0;"/><text fill="#000000" font-family="sans-serif" font-size="14" lengthAdjust="spacing" textLength="101" x="1687" y="630.5732">Widget build()</text><ellipse cx="1678" cy="643.5234" fill="#84BE84" rx="3" ry="3" style="stroke:#038048;stroke-width:1.0;"/><text fill="#000000" font-family="sans-serif" font-size="14" lengthAdjust="spacing" textLength="184" x="1687" y="646.8701">Widget boundingBoxes2()</text><ellipse cx="1678" cy="659.8203" fill="#84BE84" rx="3" ry="3" style="stroke:#038048;stroke-width:1.0;"/><text fill="#000000" font-family="sans-serif" font-size="14" lengthAdjust="spacing" textLength="153" x="1687" y="663.167">void resultsCallback()</text><ellipse cx="1678" cy="676.1172" fill="#84BE84" rx="3" ry="3" style="stroke:#038048;stroke-width:1.0;"/><text fill="#000000" font-family="sans-serif" font-size="14" lengthAdjust="spacing" textLength="248" x="1687" y="679.4639">void resultsCallbackClassification()</text></g><!--class ResultsRow--><g id="elem_ResultsRow"><rect codeLine="81" fill="#F1F1F1" height="80.5938" id="ResultsRow" rx="2.5" ry="2.5" style="stroke:#181818;stroke-width:0.5;" width="307" x="929.5" y="532.5"/><ellipse cx="1037.75" cy="548.5" fill="#ADD1B2" rx="11" ry="11" style="stroke:#181818;stroke-width:1.0;"/><path d="M1040.0938,544.1719 C1039.1563,543.7344 1038.5625,543.5938 1037.6875,543.5938 C1035.0625,543.5938 1033.0625,545.6719 1033.0625,548.3906 L1033.0625,549.5156 C1033.0625,552.0938 1035.1719,553.9844 1038.0625,553.9844 C1039.2813,553.9844 1040.4375,553.6875 1041.1875,553.1406 C1041.7656,552.7344 1042.0938,552.2813 1042.0938,551.8906 C1042.0938,551.4375 1041.7031,551.0469 1041.2344,551.0469 C1041.0156,551.0469 1040.8125,551.125 1040.625,551.3125 C1040.1719,551.7969 1040.1719,551.7969 1039.9844,551.8906 C1039.5625,552.1563 1038.875,552.2813 1038.1094,552.2813 C1036.0625,552.2813 1034.7656,551.1875 1034.7656,549.4844 L1034.7656,548.3906 C1034.7656,546.6094 1036.0156,545.2969 1037.75,545.2969 C1038.3281,545.2969 1038.9375,545.4531 1039.4063,545.7031 C1039.8906,545.9844 1040.0625,546.2031 1040.1563,546.6094 C1040.2188,547.0156 1040.25,547.1406 1040.3906,547.2656 C1040.5313,547.4063 1040.7656,547.5156 1040.9844,547.5156 C1041.25,547.5156 1041.5156,547.375 1041.6875,547.1563 C1041.7969,547 1041.8281,546.8125 1041.8281,546.3906 L1041.8281,544.9688 C1041.8281,544.5313 1041.8125,544.4063 1041.7188,544.25 C1041.5625,543.9844 1041.2813,543.8438 1040.9844,543.8438 C1040.6875,543.8438 1040.4844,543.9375 1040.2656,544.25 L1040.0938,544.1719 Z " fill="#000000"/><text fill="#000000" font-family="sans-serif" font-size="14" lengthAdjust="spacing" textLength="82" x="1058.25" y="553.3467">ResultsRow</text><line style="stroke:#181818;stroke-width:0.5;" x1="930.5" x2="1235.5" y1="564.5" y2="564.5"/><ellipse cx="940.5" cy="578.1484" fill="none" rx="3" ry="3" style="stroke:#038048;stroke-width:1.0;"/><text fill="#000000" font-family="sans-serif" font-size="14" lengthAdjust="spacing" textLength="281" x="949.5" y="581.4951">List&lt;ResultObjectDetection?&gt;? results</text><line style="stroke:#181818;stroke-width:0.5;" x1="930.5" x2="1235.5" y1="588.7969" y2="588.7969"/><ellipse cx="940.5" cy="602.4453" fill="#84BE84" rx="3" ry="3" style="stroke:#038048;stroke-width:1.0;"/><text fill="#000000" font-family="sans-serif" font-size="14" lengthAdjust="spacing" textLength="101" x="949.5" y="605.792">Widget build()</text></g><!--class Model--><g id="elem_Model"><rect codeLine="114" fill="#F1F1F1" height="162.0781" id="Model" rx="2.5" ry="2.5" style="stroke:#181818;stroke-width:0.5;" width="249" x="1327.5" y="823"/><ellipse cx="1426.25" cy="839" fill="#ADD1B2" rx="11" ry="11" style="stroke:#181818;stroke-width:1.0;"/><path d="M1428.5938,834.6719 C1427.6563,834.2344 1427.0625,834.0938 1426.1875,834.0938 C1423.5625,834.0938 1421.5625,836.1719 1421.5625,838.8906 L1421.5625,840.0156 C1421.5625,842.5938 1423.6719,844.4844 1426.5625,844.4844 C1427.7813,844.4844 1428.9375,844.1875 1429.6875,843.6406 C1430.2656,843.2344 1430.5938,842.7813 1430.5938,842.3906 C1430.5938,841.9375 1430.2031,841.5469 1429.7344,841.5469 C1429.5156,841.5469 1429.3125,841.625 1429.125,841.8125 C1428.6719,842.2969 1428.6719,842.2969 1428.4844,842.3906 C1428.0625,842.6563 1427.375,842.7813 1426.6094,842.7813 C1424.5625,842.7813 1423.2656,841.6875 1423.2656,839.9844 L1423.2656,838.8906 C1423.2656,837.1094 1424.5156,835.7969 1426.25,835.7969 C1426.8281,835.7969 1427.4375,835.9531 1427.9063,836.2031 C1428.3906,836.4844 1428.5625,836.7031 1428.6563,837.1094 C1428.7188,837.5156 1428.75,837.6406 1428.8906,837.7656 C1429.0313,837.9063 1429.2656,838.0156 1429.4844,838.0156 C1429.75,838.0156 1430.0156,837.875 1430.1875,837.6563 C1430.2969,837.5 1430.3281,837.3125 1430.3281,836.8906 L1430.3281,835.4688 C1430.3281,835.0313 1430.3125,834.9063 1430.2188,834.75 C1430.0625,834.4844 1429.7813,834.3438 1429.4844,834.3438 C1429.1875,834.3438 1428.9844,834.4375 1428.7656,834.75 L1428.5938,834.6719 Z " fill="#000000"/><text fill="#000000" font-family="sans-serif" font-size="14" lengthAdjust="spacing" textLength="43" x="1446.75" y="843.8467">Model</text><line style="stroke:#181818;stroke-width:0.5;" x1="1328.5" x2="1575.5" y1="855" y2="855"/><ellipse cx="1338.5" cy="868.6484" fill="none" rx="3" ry="3" style="stroke:#038048;stroke-width:1.0;"/><text fill="#000000" font-family="sans-serif" font-size="14" lengthAdjust="spacing" textLength="88" x="1347.5" y="871.9951">String name</text><ellipse cx="1338.5" cy="884.9453" fill="none" rx="3" ry="3" style="stroke:#038048;stroke-width:1.0;"/><text fill="#000000" font-family="sans-serif" font-size="14" lengthAdjust="spacing" textLength="146" x="1347.5" y="888.292">List&lt;String&gt; classes</text><ellipse cx="1338.5" cy="901.2422" fill="none" rx="3" ry="3" style="stroke:#038048;stroke-width:1.0;"/><text fill="#000000" font-family="sans-serif" font-size="14" lengthAdjust="spacing" textLength="140" x="1347.5" y="904.5889">List&lt;int&gt; inputSize</text><ellipse cx="1338.5" cy="917.5391" fill="none" rx="3" ry="3" style="stroke:#038048;stroke-width:1.0;"/><text fill="#000000" font-family="sans-serif" font-size="14" lengthAdjust="spacing" textLength="41" x="1347.5" y="920.8857">int nc</text><ellipse cx="1338.5" cy="933.8359" fill="none" rx="3" ry="3" style="stroke:#038048;stroke-width:1.0;"/><text fill="#000000" font-family="sans-serif" font-size="14" lengthAdjust="spacing" textLength="130" x="1347.5" y="937.1826">String description</text><ellipse cx="1338.5" cy="950.1328" fill="none" rx="3" ry="3" style="stroke:#038048;stroke-width:1.0;"/><text fill="#000000" font-family="sans-serif" font-size="14" lengthAdjust="spacing" textLength="104" x="1347.5" y="953.4795">String filePath</text><line style="stroke:#181818;stroke-width:0.5;" x1="1328.5" x2="1575.5" y1="960.7813" y2="960.7813"/><ellipse cx="1338.5" cy="974.4297" fill="#84BE84" rx="3" ry="3" style="stroke:#038048;stroke-width:1.0;"/><text fill="#000000" font-family="sans-serif" font-size="14" lengthAdjust="spacing" textLength="223" x="1347.5" y="977.7764">Map&lt;String, dynamic&gt; toJson()</text></g><!--class ModelManager--><g id="elem_ModelManager"><rect codeLine="124" fill="#F1F1F1" height="145.7813" id="ModelManager" rx="2.5" ry="2.5" style="stroke:#181818;stroke-width:0.5;" width="279" x="1013.5" y="831"/><ellipse cx="1096.75" cy="847" fill="#ADD1B2" rx="11" ry="11" style="stroke:#181818;stroke-width:1.0;"/><path d="M1099.0938,842.6719 C1098.1563,842.2344 1097.5625,842.0938 1096.6875,842.0938 C1094.0625,842.0938 1092.0625,844.1719 1092.0625,846.8906 L1092.0625,848.0156 C1092.0625,850.5938 1094.1719,852.4844 1097.0625,852.4844 C1098.2813,852.4844 1099.4375,852.1875 1100.1875,851.6406 C1100.7656,851.2344 1101.0938,850.7813 1101.0938,850.3906 C1101.0938,849.9375 1100.7031,849.5469 1100.2344,849.5469 C1100.0156,849.5469 1099.8125,849.625 1099.625,849.8125 C1099.1719,850.2969 1099.1719,850.2969 1098.9844,850.3906 C1098.5625,850.6563 1097.875,850.7813 1097.1094,850.7813 C1095.0625,850.7813 1093.7656,849.6875 1093.7656,847.9844 L1093.7656,846.8906 C1093.7656,845.1094 1095.0156,843.7969 1096.75,843.7969 C1097.3281,843.7969 1097.9375,843.9531 1098.4063,844.2031 C1098.8906,844.4844 1099.0625,844.7031 1099.1563,845.1094 C1099.2188,845.5156 1099.25,845.6406 1099.3906,845.7656 C1099.5313,845.9063 1099.7656,846.0156 1099.9844,846.0156 C1100.25,846.0156 1100.5156,845.875 1100.6875,845.6563 C1100.7969,845.5 1100.8281,845.3125 1100.8281,844.8906 L1100.8281,843.4688 C1100.8281,843.0313 1100.8125,842.9063 1100.7188,842.75 C1100.5625,842.4844 1100.2813,842.3438 1099.9844,842.3438 C1099.6875,842.3438 1099.4844,842.4375 1099.2656,842.75 L1099.0938,842.6719 Z " fill="#000000"/><text fill="#000000" font-family="sans-serif" font-size="14" lengthAdjust="spacing" textLength="104" x="1117.25" y="851.8467">ModelManager</text><line style="stroke:#181818;stroke-width:0.5;" x1="1014.5" x2="1291.5" y1="863" y2="863"/><rect fill="none" height="6" style="stroke:#C82930;stroke-width:1.0;" width="6" x="1021.5" y="873.6484"/><text fill="#000000" font-family="sans-serif" font-size="14" lengthAdjust="spacing" textLength="189" x="1033.5" y="879.9951">Future&lt;String&gt; _localPath</text><rect fill="none" height="6" style="stroke:#C82930;stroke-width:1.0;" width="6" x="1021.5" y="889.9453"/><text fill="#000000" font-family="sans-serif" font-size="14" lengthAdjust="spacing" textLength="229" x="1033.5" y="896.292">Future&lt;File&gt; _modelListJsonFile</text><line style="stroke:#181818;stroke-width:0.5;" x1="1014.5" x2="1291.5" y1="903.5938" y2="903.5938"/><ellipse cx="1024.5" cy="917.2422" fill="#84BE84" rx="3" ry="3" style="stroke:#038048;stroke-width:1.0;"/><text fill="#000000" font-family="sans-serif" font-size="14" lengthAdjust="spacing" textLength="194" x="1033.5" y="920.5889">Future&lt;void&gt; saveModels()</text><ellipse cx="1024.5" cy="933.5391" fill="#84BE84" rx="3" ry="3" style="stroke:#038048;stroke-width:1.0;"/><text fill="#000000" font-family="sans-serif" font-size="14" lengthAdjust="spacing" textLength="253" x="1033.5" y="936.8857">Future&lt;List&lt;Model&gt;&gt; loadModels()</text><ellipse cx="1024.5" cy="949.8359" fill="#84BE84" rx="3" ry="3" style="stroke:#038048;stroke-width:1.0;"/><text fill="#000000" font-family="sans-serif" font-size="14" lengthAdjust="spacing" textLength="159" x="1033.5" y="953.1826">void deleteModelFile()</text><ellipse cx="1024.5" cy="966.1328" fill="#84BE84" rx="3" ry="3" style="stroke:#038048;stroke-width:1.0;"/><text fill="#000000" font-family="sans-serif" font-size="14" lengthAdjust="spacing" textLength="241" x="1033.5" y="969.4795">Future&lt;void&gt; printAllModelFiles()</text></g><!--class ModelManagementApp--><g id="elem_ModelManagementApp"><rect codeLine="88" fill="#F1F1F1" height="64.2969" id="ModelManagementApp" rx="2.5" ry="2.5" style="stroke:#181818;stroke-width:0.5;" width="199" x="46.5" y="541"/><ellipse cx="61.5" cy="557" fill="#ADD1B2" rx="11" ry="11" style="stroke:#181818;stroke-width:1.0;"/><path d="M63.8438,552.6719 C62.9063,552.2344 62.3125,552.0938 61.4375,552.0938 C58.8125,552.0938 56.8125,554.1719 56.8125,556.8906 L56.8125,558.0156 C56.8125,560.5938 58.9219,562.4844 61.8125,562.4844 C63.0313,562.4844 64.1875,562.1875 64.9375,561.6406 C65.5156,561.2344 65.8438,560.7813 65.8438,560.3906 C65.8438,559.9375 65.4531,559.5469 64.9844,559.5469 C64.7656,559.5469 64.5625,559.625 64.375,559.8125 C63.9219,560.2969 63.9219,560.2969 63.7344,560.3906 C63.3125,560.6563 62.625,560.7813 61.8594,560.7813 C59.8125,560.7813 58.5156,559.6875 58.5156,557.9844 L58.5156,556.8906 C58.5156,555.1094 59.7656,553.7969 61.5,553.7969 C62.0781,553.7969 62.6875,553.9531 63.1563,554.2031 C63.6406,554.4844 63.8125,554.7031 63.9063,555.1094 C63.9688,555.5156 64,555.6406 64.1406,555.7656 C64.2813,555.9063 64.5156,556.0156 64.7344,556.0156 C65,556.0156 65.2656,555.875 65.4375,555.6563 C65.5469,555.5 65.5781,555.3125 65.5781,554.8906 L65.5781,553.4688 C65.5781,553.0313 65.5625,552.9063 65.4688,552.75 C65.3125,552.4844 65.0313,552.3438 64.7344,552.3438 C64.4375,552.3438 64.2344,552.4375 64.0156,552.75 L63.8438,552.6719 Z " fill="#000000"/><text fill="#000000" font-family="sans-serif" font-size="14" lengthAdjust="spacing" textLength="167" x="75.5" y="561.8467">ModelManagementApp</text><line style="stroke:#181818;stroke-width:0.5;" x1="47.5" x2="244.5" y1="573" y2="573"/><line style="stroke:#181818;stroke-width:0.5;" x1="47.5" x2="244.5" y1="581" y2="581"/><ellipse cx="57.5" cy="594.6484" fill="#84BE84" rx="3" ry="3" style="stroke:#038048;stroke-width:1.0;"/><text fill="#000000" font-family="sans-serif" font-size="14" lengthAdjust="spacing" textLength="101" x="66.5" y="597.9951">Widget build()</text></g><!--class ModelListScreen--><g id="elem_ModelListScreen"><rect codeLine="94" fill="#F1F1F1" height="64.2969" id="ModelListScreen" rx="2.5" ry="2.5" style="stroke:#181818;stroke-width:0.5;" width="293" x="280.5" y="541"/><ellipse cx="363.25" cy="557" fill="#ADD1B2" rx="11" ry="11" style="stroke:#181818;stroke-width:1.0;"/><path d="M365.5938,552.6719 C364.6563,552.2344 364.0625,552.0938 363.1875,552.0938 C360.5625,552.0938 358.5625,554.1719 358.5625,556.8906 L358.5625,558.0156 C358.5625,560.5938 360.6719,562.4844 363.5625,562.4844 C364.7813,562.4844 365.9375,562.1875 366.6875,561.6406 C367.2656,561.2344 367.5938,560.7813 367.5938,560.3906 C367.5938,559.9375 367.2031,559.5469 366.7344,559.5469 C366.5156,559.5469 366.3125,559.625 366.125,559.8125 C365.6719,560.2969 365.6719,560.2969 365.4844,560.3906 C365.0625,560.6563 364.375,560.7813 363.6094,560.7813 C361.5625,560.7813 360.2656,559.6875 360.2656,557.9844 L360.2656,556.8906 C360.2656,555.1094 361.5156,553.7969 363.25,553.7969 C363.8281,553.7969 364.4375,553.9531 364.9063,554.2031 C365.3906,554.4844 365.5625,554.7031 365.6563,555.1094 C365.7188,555.5156 365.75,555.6406 365.8906,555.7656 C366.0313,555.9063 366.2656,556.0156 366.4844,556.0156 C366.75,556.0156 367.0156,555.875 367.1875,555.6563 C367.2969,555.5 367.3281,555.3125 367.3281,554.8906 L367.3281,553.4688 C367.3281,553.0313 367.3125,552.9063 367.2188,552.75 C367.0625,552.4844 366.7813,552.3438 366.4844,552.3438 C366.1875,552.3438 365.9844,552.4375 365.7656,552.75 L365.5938,552.6719 Z " fill="#000000"/><text fill="#000000" font-family="sans-serif" font-size="14" lengthAdjust="spacing" textLength="119" x="383.75" y="561.8467">ModelListScreen</text><line style="stroke:#181818;stroke-width:0.5;" x1="281.5" x2="572.5" y1="573" y2="573"/><line style="stroke:#181818;stroke-width:0.5;" x1="281.5" x2="572.5" y1="581" y2="581"/><ellipse cx="291.5" cy="594.6484" fill="#84BE84" rx="3" ry="3" style="stroke:#038048;stroke-width:1.0;"/><text fill="#000000" font-family="sans-serif" font-size="14" lengthAdjust="spacing" textLength="267" x="300.5" y="597.9951">_ModelListScreenState createState()</text></g><!--class _ModelListScreenState--><g id="elem__ModelListScreenState"><rect codeLine="100" fill="#F1F1F1" height="178.375" id="_ModelListScreenState" rx="2.5" ry="2.5" style="stroke:#181818;stroke-width:0.5;" width="240" x="609" y="484"/><ellipse cx="642.9" cy="500" fill="#ADD1B2" rx="11" ry="11" style="stroke:#181818;stroke-width:1.0;"/><path d="M645.2438,495.6719 C644.3063,495.2344 643.7125,495.0938 642.8375,495.0938 C640.2125,495.0938 638.2125,497.1719 638.2125,499.8906 L638.2125,501.0156 C638.2125,503.5938 640.3219,505.4844 643.2125,505.4844 C644.4313,505.4844 645.5875,505.1875 646.3375,504.6406 C646.9156,504.2344 647.2438,503.7813 647.2438,503.3906 C647.2438,502.9375 646.8531,502.5469 646.3844,502.5469 C646.1656,502.5469 645.9625,502.625 645.775,502.8125 C645.3219,503.2969 645.3219,503.2969 645.1344,503.3906 C644.7125,503.6563 644.025,503.7813 643.2594,503.7813 C641.2125,503.7813 639.9156,502.6875 639.9156,500.9844 L639.9156,499.8906 C639.9156,498.1094 641.1656,496.7969 642.9,496.7969 C643.4781,496.7969 644.0875,496.9531 644.5563,497.2031 C645.0406,497.4844 645.2125,497.7031 645.3063,498.1094 C645.3688,498.5156 645.4,498.6406 645.5406,498.7656 C645.6813,498.9063 645.9156,499.0156 646.1344,499.0156 C646.4,499.0156 646.6656,498.875 646.8375,498.6563 C646.9469,498.5 646.9781,498.3125 646.9781,497.8906 L646.9781,496.4688 C646.9781,496.0313 646.9625,495.9063 646.8688,495.75 C646.7125,495.4844 646.4313,495.3438 646.1344,495.3438 C645.8375,495.3438 645.6344,495.4375 645.4156,495.75 L645.2438,495.6719 Z " fill="#000000"/><text fill="#000000" font-family="sans-serif" font-size="14" lengthAdjust="spacing" textLength="166" x="661.1" y="504.8467">_ModelListScreenState</text><line style="stroke:#181818;stroke-width:0.5;" x1="610" x2="848" y1="516" y2="516"/><ellipse cx="620" cy="529.6484" fill="none" rx="3" ry="3" style="stroke:#038048;stroke-width:1.0;"/><text fill="#000000" font-family="sans-serif" font-size="14" lengthAdjust="spacing" textLength="147" x="629" y="532.9951">List&lt;Model&gt; models</text><ellipse cx="620" cy="545.9453" fill="none" rx="3" ry="3" style="stroke:#038048;stroke-width:1.0;"/><text fill="#000000" font-family="sans-serif" font-size="14" lengthAdjust="spacing" textLength="214" x="629" y="549.292">ModelManager modelManager</text><line style="stroke:#181818;stroke-width:0.5;" x1="610" x2="848" y1="556.5938" y2="556.5938"/><ellipse cx="620" cy="570.2422" fill="#84BE84" rx="3" ry="3" style="stroke:#038048;stroke-width:1.0;"/><text fill="#000000" font-family="sans-serif" font-size="14" lengthAdjust="spacing" textLength="108" x="629" y="573.5889">void initState()</text><rect fill="#F24D5C" height="6" style="stroke:#C82930;stroke-width:1.0;" width="6" x="617" y="583.5391"/><text fill="#000000" font-family="sans-serif" font-size="14" lengthAdjust="spacing" textLength="131" x="629" y="589.8857">void _loadModels()</text><rect fill="#F24D5C" height="6" style="stroke:#C82930;stroke-width:1.0;" width="6" x="617" y="599.8359"/><text fill="#000000" font-family="sans-serif" font-size="14" lengthAdjust="spacing" textLength="133" x="629" y="606.1826">void _saveModels()</text><rect fill="#F24D5C" height="6" style="stroke:#C82930;stroke-width:1.0;" width="6" x="617" y="616.1328"/><text fill="#000000" font-family="sans-serif" font-size="14" lengthAdjust="spacing" textLength="141" x="629" y="622.4795">void _deleteModel()</text><rect fill="#F24D5C" height="6" style="stroke:#C82930;stroke-width:1.0;" width="6" x="617" y="632.4297"/><text fill="#000000" font-family="sans-serif" font-size="14" lengthAdjust="spacing" textLength="195" x="629" y="638.7764">void _addNewModelDialog()</text><ellipse cx="620" cy="651.7266" fill="#84BE84" rx="3" ry="3" style="stroke:#038048;stroke-width:1.0;"/><text fill="#000000" font-family="sans-serif" font-size="14" lengthAdjust="spacing" textLength="101" x="629" y="655.0732">Widget build()</text></g><!--class ResultObjectDetection--><g id="elem_ResultObjectDetection"><rect fill="#F1F1F1" height="48" id="ResultObjectDetection" rx="2.5" ry="2.5" style="stroke:#181818;stroke-width:0.5;" width="199" x="3611.5" y="880"/><ellipse cx="3626.5" cy="896" fill="#ADD1B2" rx="11" ry="11" style="stroke:#181818;stroke-width:1.0;"/><path d="M3628.8438,891.6719 C3627.9063,891.2344 3627.3125,891.0938 3626.4375,891.0938 C3623.8125,891.0938 3621.8125,893.1719 3621.8125,895.8906 L3621.8125,897.0156 C3621.8125,899.5938 3623.9219,901.4844 3626.8125,901.4844 C3628.0313,901.4844 3629.1875,901.1875 3629.9375,900.6406 C3630.5156,900.2344 3630.8438,899.7813 3630.8438,899.3906 C3630.8438,898.9375 3630.4531,898.5469 3629.9844,898.5469 C3629.7656,898.5469 3629.5625,898.625 3629.375,898.8125 C3628.9219,899.2969 3628.9219,899.2969 3628.7344,899.3906 C3628.3125,899.6563 3627.625,899.7813 3626.8594,899.7813 C3624.8125,899.7813 3623.5156,898.6875 3623.5156,896.9844 L3623.5156,895.8906 C3623.5156,894.1094 3624.7656,892.7969 3626.5,892.7969 C3627.0781,892.7969 3627.6875,892.9531 3628.1563,893.2031 C3628.6406,893.4844 3628.8125,893.7031 3628.9063,894.1094 C3628.9688,894.5156 3629,894.6406 3629.1406,894.7656 C3629.2813,894.9063 3629.5156,895.0156 3629.7344,895.0156 C3630,895.0156 3630.2656,894.875 3630.4375,894.6563 C3630.5469,894.5 3630.5781,894.3125 3630.5781,893.8906 L3630.5781,892.4688 C3630.5781,892.0313 3630.5625,891.9063 3630.4688,891.75 C3630.3125,891.4844 3630.0313,891.3438 3629.7344,891.3438 C3629.4375,891.3438 3629.2344,891.4375 3629.0156,891.75 L3628.8438,891.6719 Z " fill="#000000"/><text fill="#000000" font-family="sans-serif" font-size="14" lengthAdjust="spacing" textLength="167" x="3640.5" y="900.8467">ResultObjectDetection</text><line style="stroke:#181818;stroke-width:0.5;" x1="3612.5" x2="3809.5" y1="912" y2="912"/><line style="stroke:#181818;stroke-width:0.5;" x1="3612.5" x2="3809.5" y1="920" y2="920"/></g><!--class ModelObjectDetection--><g id="elem_ModelObjectDetection"><rect fill="#F1F1F1" height="48" id="ModelObjectDetection" rx="2.5" ry="2.5" style="stroke:#181818;stroke-width:0.5;" width="197" x="3867.5" y="880"/><ellipse cx="3882.5" cy="896" fill="#ADD1B2" rx="11" ry="11" style="stroke:#181818;stroke-width:1.0;"/><path d="M3884.8438,891.6719 C3883.9063,891.2344 3883.3125,891.0938 3882.4375,891.0938 C3879.8125,891.0938 3877.8125,893.1719 3877.8125,895.8906 L3877.8125,897.0156 C3877.8125,899.5938 3879.9219,901.4844 3882.8125,901.4844 C3884.0313,901.4844 3885.1875,901.1875 3885.9375,900.6406 C3886.5156,900.2344 3886.8438,899.7813 3886.8438,899.3906 C3886.8438,898.9375 3886.4531,898.5469 3885.9844,898.5469 C3885.7656,898.5469 3885.5625,898.625 3885.375,898.8125 C3884.9219,899.2969 3884.9219,899.2969 3884.7344,899.3906 C3884.3125,899.6563 3883.625,899.7813 3882.8594,899.7813 C3880.8125,899.7813 3879.5156,898.6875 3879.5156,896.9844 L3879.5156,895.8906 C3879.5156,894.1094 3880.7656,892.7969 3882.5,892.7969 C3883.0781,892.7969 3883.6875,892.9531 3884.1563,893.2031 C3884.6406,893.4844 3884.8125,893.7031 3884.9063,894.1094 C3884.9688,894.5156 3885,894.6406 3885.1406,894.7656 C3885.2813,894.9063 3885.5156,895.0156 3885.7344,895.0156 C3886,895.0156 3886.2656,894.875 3886.4375,894.6563 C3886.5469,894.5 3886.5781,894.3125 3886.5781,893.8906 L3886.5781,892.4688 C3886.5781,892.0313 3886.5625,891.9063 3886.4688,891.75 C3886.3125,891.4844 3886.0313,891.3438 3885.7344,891.3438 C3885.4375,891.3438 3885.2344,891.4375 3885.0156,891.75 L3884.8438,891.6719 Z " fill="#000000"/><text fill="#000000" font-family="sans-serif" font-size="14" lengthAdjust="spacing" textLength="165" x="3896.5" y="900.8467">ModelObjectDetection</text><line style="stroke:#181818;stroke-width:0.5;" x1="3868.5" x2="4063.5" y1="912" y2="912"/><line style="stroke:#181818;stroke-width:0.5;" x1="3868.5" x2="4063.5" y1="920" y2="920"/></g><!--class Color--><g id="elem_Color"><rect fill="#F1F1F1" height="48" id="Color" rx="2.5" ry="2.5" style="stroke:#181818;stroke-width:0.5;" width="70" x="4282" y="880"/><ellipse cx="4297" cy="896" fill="#ADD1B2" rx="11" ry="11" style="stroke:#181818;stroke-width:1.0;"/><path d="M4299.3438,891.6719 C4298.4063,891.2344 4297.8125,891.0938 4296.9375,891.0938 C4294.3125,891.0938 4292.3125,893.1719 4292.3125,895.8906 L4292.3125,897.0156 C4292.3125,899.5938 4294.4219,901.4844 4297.3125,901.4844 C4298.5313,901.4844 4299.6875,901.1875 4300.4375,900.6406 C4301.0156,900.2344 4301.3438,899.7813 4301.3438,899.3906 C4301.3438,898.9375 4300.9531,898.5469 4300.4844,898.5469 C4300.2656,898.5469 4300.0625,898.625 4299.875,898.8125 C4299.4219,899.2969 4299.4219,899.2969 4299.2344,899.3906 C4298.8125,899.6563 4298.125,899.7813 4297.3594,899.7813 C4295.3125,899.7813 4294.0156,898.6875 4294.0156,896.9844 L4294.0156,895.8906 C4294.0156,894.1094 4295.2656,892.7969 4297,892.7969 C4297.5781,892.7969 4298.1875,892.9531 4298.6563,893.2031 C4299.1406,893.4844 4299.3125,893.7031 4299.4063,894.1094 C4299.4688,894.5156 4299.5,894.6406 4299.6406,894.7656 C4299.7813,894.9063 4300.0156,895.0156 4300.2344,895.0156 C4300.5,895.0156 4300.7656,894.875 4300.9375,894.6563 C4301.0469,894.5 4301.0781,894.3125 4301.0781,893.8906 L4301.0781,892.4688 C4301.0781,892.0313 4301.0625,891.9063 4300.9688,891.75 C4300.8125,891.4844 4300.5313,891.3438 4300.2344,891.3438 C4299.9375,891.3438 4299.7344,891.4375 4299.5156,891.75 L4299.3438,891.6719 Z " fill="#000000"/><text fill="#000000" font-family="sans-serif" font-size="14" lengthAdjust="spacing" textLength="38" x="4311" y="900.8467">Color</text><line style="stroke:#181818;stroke-width:0.5;" x1="4283" x2="4351" y1="912" y2="912"/><line style="stroke:#181818;stroke-width:0.5;" x1="4283" x2="4351" y1="920" y2="920"/></g><!--class Size--><g id="elem_Size"><rect fill="#F1F1F1" height="48" id="Size" rx="2.5" ry="2.5" style="stroke:#181818;stroke-width:0.5;" width="62" x="4387" y="880"/><ellipse cx="4402" cy="896" fill="#ADD1B2" rx="11" ry="11" style="stroke:#181818;stroke-width:1.0;"/><path d="M4404.3438,891.6719 C4403.4063,891.2344 4402.8125,891.0938 4401.9375,891.0938 C4399.3125,891.0938 4397.3125,893.1719 4397.3125,895.8906 L4397.3125,897.0156 C4397.3125,899.5938 4399.4219,901.4844 4402.3125,901.4844 C4403.5313,901.4844 4404.6875,901.1875 4405.4375,900.6406 C4406.0156,900.2344 4406.3438,899.7813 4406.3438,899.3906 C4406.3438,898.9375 4405.9531,898.5469 4405.4844,898.5469 C4405.2656,898.5469 4405.0625,898.625 4404.875,898.8125 C4404.4219,899.2969 4404.4219,899.2969 4404.2344,899.3906 C4403.8125,899.6563 4403.125,899.7813 4402.3594,899.7813 C4400.3125,899.7813 4399.0156,898.6875 4399.0156,896.9844 L4399.0156,895.8906 C4399.0156,894.1094 4400.2656,892.7969 4402,892.7969 C4402.5781,892.7969 4403.1875,892.9531 4403.6563,893.2031 C4404.1406,893.4844 4404.3125,893.7031 4404.4063,894.1094 C4404.4688,894.5156 4404.5,894.6406 4404.6406,894.7656 C4404.7813,894.9063 4405.0156,895.0156 4405.2344,895.0156 C4405.5,895.0156 4405.7656,894.875 4405.9375,894.6563 C4406.0469,894.5 4406.0781,894.3125 4406.0781,893.8906 L4406.0781,892.4688 C4406.0781,892.0313 4406.0625,891.9063 4405.9688,891.75 C4405.8125,891.4844 4405.5313,891.3438 4405.2344,891.3438 C4404.9375,891.3438 4404.7344,891.4375 4404.5156,891.75 L4404.3438,891.6719 Z " fill="#000000"/><text fill="#000000" font-family="sans-serif" font-size="14" lengthAdjust="spacing" textLength="30" x="4416" y="900.8467">Size</text><line style="stroke:#181818;stroke-width:0.5;" x1="4388" x2="4448" y1="912" y2="912"/><line style="stroke:#181818;stroke-width:0.5;" x1="4388" x2="4448" y1="920" y2="920"/></g><!--class Radius--><g id="elem_Radius"><rect fill="#F1F1F1" height="48" id="Radius" rx="2.5" ry="2.5" style="stroke:#181818;stroke-width:0.5;" width="78" x="4169" y="880"/><ellipse cx="4184" cy="896" fill="#ADD1B2" rx="11" ry="11" style="stroke:#181818;stroke-width:1.0;"/><path d="M4186.3438,891.6719 C4185.4063,891.2344 4184.8125,891.0938 4183.9375,891.0938 C4181.3125,891.0938 4179.3125,893.1719 4179.3125,895.8906 L4179.3125,897.0156 C4179.3125,899.5938 4181.4219,901.4844 4184.3125,901.4844 C4185.5313,901.4844 4186.6875,901.1875 4187.4375,900.6406 C4188.0156,900.2344 4188.3438,899.7813 4188.3438,899.3906 C4188.3438,898.9375 4187.9531,898.5469 4187.4844,898.5469 C4187.2656,898.5469 4187.0625,898.625 4186.875,898.8125 C4186.4219,899.2969 4186.4219,899.2969 4186.2344,899.3906 C4185.8125,899.6563 4185.125,899.7813 4184.3594,899.7813 C4182.3125,899.7813 4181.0156,898.6875 4181.0156,896.9844 L4181.0156,895.8906 C4181.0156,894.1094 4182.2656,892.7969 4184,892.7969 C4184.5781,892.7969 4185.1875,892.9531 4185.6563,893.2031 C4186.1406,893.4844 4186.3125,893.7031 4186.4063,894.1094 C4186.4688,894.5156 4186.5,894.6406 4186.6406,894.7656 C4186.7813,894.9063 4187.0156,895.0156 4187.2344,895.0156 C4187.5,895.0156 4187.7656,894.875 4187.9375,894.6563 C4188.0469,894.5 4188.0781,894.3125 4188.0781,893.8906 L4188.0781,892.4688 C4188.0781,892.0313 4188.0625,891.9063 4187.9688,891.75 C4187.8125,891.4844 4187.5313,891.3438 4187.2344,891.3438 C4186.9375,891.3438 4186.7344,891.4375 4186.5156,891.75 L4186.3438,891.6719 Z " fill="#000000"/><text fill="#000000" font-family="sans-serif" font-size="14" lengthAdjust="spacing" textLength="46" x="4198" y="900.8467">Radius</text><line style="stroke:#181818;stroke-width:0.5;" x1="4170" x2="4246" y1="912" y2="912"/><line style="stroke:#181818;stroke-width:0.5;" x1="4170" x2="4246" y1="920" y2="920"/></g><!--class StatelessWidget--><g id="elem_StatelessWidget"><rect fill="#F1F1F1" height="48" id="StatelessWidget" rx="2.5" ry="2.5" style="stroke:#181818;stroke-width:0.5;" width="151" x="1192.5" y="170"/><ellipse cx="1207.5" cy="186" fill="#ADD1B2" rx="11" ry="11" style="stroke:#181818;stroke-width:1.0;"/><path d="M1209.8438,181.6719 C1208.9063,181.2344 1208.3125,181.0938 1207.4375,181.0938 C1204.8125,181.0938 1202.8125,183.1719 1202.8125,185.8906 L1202.8125,187.0156 C1202.8125,189.5938 1204.9219,191.4844 1207.8125,191.4844 C1209.0313,191.4844 1210.1875,191.1875 1210.9375,190.6406 C1211.5156,190.2344 1211.8438,189.7813 1211.8438,189.3906 C1211.8438,188.9375 1211.4531,188.5469 1210.9844,188.5469 C1210.7656,188.5469 1210.5625,188.625 1210.375,188.8125 C1209.9219,189.2969 1209.9219,189.2969 1209.7344,189.3906 C1209.3125,189.6563 1208.625,189.7813 1207.8594,189.7813 C1205.8125,189.7813 1204.5156,188.6875 1204.5156,186.9844 L1204.5156,185.8906 C1204.5156,184.1094 1205.7656,182.7969 1207.5,182.7969 C1208.0781,182.7969 1208.6875,182.9531 1209.1563,183.2031 C1209.6406,183.4844 1209.8125,183.7031 1209.9063,184.1094 C1209.9688,184.5156 1210,184.6406 1210.1406,184.7656 C1210.2813,184.9063 1210.5156,185.0156 1210.7344,185.0156 C1211,185.0156 1211.2656,184.875 1211.4375,184.6563 C1211.5469,184.5 1211.5781,184.3125 1211.5781,183.8906 L1211.5781,182.4688 C1211.5781,182.0313 1211.5625,181.9063 1211.4688,181.75 C1211.3125,181.4844 1211.0313,181.3438 1210.7344,181.3438 C1210.4375,181.3438 1210.2344,181.4375 1210.0156,181.75 L1209.8438,181.6719 Z " fill="#000000"/><text fill="#000000" font-family="sans-serif" font-size="14" lengthAdjust="spacing" textLength="119" x="1221.5" y="190.8467">StatelessWidget</text><line style="stroke:#181818;stroke-width:0.5;" x1="1193.5" x2="1342.5" y1="202" y2="202"/><line style="stroke:#181818;stroke-width:0.5;" x1="1193.5" x2="1342.5" y1="210" y2="210"/></g><!--class StatefulWidget--><g id="elem_StatefulWidget"><rect fill="#F1F1F1" height="48" id="StatefulWidget" rx="2.5" ry="2.5" style="stroke:#181818;stroke-width:0.5;" width="142" x="1379" y="170"/><ellipse cx="1394" cy="186" fill="#ADD1B2" rx="11" ry="11" style="stroke:#181818;stroke-width:1.0;"/><path d="M1396.3438,181.6719 C1395.4063,181.2344 1394.8125,181.0938 1393.9375,181.0938 C1391.3125,181.0938 1389.3125,183.1719 1389.3125,185.8906 L1389.3125,187.0156 C1389.3125,189.5938 1391.4219,191.4844 1394.3125,191.4844 C1395.5313,191.4844 1396.6875,191.1875 1397.4375,190.6406 C1398.0156,190.2344 1398.3438,189.7813 1398.3438,189.3906 C1398.3438,188.9375 1397.9531,188.5469 1397.4844,188.5469 C1397.2656,188.5469 1397.0625,188.625 1396.875,188.8125 C1396.4219,189.2969 1396.4219,189.2969 1396.2344,189.3906 C1395.8125,189.6563 1395.125,189.7813 1394.3594,189.7813 C1392.3125,189.7813 1391.0156,188.6875 1391.0156,186.9844 L1391.0156,185.8906 C1391.0156,184.1094 1392.2656,182.7969 1394,182.7969 C1394.5781,182.7969 1395.1875,182.9531 1395.6563,183.2031 C1396.1406,183.4844 1396.3125,183.7031 1396.4063,184.1094 C1396.4688,184.5156 1396.5,184.6406 1396.6406,184.7656 C1396.7813,184.9063 1397.0156,185.0156 1397.2344,185.0156 C1397.5,185.0156 1397.7656,184.875 1397.9375,184.6563 C1398.0469,184.5 1398.0781,184.3125 1398.0781,183.8906 L1398.0781,182.4688 C1398.0781,182.0313 1398.0625,181.9063 1397.9688,181.75 C1397.8125,181.4844 1397.5313,181.3438 1397.2344,181.3438 C1396.9375,181.3438 1396.7344,181.4375 1396.5156,181.75 L1396.3438,181.6719 Z " fill="#000000"/><text fill="#000000" font-family="sans-serif" font-size="14" lengthAdjust="spacing" textLength="110" x="1408" y="190.8467">StatefulWidget</text><line style="stroke:#181818;stroke-width:0.5;" x1="1380" x2="1520" y1="202" y2="202"/><line style="stroke:#181818;stroke-width:0.5;" x1="1380" x2="1520" y1="210" y2="210"/></g><!--class State--><g id="elem_State"><rect fill="#F1F1F1" height="48" id="State" rx="2.5" ry="2.5" style="stroke:#181818;stroke-width:0.5;" width="72" x="1817" y="170"/><ellipse cx="1832" cy="186" fill="#ADD1B2" rx="11" ry="11" style="stroke:#181818;stroke-width:1.0;"/><path d="M1834.3438,181.6719 C1833.4063,181.2344 1832.8125,181.0938 1831.9375,181.0938 C1829.3125,181.0938 1827.3125,183.1719 1827.3125,185.8906 L1827.3125,187.0156 C1827.3125,189.5938 1829.4219,191.4844 1832.3125,191.4844 C1833.5313,191.4844 1834.6875,191.1875 1835.4375,190.6406 C1836.0156,190.2344 1836.3438,189.7813 1836.3438,189.3906 C1836.3438,188.9375 1835.9531,188.5469 1835.4844,188.5469 C1835.2656,188.5469 1835.0625,188.625 1834.875,188.8125 C1834.4219,189.2969 1834.4219,189.2969 1834.2344,189.3906 C1833.8125,189.6563 1833.125,189.7813 1832.3594,189.7813 C1830.3125,189.7813 1829.0156,188.6875 1829.0156,186.9844 L1829.0156,185.8906 C1829.0156,184.1094 1830.2656,182.7969 1832,182.7969 C1832.5781,182.7969 1833.1875,182.9531 1833.6563,183.2031 C1834.1406,183.4844 1834.3125,183.7031 1834.4063,184.1094 C1834.4688,184.5156 1834.5,184.6406 1834.6406,184.7656 C1834.7813,184.9063 1835.0156,185.0156 1835.2344,185.0156 C1835.5,185.0156 1835.7656,184.875 1835.9375,184.6563 C1836.0469,184.5 1836.0781,184.3125 1836.0781,183.8906 L1836.0781,182.4688 C1836.0781,182.0313 1836.0625,181.9063 1835.9688,181.75 C1835.8125,181.4844 1835.5313,181.3438 1835.2344,181.3438 C1834.9375,181.3438 1834.7344,181.4375 1834.5156,181.75 L1834.3438,181.6719 Z " fill="#000000"/><text fill="#000000" font-family="sans-serif" font-size="14" lengthAdjust="spacing" textLength="40" x="1846" y="190.8467">State</text><line style="stroke:#181818;stroke-width:0.5;" x1="1818" x2="1888" y1="202" y2="202"/><line style="stroke:#181818;stroke-width:0.5;" x1="1818" x2="1888" y1="210" y2="210"/></g><!--class GlobalKey<ScaffoldState>--><g id="elem_GlobalKey&lt;ScaffoldState&gt;"><rect fill="#F1F1F1" height="48" id="GlobalKey&lt;ScaffoldState&gt;" rx="2.5" ry="2.5" style="stroke:#181818;stroke-width:0.5;" width="226" x="1556" y="170"/><ellipse cx="1571" cy="186" fill="#ADD1B2" rx="11" ry="11" style="stroke:#181818;stroke-width:1.0;"/><path d="M1573.3438,181.6719 C1572.4063,181.2344 1571.8125,181.0938 1570.9375,181.0938 C1568.3125,181.0938 1566.3125,183.1719 1566.3125,185.8906 L1566.3125,187.0156 C1566.3125,189.5938 1568.4219,191.4844 1571.3125,191.4844 C1572.5313,191.4844 1573.6875,191.1875 1574.4375,190.6406 C1575.0156,190.2344 1575.3438,189.7813 1575.3438,189.3906 C1575.3438,188.9375 1574.9531,188.5469 1574.4844,188.5469 C1574.2656,188.5469 1574.0625,188.625 1573.875,188.8125 C1573.4219,189.2969 1573.4219,189.2969 1573.2344,189.3906 C1572.8125,189.6563 1572.125,189.7813 1571.3594,189.7813 C1569.3125,189.7813 1568.0156,188.6875 1568.0156,186.9844 L1568.0156,185.8906 C1568.0156,184.1094 1569.2656,182.7969 1571,182.7969 C1571.5781,182.7969 1572.1875,182.9531 1572.6563,183.2031 C1573.1406,183.4844 1573.3125,183.7031 1573.4063,184.1094 C1573.4688,184.5156 1573.5,184.6406 1573.6406,184.7656 C1573.7813,184.9063 1574.0156,185.0156 1574.2344,185.0156 C1574.5,185.0156 1574.7656,184.875 1574.9375,184.6563 C1575.0469,184.5 1575.0781,184.3125 1575.0781,183.8906 L1575.0781,182.4688 C1575.0781,182.0313 1575.0625,181.9063 1574.9688,181.75 C1574.8125,181.4844 1574.5313,181.3438 1574.2344,181.3438 C1573.9375,181.3438 1573.7344,181.4375 1573.5156,181.75 L1573.3438,181.6719 Z " fill="#000000"/><text fill="#000000" font-family="sans-serif" font-size="14" lengthAdjust="spacing" textLength="194" x="1585" y="190.8467">GlobalKey&lt;ScaffoldState&gt;</text><line style="stroke:#181818;stroke-width:0.5;" x1="1557" x2="1781" y1="202" y2="202"/><line style="stroke:#181818;stroke-width:0.5;" x1="1557" x2="1781" y1="210" y2="210"/></g><!--class WidgetsBindingObserver--><g id="elem_WidgetsBindingObserver"><rect fill="#F1F1F1" height="48" id="WidgetsBindingObserver" rx="2.5" ry="2.5" style="stroke:#181818;stroke-width:0.5;" width="211" x="1945.5" y="170"/><ellipse cx="1960.5" cy="186" fill="#ADD1B2" rx="11" ry="11" style="stroke:#181818;stroke-width:1.0;"/><path d="M1962.8438,181.6719 C1961.9063,181.2344 1961.3125,181.0938 1960.4375,181.0938 C1957.8125,181.0938 1955.8125,183.1719 1955.8125,185.8906 L1955.8125,187.0156 C1955.8125,189.5938 1957.9219,191.4844 1960.8125,191.4844 C1962.0313,191.4844 1963.1875,191.1875 1963.9375,190.6406 C1964.5156,190.2344 1964.8438,189.7813 1964.8438,189.3906 C1964.8438,188.9375 1964.4531,188.5469 1963.9844,188.5469 C1963.7656,188.5469 1963.5625,188.625 1963.375,188.8125 C1962.9219,189.2969 1962.9219,189.2969 1962.7344,189.3906 C1962.3125,189.6563 1961.625,189.7813 1960.8594,189.7813 C1958.8125,189.7813 1957.5156,188.6875 1957.5156,186.9844 L1957.5156,185.8906 C1957.5156,184.1094 1958.7656,182.7969 1960.5,182.7969 C1961.0781,182.7969 1961.6875,182.9531 1962.1563,183.2031 C1962.6406,183.4844 1962.8125,183.7031 1962.9063,184.1094 C1962.9688,184.5156 1963,184.6406 1963.1406,184.7656 C1963.2813,184.9063 1963.5156,185.0156 1963.7344,185.0156 C1964,185.0156 1964.2656,184.875 1964.4375,184.6563 C1964.5469,184.5 1964.5781,184.3125 1964.5781,183.8906 L1964.5781,182.4688 C1964.5781,182.0313 1964.5625,181.9063 1964.4688,181.75 C1964.3125,181.4844 1964.0313,181.3438 1963.7344,181.3438 C1963.4375,181.3438 1963.2344,181.4375 1963.0156,181.75 L1962.8438,181.6719 Z " fill="#000000"/><text fill="#000000" font-family="sans-serif" font-size="14" lengthAdjust="spacing" textLength="179" x="1974.5" y="190.8467">WidgetsBindingObserver</text><line style="stroke:#181818;stroke-width:0.5;" x1="1946.5" x2="2155.5" y1="202" y2="202"/><line style="stroke:#181818;stroke-width:0.5;" x1="1946.5" x2="2155.5" y1="210" y2="210"/></g><!--class BorderRadius--><g id="elem_BorderRadius"><rect fill="#F1F1F1" height="48" id="BorderRadius" rx="2.5" ry="2.5" style="stroke:#181818;stroke-width:0.5;" width="127" x="2261.5" y="170"/><ellipse cx="2276.5" cy="186" fill="#ADD1B2" rx="11" ry="11" style="stroke:#181818;stroke-width:1.0;"/><path d="M2278.8438,181.6719 C2277.9063,181.2344 2277.3125,181.0938 2276.4375,181.0938 C2273.8125,181.0938 2271.8125,183.1719 2271.8125,185.8906 L2271.8125,187.0156 C2271.8125,189.5938 2273.9219,191.4844 2276.8125,191.4844 C2278.0313,191.4844 2279.1875,191.1875 2279.9375,190.6406 C2280.5156,190.2344 2280.8438,189.7813 2280.8438,189.3906 C2280.8438,188.9375 2280.4531,188.5469 2279.9844,188.5469 C2279.7656,188.5469 2279.5625,188.625 2279.375,188.8125 C2278.9219,189.2969 2278.9219,189.2969 2278.7344,189.3906 C2278.3125,189.6563 2277.625,189.7813 2276.8594,189.7813 C2274.8125,189.7813 2273.5156,188.6875 2273.5156,186.9844 L2273.5156,185.8906 C2273.5156,184.1094 2274.7656,182.7969 2276.5,182.7969 C2277.0781,182.7969 2277.6875,182.9531 2278.1563,183.2031 C2278.6406,183.4844 2278.8125,183.7031 2278.9063,184.1094 C2278.9688,184.5156 2279,184.6406 2279.1406,184.7656 C2279.2813,184.9063 2279.5156,185.0156 2279.7344,185.0156 C2280,185.0156 2280.2656,184.875 2280.4375,184.6563 C2280.5469,184.5 2280.5781,184.3125 2280.5781,183.8906 L2280.5781,182.4688 C2280.5781,182.0313 2280.5625,181.9063 2280.4688,181.75 C2280.3125,181.4844 2280.0313,181.3438 2279.7344,181.3438 C2279.4375,181.3438 2279.2344,181.4375 2279.0156,181.75 L2278.8438,181.6719 Z " fill="#000000"/><text fill="#000000" font-family="sans-serif" font-size="14" lengthAdjust="spacing" textLength="95" x="2290.5" y="190.8467">BorderRadius</text><line style="stroke:#181818;stroke-width:0.5;" x1="2262.5" x2="2387.5" y1="202" y2="202"/><line style="stroke:#181818;stroke-width:0.5;" x1="2262.5" x2="2387.5" y1="210" y2="210"/></g><!--class dynamic Function(List<ResultObjectDetection>)--><g id="elem_dynamic Function(List&lt;ResultObjectDetection&gt;)"><rect fill="#F1F1F1" height="48" id="dynamic Function(List&lt;ResultObjectDetection&gt;)" rx="2.5" ry="2.5" style="stroke:#181818;stroke-width:0.5;" width="383" x="4529.5" y="880"/><ellipse cx="4544.5" cy="896" fill="#ADD1B2" rx="11" ry="11" style="stroke:#181818;stroke-width:1.0;"/><path d="M4546.8438,891.6719 C4545.9063,891.2344 4545.3125,891.0938 4544.4375,891.0938 C4541.8125,891.0938 4539.8125,893.1719 4539.8125,895.8906 L4539.8125,897.0156 C4539.8125,899.5938 4541.9219,901.4844 4544.8125,901.4844 C4546.0313,901.4844 4547.1875,901.1875 4547.9375,900.6406 C4548.5156,900.2344 4548.8438,899.7813 4548.8438,899.3906 C4548.8438,898.9375 4548.4531,898.5469 4547.9844,898.5469 C4547.7656,898.5469 4547.5625,898.625 4547.375,898.8125 C4546.9219,899.2969 4546.9219,899.2969 4546.7344,899.3906 C4546.3125,899.6563 4545.625,899.7813 4544.8594,899.7813 C4542.8125,899.7813 4541.5156,898.6875 4541.5156,896.9844 L4541.5156,895.8906 C4541.5156,894.1094 4542.7656,892.7969 4544.5,892.7969 C4545.0781,892.7969 4545.6875,892.9531 4546.1563,893.2031 C4546.6406,893.4844 4546.8125,893.7031 4546.9063,894.1094 C4546.9688,894.5156 4547,894.6406 4547.1406,894.7656 C4547.2813,894.9063 4547.5156,895.0156 4547.7344,895.0156 C4548,895.0156 4548.2656,894.875 4548.4375,894.6563 C4548.5469,894.5 4548.5781,894.3125 4548.5781,893.8906 L4548.5781,892.4688 C4548.5781,892.0313 4548.5625,891.9063 4548.4688,891.75 C4548.3125,891.4844 4548.0313,891.3438 4547.7344,891.3438 C4547.4375,891.3438 4547.2344,891.4375 4547.0156,891.75 L4546.8438,891.6719 Z " fill="#000000"/><text fill="#000000" font-family="sans-serif" font-size="14" lengthAdjust="spacing" textLength="351" x="4558.5" y="900.8467">dynamic Function(List&lt;ResultObjectDetection&gt;)</text><line style="stroke:#181818;stroke-width:0.5;" x1="4530.5" x2="4911.5" y1="912" y2="912"/><line style="stroke:#181818;stroke-width:0.5;" x1="4530.5" x2="4911.5" y1="920" y2="920"/></g><!--class CameraController--><g id="elem_CameraController"><rect fill="#F1F1F1" height="48" id="CameraController" rx="2.5" ry="2.5" style="stroke:#181818;stroke-width:0.5;" width="160" x="5017" y="880"/><ellipse cx="5032" cy="896" fill="#ADD1B2" rx="11" ry="11" style="stroke:#181818;stroke-width:1.0;"/><path d="M5034.3438,891.6719 C5033.4063,891.2344 5032.8125,891.0938 5031.9375,891.0938 C5029.3125,891.0938 5027.3125,893.1719 5027.3125,895.8906 L5027.3125,897.0156 C5027.3125,899.5938 5029.4219,901.4844 5032.3125,901.4844 C5033.5313,901.4844 5034.6875,901.1875 5035.4375,900.6406 C5036.0156,900.2344 5036.3438,899.7813 5036.3438,899.3906 C5036.3438,898.9375 5035.9531,898.5469 5035.4844,898.5469 C5035.2656,898.5469 5035.0625,898.625 5034.875,898.8125 C5034.4219,899.2969 5034.4219,899.2969 5034.2344,899.3906 C5033.8125,899.6563 5033.125,899.7813 5032.3594,899.7813 C5030.3125,899.7813 5029.0156,898.6875 5029.0156,896.9844 L5029.0156,895.8906 C5029.0156,894.1094 5030.2656,892.7969 5032,892.7969 C5032.5781,892.7969 5033.1875,892.9531 5033.6563,893.2031 C5034.1406,893.4844 5034.3125,893.7031 5034.4063,894.1094 C5034.4688,894.5156 5034.5,894.6406 5034.6406,894.7656 C5034.7813,894.9063 5035.0156,895.0156 5035.2344,895.0156 C5035.5,895.0156 5035.7656,894.875 5035.9375,894.6563 C5036.0469,894.5 5036.0781,894.3125 5036.0781,893.8906 L5036.0781,892.4688 C5036.0781,892.0313 5036.0625,891.9063 5035.9688,891.75 C5035.8125,891.4844 5035.5313,891.3438 5035.2344,891.3438 C5034.9375,891.3438 5034.7344,891.4375 5034.5156,891.75 L5034.3438,891.6719 Z " fill="#000000"/><text fill="#000000" font-family="sans-serif" font-size="14" lengthAdjust="spacing" textLength="128" x="5046" y="900.8467">CameraController</text><line style="stroke:#181818;stroke-width:0.5;" x1="5018" x2="5176" y1="912" y2="912"/><line style="stroke:#181818;stroke-width:0.5;" x1="5018" x2="5176" y1="920" y2="920"/></g><!--reverse link BoxWidget to ResultObjectDetection--><g id="link_BoxWidget_ResultObjectDetection"><path codeLine="10" d="M2257.73,639.943 C2288.1,676.644 2330.73,719.537 2379,743 C2596.85,848.9 3340.02,888.338 3611.05,899.404 " fill="none" id="BoxWidget-backto-ResultObjectDetection" style="stroke:#181818;stroke-width:1.0;"/><polygon fill="none" points="2249.49,629.777,2250.1591,636.957,2257.0441,639.1009,2256.375,631.9209,2249.49,629.777" style="stroke:#181818;stroke-width:1.0;"/></g><!--reverse link BoxWidget to Color--><g id="link_BoxWidget_Color"><path codeLine="11" d="M2255.21,640.036 C2285.34,677.91 2328.59,721.993 2379,743 C2403.18,753.076 4243.72,735.722 4265,751 C4306.35,780.687 4315.17,845.295 4316.83,879.947 " fill="none" id="BoxWidget-backto-Color" style="stroke:#181818;stroke-width:1.0;"/><polygon fill="none" points="2247.07,629.542,2247.5886,636.7344,2254.4272,639.022,2253.9086,631.8296,2247.07,629.542" style="stroke:#181818;stroke-width:1.0;"/></g><!--reverse link StatelessWidget to BoxWidget--><g id="link_StatelessWidget_BoxWidget"><path codeLine="12" d="M1287.53,235.797 C1303.17,263.382 1327.97,297.654 1361,314 C1395.36,331.002 2017.5,303.354 2051,322 C2125.6,363.531 2170.31,456.319 2192.52,516.428 " fill="none" id="StatelessWidget-backto-BoxWidget" style="stroke:#181818;stroke-width:1.0;"/><polygon fill="none" points="1281.31,239.026,1278.17,218.071,1293.7,232.49,1281.31,239.026" style="stroke:#181818;stroke-width:1.0;"/></g><!--reverse link CameraView to dynamic Function(List<ResultObjectDetection>)--><g id="link_CameraView_dynamic Function(List&lt;ResultObjectDetection&gt;)"><path codeLine="20" d="M2964.71,629.91 C3015.62,670.021 3090.38,720.756 3166,743 C3235.23,763.365 4395.47,731.682 4465,751 C4556.64,776.458 4648.8,843.844 4693.39,879.734 " fill="none" id="CameraView-backto-dynamic Function(List&lt;ResultObjectDetection&gt;)" style="stroke:#181818;stroke-width:1.0;"/><polygon fill="none" points="2954.54,621.784,2956.7375,628.6521,2963.9225,629.2652,2961.725,622.3971,2954.54,621.784" style="stroke:#181818;stroke-width:1.0;"/></g><!--reverse link CameraView to Model--><g id="link_CameraView_Model"><path codeLine="21" d="M2824.71,629.179 C2768.62,667.427 2688.63,716.136 2611,743 C2249.65,868.052 1793.02,895.709 1576.63,901.588 " fill="none" id="CameraView-backto-Model" style="stroke:#181818;stroke-width:1.0;"/><polygon fill="none" points="2835.61,621.679,2828.3997,621.7867,2825.7259,628.4838,2832.9362,628.3761,2835.61,621.679" style="stroke:#181818;stroke-width:1.0;"/></g><!--reverse link StatefulWidget to CameraView--><g id="link_StatefulWidget_CameraView"><path codeLine="22" d="M1468.12,236.174 C1482.66,263.679 1505.97,297.697 1538,314 C1564.56,327.519 2583.11,311.491 2611,322 C2719.18,362.757 2813.98,463.856 2863.5,524.269 " fill="none" id="StatefulWidget-backto-CameraView" style="stroke:#181818;stroke-width:1.0;"/><polygon fill="none" points="1461.76,239.1,1459.26,218.058,1474.33,232.95,1461.76,239.1" style="stroke:#181818;stroke-width:1.0;"/></g><!--reverse link _CameraViewState to CameraController--><g id="link__CameraViewState_CameraController"><path codeLine="39" d="M3495.92,579.422 C3849.47,593.213 4675.67,636.975 4929,751 C4994.46,780.463 5051.97,845.167 5079.59,879.892 " fill="none" id="_CameraViewState-backto-CameraController" style="stroke:#181818;stroke-width:1.0;"/><polygon fill="none" points="3482.77,578.914,3488.6117,583.1418,3494.7611,579.3756,3488.9194,575.1477,3482.77,578.914" style="stroke:#181818;stroke-width:1.0;"/></g><!--reverse link _CameraViewState to ModelObjectDetection--><g id="link__CameraViewState_ModelObjectDetection"><path codeLine="40" d="M3495.53,610.8 C3596.61,638.692 3726.07,683.855 3827,751 C3880.44,786.554 3927.28,846.979 3950.5,879.917 " fill="none" id="_CameraViewState-backto-ModelObjectDetection" style="stroke:#181818;stroke-width:1.0;"/><polygon fill="none" points="3482.73,607.315,3487.4747,612.7453,3494.3121,610.4542,3489.5675,605.0239,3482.73,607.315" style="stroke:#181818;stroke-width:1.0;"/></g><!--reverse link State to _CameraViewState--><g id="link_State__CameraViewState"><path codeLine="41" d="M1867.75,237.277 C1879.69,264.475 1899.44,297.681 1929,314 C1959.08,330.608 3135.75,305.702 3166,322 C3217.81,349.913 3256.38,401.733 3283.32,450.987 " fill="none" id="State-backto-_CameraViewState" style="stroke:#181818;stroke-width:1.0;"/><polygon fill="none" points="1861.15,239.617,1860.26,218.446,1874.15,234.441,1861.15,239.617" style="stroke:#181818;stroke-width:1.0;"/></g><!--reverse link WidgetsBindingObserver to _CameraViewState--><g id="link_WidgetsBindingObserver__CameraViewState"><path codeLine="42" d="M2093.85,230.835 C2131.13,259.547 2187.99,297.639 2245,314 C2269.59,321.057 3143.49,309.84 3166,322 C3217.66,349.908 3256.17,401.568 3283.11,450.713 " fill="none" id="WidgetsBindingObserver-backto-_CameraViewState" style="stroke:#181818;stroke-width:1.0;"/><polygon fill="none" points="2089.26,236.127,2077.93,218.219,2097.95,225.154,2089.26,236.127" style="stroke:#181818;stroke-width:1.0;"/></g><!--reverse link CameraViewSingleton to Size--><g id="link_CameraViewSingleton_Size"><path codeLine="52" d="M2536.02,649.056 C2559.82,684.511 2593.35,723.303 2635,743 C2656.78,753.303 4350.6,736.71 4370,751 C4410.55,780.866 4417.71,845.092 4418.45,879.727 " fill="none" id="CameraViewSingleton-backto-Size" style="stroke:#181818;stroke-width:1.0;"/><polygon fill="none" points="2528.64,637.69,2528.5545,644.9006,2535.1775,647.7528,2535.263,640.5422,2528.64,637.69" style="stroke:#181818;stroke-width:1.0;"/></g><!--reverse link RunModelByCameraDemo to Model--><g id="link_RunModelByCameraDemo_Model"><path codeLine="59" d="M1452,626.816 C1452,679.773 1452,761.989 1452,822.961 " fill="none" id="RunModelByCameraDemo-backto-Model" style="stroke:#181818;stroke-width:1.0;"/><polygon fill="none" points="1452,613.685,1448,619.685,1452,625.685,1456,619.685,1452,613.685" style="stroke:#181818;stroke-width:1.0;"/></g><!--reverse link StatefulWidget to RunModelByCameraDemo--><g id="link_StatefulWidget_RunModelByCameraDemo"><path codeLine="60" d="M1450.23,238.323 C1450.62,312.073 1451.41,460.932 1451.79,532.205 " fill="none" id="StatefulWidget-backto-RunModelByCameraDemo" style="stroke:#181818;stroke-width:1.0;"/><polygon fill="none" points="1443.23,238.052,1450.12,218.016,1457.23,237.978,1443.23,238.052" style="stroke:#181818;stroke-width:1.0;"/></g><!--reverse link _RunModelByCameraDemoState to GlobalKey<ScaffoldState>--><g id="link__RunModelByCameraDemoState_GlobalKey&lt;ScaffoldState&gt;"><path codeLine="76" d="M1790.86,447.422 C1750.81,364.47 1701.72,262.783 1680.11,218.016 " fill="none" id="_RunModelByCameraDemoState-backto-GlobalKey&lt;ScaffoldState&gt;" style="stroke:#181818;stroke-width:1.0;"/><polygon fill="none" points="1796.57,459.256,1797.5649,452.1139,1791.3547,448.4485,1790.3599,455.5907,1796.57,459.256" style="stroke:#181818;stroke-width:1.0;"/></g><!--reverse link _RunModelByCameraDemoState to Radius--><g id="link__RunModelByCameraDemoState_Radius"><path codeLine="77" d="M1982.14,694.331 C2010.85,714.285 2042.46,732.029 2075,743 C2101.4,751.901 4055.79,739.148 4081,751 C4138.11,777.842 4178.6,844.301 4196.95,879.79 " fill="none" id="_RunModelByCameraDemoState-backto-Radius" style="stroke:#181818;stroke-width:1.0;"/><polygon fill="none" points="1971.28,686.584,1973.8443,693.3237,1981.0519,693.5489,1978.4876,686.8091,1971.28,686.584" style="stroke:#181818;stroke-width:1.0;"/></g><!--reverse link _RunModelByCameraDemoState to BorderRadius--><g id="link__RunModelByCameraDemoState_BorderRadius"><path codeLine="78" d="M1930.27,448.84 C1968,400.825 2017.5,350.549 2075,322 C2114.14,302.567 2132.3,329.918 2173,314 C2226.68,293.002 2276.85,246.502 2303.98,218.247 " fill="none" id="_RunModelByCameraDemoState-backto-BorderRadius" style="stroke:#181818;stroke-width:1.0;"/><polygon fill="none" points="1922.16,459.363,1928.9907,457.052,1929.4847,449.8578,1922.6539,452.1688,1922.16,459.363" style="stroke:#181818;stroke-width:1.0;"/></g><!--reverse link State to _RunModelByCameraDemoState--><g id="link_State__RunModelByCameraDemoState"><path codeLine="79" d="M1852.77,238.372 C1852.49,291.915 1851.99,384.994 1851.6,459.256 " fill="none" id="State-backto-_RunModelByCameraDemoState" style="stroke:#181818;stroke-width:1.0;"/><polygon fill="none" points="1845.77,237.978,1852.88,218.016,1859.77,238.052,1845.77,237.978" style="stroke:#181818;stroke-width:1.0;"/></g><!--reverse link StatelessWidget to ResultsRow--><g id="link_StatelessWidget_ResultsRow"><path codeLine="86" d="M1247.67,236.432 C1211.81,309.5 1137.8,460.318 1102.53,532.205 " fill="none" id="StatelessWidget-backto-ResultsRow" style="stroke:#181818;stroke-width:1.0;"/><polygon fill="none" points="1241.61,232.887,1256.71,218.016,1254.18,239.054,1241.61,232.887" style="stroke:#181818;stroke-width:1.0;"/></g><!--reverse link StatelessWidget to ModelManagementApp--><g id="link_StatelessWidget_ModelManagementApp"><path codeLine="92" d="M1172.17,195.607 C949.773,198.8 406.651,217.396 263,322 C189.59,375.455 160.752,486.758 150.723,540.977 " fill="none" id="StatelessWidget-backto-ModelManagementApp" style="stroke:#181818;stroke-width:1.0;"/><polygon fill="none" points="1172.26,188.606,1192.35,195.348,1172.44,202.605,1172.26,188.606" style="stroke:#181818;stroke-width:1.0;"/></g><!--reverse link StatefulWidget to ModelListScreen--><g id="link_StatefulWidget_ModelListScreen"><path codeLine="98" d="M1431.54,236.158 C1416.77,263.656 1393.18,297.671 1361,314 C1322.85,333.356 628.537,301.479 591,322 C504.234,369.434 455.786,484.709 436.674,540.593 " fill="none" id="StatefulWidget-backto-ModelListScreen" style="stroke:#181818;stroke-width:1.0;"/><polygon fill="none" points="1425.38,232.837,1440.55,218.048,1437.91,239.072,1425.38,232.837" style="stroke:#181818;stroke-width:1.0;"/></g><!--reverse link _ModelListScreenState to ModelManager--><g id="link__ModelListScreenState_ModelManager"><path codeLine="111" d="M828.884,670.924 C855.505,695.299 884.74,720.818 913,743 C951.998,773.61 996.73,804.473 1036.92,830.816 " fill="none" id="_ModelListScreenState-backto-ModelManager" style="stroke:#181818;stroke-width:1.0;"/><polygon fill="none" points="819.202,662.003,820.9046,669.0102,828.0276,670.1337,826.325,663.1265,819.202,662.003" style="stroke:#181818;stroke-width:1.0;"/></g><!--reverse link State to _ModelListScreenState--><g id="link_State__ModelListScreenState"><path codeLine="112" d="M1845.53,238.002 C1838.43,264.772 1824.81,297.205 1799,314 C1778.37,327.424 934.914,310.795 913,322 C846.545,355.981 798.14,426.368 767.705,483.822 " fill="none" id="State-backto-_ModelListScreenState" style="stroke:#181818;stroke-width:1.0;"/><polygon fill="none" points="1838.77,236.161,1849.94,218.154,1852.44,239.196,1838.77,236.161" style="stroke:#181818;stroke-width:1.0;"/></g><!--SRC=[nLXBS-Cs3BxxLt1ysipMFVIeoJWJsqbtswJ9s6bxr50KxB1BYngIijVTvhyNV4YMvBUzQIzP2o21Zy1705mDXcHq3Zgd32QGKqMDL2IAEXqcgDQaM_0eceh2651FoL_0p0WC_kKoYw94VesNF9s1-J6boaJHG7xzqtrtoRSE8H_7e0jXMlk8SbAh7qeXrGr1Ew3TRojCf1H4lyhbCoW6cQ4pi69lc2G55-c7gyvRftCsDjdhaMxO6EShF35xZQASpq1cOVLMvDqBNNgfDU4EY-Q2gIZIYaMHtwpHWyASBANw4WnD33KWGElItFK_rjwPO8xABKC4YiOB3ijWOEWaVw0WP3TT8NKu8_T5vZPzUE3QN6-Dt4t_AgHT3waG2MLVh8L7cO8WS_lNViPh5-x4X2d0Vzpl8rA-7xBBG5O84KKd0EzVTIzsQhUxCyPpcY6RLLZeJdyY2QQ5E9u3Ux6ToO9sZW8NN0IzQWIQAPwxw15lGBlBxduEPMQK50BmthEMfBhzkOAK8uHiXgAUYrERK2IMJl9OacSXUKfunar95vJT5wPGS1totIT2qjHjyEhcbbkzobXBmQdWVuD7xbMjCbIx1Z9xG2lQV9vZZcyNb0kQ2AWPJ7awVAKPAlFyWK-1hPY06jgmIETIdqVtpTmu_lc5WLvX5wk2tc36EXVTx-Hyeyos1FMxi5bkJxaQvzs83TWxdIOyIv6HOP_dWHvuuLEYGIqmQjy9mubtCzQ8GO2fsbVDOAdn5_MRHWUSlI5jPO7q9DZmkMme9iXuWbSO8BC_DtKyomlFykrwoan1nRE2XVD_r99Ffz3zkEEsMgxrSbnWnqNcw3XOURlbID0IZs0kG_Lhzx5jIy_fQ2SX-NzxpIbGByd2xjZMEz6E8UIc74BimebHI1RiGXOBdt9cRq9cDJyBcL3nAwok9unEfrAapa4VRuN_H5M3qsEQyaAJmTFBozDZFFbqT_SIZsz7dt-VD9ODf4f1LOl7exjnM1RNj-xePZqdYuiyHSa3JK3SyxA_R7QbKY8BLw06TiJ-gTPdMjFORism4PxpIRilSVLESOYQkvBJVHzKwmBYyzRzBmwVKvxPwSUEyPOoiNA-gqb-JQDtw96d7-6YgkhPDfRBK-_lbWVX-psd3gDl166E2QnNtaTNZEVuciNPBnpqNV3lTxmNemtynBNz031kYNTri8jxoXuakn1lnLPdaDFtVK_MLO_suL1U73xsbzlgoQ3hKaqNi2d5RsJC-e4Hn3HDVuEb4u_mGI5dMsjsMLOF7_9memydkw0u74JHJCpEYSDdnBTQzpzDLOAyhE_RB-XAZfMlxqVCC3f-H0d9MCrEkdvXrgHJx8RFrBowPDCyEFY1LAy_8t_HPGSx1dmPHNU6NdXBbh2H60mdME-lLDg6ZAfv6J3hpyfgRr5B2HmaclmfbJNcrXwhkluyN5DitVqRfdF4Psw5gDROxM__0W00]--></g></svg>